<?xml version="1.0" encoding="utf-8"?>
<!-- Generator: Adobe Illustrator 16.0.3, SVG Export Plug-In . SVG Version: 6.00 Build 0)  -->
<!DOCTYPE svg PUBLIC "-//W3C//DTD SVG 1.1//EN" "http://www.w3.org/Graphics/SVG/1.1/DTD/svg11.dtd">
<svg version="1.1" xmlns="http://www.w3.org/2000/svg" xmlns:xlink="http://www.w3.org/1999/xlink" x="0px" y="0px" width="150px"
	 height="150px" viewBox="0 0 150 150" enable-background="new 0 0 150 150" xml:space="preserve">
<g id="Background">
</g>
<g id="Capa_3">
	<g id="clasicas_04">
		<rect fill-rule="evenodd" clip-rule="evenodd" fill="#FFFFFF" width="150" height="150"/>
		<path fill="#AD3B59" d="M16.725,50.576l0.518,3.339c0.033,0.207,0.164,0.385,0.354,0.476l3.045,1.467
			c0.475,0.229,0.48,0.903,0.01,1.141l-3.016,1.524c-0.188,0.094-0.315,0.274-0.344,0.482l-0.454,3.349
			c-0.071,0.522-0.71,0.737-1.081,0.363l-2.383-2.398c-0.146-0.148-0.358-0.215-0.564-0.178l-3.325,0.603
			c-0.519,0.094-0.92-0.448-0.679-0.917l1.544-3.006c0.096-0.187,0.094-0.408-0.006-0.592l-1.601-2.976
			c-0.25-0.464,0.141-1.014,0.662-0.929l3.336,0.54c0.206,0.034,0.416-0.037,0.561-0.188l2.336-2.442
			C16.002,49.853,16.645,50.055,16.725,50.576z"/>
		<path fill="#AD3B59" d="M56.101,9.539l0.518,3.339c0.033,0.207,0.164,0.385,0.354,0.476l3.045,1.467
			c0.475,0.229,0.48,0.903,0.01,1.141l-3.016,1.524c-0.188,0.094-0.315,0.274-0.344,0.482l-0.454,3.349
			c-0.071,0.522-0.71,0.737-1.081,0.363l-2.383-2.398c-0.146-0.148-0.358-0.215-0.564-0.178l-3.325,0.603
			c-0.519,0.094-0.92-0.448-0.679-0.917l1.544-3.006c0.096-0.187,0.094-0.408-0.006-0.592l-1.601-2.976
			c-0.25-0.464,0.141-1.014,0.662-0.929l3.336,0.54c0.206,0.034,0.416-0.037,0.561-0.188l2.336-2.442
			C55.378,8.816,56.021,9.018,56.101,9.539z"/>
		<path fill="#AD3B59" d="M139.391,9.539l0.518,3.339c0.033,0.207,0.164,0.385,0.354,0.476l3.045,1.467
			c0.475,0.229,0.48,0.903,0.01,1.141l-3.016,1.524c-0.188,0.094-0.315,0.274-0.344,0.482l-0.454,3.349
			c-0.071,0.522-0.71,0.737-1.081,0.363l-2.383-2.398c-0.146-0.148-0.358-0.215-0.564-0.178l-3.325,0.603
			c-0.519,0.094-0.92-0.448-0.679-0.917l1.544-3.006c0.096-0.187,0.094-0.408-0.006-0.592l-1.601-2.976
			c-0.25-0.464,0.141-1.014,0.662-0.929l3.336,0.54c0.206,0.034,0.416-0.037,0.561-0.188l2.336-2.442
			C138.668,8.816,139.311,9.018,139.391,9.539z"/>
		<path fill="#AD3B59" d="M123.197,45.792l0.518,3.339c0.033,0.207,0.164,0.385,0.354,0.476l3.045,1.467
			c0.475,0.229,0.48,0.903,0.01,1.141l-3.016,1.524c-0.188,0.094-0.315,0.274-0.344,0.482l-0.454,3.349
			c-0.071,0.522-0.71,0.737-1.081,0.363l-2.383-2.398c-0.146-0.148-0.358-0.215-0.564-0.178l-3.325,0.603
			c-0.519,0.094-0.92-0.448-0.679-0.917l1.544-3.006c0.096-0.187,0.094-0.408-0.006-0.592l-1.601-2.976
			c-0.25-0.464,0.141-1.014,0.662-0.929l3.336,0.54c0.206,0.034,0.416-0.037,0.561-0.188l2.336-2.442
			C122.475,45.068,123.117,45.271,123.197,45.792z"/>
		<g>
			<g>
				<path fill="#AD3B59" d="M12,18.492c1.279,0,1.279-1.984,0-1.984S10.721,18.492,12,18.492L12,18.492z"/>
			</g>
		</g>
		<g>
			<g>
				<path fill="#AD3B59" d="M30,39.492c1.279,0,1.279-1.984,0-1.984S28.721,39.492,30,39.492L30,39.492z"/>
			</g>
		</g>
		<g>
			<g>
				<path fill="#AD3B59" d="M11,108.492c1.279,0,1.279-1.984,0-1.984S9.721,108.492,11,108.492L11,108.492z"/>
			</g>
		</g>
		<g>
			<g>
				<path fill="#AD3B59" d="M28,133.492c1.279,0,1.279-1.984,0-1.984S26.721,133.492,28,133.492L28,133.492z"/>
			</g>
		</g>
		<g>
			<g>
				<path fill="#AD3B59" d="M76.5,49.992c1.279,0,1.279-1.984,0-1.984S75.221,49.992,76.5,49.992L76.5,49.992z"/>
			</g>
		</g>
		<g>
			<g>
				<path fill="#AD3B59" d="M90,13.492c1.279,0,1.279-1.984,0-1.984S88.721,13.492,90,13.492L90,13.492z"/>
			</g>
		</g>
		<g>
			<g>
				<path fill="#AD3B59" d="M98,72.992c1.279,0,1.279-1.984,0-1.984S96.721,72.992,98,72.992L98,72.992z"/>
			</g>
		</g>
		<g>
			<g>
				<path fill="#AD3B59" d="M77,83.492c1.279,0,1.279-1.984,0-1.984S75.721,83.492,77,83.492L77,83.492z"/>
			</g>
		</g>
		<g>
			<g>
				<path fill="#20442C" d="M37.26,60.286c-1.788,17.242,0.765,30.103,1.921,37.563c1.602-3.31,4.565-8.36,9.447-13.178
					c0.495-0.489,1.293-0.483,1.782,0.012c0.488,0.494,0.483,1.292-0.013,1.781c-7.59,7.492-10.343,15.782-10.371,15.864
					c-0.014,0.047-0.033,0.095-0.055,0.139c1.848,9.892,3.82,15.191,7.392,24.147c1.854-5.947,5.655-11.804,11.157-17.132
					c0.499-0.483,1.297-0.471,1.78,0.028c0.483,0.501,0.472,1.297-0.027,1.782c-4.33,4.19-9.767,10.911-11.285,19.23
					c1.156,2.679,2.694,6.838,5.052,10.375c0.271,0.433,0.246,0.967-0.02,1.368c-0.097,0.144-0.224,0.271-0.38,0.367
					c-0.589,0.371-1.365,0.192-1.736-0.397c-4.271-7.995-5.695-10.646-9.564-22.02c-6.429-4.161-13.164-5.281-17.721-5.481
					c-0.694-0.032-1.233-0.619-1.202-1.315c0.03-0.694,0.619-1.234,1.313-1.202c4.271,0.188,10.343,1.137,16.428,4.382
					c-1.471-3.925-3.593-13.342-4.111-16.423c-0.732-4.354-1.259-7.288-2.002-11.641c-2.224-1.521-5.15-2.694-8.712-3.491
					c-0.679-0.151-1.105-0.825-0.954-1.503c0.152-0.679,0.826-1.106,1.505-0.955c3.063,0.686,5.718,1.642,7.926,2.854
					c-0.411-6.801-0.354-22.535-0.057-25.416c0.074-0.691,0.692-1.193,1.384-1.123C36.829,58.974,37.332,59.593,37.26,60.286z"/>
				<g>
					<circle fill="#8D0F24" cx="35.832" cy="61.356" r="6.844"/>
					<path opacity="0.07" fill="#0F1010" d="M42.188,63.895c-1.62,4.046-6.541,5.562-10.149,3.159
						c-3.146-2.094-3.999-6.342-1.903-9.489c0.267-0.402,0.571-0.768,0.903-1.093c-1.18,2.942-0.182,6.407,2.563,8.233
						C36.346,66.531,39.928,66.116,42.188,63.895z"/>
					<path fill="none" stroke="#FFFFFF" stroke-width="0.4723" stroke-linecap="round" stroke-miterlimit="10" d="M35.182,56.893
						c0,0,1.869-0.854,3.91,1.348"/>
				</g>
				<g>
					<circle fill="#8D0F24" cx="22.639" cy="81.962" r="6.843"/>
					<path opacity="0.07" fill="#0F1010" d="M28.996,84.501c-1.62,4.047-6.541,5.562-10.149,3.159
						c-3.146-2.096-3.999-6.344-1.905-9.491c0.269-0.402,0.573-0.766,0.903-1.091c-1.178,2.942-0.18,6.407,2.564,8.233
						S26.734,86.723,28.996,84.501z"/>
					<path fill="none" stroke="#FFFFFF" stroke-width="0.4723" stroke-linecap="round" stroke-miterlimit="10" d="M21.989,77.5
						c0,0,1.867-0.854,3.91,1.346"/>
				</g>
				<g>
					<circle fill="#8D0F24" cx="50.015" cy="85.835" r="6.844"/>
					<path opacity="0.07" fill="#0F1010" d="M56.372,88.374c-1.62,4.046-6.54,5.562-10.149,3.159
						c-3.146-2.093-3.999-6.342-1.903-9.488c0.267-0.403,0.571-0.769,0.903-1.094c-1.18,2.943-0.18,6.407,2.563,8.234
						C50.529,91.01,54.112,90.596,56.372,88.374z"/>
					<path fill="none" stroke="#FFFFFF" stroke-width="0.4723" stroke-linecap="round" stroke-miterlimit="10" d="M49.366,81.372
						c0,0,1.868-0.854,3.909,1.349"/>
				</g>
				<g>
					<circle fill="#8D0F24" cx="24.972" cy="113.488" r="6.844"/>
					<path opacity="0.07" fill="#0F1010" d="M31.327,116.026c-1.619,4.046-6.539,5.562-10.147,3.159
						c-3.146-2.095-3.999-6.344-1.906-9.489c0.27-0.402,0.573-0.768,0.904-1.093c-1.178,2.942-0.18,6.407,2.564,8.233
						C25.486,118.663,29.068,118.248,31.327,116.026z"/>
					<path fill="none" stroke="#FFFFFF" stroke-width="0.4723" stroke-linecap="round" stroke-miterlimit="10" d="M24.322,109.024
						c0,0,1.867-0.854,3.909,1.347"/>
				</g>
				<g>
					<circle fill="#8D0F24" cx="59.219" cy="111.015" r="6.843"/>
					<path opacity="0.07" fill="#0F1010" d="M65.576,113.553c-1.62,4.048-6.541,5.562-10.149,3.16
						c-3.146-2.095-3.999-6.344-1.905-9.49c0.269-0.402,0.573-0.767,0.903-1.093c-1.178,2.944-0.18,6.407,2.564,8.235
						C59.733,116.191,63.314,115.776,65.576,113.553z"/>
					<path fill="none" stroke="#FFFFFF" stroke-width="0.4723" stroke-linecap="round" stroke-miterlimit="10" d="M58.569,106.551
						c0,0,1.867-0.854,3.91,1.348"/>
				</g>
			</g>
			<g>
				<path fill="#20442C" d="M128.812,80.694c-7.236,15.751-15.981,25.52-20.775,31.352c0.306-3.663,0.327-9.519-1.422-16.152
					c-0.178-0.671-0.866-1.074-1.538-0.896c-0.673,0.178-1.076,0.868-0.896,1.54c2.72,10.311,0.868,18.849,0.849,18.933
					c-0.012,0.049-0.018,0.1-0.022,0.149c-6.627,7.573-11.021,11.13-18.655,17.019c1.433-6.061,1.143-13.038-0.881-20.424
					c-0.185-0.671-0.877-1.067-1.549-0.882c-0.67,0.185-1.065,0.877-0.881,1.547c1.591,5.811,2.852,14.363-0.077,22.298
					c-2.36,1.717-5.801,4.514-9.629,6.358c-0.454,0.234-0.705,0.707-0.681,1.187c0.009,0.172,0.055,0.346,0.139,0.51
					c0.32,0.619,1.079,0.861,1.698,0.543c7.747-4.707,10.32-6.263,19.441-14.085c7.651-0.308,14.021,2.157,18.042,4.303
					c0.613,0.327,1.378,0.095,1.705-0.519c0.327-0.613,0.095-1.376-0.519-1.703c-3.772-2.015-9.481-4.287-16.37-4.591
					c3.264-2.63,9.884-9.656,11.898-12.044c2.848-3.374,4.794-5.63,7.65-9c2.688-0.176,5.804,0.306,9.273,1.433
					c0.663,0.214,1.373-0.148,1.588-0.809c0.214-0.663-0.147-1.373-0.809-1.587c-2.986-0.97-5.759-1.498-8.276-1.579
					c3.816-5.645,11.777-19.215,12.987-21.848c0.29-0.631,0.012-1.38-0.619-1.67C129.851,79.785,129.104,80.061,128.812,80.694z"/>
				<g>
					<circle fill="#8D0F24" cx="129.498" cy="82.342" r="6.843"/>
					<path opacity="0.07" fill="#0F1010" d="M122.733,81.29c-0.666,4.309,2.799,8.118,7.128,7.887
						c3.774-0.202,6.671-3.424,6.469-7.198c-0.024-0.483-0.101-0.951-0.22-1.401c-0.485,3.132-3.107,5.606-6.4,5.782
						C126.42,86.535,123.547,84.354,122.733,81.29z"/>
					<path fill="none" stroke="#FFFFFF" stroke-width="0.4723" stroke-linecap="round" stroke-miterlimit="10" d="M132.327,78.831
						c0,0-1.172-1.686-4.05-0.83"/>
				</g>
				<g>
					<circle fill="#8D0F24" cx="130.363" cy="106.794" r="6.843"/>
					<path opacity="0.07" fill="#0F1010" d="M123.6,105.743c-0.666,4.308,2.797,8.118,7.127,7.887c3.775-0.202,6.672-3.424,6.47-7.2
						c-0.026-0.481-0.102-0.951-0.221-1.399c-0.483,3.132-3.108,5.605-6.398,5.781C127.284,110.988,124.414,108.807,123.6,105.743z"
						/>
					<path fill="none" stroke="#FFFFFF" stroke-width="0.4723" stroke-linecap="round" stroke-miterlimit="10" d="M133.194,103.283
						c0,0-1.173-1.686-4.052-0.83"/>
				</g>
				<g>
					<circle fill="#8D0F24" cx="104.828" cy="96.191" r="6.843"/>
					<path opacity="0.07" fill="#0F1010" d="M98.064,95.14c-0.666,4.308,2.797,8.117,7.126,7.887c3.775-0.202,6.671-3.424,6.471-7.2
						c-0.026-0.481-0.103-0.951-0.222-1.399c-0.483,3.132-3.107,5.605-6.398,5.781C101.749,100.385,98.878,98.203,98.064,95.14z"/>
					<path fill="none" stroke="#FFFFFF" stroke-width="0.4723" stroke-linecap="round" stroke-miterlimit="10" d="M107.658,92.68
						c0,0-1.172-1.686-4.052-0.83"/>
				</g>
				<g>
					<circle fill="#8D0F24" cx="112.306" cy="132.742" r="6.843"/>
					<path opacity="0.07" fill="#0F1010" d="M105.544,131.689c-0.666,4.309,2.797,8.118,7.126,7.886
						c3.774-0.2,6.673-3.424,6.471-7.198c-0.026-0.481-0.103-0.951-0.222-1.401c-0.483,3.134-3.107,5.607-6.398,5.783
						C109.229,136.935,106.357,134.753,105.544,131.689z"/>
					<path fill="none" stroke="#FFFFFF" stroke-width="0.4723" stroke-linecap="round" stroke-miterlimit="10" d="M115.138,129.23
						c0,0-1.174-1.688-4.052-0.83"/>
				</g>
				<g>
					<circle fill="#8D0F24" cx="84.088" cy="113.179" r="6.843"/>
					<path opacity="0.07" fill="#0F1010" d="M77.324,112.127c-0.667,4.309,2.798,8.118,7.128,7.886
						c3.773-0.201,6.671-3.423,6.469-7.198c-0.025-0.482-0.101-0.951-0.22-1.399c-0.485,3.132-3.108,5.605-6.4,5.781
						C81.01,117.372,78.138,115.191,77.324,112.127z"/>
					<path fill="none" stroke="#FFFFFF" stroke-width="0.4723" stroke-linecap="round" stroke-miterlimit="10" d="M86.918,109.668
						c0,0-1.173-1.686-4.05-0.83"/>
				</g>
			</g>
		</g>
	</g>
	<rect x="66.586" y="33.423" fill="none" width="35" height="44"/>
	<text transform="matrix(1 0 0 1 66.5859 59.4736)" fill="#8D0F24" font-family="'Corben-Regular'" font-size="36">4</text>
</g>
</svg>
