<?xml version="1.0" encoding="utf-8"?>
<!-- Generator: Adobe Illustrator 16.0.3, SVG Export Plug-In . SVG Version: 6.00 Build 0)  -->
<!DOCTYPE svg PUBLIC "-//W3C//DTD SVG 1.1//EN" "http://www.w3.org/Graphics/SVG/1.1/DTD/svg11.dtd">
<svg version="1.1" id="Capa_1" xmlns="http://www.w3.org/2000/svg" xmlns:xlink="http://www.w3.org/1999/xlink" x="0px" y="0px"
	 width="150px" height="150px" viewBox="0 0 150 150" enable-background="new 0 0 150 150" xml:space="preserve">
<g id="Background">
</g>
<g id="Capa_3">
	<g id="clasicas_14">
		<g>
			<path fill="#03532E" d="M183.475,132.923c0.008,0.106-0.035,0.213-0.135,0.285c0.036,0.047,0.074,0.093,0.11,0.142
				c0.114,0.149,0.073,0.318-0.03,0.435c0.324,0.132,0.648,0.261,0.977,0.396C184.061,133.686,183.639,133.139,183.475,132.923"/>
		</g>
	</g>
	<g id="clasicas_13">
		<rect fill="#CFA471" width="150" height="150"/>
		<g>
			<g>
				<path fill="#20442C" d="M31.842,108.208c0,0,27.449-39.152,38.75-42.592c11.305-3.441,18.563-1.712,26.557,8.819
					c11.578,15.25,27.453,40.424,28.656,46.733c1.381,7.246-1.904,16.331-16.67,12.359c0,0-5.927,14.617-20.584,3.553
					c0,0-6.722,9.141-15.27,6.955c-8.549-2.188-10.269-7.838-10.269-7.838s-5.659,8.074-14.36,5.174
					c-6.67-2.223-5.871-11.672-5.871-11.672s-8.289,6.346-13.018,3.009C21.429,126.829,25.416,117.011,31.842,108.208z"/>
				<path fill="#356D47" d="M44.731,79.355c0,0,19.472-27.771,27.489-30.211c8.016-2.44,13.167-1.214,18.836,6.256
					c8.211,10.819,19.476,28.675,20.325,33.15c0.979,5.14-1.35,11.584-11.821,8.767c0,0-4.205,10.369-14.604,2.521
					c0,0-4.768,6.482-10.832,4.932c-6.063-1.551-7.284-5.559-7.284-5.559s-4.014,5.729-10.185,3.67
					c-4.732-1.576-4.165-8.279-4.165-8.279s-5.88,4.504-9.233,2.135C37.347,92.563,40.176,85.6,44.731,79.355z"/>
				<path fill="#428958" d="M53.347,54.292c0,0,14.159-20.195,19.989-21.97c5.83-1.774,9.574-0.882,13.696,4.55
					c5.972,7.866,14.161,20.852,14.782,24.105c0.711,3.739-0.982,8.425-8.599,6.376c0,0-3.059,7.54-10.616,1.833
					c0,0-3.469,4.714-7.878,3.587c-4.41-1.128-5.297-4.043-5.297-4.043s-2.918,4.166-7.408,2.669
					c-3.438-1.147-3.027-6.021-3.027-6.021s-4.275,3.274-6.716,1.553C47.976,63.897,50.033,58.832,53.347,54.292z"/>
			</g>
			<g>
				<path fill="#FEFFFB" d="M79.035,21.748l1.503,3.395c0.131,0.295,0.399,0.507,0.717,0.567l3.649,0.686
					c0.799,0.151,1.078,1.153,0.475,1.696l-2.766,2.479c-0.239,0.216-0.359,0.537-0.317,0.857l0.474,3.682
					c0.104,0.808-0.762,1.383-1.465,0.975l-3.212-1.862c-0.278-0.162-0.622-0.177-0.913-0.039l-3.354,1.59
					c-0.736,0.349-1.553-0.297-1.381-1.094l0.779-3.63c0.066-0.316-0.024-0.645-0.246-0.88l-2.55-2.7
					c-0.558-0.592-0.195-1.567,0.614-1.65l3.693-0.381c0.322-0.033,0.606-0.223,0.76-0.506l1.779-3.258
					C77.666,20.959,78.707,21.003,79.035,21.748z"/>
			</g>
			<g>
				<g>
					<circle fill="#A02545" cx="64.495" cy="60.351" r="4.054"/>
					<path opacity="0.1" fill="#434140" enable-background="new    " d="M68.012,62.368c-0.137,0.239-0.299,0.467-0.491,0.681
						c-1.49,1.671-4.052,1.818-5.724,0.328c-1.672-1.489-1.818-4.053-0.328-5.724c0.189-0.214,0.398-0.403,0.62-0.566
						c-0.935,1.628-0.637,3.744,0.821,5.042C64.366,63.428,66.503,63.482,68.012,62.368z"/>
					<circle fill="#FFFFFF" cx="66.386" cy="58.576" r="0.77"/>
				</g>
				<g>
					<circle fill="#8D0F24" cx="86.695" cy="56.327" r="4.054"/>
					<path opacity="0.1" fill="#434140" enable-background="new    " d="M90.213,58.344c-0.136,0.239-0.299,0.467-0.49,0.681
						c-1.49,1.671-4.054,1.818-5.725,0.328c-1.672-1.489-1.816-4.052-0.328-5.724c0.189-0.214,0.398-0.403,0.62-0.567
						c-0.935,1.628-0.638,3.745,0.819,5.044C86.566,59.405,88.704,59.459,90.213,58.344z"/>
					<circle fill="#FFFFFF" cx="88.587" cy="54.553" r="0.77"/>
				</g>
				<g>
					<circle fill="#D8B187" cx="50.831" cy="85.444" r="4.054"/>
					<path opacity="0.1" fill="#434140" enable-background="new    " d="M54.348,87.461c-0.137,0.239-0.299,0.466-0.49,0.682
						c-1.49,1.672-4.054,1.817-5.725,0.327c-1.672-1.489-1.818-4.052-0.328-5.724c0.189-0.214,0.398-0.402,0.62-0.564
						c-0.935,1.627-0.637,3.742,0.821,5.041C50.702,88.523,52.839,88.576,54.348,87.461z"/>
					<circle fill="#FFFFFF" cx="52.722" cy="83.669" r="0.771"/>
				</g>
				<g>
					<circle fill="#A02545" cx="45.469" cy="115.729" r="4.054"/>
					<path opacity="0.1" fill="#434140" enable-background="new    " d="M48.988,117.745c-0.139,0.239-0.302,0.468-0.493,0.683
						c-1.49,1.67-4.052,1.818-5.724,0.328c-1.67-1.49-1.818-4.053-0.328-5.724c0.189-0.214,0.398-0.404,0.62-0.567
						c-0.935,1.629-0.638,3.743,0.821,5.043C45.34,118.807,47.477,118.861,48.988,117.745z"/>
					<circle fill="#FFFFFF" cx="47.36" cy="113.955" r="0.77"/>
				</g>
				<g>
					<circle fill="#20442C" cx="73.539" cy="89.623" r="4.054"/>
					<path opacity="0.1" fill="#434140" enable-background="new    " d="M77.059,91.639c-0.14,0.238-0.303,0.467-0.492,0.682
						c-1.489,1.671-4.053,1.818-5.726,0.328c-1.671-1.489-1.818-4.054-0.328-5.726c0.191-0.212,0.4-0.401,0.622-0.565
						c-0.937,1.629-0.639,3.744,0.818,5.043C73.412,92.7,75.547,92.755,77.059,91.639z"/>
					<circle fill="#FFFFFF" cx="75.431" cy="87.848" r="0.77"/>
				</g>
				<g>
					<circle fill="#8D0F24" cx="91.557" cy="112.854" r="4.054"/>
					<path opacity="0.1" fill="#434140" enable-background="new    " d="M95.074,114.871c-0.139,0.238-0.301,0.469-0.492,0.681
						c-1.488,1.673-4.053,1.82-5.725,0.33c-1.67-1.489-1.818-4.054-0.328-5.726c0.191-0.213,0.4-0.402,0.621-0.565
						c-0.937,1.628-0.639,3.743,0.82,5.043S93.563,115.988,95.074,114.871z"/>
					<circle fill="#FFFFFF" cx="93.447" cy="111.079" r="0.771"/>
				</g>
				<g>
					<circle fill="#D8B187" cx="67.352" cy="125.416" r="4.054"/>
					<path opacity="0.1" fill="#434140" enable-background="new    " d="M70.869,127.434c-0.137,0.238-0.3,0.467-0.491,0.681
						c-1.49,1.672-4.054,1.817-5.724,0.327c-1.672-1.489-1.818-4.051-0.328-5.724c0.189-0.214,0.398-0.401,0.62-0.567
						c-0.935,1.629-0.637,3.746,0.821,5.043C67.224,128.495,69.358,128.548,70.869,127.434z"/>
					<circle fill="#FFFFFF" cx="69.243" cy="123.641" r="0.769"/>
				</g>
				<g>
					<circle fill="#A02545" cx="100.116" cy="83.158" r="4.054"/>
					<path opacity="0.1" fill="#434140" enable-background="new    " d="M103.633,85.173c-0.137,0.239-0.3,0.468-0.49,0.683
						c-1.49,1.67-4.055,1.818-5.725,0.328c-1.672-1.49-1.818-4.054-0.328-5.726c0.189-0.212,0.398-0.401,0.62-0.563
						c-0.937,1.627-0.637,3.744,0.819,5.043C99.986,86.234,102.122,86.29,103.633,85.173z"/>
					<circle fill="#FFFFFF" cx="102.007" cy="81.383" r="0.769"/>
				</g>
				<g>
					<circle fill="#A02545" cx="112.152" cy="124.991" r="4.054"/>
					<path opacity="0.1" fill="#434140" enable-background="new    " d="M115.672,127.009c-0.137,0.237-0.302,0.466-0.49,0.681
						c-1.49,1.672-4.055,1.818-5.725,0.328c-1.672-1.49-1.82-4.053-0.33-5.724c0.191-0.214,0.4-0.403,0.622-0.567
						c-0.937,1.629-0.64,3.746,0.819,5.043C112.025,128.07,114.161,128.124,115.672,127.009z"/>
					<circle fill="#FFFFFF" cx="114.045" cy="123.217" r="0.77"/>
				</g>
			</g>
		</g>
	</g>
	<rect x="-59.118" y="10.719" fill="none" width="75" height="51"/>
	<rect x="13.44" y="11.507" fill="none" width="94" height="73"/>
	<text transform="matrix(1 0 0 1 13.4404 37.5576)" fill="#20442C" font-family="'Corben-Regular'" font-size="36">13</text>
</g>
</svg>
