<?xml version="1.0" encoding="utf-8"?>
<!-- Generator: Adobe Illustrator 16.0.3, SVG Export Plug-In . SVG Version: 6.00 Build 0)  -->
<!DOCTYPE svg PUBLIC "-//W3C//DTD SVG 1.1//EN" "http://www.w3.org/Graphics/SVG/1.1/DTD/svg11.dtd">
<svg version="1.1" xmlns="http://www.w3.org/2000/svg" xmlns:xlink="http://www.w3.org/1999/xlink" x="0px" y="0px" width="150px"
	 height="150px" viewBox="0 0 150 150" enable-background="new 0 0 150 150" xml:space="preserve">
<g id="Background">
</g>
<g id="Capa_3">
	<g id="Clasicas_03">
		<rect fill-rule="evenodd" clip-rule="evenodd" fill="#CFA471" width="150" height="150"/>
		<g>
			<defs>
				<rect id="SVGID_65_" x="15.805" y="28.608" width="121.391" height="121.392"/>
			</defs>
			<clipPath id="SVGID_2_">
				<use xlink:href="#SVGID_65_"  overflow="visible"/>
			</clipPath>
			<g clip-path="url(#SVGID_2_)">
				<g>
					<path fill="#20442C" d="M28.391,150.557v-36.863c0-27.041,21.921-48.963,48.963-48.963c27.041,0,48.963,21.922,48.963,48.963
						v37.433"/>
				</g>
				<g>
					<path fill="#FFFCFF" d="M121.35,115.431c0-12.057-9.775-21.832-21.832-21.832c-9.162,0-16.998,5.644-20.237,13.642
						c-0.276,0.681-1.213,0.681-1.488,0c-3.24-7.998-11.077-13.642-20.237-13.642c-11.271,0-20.547,8.543-21.707,19.507l0,0
						l-0.003,0.013c-0.062,0.599-0.097,1.207-0.108,1.819l-1.123,22.27c0,0,14.043,13.334,43.145,13.337
						c30.66,0.004,43.846-13.685,43.846-13.685L121.35,115.431z"/>
					<path fill="#AD3B59" d="M77.827,120.23c-2.556,0-4.629-4.397-4.629-6.315c0-1.916,2.073-3.469,4.629-3.469
						c2.558,0,4.632,1.553,4.632,3.469C82.459,115.833,80.385,120.23,77.827,120.23z"/>
					
						<path fill="none" stroke="#24413C" stroke-width="1.5008" stroke-linecap="round" stroke-linejoin="round" stroke-miterlimit="10" d="
						M54.188,111.696c-0.014-2.071,1.102-3.759,2.49-3.768s2.525,1.664,2.537,3.735"/>
					<ellipse fill="#E0BD96" cx="47.065" cy="118.321" rx="6.7" ry="5.213"/>
					
						<path fill="none" stroke="#24413C" stroke-width="1.5008" stroke-linecap="round" stroke-linejoin="round" stroke-miterlimit="10" d="
						M101.295,111.696c0.014-2.071-1.102-3.759-2.49-3.768s-2.523,1.664-2.537,3.735"/>
					<ellipse fill="#E0BD96" cx="108.417" cy="118.321" rx="6.7" ry="5.213"/>
				</g>
				<g>
					<g>
						<g>
							<g>
								<path fill="#72C3C7" d="M72.428,154.598c-14.367,17.561-10.133,22.165-13.187,31.515c-0.565,1.729-1.124,3.655-0.372,5.312
									c0.658,1.452,2.156,2.31,3.598,2.994c6.264,2.975,13.207,4.506,20.142,4.438c0.944-0.009,1.975-0.081,2.672-0.718
									c0.703-0.643,0.862-1.673,0.991-2.618c2.719-19.982,2.492-20.547,10.246-39.163c0.553-1.327,1.119-2.719,0.998-4.153
									c-0.09-1.096-0.578-2.118-1.117-3.079c-1.98-3.524-6.261,3.709-10.059,2.322C82.543,150.06,75.032,151.506,72.428,154.598"
									/>
							</g>
						</g>
						<g>
							<defs>
								<path id="SVGID_67_" d="M76.567,143.496c-14.366,17.562-14.272,33.267-17.326,42.617c-0.565,1.729-1.124,3.655-0.372,5.312
									c0.658,1.452,2.156,2.31,3.598,2.994c6.264,2.975,13.207,4.506,20.142,4.438c0.944-0.009,1.975-0.081,2.672-0.718
									c0.703-0.643,0.862-1.673,0.991-2.618c2.719-19.982,2.492-20.547,10.246-39.163c0.553-1.327,1.119-2.719,0.998-4.153
									c-0.09-1.096-0.578-2.118-1.117-3.079c-1.98-3.524-4.91-6.687-8.707-8.074C83.893,139.666,79.174,140.405,76.567,143.496"/>
							</defs>
							<clipPath id="SVGID_4_">
								<use xlink:href="#SVGID_67_"  overflow="visible"/>
							</clipPath>
						</g>
					</g>
					<g>
						<g>
							<path fill="#72C3C7" d="M112.76,149.558c11.198,19.733,8.457,35.196,9.892,44.927c0.265,1.8,0.491,3.792-0.53,5.3
								c-0.893,1.32-2.516,1.912-4.051,2.342c-6.675,1.878-13.779,2.215-20.603,0.979c-0.929-0.168-1.933-0.413-2.513-1.157
								c-0.584-0.753-0.568-1.794-0.535-2.748c0.691-20.153,1.01-20.673-3.492-40.329c-0.321-1.402-0.645-2.87-0.286-4.263
								c0.275-1.065,0.929-1.991,1.622-2.846c2.545-3.141,5.967-5.763,9.944-6.489C106.186,144.545,110.713,146.071,112.76,149.558"
								/>
						</g>
					</g>
					<path fill="#AD3B59" d="M126.475,127.544c0,0,2.912,0.442,4.18,3.709c2.521,6.5-0.768,9.634-0.768,9.634
						s-0.415-0.441,1.605,3.583c2.02,4.022,2.614,7.33-1.148,12.542c-3.266,4.522-47.935,23.019-79.019,9.876
						c-31.085-13.143-33.383-14.856-33.156-18.74s3.412-9.788,4.27-11.373c0.858-1.585,1.352-9.146,3.99-11.495
						c2.096-1.865,1.285-1.144,1.962-1.746c0,0,2.324,4.447,3.947,5.956c5.738,5.339,23.698,15.853,48.618,14.528
						C117.611,142.069,126.475,127.544,126.475,127.544z"/>
					<g>
						<defs>
							<path id="SVGID_69_" d="M112.76,149.558c11.198,19.733,8.457,35.196,9.892,44.927c0.265,1.8,0.491,3.792-0.53,5.3
								c-0.893,1.32-2.516,1.912-4.051,2.342c-6.675,1.878-13.779,2.215-20.603,0.979c-0.929-0.168-1.933-0.413-2.513-1.157
								c-0.584-0.753-0.568-1.794-0.535-2.748c0.691-20.153,1.01-20.673-3.492-40.329c-0.321-1.402-0.645-2.87-0.286-4.263
								c0.275-1.065,0.929-1.991,1.622-2.846c2.545-3.141,5.967-5.763,9.944-6.489C106.186,144.545,110.713,146.071,112.76,149.558"
								/>
						</defs>
						<clipPath id="SVGID_6_">
							<use xlink:href="#SVGID_69_"  overflow="visible"/>
						</clipPath>
					</g>
					<g>
						<defs>
							<path id="SVGID_71_" d="M126.475,127.544c0,0,2.912,0.442,4.18,3.709c2.521,6.5-0.768,9.634-0.768,9.634
								s-0.415-0.441,1.605,3.583c2.02,4.022,2.614,7.33-1.148,12.542c-3.266,4.522-47.935,23.019-79.019,9.876
								c-31.085-13.143-33.383-14.856-33.156-18.74s3.412-9.788,4.27-11.373c0.858-1.585,1.352-9.146,3.99-11.495
								c2.096-1.865,1.285-1.144,1.962-1.746c0,0,2.291,4.504,4.371,6.372c5.682,5.101,24.742,16.157,50.145,13.994
								C119.48,140.785,126.475,127.544,126.475,127.544z"/>
						</defs>
						<clipPath id="SVGID_8_">
							<use xlink:href="#SVGID_71_"  overflow="visible"/>
						</clipPath>
						<g clip-path="url(#SVGID_8_)">
							<path fill="#8D0F24" d="M22.553,158.653c-0.102,0-0.203-0.004-0.307-0.012c-2.058-0.166-3.592-1.97-3.425-4.028
								c0.384-4.762,3.626-12.631,7.541-18.303c3.635-5.265,6.711-13.226,6.743-13.307c0.74-1.928,2.906-2.89,4.831-2.15
								c1.928,0.741,2.89,2.905,2.149,4.833c-0.139,0.359-3.433,8.881-7.569,14.873c-3.737,5.416-6.026,11.993-6.241,14.657
								C26.117,157.17,24.481,158.653,22.553,158.653z"/>
						</g>
						<g clip-path="url(#SVGID_8_)">
							<path fill="#8D0F24" d="M35.375,166.405c-2.066,0-3.74-1.674-3.74-3.74c0-4.78,2.599-12.883,6.045-18.851
								c3.199-5.542,5.625-13.724,5.65-13.806c0.583-1.982,2.66-3.116,4.644-2.533c1.98,0.584,3.114,2.663,2.531,4.644
								c-0.11,0.371-2.707,9.129-6.349,15.435c-3.29,5.698-5.042,12.437-5.042,15.111C39.114,164.73,37.439,166.405,35.375,166.405z
								"/>
						</g>
						<g clip-path="url(#SVGID_8_)">
							<path fill="#8D0F24" d="M47.73,172.307c-2.065,0-3.738-1.673-3.738-3.738c0-4.78,2.599-12.885,6.044-18.853
								c3.199-5.54,5.625-13.724,5.648-13.805c0.583-1.982,2.66-3.116,4.644-2.533c1.982,0.583,3.114,2.662,2.531,4.642
								c-0.108,0.371-2.707,9.13-6.346,15.435c-3.291,5.698-5.043,12.438-5.043,15.113C51.471,170.634,49.796,172.307,47.73,172.307
								z"/>
						</g>
						<g clip-path="url(#SVGID_8_)">
							<path fill="#8D0F24" d="M64.022,177.139c-1.778,0-3.354-1.274-3.677-3.086c-0.835-4.702,0.309-13.137,2.66-19.616
								c2.177-5.997,3.144-14.498,3.152-14.583c0.23-2.052,2.07-3.545,4.131-3.3c2.051,0.229,3.53,2.076,3.302,4.128
								c-0.041,0.382-1.071,9.461-3.554,16.305c-2.247,6.186-2.795,13.128-2.328,15.76c0.362,2.033-0.994,3.973-3.027,4.334
								C64.459,177.12,64.239,177.139,64.022,177.139z"/>
						</g>
						<g clip-path="url(#SVGID_8_)">
							<path fill="#8D0F24" d="M81.662,180.054c-1.482,0-2.886-0.889-3.472-2.348c-1.781-4.434-2.39-12.924-1.415-19.746
								c0.899-6.315,0.105-14.832,0.097-14.918c-0.196-2.055,1.312-3.88,3.366-4.078c2.048-0.185,3.881,1.308,4.08,3.365
								c0.036,0.384,0.889,9.479-0.14,16.688c-0.931,6.514-0.044,13.422,0.952,15.904c0.77,1.916-0.161,4.094-2.077,4.863
								C82.597,179.966,82.125,180.054,81.662,180.054z"/>
						</g>
						<g clip-path="url(#SVGID_8_)">
							<path fill="#8D0F24" d="M99.24,176.417c-1.273,0-2.514-0.649-3.214-1.822c-2.449-4.102-4.374-12.393-4.477-19.283
								c-0.094-6.376-2.206-14.667-2.228-14.75c-0.514-2.001,0.689-4.039,2.69-4.554c1.997-0.511,4.037,0.688,4.552,2.688
								c0.096,0.374,2.356,9.226,2.465,16.506c0.097,6.579,2.048,13.263,3.418,15.56c1.059,1.772,0.48,4.068-1.294,5.127
								C100.555,176.247,99.894,176.417,99.24,176.417z"/>
						</g>
						<g clip-path="url(#SVGID_8_)">
							<path fill="#8D0F24" d="M116.285,170.581c-1.121,0-2.229-0.502-2.965-1.458c-2.915-3.787-5.803-11.792-6.717-18.623
								c-0.845-6.322-3.92-14.306-3.95-14.386c-0.745-1.925,0.21-4.091,2.134-4.837c1.922-0.749,4.092,0.207,4.838,2.131
								c0.141,0.36,3.428,8.884,4.393,16.1c0.871,6.523,3.596,12.932,5.229,15.05c1.26,1.636,0.955,3.984-0.682,5.244
								C117.885,170.326,117.082,170.581,116.285,170.581z"/>
						</g>
						<g clip-path="url(#SVGID_8_)">
							<path fill="#8D0F24" d="M129.828,163.608c-1.07,0-2.131-0.457-2.87-1.34c-3.065-3.662-6.275-11.544-7.464-18.334
								c-1.102-6.305-4.492-14.136-4.525-14.215c-0.825-1.893,0.042-4.096,1.935-4.92c1.894-0.828,4.099,0.042,4.922,1.935
								c0.153,0.354,3.782,8.738,5.036,15.91c1.135,6.483,4.116,12.776,5.832,14.826c1.325,1.582,1.115,3.942-0.469,5.268
								C131.525,163.323,130.674,163.608,129.828,163.608z"/>
						</g>
					</g>
					<path opacity="0.07" fill="#43413F" d="M116.807,148.405c0,0-5.575,2.498-11.645,4.34c-6.066,1.841-9.332,2.035-18.786,2.068
						c-9.456,0.034-13.948-0.215-13.948-0.215s-0.404,0.545-0.056,0.938c0.351,0.393,3.381,1.236,8.112,1.806
						c4.73,0.571,8.623,0.523,13.721-0.208c5.097-0.731,20.352-4.069,23.782-6.422c3.433-2.351,3.503-3.561,3.106-3.822
						S116.807,148.405,116.807,148.405z"/>
					<path opacity="0.07" fill="#43413F" d="M33.311,138.234c0,0,1.433,2.555,4.896,4.428c3.009,1.627,5.625,2.78,8.481,3.533
						c2.859,0.751,7.805,2.786,8.818,3.453s0.911,1.857-0.105,1.797c-1.017-0.059-6.407-1.733-9.246-2.827
						s-9.662-3.768-11.502-5.836s-3-2.958-2.926-4.229C31.802,137.284,33.311,138.234,33.311,138.234z"/>
				</g>
			</g>
		</g>
	</g>
	<rect x="100" y="17.149" fill="none" width="42" height="58"/>
	<text transform="matrix(1 0 0 1 100 51.8838)" fill="#20442C" font-family="'Corben-Regular'" font-size="48">3</text>
</g>
</svg>
