<?xml version="1.0" encoding="utf-8"?>
<!-- Generator: Adobe Illustrator 16.0.3, SVG Export Plug-In . SVG Version: 6.00 Build 0)  -->
<!DOCTYPE svg PUBLIC "-//W3C//DTD SVG 1.1//EN" "http://www.w3.org/Graphics/SVG/1.1/DTD/svg11.dtd">
<svg version="1.1" xmlns="http://www.w3.org/2000/svg" xmlns:xlink="http://www.w3.org/1999/xlink" x="0px" y="0px" width="150px"
	 height="148.516px" viewBox="0 0 150 148.516" enable-background="new 0 0 150 148.516" xml:space="preserve">
<g id="Background">
</g>
<g id="Capa_3">
	<g id="clasicas_22">
		<rect fill-rule="evenodd" clip-rule="evenodd" fill="#FFFFFF" width="150" height="150"/>
		<g>
			<g>
				<polygon fill="#356D47" points="87.974,144.821 21.485,144.821 17.242,69.846 92.217,69.846 				"/>
				<g>
					<defs>
						<polygon id="SVGID_51_" points="87.974,144.821 21.485,144.821 17.242,69.846 92.217,69.846 						"/>
					</defs>
					<clipPath id="SVGID_2_">
						<use xlink:href="#SVGID_51_"  overflow="visible"/>
					</clipPath>
					<g clip-path="url(#SVGID_2_)">
						
							<line fill="none" stroke="#FFFFFF" stroke-width="6.0516" stroke-miterlimit="10" x1="112.839" y1="88.502" x2="32.457" y2="168.885"/>
						
							<line fill="none" stroke="#FFFFFF" stroke-width="6.0516" stroke-miterlimit="10" x1="95.445" y1="71.108" x2="15.063" y2="151.491"/>
						
							<line fill="none" stroke="#FFFFFF" stroke-width="6.0516" stroke-miterlimit="10" x1="78.051" y1="53.714" x2="-2.331" y2="134.096"/>
					</g>
					<g clip-path="url(#SVGID_2_)">
						<polygon fill="#CFA471" points="29.929,123.339 28.909,126.513 27.01,123.774 23.678,123.786 25.695,121.133 24.654,117.967 
							27.8,119.066 30.49,117.098 30.417,120.43 33.12,122.379 						"/>
						<polygon fill="#CFA471" points="39.241,114.203 38.222,117.377 36.322,114.638 32.989,114.65 35.007,111.997 33.966,108.831 
							37.112,109.93 39.802,107.961 39.729,111.293 42.433,113.243 						"/>
						<polygon fill="#CFA471" points="48.552,105.066 47.534,108.241 45.635,105.501 42.302,105.514 44.319,102.861 43.278,99.694 
							46.424,100.793 49.114,98.825 49.04,102.157 51.745,104.107 						"/>
						<polygon fill="#F2A444" points="57.864,95.93 56.847,99.104 54.946,96.365 51.613,96.377 53.631,93.724 52.59,90.558 
							55.736,91.658 58.426,89.688 58.353,93.021 61.056,94.97 						"/>
						<polygon fill="#CFA471" points="67.177,86.794 66.158,89.967 64.259,87.229 60.925,87.241 62.943,84.588 61.901,81.421 
							65.049,82.521 67.738,80.552 67.665,83.884 70.368,85.834 						"/>
					</g>
					<g clip-path="url(#SVGID_2_)">
						<polygon fill="#F2A444" points="12.007,106.868 10.988,110.042 9.089,107.302 5.757,107.314 7.774,104.661 6.733,101.496 
							9.879,102.594 12.569,100.625 12.495,103.958 15.198,105.908 						"/>
						<polygon fill="#CFA471" points="21.319,97.731 20.301,100.905 18.401,98.166 15.067,98.178 17.086,95.525 16.044,92.359 
							19.19,93.458 21.88,91.489 21.808,94.822 24.511,96.771 						"/>
						<polygon fill="#F2A444" points="30.631,88.594 29.613,91.769 27.714,89.03 24.38,89.042 26.397,86.389 25.356,83.223 
							28.503,84.322 31.192,82.353 31.119,85.686 33.822,87.635 						"/>
						<polygon fill="#F2A444" points="39.943,79.458 38.925,82.632 37.024,79.893 33.692,79.905 35.71,77.252 34.669,74.086 
							37.815,75.186 40.505,73.216 40.432,76.549 43.135,78.499 						"/>
						<polygon fill="#F2A444" points="49.255,70.322 48.237,73.496 46.337,70.757 43.004,70.769 45.022,68.116 43.98,64.95 
							47.128,66.049 49.816,64.081 49.743,67.413 52.447,69.362 						"/>
					</g>
					<g clip-path="url(#SVGID_2_)">
						<polygon fill="#CFA471" points="46.707,139.854 45.689,143.028 43.79,140.29 40.456,140.302 42.475,137.649 41.433,134.482 
							44.579,135.582 47.269,133.613 47.195,136.946 49.899,138.895 						"/>
						<polygon fill="#F2A444" points="56.02,130.718 55.001,133.892 53.102,131.153 49.769,131.165 51.786,128.513 50.745,125.346 
							53.892,126.446 56.581,124.477 56.508,127.809 59.211,129.758 						"/>
						<polygon fill="#CFA471" points="65.332,121.582 64.313,124.756 62.413,122.017 59.081,122.029 61.099,119.376 60.057,116.21 
							63.204,117.31 65.894,115.34 65.82,118.673 68.523,120.622 						"/>
						<polygon fill="#CFA471" points="74.644,112.446 73.625,115.62 71.726,112.88 68.393,112.893 70.411,110.24 69.369,107.074 
							72.517,108.172 75.205,106.205 75.132,109.536 77.836,111.486 						"/>
						<polygon fill="#CFA471" points="83.956,103.31 82.938,106.483 81.038,103.745 77.704,103.756 79.723,101.103 78.681,97.938 
							81.827,99.037 84.517,97.068 84.444,100.4 87.147,102.349 						"/>
					</g>
					<g clip-path="url(#SVGID_2_)">
						<polygon fill="#CFA471" points="73.238,147.498 72.22,150.671 70.319,147.933 66.987,147.945 69.005,145.292 67.964,142.125 
							71.11,143.225 73.8,141.255 73.727,144.588 76.43,146.538 						"/>
						<polygon fill="#CFA471" points="82.551,138.362 81.531,141.536 79.632,138.796 76.299,138.809 78.317,136.155 77.275,132.99 
							80.423,134.088 83.112,132.12 83.039,135.452 85.742,137.401 						"/>
						<polygon fill="#CFA471" points="91.862,129.226 90.844,132.399 88.944,129.66 85.611,129.672 87.629,127.019 86.587,123.853 
							89.733,124.952 92.423,122.983 92.351,126.316 95.054,128.265 						"/>
						<polygon fill="#F2A444" points="101.175,120.088 100.156,123.263 98.256,120.523 94.923,120.536 96.94,117.883 
							95.899,114.716 99.046,115.816 101.735,113.847 101.663,117.18 104.366,119.129 						"/>
					</g>
				</g>
				<path opacity="0.3" fill="#ADADAD" d="M22.882,89.556c0-6.868,1.06-13.488,3.017-19.71h-8.656l4.243,74.975h31.652
					C34.947,133.155,22.882,112.772,22.882,89.556z"/>
				<rect x="8.872" y="68.078" fill="#20442C" width="91.715" height="16.269"/>
				<path opacity="0.3" fill="#ADADAD" d="M21.091,68.078H8.872v16.269h40.939C36.71,80.248,26.614,74.606,21.091,68.078z"/>
				<g opacity="0.3">
					<path fill="#ADADAD" d="M71.707,77.435c-10.249-2.557-16.469-7.492-16.469-7.492s3.338,7.623,10.308,13.706
						c0.252,0.221,0.5,0.454,0.746,0.697h14.037C77.498,81.282,74.835,78.216,71.707,77.435z"/>
					<path fill="#ADADAD" d="M54.745,69.823c0,0-3.913,3.258-13.371,5.992c-3.926,1.135-6.897,5.067-10.466,8.531H44.04
						C51.967,77.762,54.745,69.823,54.745,69.823z"/>
				</g>
				<rect x="45.651" y="68.078" fill="#8D0F24" width="18.155" height="76.744"/>
				<path opacity="0.2" fill="#AE1F1F" d="M49.587,68.078h-3.936v76.744h10.525c-6.324-16.649-6.59-38.19-6.59-61.722
					C49.587,77.988,49.587,68.078,49.587,68.078z"/>
			</g>
			<g>
				<g opacity="0.5">
					<path fill="#AE1F1F" d="M54.741,68.342c-0.001,0.002-0.007,0.019-0.009,0.024c0.208,0.465,3.155,8.504,9.074,14.152v-9.16
						C58.242,71.031,54.97,68.521,54.741,68.342z"/>
					<path fill="#AE1F1F" d="M54.732,68.366c-0.003-0.006-0.007-0.015-0.009-0.019c-0.188,0.153-2.933,2.324-9.072,4.575v10.111
						C52.175,76.941,54.612,68.7,54.732,68.366z"/>
				</g>
				<g>
					<path fill="#AE1F1F" d="M85.856,37.455c-26.759,0-31.146,32.462-31.146,32.462c19.191-4.442,40.576-4.68,40.576-19.96
						L85.856,37.455z M59.58,63.649c4.184-4.287,11.302-9.63,22.206-12.188C80.799,56.047,76.551,63.417,59.58,63.649z"/>
					<path fill="#AE1F1F" d="M81.786,51.461c-0.987,4.585-5.235,11.955-22.206,12.188c-3.4,3.485-4.869,6.267-4.869,6.267
						c19.411-4.442,40.576-4.68,40.576-19.96C90.249,49.957,85.771,50.527,81.786,51.461z"/>
				</g>
				<g>
					<path fill="#8D0F24" d="M85.856,37.455c-26.759,0-31.146,32.462-31.146,32.462c19.191-4.442,40.576-4.68,40.576-19.96
						L85.856,37.455z"/>
					<path opacity="0.5" fill="#AE1F1F" d="M81.786,51.461c-0.987,4.585-5.235,11.955-22.206,12.188
						c-3.4,3.485-4.869,6.267-4.869,6.267c19.411-4.442,40.576-4.68,40.576-19.96C90.249,49.957,85.771,50.527,81.786,51.461z"/>
				</g>
				<g>
					<path fill="#8D0F24" d="M14.171,49.957c0,15.28,21.385,15.518,40.576,19.96c0,0-4.387-32.462-31.146-32.462L14.171,49.957z"/>
					<path opacity="0.5" fill="#AE1F1F" d="M27.672,51.461c0.987,4.585,5.235,11.955,22.206,12.188
						c3.401,3.485,4.869,6.267,4.869,6.267c-19.41-4.442-40.576-4.68-40.576-19.96C19.209,49.957,23.688,50.527,27.672,51.461z"/>
				</g>
				<path fill="#8D0F24" d="M54.711,65.858c0,0,3.338,7.622,10.308,13.706c8.044,7.021,11.776,26.204,24.493,22.046l-2.083-7.567
					l7.162-7.248C83.558,90.404,78.723,75.232,71.18,73.35C60.931,70.792,54.711,65.858,54.711,65.858z"/>
				<path fill="#8D0F24" d="M54.745,65.87c0,0-3.219,9.229-12.646,16.037c-6.367,4.599-5.849,15.938-19.202,19.033l1.803-8.504
					l-7.046-6.253c12.017,0.842,16.037-12.099,23.721-14.32C50.832,69.127,54.745,65.87,54.745,65.87z"/>
				<g>
					<path opacity="0.3" fill="#AE1F1F" d="M54.741,65.882c-0.001,0.002-0.007,0.019-0.009,0.024
						c0.167,0.373,2.63,6.026,7.802,11.395c-1.307-2.664-2.422-5.314-1.877-7.847C57.019,67.63,54.923,66.024,54.741,65.882z"/>
					<path opacity="0.3" fill="#AE1F1F" d="M54.724,65.887c-0.151,0.124-1.957,1.553-5.861,3.284c0.874,1.571,0.621,3.87,0,6.406
						c4.133-4.945,5.772-9.398,5.87-9.671C54.729,65.899,54.726,65.892,54.724,65.887z"/>
				</g>
				<path fill="#8D0F24" d="M56.252,70.308c-0.846-0.084-2.2-0.084-3.046,0c-0.385,0.039-0.702-0.297-0.652-0.68l0.67-5.235
					c0.04-0.314,0.328-0.532,0.641-0.484c0.498,0.077,1.231,0.077,1.73,0c0.313-0.047,0.6,0.17,0.641,0.484l0.67,5.235
					C56.954,70.011,56.638,70.347,56.252,70.308z"/>
			</g>
		</g>
	</g>
	<rect x="103.972" y="12.472" fill="none" width="67.333" height="61.333"/>
	<text transform="matrix(1 0 0 1 103.9717 38.5225)" fill="#8D0F24" font-family="'Corben-Regular'" font-size="36">22</text>
</g>
</svg>
