<?xml version="1.0" encoding="utf-8"?>
<!-- Generator: Adobe Illustrator 16.0.3, SVG Export Plug-In . SVG Version: 6.00 Build 0)  -->
<!DOCTYPE svg PUBLIC "-//W3C//DTD SVG 1.1//EN" "http://www.w3.org/Graphics/SVG/1.1/DTD/svg11.dtd">
<svg version="1.1" xmlns="http://www.w3.org/2000/svg" xmlns:xlink="http://www.w3.org/1999/xlink" x="0px" y="0px" width="150px"
	 height="150px" viewBox="0 0 150 150" enable-background="new 0 0 150 150" xml:space="preserve">
<g id="Background">
</g>
<g id="Capa_3">
	<g id="clasicas_10">
		<rect fill-rule="evenodd" clip-rule="evenodd" fill="#20442C" width="150" height="150"/>
		<g>
			<g>
				<g>
					<path fill="#8D0F24" d="M104.518,122.64c0,0,61.239-35.247,27.688-67.273c-25.196-24.052-34.993,1.474-38.309,15.676
						c-0.726,3.107-4.48,4.322-6.882,2.222c-6.791-5.945-17.519-9.465-16.969,28.394L104.518,122.64z"/>
					<path opacity="0.3" fill="#A31F1B" d="M89.381,79.703c2.458,2.035,6.155,0.886,6.881-2.221
						c3.316-14.203,13.783-41.126,38.98-17.074c1.831,1.748,3.361,3.511,4.649,5.279c-1.61-3.446-4.104-6.901-7.687-10.321
						c-25.196-24.052-34.993,1.474-38.309,15.676c-0.726,3.107-4.48,4.322-6.882,2.222c-6.791-5.945-17.519-9.465-16.969,28.394
						l3.786,2.304C73.809,70.623,79.665,71.659,89.381,79.703z"/>
					<path fill="#E0BD96" d="M103.647,138.778c-1.272,2.09-3.813,3.019-6.137,2.247c-4.479-1.489-12.364-4.604-22.091-10.523
						c-9.62-5.856-15.762-11.244-19.011-14.455c-1.729-1.708-2.051-4.373-0.787-6.449c3.76-3.835,7.142-8.856,8.244-13.544
						c1.637-2.689,5.33-3.224,7.643-1.088c3.727,3.442,9.724,8.452,17.512,13.192c7.911,4.816,15.401,7.973,20.319,9.78
						c2.96,1.088,4.194,4.598,2.554,7.292C108.186,128.477,104.769,135.229,103.647,138.778z"/>
					<path opacity="0.8" fill="#ADADAD" d="M82.692,114.156c0-2.566-1.911-4.619-4.289-4.954c14.643-25.86,4.61-27.984-3.634-26.55
						c-1.351,0.234-2.593-0.186-3.495-0.979c-0.602,3.282-1.016,7.345-1.174,12.377c-2.204-0.947-4.901-0.188-6.234,2.003
						c-1.103,4.688-4.484,9.709-8.244,13.544c-1.264,2.076-0.941,4.741,0.787,6.449c3.249,3.211,9.391,8.599,19.011,14.455
						c1.975,1.201,3.869,2.282,5.679,3.263c0.988-0.962,1.594-2.296,1.594-3.753"/>
				</g>
				<g>
					<path fill="#8D0F24" d="M30.641,118.182c0,0-33.983-61.948,11.328-71.86c34.028-7.443,29.125,19.453,24.573,33.309
						c-0.996,3.031,1.579,6.022,4.723,5.476c8.893-1.547,19.886,1.024-0.269,33.076H30.641z"/>
					<path fill="#941F1B" d="M43.766,54.144c0-2.753-0.344-5.426-0.984-7.98c-0.275,0.057-0.532,0.097-0.813,0.158
						c-22.589,4.941-25.47,22.814-22.68,39.498C33.369,82.162,43.766,69.368,43.766,54.144z"/>
					<path opacity="0.3" fill="#A31F1B" d="M47.751,51.053c8.774-1.919,14.945-1.543,19.216,0.291
						c-3.539-5.305-10.941-8.098-24.998-5.022c-45.312,9.912-11.328,71.86-11.328,71.86h3.431"/>
				</g>
			</g>
			<g>
				<path fill="#E0BD96" d="M22.992,132.42c0,2.447,1.688,4.562,4.073,5.11c4.601,1.057,12.955,2.497,24.342,2.497
					c11.263,0,19.311-1.409,23.755-2.463c2.364-0.561,4.025-2.669,4.025-5.099c-1.217-5.231-1.494-11.279,0-15.856
					c0-3.148-2.876-5.525-5.963-4.903c-4.972,1.003-12.7,2.164-21.817,2.164c-9.262,0-17.301-1.198-22.441-2.211
					c-3.094-0.61-5.974,1.747-5.974,4.9C24.472,121.261,23.88,128.806,22.992,132.42z"/>
				<path opacity="0.3" fill="#ADADAD" d="M33.893,112.516c-1.84-0.28-3.498-0.575-4.927-0.856c-3.094-0.61-5.974,1.747-5.974,4.9
					c1.479,4.701,0.888,12.246,0,15.86c0,2.447,1.688,4.562,4.073,5.11c4.601,1.057,12.955,2.497,24.342,2.497
					c0.326,0,0.641-0.006,0.962-0.008C43.452,133.266,36.835,123.64,33.893,112.516z"/>
			</g>
		</g>
	</g>
	<rect x="70.168" y="13.792" fill="none" width="58.667" height="56"/>
	<text transform="matrix(1 0 0 1 70.168 39.8423)" fill="#E0BD96" font-family="'Corben-Regular'" font-size="36">8</text>
</g>
</svg>
