<?xml version="1.0" encoding="utf-8"?>
<!-- Generator: Adobe Illustrator 16.0.3, SVG Export Plug-In . SVG Version: 6.00 Build 0)  -->
<!DOCTYPE svg PUBLIC "-//W3C//DTD SVG 1.1//EN" "http://www.w3.org/Graphics/SVG/1.1/DTD/svg11.dtd">
<svg version="1.1" id="Capa_1" xmlns="http://www.w3.org/2000/svg" xmlns:xlink="http://www.w3.org/1999/xlink" x="0px" y="0px"
	 width="150px" height="150px" viewBox="0 0 150 150" enable-background="new 0 0 150 150" xml:space="preserve">
<g id="Background">
</g>
<g id="Capa_3">
	<g id="clasicas_08">
		<rect fill="#20442C" width="150" height="150"/>
		<g>
			<path fill="#CFA471" d="M58.585,84.176c-10.265-7.277-24.548-6.04-33.383,2.919c-9.938,10.08-10.144,25.117-1.145,35.064
				c0.372,0.411,6.899,5.669,7.376,5.95c10.849,6.445,24.036,3.758,32.271-6.307C73.164,110.241,70.984,92.967,58.585,84.176z"/>
			<path fill="#8D0F24" d="M68.188,121.393c9.23-11.283,8.587-27.404-0.87-37.916c2.113,0.03,4.222-0.862,5.664-2.627
				c2.511-3.068,2.06-7.592-1.009-10.103c-3.069-2.511-7.591-2.058-10.102,1.011c-1.443,1.763-1.902,4.003-1.455,6.068
				c-11.323-6.676-26.114-4.902-35.47,4.586c-11.161,11.318-11.052,28.876-0.945,40.049c0.417,0.461,1.154,0.428,1.549-0.054
				l1.836-2.246c0.235-0.287,0.282-0.672,0.163-1.024c-0.873-2.547-0.281-5.52,1.926-7.556c2.339-2.159,5.964-2.458,8.634-0.728
				c3.621,2.349,4.313,7.236,1.657,10.48c-1.616,1.977-4.072,2.852-6.431,2.54c-0.366-0.048-0.733,0.074-0.969,0.36l-1.836,2.246
				c-0.395,0.479-0.28,1.211,0.255,1.529C42.97,135.248,58.94,132.693,68.188,121.393z M69.602,73.645
				c1.468,1.202,1.685,3.365,0.482,4.833c-1.199,1.467-3.365,1.686-4.833,0.483c-1.468-1.202-1.684-3.364-0.482-4.833
				C65.97,72.661,68.134,72.445,69.602,73.645z"/>
			<path opacity="0.05" fill="#313238" enable-background="new    " d="M27.306,80.273c-1.124,0.895-3.408,1.386-4.672,4.213
				c-0.121,0.268-0.079,0.582,0.09,0.818c2.276,3.192,18.235,25.353,43.952,37.168c0.474,0.219,1.032,0.137,1.424-0.209
				c0.938-0.828,1.195-1.455,2.375-3.902c0.313-0.65,1.053-2.021,1.36-2.655c-5.758-2.815-24.807-13.421-43.057-36.551
				C28.235,79.527,27.701,79.958,27.306,80.273z"/>
			<g>
				<path fill="#F9F8F7" d="M24.553,95.665c0.347,0.435,0.492,1.019,0.345,1.599c-1.138,4.469-1.128,9.19,0.032,13.654
					c0.255,0.982-0.335,1.984-1.315,2.239c-0.982,0.253-1.982-0.337-2.239-1.317c-1.313-5.061-1.325-10.416-0.035-15.48
					c0.251-0.983,1.25-1.577,2.232-1.327C23.975,95.136,24.313,95.364,24.553,95.665z"/>
			</g>
			<path fill="#A02545" d="M26.271,79.725c-1.2,0.789-3.763,2.726-5.026,5.553c-0.119,0.268-0.078,0.582,0.093,0.818
				c2.273,3.192,19.412,25.858,45.129,37.672c0.475,0.219,1.032,0.138,1.425-0.207c0.937-0.828,2.658-2.562,3.838-5.01
				c0.313-0.65,0.024-1.433-0.631-1.74c-4.811-2.262-24.706-12.801-43.72-36.898C27.109,79.574,26.63,79.486,26.271,79.725z"/>
			<g opacity="0.76">
				<path fill="#AD3B59" d="M34.188,96.878c-3.814-4.015-6.318-7.722-6.469-7.948c-0.283-0.421-0.169-0.992,0.251-1.272
					c0.421-0.283,0.987-0.171,1.274,0.251c0.052,0.078,5.37,7.951,12.208,13.057c0.409,0.307,0.489,0.879,0.188,1.285
					c-0.304,0.405-0.88,0.489-1.285,0.186C38.081,100.738,35.988,98.773,34.188,96.878z"/>
			</g>
		</g>
		<g>
			<path fill="#CFA471" d="M94.88,68.192c-9.041,8.751-10.45,23.019-3.271,33.351c8.08,11.623,22.822,14.591,34.256,7.574
				c0.473-0.29,6.841-5.738,7.205-6.153c8.33-9.479,8.115-22.937-0.262-32.881C123.184,58.657,105.803,57.621,94.88,68.192z"/>
			<path fill="#8D0F24" d="M133.229,65.601c-9.393-11.149-25.355-13.483-37.429-6.12c0.419-2.073-0.071-4.309-1.54-6.051
				c-2.555-3.033-7.084-3.42-10.115-0.867c-3.031,2.556-3.418,7.084-0.865,10.115c1.468,1.741,3.586,2.606,5.699,2.546
				c-8.647,9.902-9.623,24.769-2.019,35.708c9.072,13.053,26.351,16.178,39.19,8.297c0.529-0.324,0.633-1.057,0.231-1.53
				l-1.868-2.22c-0.24-0.283-0.609-0.4-0.977-0.347c-2.663,0.39-5.479-0.741-7.074-3.284c-1.689-2.697-1.318-6.314,0.873-8.621
				c2.975-3.127,7.906-2.908,10.607,0.299c1.645,1.953,2.052,4.527,1.313,6.789c-0.114,0.352-0.063,0.734,0.177,1.019l1.869,2.219
				c0.399,0.476,1.139,0.498,1.549,0.03C142.21,92.938,142.637,76.77,133.229,65.601z M86.557,55.427
				c1.45-1.222,3.617-1.037,4.84,0.414c1.224,1.451,1.037,3.618-0.414,4.84c-1.449,1.222-3.616,1.037-4.84-0.414
				C84.92,58.816,85.105,56.649,86.557,55.427z"/>
			<path opacity="0.05" fill="#313238" enable-background="new    " d="M85.29,98.221c0.673,1.27,0.735,3.605,3.283,5.368
				c0.239,0.167,0.555,0.185,0.821,0.062c3.556-1.65,28.272-13.26,44.617-36.366c0.303-0.426,0.325-0.989,0.057-1.438
				c-0.639-1.074-1.209-1.443-3.397-3.052c-0.582-0.427-1.793-1.406-2.358-1.825c-3.826,5.142-17.756,21.915-43.849,35.598
				C84.729,97.168,85.055,97.773,85.29,98.221z"/>
			<g>
				<path fill="#F9F8F7" d="M99.914,103.758c0.49-0.262,1.092-0.297,1.635-0.045c4.184,1.939,8.827,2.799,13.428,2.48
					c1.012-0.069,1.889,0.692,1.957,1.705c0.07,1.012-0.693,1.888-1.705,1.959c-5.217,0.359-10.48-0.612-15.225-2.813
					c-0.92-0.429-1.318-1.518-0.893-2.438C99.285,104.229,99.573,103.938,99.914,103.758z"/>
			</g>
			<path fill="#A02545" d="M84.563,99.137c0.555,1.324,1.985,4.2,4.533,5.961c0.24,0.168,0.557,0.186,0.821,0.062
				c3.558-1.649,28.987-14.325,45.331-37.429c0.302-0.427,0.322-0.991,0.057-1.438c-0.642-1.074-2.027-3.085-4.218-4.694
				c-0.581-0.429-1.403-0.289-1.826,0.298c-3.106,4.313-17.127,21.931-44.311,36.188C84.568,98.285,84.395,98.74,84.563,99.137z"/>
			<g>
				<path fill="#AD3B59" d="M102.88,94.509c-4.647,3.011-8.755,4.792-9.004,4.897c-0.466,0.201-1.006-0.016-1.205-0.481
					c-0.198-0.466,0.015-1,0.479-1.205c0.088-0.036,8.806-3.817,15.08-9.599c0.377-0.348,0.955-0.32,1.297,0.052
					c0.344,0.372,0.32,0.954-0.053,1.297C107.389,91.395,105.073,93.089,102.88,94.509z"/>
			</g>
		</g>
	</g>
	<rect x="20.381" y="12.881" fill="none" width="74.735" height="75.988"/>
	<text transform="matrix(1 0 0 1 20.3809 47.6152)" fill="#CFA471" font-family="'Corben-Regular'" font-size="48">10</text>
</g>
</svg>
