<?xml version="1.0" encoding="utf-8"?>
<!-- Generator: Adobe Illustrator 16.0.3, SVG Export Plug-In . SVG Version: 6.00 Build 0)  -->
<!DOCTYPE svg PUBLIC "-//W3C//DTD SVG 1.1//EN" "http://www.w3.org/Graphics/SVG/1.1/DTD/svg11.dtd">
<svg version="1.1" xmlns="http://www.w3.org/2000/svg" xmlns:xlink="http://www.w3.org/1999/xlink" x="0px" y="0px" width="150px"
	 height="150px" viewBox="0 0 150 150" enable-background="new 0 0 150 150" xml:space="preserve">
<g id="Background">
</g>
<g id="Capa_3">
	<g id="clasicas_17">
		<rect fill-rule="evenodd" clip-rule="evenodd" fill="#20442C" width="150" height="150"/>
		<g>
			<g>
				<path fill="#41322B" d="M111.295,124.087c0,0,4.484,0.561,6.447-3.644c2.803,0.28-1.682,7.849-5.887,7.568
					S111.295,124.087,111.295,124.087z"/>
				<g>
					<path fill="#D1B8AA" d="M90.177,139.318c0,0,1.122,3.551,0.935,5.793c-0.373,1.682-0.561,2.803,0.561,2.803
						s2.056,0.188,2.243-1.121c0.187-1.308,1.308-5.232,0.561-8.409C93.728,135.207,90.364,137.075,90.177,139.318z"/>
					<path fill="#E3C08E" d="M91.952,109.23c0,0,1.122,3.083,6.728,5.326c5.607,2.242,12.896,4.765,14.297,12.614
						c1.401,7.849-1.682,11.493-1.682,11.493s-0.841,7.288-2.523,8.689c-1.682,1.402-3.363,1.122-4.205,0
						c-0.84-1.121,1.402-1.962,1.402-1.962s2.242-3.925,0.28-6.728c-3.084,1.401-16.539,3.363-28.313-1.121
						c-11.773-4.485-16.539-7.85-17.66-13.736C59.154,117.92,84.104,105.306,91.952,109.23z"/>
					<g>
						<path fill="#F2DEAC" d="M89.389,104.823c0,0.772,10.407,10.052-3.093,41.882c0,0-1.159,1.933-4.511,1.805
							c-1.804-0.258,0.516-3.351,0.516-3.351s0.258-6.959-1.546-10.696c0,0-2.642-2.642-6.508-2.448h-0.225
							c-3.866-0.193-6.508,2.448-6.508,2.448c-1.804,3.737-1.547,10.696-1.547,10.696s2.32,3.093,0.516,3.351
							c-3.351,0.128-4.511-1.805-4.511-1.805c-13.467-32.861-3.092-41.109-3.092-41.882"/>
						<path fill="#E3C08E" d="M58.594,102.689c6.77,4.083,18.168,12.563,31.322,5.188c-0.244-3.032-0.527-4.891-0.527-5.116H58.881
							C58.881,102.964,58.818,100.16,58.594,102.689z"/>
					</g>
					<path fill="#8D0F24" d="M59.154,100.82c0,0-3.924,2.523-1.121,5.046c2.804,2.522,18.502,10.652,33.919,3.364
						c3.364-1.683-0.28-5.606-2.522-5.606S59.154,100.82,59.154,100.82z"/>
					<g>
						<path fill="#41322B" d="M100.362,69.705c0,0,5.606-5.326,9.812-4.766c4.204,0.841,4.204,10.372,3.363,10.933
							s-4.205-2.243-4.205-2.243l-3.363,6.447L100.362,69.705z"/>
						<g>
							<g>
								<g>
									<path fill="#F2DEAC" d="M108.68,91.679c-1.936,16.493-17.279,15.678-34.762,13.627s-30.483-4.562-28.549-21.055
										c1.936-16.493,17.676-28.2,35.159-26.149C98.011,60.152,110.614,75.186,108.68,91.679z"/>
								</g>
							</g>
						</g>
						<path fill="#41322B" d="M58.033,63.257c0,0-5.045-2.242-7.849-1.401s-2.522,10.933-0.561,12.895
							c1.962,1.122,5.887-8.689,5.887-8.689L58.033,63.257z"/>
						<path fill="#41322B" d="M76.601,84.477C72.33,83.44,56.76,93.155,60.47,101.418c1.955,4.355,20.001,8.71,27.167,5.607
							C94.779,103.362,85.912,86.736,76.601,84.477z"/>
					</g>
				</g>
				<path fill="#41322B" d="M88.309,75.872c0,0,4.484-2.523,8.689,2.242s0.561,14.857-5.046,13.175
					C86.346,89.607,81.301,76.433,88.309,75.872z"/>
				<path fill="#F2DEAC" d="M90.365,80.203c0,0,1.884-1.06,3.65,0.942c1.766,2.001,0.235,6.24-2.12,5.534
					C89.541,85.973,87.422,80.438,90.365,80.203z"/>
				<path fill="#41322B" d="M71.147,74.102c0,0-2.661-4.404-8.667-2.328c-6.007,2.077-7.805,12.654-2.098,13.952
					C66.091,87.022,76.971,78.041,71.147,74.102z"/>
				<path fill="#F2DEAC" d="M67.781,76.467c0,0-1.337-2.212-4.354-1.169c-3.017,1.043-3.92,6.356-1.053,7.009
					C65.241,82.958,70.707,78.446,67.781,76.467z"/>
				<g>
					<path fill="#8D0F24" d="M79.151,97.456c0,0,1.121,6.168,4.485,3.925c2.99-2.616-1.869-5.98-1.869-5.98L79.151,97.456z"/>
					<g>
						<path fill="none" stroke="#000000" stroke-miterlimit="10" d="M73.357,87.178c0,0,3.738-1.682,5.98,1.121
							c1.121,2.43-2.43,2.43-3.924,2.057C73.918,89.981,71.489,87.926,73.357,87.178z"/>
						<path fill="none" stroke="#000000" stroke-miterlimit="10" d="M75.414,90.355c0,0-0.748,3.177-0.188,7.475"/>
						<path fill="none" stroke="#000000" stroke-miterlimit="10" d="M71.302,98.018c0,0,7.288,0.934,11.213-3.364"/>
					</g>
				</g>
				<path fill="#41322B" d="M98.68,114.557c-1.484-0.594-2.646-1.246-3.564-1.885c0.396,2.405,1.943,6.083,7.489,8.052
					c3.562,1.264,6.039,1.255,7.53,0.458C107.149,117.761,102.521,116.093,98.68,114.557z"/>
			</g>
			<path fill="#41322B" d="M59.154,129.974c-1.504-1.389-2.574-2.534-3.316-3.406c0.736,4.255,2.063,9.293,4.236,15.238
				C63.374,139.87,62.328,132.903,59.154,129.974z"/>
		</g>
		<circle fill="#41322B" cx="92.073" cy="83.118" r="1.208"/>
		<circle fill="#41322B" cx="64.573" cy="78.493" r="1.208"/>
		<g>
			<g>
				<path fill="#8D0F24" d="M58.124,59.787c0,0,3.883-23.448,28.381-29.22c15.169-3.574,25.006,5.352,25.006,5.352l-0.881,2.929
					c0,0-5.518,4.11-7.263,9.913c-1.746,5.803,0.792,21.03,0.792,21.03l-45.139-5.189L58.124,59.787z"/>
				<path opacity="0.13" fill="#24413C" d="M109.485,34.413c0,0-6.988,16.606-18.913,18.855
					c-13.987,2.639-28.894-3.354-28.894-3.354s-3.126,6.216-3.76,10.528l45.712,4.071c0,0-1.801-9.879-0.264-15.752
					c1.321-5.046,6.894-10.125,8.861-10.82C114.063,37.292,109.485,34.413,109.485,34.413z"/>
				<g>
					<path fill="#FEFFFB" d="M54.046,59.555c1.27-3.906,4.94-3.09,4.94-3.09l0.575,0.106c2.524-0.848,3.956,0.649,4.056,0.758
						l0.015,0.002c0.046-0.084,1.153-2.103,3.627-2.147c2.207-0.039,2.777,2.698,2.924,3.319c0.029,0.017,0.057,0.034,0.086,0.05
						c0.348-0.564,2.305-3.513,4.774-2.91c1.56,0.381,2.194,1.491,2.453,2.372c0.196,0.285,0.349,0.583,0.465,0.857
						c0.729-0.784,2.764-2.641,5.244-2.036c2.544,0.622,2.672,3.486,2.672,3.486s0.61-0.898,1.665-1.437
						c0.976-0.629,2.282-1.125,3.741-0.769c2.544,0.622,2.672,3.486,2.672,3.486s1.588-2.337,4.066-1.731
						c3.727,0.912,3.089,3.63,2.82,4.41l0.169,0.031c0.458-0.28,1.527-0.707,3.03,0.125c0.329,0.182,0.588,0.404,0.785,0.654
						c2.972,2.087,0.783,6.148-1.297,6.745c-1.738,0.499-3.257-0.653-3.257-0.653s-0.164,1.542-2.477,2.637
						c-1.976,0.935-3.788,0.306-4.773-1.432c0,0-0.656,3.583-5.082,2.764c-2.252-0.416-2.7-2.852-2.7-2.852s-1.775,2.39-5.992,1.251
						c-2.209-0.597-2.123-3.439-2.123-3.439s-1.007,2.481-4.08,1.709c-2.066-0.521-3.117-1.764-3.398-2.639
						c-0.727,1.052-1.398,1.95-3.127,1.95c-4.61,0.002-4.41-3.698-4.41-3.698s-2.265,1.498-4.502,0.65
						c-4.498-1.704-1.679-4.964-1.679-4.964S53.408,61.515,54.046,59.555z"/>
					<g opacity="0.07">
						<path fill="#313238" d="M62.107,67.518c-0.017-0.016-0.034-0.033-0.052-0.048c0.031-0.02,0.054-0.034,0.054-0.034
							S62.108,67.465,62.107,67.518z"/>
					</g>
				</g>
				<g>
					<path fill="#FEFFFB" d="M109.317,37.881c0,0-2.264-0.557-1.049-3.144c0.411-0.873,2.186-1.941,3.835-1.281
						c0,0-0.574-2.506,1.295-2.775c1.87-0.269,2.522,2.427,2.522,2.427s1.72-1.487,2.763-0.161c0.687,0.874,0.584,2.562-0.609,2.899
						c0,0,2.402,1.198,1.255,2.854c-1.097,1.583-2.854,0.964-2.854,0.964s0.887,1.033-0.536,2.152
						c-1.422,1.119-3.134-0.279-3.134-0.279s-2.097,1.143-3.264-0.384C108.295,39.523,109.317,37.881,109.317,37.881z"/>
					<g opacity="0.07">
						<path fill="#313238" d="M109.258,37.864c0.006,0.028,0.015,0.057,0.021,0.085c0.023-0.042,0.038-0.068,0.038-0.068
							S109.295,37.876,109.258,37.864z"/>
						<path fill="#313238" d="M116.753,37.588c0,0,0.888,1.033-0.534,2.151c-1.423,1.119-3.134-0.28-3.134-0.28
							s-2.097,1.144-3.265-0.382c-0.292-0.383-0.456-0.765-0.541-1.127c-0.172,0.322-0.837,1.767,0.262,3.204
							c1.167,1.527,3.264,0.384,3.264,0.384s1.712,1.398,3.134,0.279c1.423-1.119,0.536-2.152,0.536-2.152s1.758,0.62,2.854-0.964
							c0.474-0.683,0.342-1.288,0.024-1.763C118.26,38.115,116.753,37.588,116.753,37.588z"/>
					</g>
				</g>
			</g>
		</g>
	</g>
	<rect x="15.572" y="7.283" fill="none" width="67.333" height="61.333"/>
	<text transform="matrix(1 0 0 1 15.5723 42.0171)" fill="#FEFFFB" font-family="'Corben-Regular'" font-size="48">17</text>
</g>
</svg>
