<?xml version="1.0" encoding="utf-8"?>
<!-- Generator: Adobe Illustrator 16.0.3, SVG Export Plug-In . SVG Version: 6.00 Build 0)  -->
<!DOCTYPE svg PUBLIC "-//W3C//DTD SVG 1.1//EN" "http://www.w3.org/Graphics/SVG/1.1/DTD/svg11.dtd">
<svg version="1.1" id="Capa_1" xmlns="http://www.w3.org/2000/svg" xmlns:xlink="http://www.w3.org/1999/xlink" x="0px" y="0px"
	 width="150px" height="150px" viewBox="0 0 150 150" enable-background="new 0 0 150 150" xml:space="preserve">
<g id="Background">
</g>
<g id="Capa_3">
	<g id="clasicas_21">
		<rect fill="#8D0F24" width="150" height="150"/>
		<path opacity="0.5" fill="#F2C68F" enable-background="new    " d="M91.464,13.539c-0.269,3.832-1.763,7.472-4.515,10.996
			C87.204,20.146,88.697,16.508,91.464,13.539z"/>
		<g>
			<g>
				<g>
					<path fill="#356D47" d="M82.168,28.778c-0.906,0-1.684-0.684-1.781-1.604c-0.965-9.056,1.922-16.131,8.574-21.029
						c0.799-0.588,1.922-0.418,2.51,0.38c0.588,0.798,0.416,1.921-0.382,2.509c-5.632,4.146-7.966,9.956-7.136,17.762
						c0.105,0.984-0.607,1.869-1.594,1.973C82.295,28.775,82.23,28.778,82.168,28.778z"/>
				</g>
				<g>
					<path fill="#20442C" d="M82.17,28.778c-0.466,0-0.93-0.181-1.281-0.539c-0.693-0.708-0.682-1.844,0.025-2.537
						c5.734-5.612,8.132-11.466,7.331-17.892c-0.015-0.115-0.112-0.518-0.206-0.938c0.495-0.396,1.027-0.972,1.766-1.063
						c0.979-0.121,1.879,0.574,2.002,1.559c0.935,7.507-1.886,14.539-8.382,20.898C83.076,28.607,82.623,28.778,82.17,28.778z"/>
				</g>
			</g>
			<g>
				<g>
					<g>
						<g>
							<path fill="#20442C" d="M101.674,112.47c-17.561,14.039-60.115,44.585-71.045,20.54
								c-9.623-26.041,11.203-36.222,22.301-39.697c3.452-1.082,5.342-4.791,4.24-8.238l-12.297-38.51l44.928-15.428l17.09,65.65
								C108.4,102.588,106.355,108.727,101.674,112.47z"/>
						</g>
						<path fill="#356D47" d="M39.038,107.743c-2.812,0-5.515,0.463-8.043,1.307c-3.211,5.897-4.161,13.691-0.366,23.96
							c5.533,12.172,19.169,10.352,33.564,3.77c0.169-1.184,0.262-2.391,0.262-3.619C64.455,119.122,53.075,107.743,39.038,107.743z
							"/>
						<path fill="#356D47" d="M106.891,96.787l-3.17-12.176c-6.226,4.633-10.26,12.046-10.26,20.402c0,4.201,1.025,8.16,2.83,11.651
							c1.973-1.499,3.783-2.917,5.383-4.196C106.355,108.727,108.4,102.588,106.891,96.787z"/>
					</g>
					<g>
						<polygon fill="#F2F2F2" points="80.984,95.691 76.543,100.164 75.693,93.919 70.068,91.078 75.746,88.341 76.709,82.111 
							81.066,86.665 87.289,85.656 84.305,91.208 87.188,96.813 						"/>
						<polygon fill="#F2F2F2" points="77.198,116.046 74.413,118.852 73.881,114.936 70.352,113.152 73.912,111.436 74.517,107.529 
							77.25,110.385 81.152,109.752 79.281,113.234 81.088,116.75 						"/>
						<polygon fill="#F2F2F2" points="87.086,74.986 85.467,76.617 85.157,74.341 83.105,73.305 85.176,72.307 85.527,70.035 
							87.115,71.695 89.384,71.328 88.296,73.353 89.348,75.396 						"/>
						<polygon fill="#F2F2F2" points="62.69,103.867 61.529,105.036 61.309,103.404 59.838,102.661 61.321,101.945 61.573,100.318 
							62.713,101.508 64.338,101.244 63.559,102.695 64.312,104.16 						"/>
						<path fill="#8D0F24" d="M55.38,72.311c1.436,0.175,3.06,0.371,5.741-0.515c2.684-0.887,3.87-2.014,4.918-3.009
							c0.9-0.854,1.678-1.591,3.627-2.236c1.951-0.644,3.015-0.516,4.244-0.366c1.435,0.173,3.061,0.37,5.74-0.515
							c2.685-0.887,3.873-2.014,4.92-3.009c0.9-0.854,1.678-1.592,3.63-2.237c1.952-0.646,3.015-0.517,4.247-0.367
							c1.264,0.154,2.673,0.322,4.818-0.241l-0.867-3.335c-1.519,0.398-2.465,0.286-3.535,0.155
							c-1.437-0.175-3.063-0.372-5.744,0.517c-2.684,0.887-3.872,2.014-4.92,3.009c-0.9,0.854-1.678,1.591-3.629,2.236
							c-1.949,0.646-3.012,0.517-4.244,0.366c-1.434-0.174-3.06-0.371-5.741,0.516c-2.683,0.887-3.87,2.014-4.918,3.008
							c-0.899,0.854-1.677,1.592-3.628,2.236c-1.949,0.646-3.014,0.516-4.243,0.366c-1.047-0.126-2.2-0.262-3.788,0.017l1.063,3.327
							C53.938,72.138,54.629,72.219,55.38,72.311z"/>
					</g>
				</g>
				<g>
					<path fill="#F2F2F2" d="M38.328,44.723c-0.788-2.336,0.143-4.898,2.242-6.189c4.049-2.489,11.561-6.554,22.428-10.22
						c10.748-3.626,18.883-4.873,23.465-5.298c2.436-0.227,4.701,1.252,5.482,3.57c0.682,5.641,2.383,10.685,5.104,15.133
						c1.015,3.005-0.967,6.199-4.112,6.6c-5.067,0.645-12.816,2.023-21.52,4.959c-8.839,2.982-16.126,6.714-20.706,9.336
						c-2.757,1.578-6.264,0.256-7.279-2.754C42.945,54.086,41.306,49.004,38.328,44.723z"/>
					<path opacity="0.3" fill="#ADADAD" enable-background="new    " d="M42.592,37.309c0,0-1.185,0.711-2.021,1.225
						c-2.1,1.291-3.03,3.854-2.242,6.189c2.978,4.281,4.617,9.363,5.105,15.137c1.016,3.01,4.522,4.332,7.279,2.754
						c4.58-2.622,11.867-6.354,20.706-9.336c0.555-0.188,1.093-0.35,1.64-0.525c-0.535,0.027-1.074,0.041-1.615,0.041
						C59.545,52.793,50.479,51.357,42.592,37.309z"/>
				</g>
			</g>
		</g>
	</g>
	<rect x="-63.471" y="108.991" fill="none" width="67.333" height="61.333"/>
	<rect x="105.988" y="20.949" fill="none" width="67.334" height="61.333"/>
	<text transform="matrix(1 0 0 1 105.9893 46.999)" fill="#FEFFFB" font-family="'Corben-Regular'" font-size="36">21</text>
</g>
</svg>
