<?xml version="1.0" encoding="utf-8"?>
<!-- Generator: Adobe Illustrator 16.0.3, SVG Export Plug-In . SVG Version: 6.00 Build 0)  -->
<!DOCTYPE svg PUBLIC "-//W3C//DTD SVG 1.1//EN" "http://www.w3.org/Graphics/SVG/1.1/DTD/svg11.dtd">
<svg version="1.1" xmlns="http://www.w3.org/2000/svg" xmlns:xlink="http://www.w3.org/1999/xlink" x="0px" y="0px" width="150px"
	 height="147.834px" viewBox="0 0 150 147.834" enable-background="new 0 0 150 147.834" xml:space="preserve">
<g id="Background">
</g>
<g id="Capa_3">
	<rect x="-47.53" fill-rule="evenodd" clip-rule="evenodd" fill="#8D0F24" width="305.262" height="148.945"/>
	<path fill="#7B0A00" d="M48.908,82.481c-0.004,0.172,0.239,0.161,0.261,0c0.02-0.16,0.041-0.32,0.061-0.48
		c0.018-0.135,0.041-0.255-0.057-0.36c-0.041-0.044-0.104-0.035-0.147-0.001c-0.109,0.086-0.101,0.233-0.104,0.362
		C48.916,82.162,48.912,82.321,48.908,82.481"/>
	<path fill="#FFFEFF" d="M139.689,31.421c-2.182,0.382-4.326,1.084-6.292-0.447c-0.165-0.13-0.467-0.113-0.637-0.006
		c-0.054,0.036-0.104,0.065-0.153,0.096c0.153-0.175,0.306-0.361,0.442-0.553c0.264-0.372,0.219-0.593,0.73-0.495
		c1.062,0.201,2.07,0.605,3.13,0.067c0.067-0.036,0.056-0.154-0.021-0.17c-0.758-0.154-1.478-0.183-2.208-0.464
		c-0.423-0.162-1.012-0.615-1.489-0.481c-0.138,0.042-0.238,0.118-0.326,0.207c0.004-0.01,0.004-0.018,0.008-0.027
		c0.08-0.393-0.053-0.737-0.301-0.958c-0.042-0.425-0.1-0.844-0.188-1.264c0.343,0.115,0.68,0.239,1.02,0.352
		c0.285,0.092,0.404-0.352,0.123-0.445c-0.427-0.14-0.85-0.297-1.275-0.442c-0.002-0.011-0.004-0.021-0.006-0.03
		c1.005,0.22,2.097,0.21,2.457-0.645c0.221,0.115,0.48,0.154,0.75,0.099c0.202-0.042,0.421-0.097,0.591-0.221
		c0.511-0.374,0.619-0.963,0.199-1.464c-0.242-0.295-0.692-0.442-1.069-0.393c-0.488,0.063-0.885,0.327-1.012,0.786
		c-1.002-0.132-1.839-0.53-2.72-1.002c0.563-1.322,0.799-2.799-0.077-4.065c-0.04-0.06-0.086-0.121-0.134-0.182
		c0.003-0.081-0.053-0.155-0.139-0.171c-0.906-1.088-2.658-2.372-3.967-1.751c-0.131,0.062-0.131,0.274-0.004,0.337
		c0.581,0.287,1.22,0.337,1.805,0.638c0.02,0.006,0.034,0.019,0.052,0.028c-0.341,0.145-0.633,0.378-0.841,0.712
		c-0.063,0.103-0.046,0.26,0.043,0.342c0.038,0.036,0.072,0.063,0.127,0.075c0.123,0.028,0.25-0.02,0.317-0.13
		c0.198-0.331,0.475-0.585,0.825-0.733c0.357,0.223,0.692,0.485,0.99,0.776c-0.238,0.138-0.468,0.288-0.69,0.457
		c-0.275,0.214-0.731,0.507-0.742,0.887c-0.004,0.089,0.084,0.134,0.161,0.122c0.335-0.049,0.607-0.475,0.857-0.691
		c0.212-0.185,0.443-0.346,0.68-0.498c0.01,0.01,0.021,0.019,0.028,0.032c0.22,0.256,0.358,0.53,0.462,0.809
		c-0.029,0.013-0.062,0.028-0.089,0.054c-0.207,0.183-0.415,0.368-0.623,0.551c-0.185,0.164-0.315,0.263-0.319,0.517
		c-0.004,0.111,0.095,0.196,0.2,0.201c0.248,0.007,0.358-0.129,0.527-0.302c0.149-0.151,0.3-0.305,0.45-0.458
		c0.115,0.778-0.062,1.597-0.331,2.374c-0.119,0.023-0.224,0.086-0.304,0.177c-0.254,0.071-0.481,0.229-0.643,0.517
		c-0.05,0.094-0.089,0.187-0.115,0.28c-0.902,0.055-1.874-0.122-2.787-0.351c0.073-0.246,0.146-0.495,0.217-0.741
		c0.065-0.222,0.139-0.36,0.016-0.565c-0.05-0.084-0.157-0.114-0.244-0.066c-0.21,0.112-0.218,0.27-0.275,0.495
		c-0.063,0.252-0.127,0.504-0.188,0.756c-0.278-0.075-0.554-0.15-0.812-0.222c-0.046-0.015-0.098-0.03-0.146-0.043
		c0.125-0.368,0.235-0.737,0.319-1.12c0.073-0.309,0.222-0.652,0.035-0.935c-0.046-0.067-0.143-0.108-0.22-0.06
		c-0.304,0.203-0.296,0.59-0.35,0.932c-0.058,0.361-0.099,0.713-0.127,1.074c-0.335-0.115-0.67-0.256-0.974-0.436
		c0.027-0.521,0.085-1.049,0.234-1.551c0.125-0.413,0.396-0.785,0.389-1.216c-0.002-0.118-0.135-0.201-0.238-0.138
		c-0.404,0.239-0.55,0.775-0.667,1.211c-0.125,0.46-0.176,0.92-0.152,1.389c-0.359-0.301-0.631-0.684-0.716-1.184
		c-0.1-0.581,0.031-1.17,0.027-1.753c-0.004-0.305-0.406-0.327-0.508-0.066c-0.377,0.993-0.373,1.968,0.05,2.755
		c-4.541-2.122-8.917-4.58-13.133-7.378c-1.241-0.821-2.39-1.528-3.572-2.062c0.021-0.299,0.034-0.599,0.036-0.895
		c0-0.026-0.011-0.043-0.013-0.067c0.002-0.023,0.003-0.047,0.005-0.07c0.004-0.131-0.013-0.243-0.054-0.34
		c1.037,0.503,2.351,0.571,3.342,0.212c0.609-0.221,0.742-1.202,0.002-1.364c-0.67-0.147-1.281-0.345-1.918-0.598
		c-0.295-0.117-0.562-0.272-0.829-0.428c1.212-0.664,2.266-1.652,2.674-3.017c0.306-1.022,0.288-2.74-0.835-3.248
		c-0.177-0.079-0.381,0.049-0.333,0.254c0.087,0.394,0.198,0.752,0.283,1.101c-0.231-0.136-0.627-0.323-0.823-0.107
		c-0.196,0.224,0.08,0.395,0.272,0.47c0.248,0.1,0.478,0.228,0.684,0.392c0.04,0.457-0.014,0.928-0.279,1.467
		c-0.093,0.188-0.206,0.367-0.327,0.538c-0.155-0.138-0.312-0.276-0.471-0.41c-0.206-0.175-0.41-0.402-0.695-0.387
		c-0.138,0.009-0.211,0.121-0.191,0.253c0.042,0.277,0.312,0.435,0.522,0.598c0.162,0.126,0.327,0.25,0.489,0.376
		c-0.456,0.519-1.01,0.972-1.537,1.407c-0.121-0.063-0.246-0.124-0.377-0.176c-0.438-0.169-0.803,0.062-0.996,0.406
		c-1.037-0.086-2.114-0.205-3.104-0.489c-0.054-0.014-0.094-0.031-0.142-0.047c0.008,0,0.019,0.004,0.03,0.002
		c0.174-0.006,0.22-0.27,0.043-0.311c-0.327-0.077-0.533-0.352-0.662-0.648c-0.058-0.138-0.077-0.28-0.065-0.427
		c0.012-0.148,0.065-0.267,0.012-0.41c-0.038-0.103-0.133-0.17-0.246-0.142c-0.496,0.128-0.393,0.894-0.238,1.243
		c0.05,0.112,0.115,0.215,0.194,0.304c-0.799-0.451-1.268-1.111-1.672-2.155c-0.071-0.185-0.347-0.216-0.406-0.002
		c-0.808,2.87,3.784,3.794,6.115,3.56c-0.012,0.163,0.012,0.331,0.084,0.477c0.178,0.348,0.44,0.635,0.743,0.882
		c-0.183-0.004-0.368,0.045-0.523,0.15c-0.208,0.094-0.385,0.26-0.466,0.526c-0.048,0.152-0.104,0.303-0.157,0.453
		c-1.062-0.294-2.193-0.441-3.476-0.406c-4.138,0.113-8.283,0.726-12.396,1.154c-3.991,0.413-7.995,0.795-12.012,0.896
		c-3.275,0.083-6.67-0.432-9.956-0.255c-0.104-0.38-0.204-0.76-0.308-1.138c0.954,0.254,1.978,0.153,2.627-0.463
		c0.421-0.399,0.319-1.119-0.173-1.41c-0.916-0.545-1.978-0.46-2.805-1.207c-0.289-0.26-0.606-0.354-0.9-0.333
		c0.346-0.939,0.369-1.968,0.084-2.949c-0.292-1.013-1.054-2.484-2.2-2.681c-0.166-0.027-0.362,0.148-0.247,0.315
		c0.089,0.126,0.183,0.242,0.277,0.357c-0.329,0.007-0.681,0.109-0.685,0.445c0,0.059,0.035,0.121,0.085,0.149
		c0.25,0.13,0.554-0.055,0.827-0.006c0.319,0.059,0.612,0.266,0.752,0.56c0.023,0.051,0.06,0.081,0.102,0.096
		c0.104,0.146,0.2,0.299,0.284,0.469c-0.3-0.167-0.604-0.258-0.952-0.262c-0.283-0.002-0.675,0.008-0.806,0.306
		c-0.037,0.086-0.025,0.179,0.06,0.232c0.221,0.14,0.452,0.04,0.698,0.034c0.281-0.01,0.569,0.045,0.839,0.13
		c0.138,0.045,0.246-0.051,0.281-0.167c0.007,0.018,0.015,0.034,0.023,0.051c0.373,1.039,0.338,2.127-0.029,3.15
		c-0.19,0.148-0.338,0.354-0.414,0.597c-0.87,0.167-1.906,0.525-2.879,0.72c0.067-0.372,0.133-0.744,0.202-1.115
		c0.058-0.334,0.146-0.638-0.004-0.955c-0.035-0.077-0.154-0.087-0.208-0.03c-0.246,0.256-0.258,0.591-0.306,0.93
		c-0.06,0.41-0.125,0.821-0.185,1.233c0,0.008,0.002,0.014,0.002,0.02c-0.479,0.065-0.931,0.069-1.327-0.03
		c0-0.002,0.003-0.002,0.003-0.004c-0.015-0.507-0.044-1.041,0.077-1.542c0.092-0.388,0.36-0.782,0.266-1.184
		c-0.023-0.096-0.137-0.164-0.233-0.134c-0.506,0.155-0.658,0.84-0.729,1.308c-0.073,0.468-0.062,0.895,0.069,1.325
		c-0.469-0.301-0.8-0.85-0.914-1.774c-0.025-0.178-0.271-0.294-0.375-0.101c-0.569,1.06,0.375,2.248,1.375,2.633
		c1.679,0.65,3.458-0.314,5.115-0.79c0.015,0.131,0.05,0.266,0.111,0.402c0.115,0.264,0.296,0.504,0.512,0.72
		c-0.083,0.121-0.146,0.259-0.158,0.428c-0.046,0.689-0.166,1.335-0.329,1.964c-3.229,0.598-6.313,1.987-9.539,2.631
		c-5.01,0.996-9.875,0.917-14.572-1.218c-0.046-0.064-0.081-0.135-0.09-0.222c-0.052-0.603-0.671-0.838-1.133-0.475
		c-0.437,0.343-0.827,0.741-1.146,1.197c-0.016,0.024-0.031,0.048-0.048,0.071c0.008-0.065-0.002-0.13-0.058-0.177
		c-1.025-0.879-2.07-0.593-3.264-0.972c-0.346-0.107-0.723,0.075-0.908,0.367c-1.031,1.629-2.252,2.785-3.739,3.813
		c-0.648-0.449-1.335-0.812-2.158-0.851c-0.123-0.006-0.242,0.004-0.364,0.013c0.218-0.494,0.319-1.042,0.287-1.59
		c0.054-0.013,0.11-0.028,0.166-0.047c0.454-0.172,0.694-0.635,0.452-1.088c-0.266-0.5-0.737-0.677-1.256-0.821
		c-0.069-0.018-0.141-0.036-0.212-0.051c-0.029-0.036-0.054-0.071-0.084-0.103c-0.146-0.151-0.304-0.277-0.465-0.386
		c0.042-0.098,0.092-0.191,0.129-0.293c0.209-0.622-0.518-1.022-1.021-0.79c-0.173,0.081-0.339,0.181-0.5,0.29
		c-2.381-1.444-5.809-1.71-7.519,0.713c-0.006-0.002-0.014-0.008-0.017-0.01c-0.585-0.124-1.146,0.015-1.578,0.443
		c-0.454,0.446-0.666,1.152-0.308,1.723c0.262,0.414,0.747,0.549,1.15,0.399c0.029,0.308,0.211,0.591,0.596,0.695
		c0.95,0.26,1.404-1.051,0.7-1.517c0.081-0.141,0.137-0.295,0.166-0.453c1.154-0.045,2.135,0.471,2.885,1.306
		c-0.008,0.186,0,0.37,0.027,0.554c-0.219,0.337-0.35,0.721-0.31,1.089c0.041,0.394,0.317,0.697,0.646,0.795
		c-0.037,0.022-0.073,0.042-0.11,0.063c-0.092,0.028-0.185,0.057-0.277,0.086c-1.304-0.122-2.9,0.075-4.376,0.538
		c-0.279-0.173-0.579-0.303-0.894-0.408c-0.252-0.675-0.502-1.352-0.754-2.026c0.954-0.53,0.446-2.212-0.673-1.806
		c-0.46,0.166-0.916,0.334-1.375,0.5c0.306-0.638,0.506-1.329,0.583-2.024c0.023-0.21-0.34-0.263-0.373-0.049
		c-0.139,0.914-0.468,1.686-0.978,2.354c-0.146,0.053-0.296,0.109-0.444,0.164c0.041-0.31,0.058-0.624,0.106-0.891
		c0.133-0.71,0.416-1.247,0.716-1.891c0.081-0.173-0.05-0.336-0.235-0.309c-0.631,0.092-0.958,0.626-1.185,1.175
		c-0.119,0.285-0.192,0.579-0.248,0.885c-0.052,0.293-0.037,0.886-0.187,1.141c-0.008,0.017-0.012,0.03-0.015,0.045
		c-0.008-0.018-0.012-0.034-0.027-0.052c-0.5-0.598-2.133-2.188-3.012-1.593c-0.9,0.608-0.179,1.711,0.573,2.002
		c0.37,0.144,0.758,0.253,1.15,0.353c-0.677,0.258-1.344,0.543-1.923,0.951c-0.52,0.364-0.417,1.373,0.35,1.313
		c0.392-0.027,0.787-0.094,1.177-0.173c0.609,0.778,1.242,1.534,1.881,2.287c-0.19,0.187-0.358,0.399-0.496,0.632
		c-0.86-0.142-1.77-0.073-2.547,0.319C6.62,23.131,5.947,23.903,6.216,24.7c0.331,0.969,1.816,1,2.643,1.076
		c0.275,0.025,0.573,0.051,0.885,0.059c0.054,0.111,0.107,0.218,0.169,0.323c-0.95,0.235-1.773,0.671-2.312,1.466
		c-0.283,0.419-0.001,1.032,0.468,1.15c0.517,0.134,1,0.153,1.481,0.128c-0.018,0.311-0.033,0.625-0.056,0.936
		c-0.085,1.148-0.219,2.282-0.393,3.421c-0.1,0.634,0.273,1.412,1.039,1.357c1.243-0.088,2.485-0.164,3.724-0.233
		c-0.089,0.883-0.166,1.763-0.239,2.633c-0.166-0.002-0.331-0.004-0.5-0.006c-1.62-0.023-3.243-0.039-4.866-0.068
		c-0.76-0.005-1.52-0.022-2.281-0.047c-1.989,0.338-2.506-0.424-1.554-2.289c0.065,0.369,0.629,0.341,0.713,0.002
		c0.864-3.5-5.195-3.242-4.28,0.898c0.512,2.298,3.089,3.125,5.128,3.321c4.363,0.417,8.856,0.292,13.235,0.322
		c4.459,0.032,8.919-0.027,13.374-0.281c3.143-0.182,8.146,0.248,10.879-1.618c4.234-2.885-1.046-7.597-2.489-4.351
		c-0.235,0.524,0.231,1.019,0.766,0.778c-0.179,2.044-1.212,2.896-3.104,2.554c-0.219,0.024-0.44,0.042-0.658,0.065
		c0.448-1.838,0.492-3.888,0.1-5.721c-0.004-0.243-0.008-0.483,0.007-0.726c0.042-0.717,0.065-1.452,0.139-2.165
		c0.023-0.737,0.198-1.432,0.525-2.088c0.325-0.699,0.779-0.857,1.356-0.483c-0.027,0.007-0.052,0.009-0.077,0.015
		c-0.639,0.079-0.9,0.834-0.334,1.223c0.7,0.48,0.823,0.517,1.625,0.821c0.466,0.173,0.906-0.133,1.171-0.475
		c0.943-1.22,0.577-2.899-0.604-3.851c-1.427-1.146-3.339-0.611-4.516,0.62c-1.002,1.052-1.337,2.392-1.47,3.774
		c-0.238-0.094-0.49-0.179-0.752-0.247c0.117-0.159,0.202-0.34,0.217-0.537c0.19-2.08-0.838-3.455-2.312-4.368
		c-0.054-0.062-0.109-0.121-0.166-0.18c0.356-0.081,0.7-0.169,1.018-0.265c1.904-0.585,3.495-1.665,4.599-3.333
		c0.187-0.284,0.204-0.603,0.108-0.891c3.466,1.126,7.09,1.684,10.725,1.646c-0.164,0.124-0.269,0.336-0.2,0.534
		c0.45,1.308,1.537,2.283,2.922,2.49c0.092,0.013,0.173,0.007,0.25-0.01c0.129,0.516,0.469,1.038,1.029,1.483
		c0.312,0.248,0.638,0.462,0.973,0.647c0.456,0.59,0.954,1.145,1.454,1.714c0.887,1.009,0.723,0.674,0.081,1.596
		c-0.329,0.471-0.642,0.953-0.912,1.462c-0.854,1.615-1.402,3.584-0.854,5.375c0.069,0.232,0.421,0.248,0.485,0
		c0.393-1.515,0.521-3.021,1.292-4.426c0.223-0.41,0.604-0.793,0.993-1.182c-0.5,1.205-0.8,2.509-0.497,3.792
		c0.041,0.165,0.247,0.129,0.298,0c0.473-1.137,0.69-2.349,1.206-3.471c0.488-1.065,1.235-1.896,1.925-2.829
		c0.137-0.183,0.121-0.492,0.004-0.682c-0.119-0.194-0.266-0.388-0.423-0.577c2.741-0.466,5.357-2.197,6.819-4.583
		c0.656-0.229,1.315-0.447,2.004-0.605c2.098-0.479,3.962,1.745,6.103,2.082c0.148,0.023,0.213-0.144,0.098-0.234
		c-1.196-0.93-2.5-1.702-3.678-2.667c-0.444-0.366-0.839-0.857-1.441-0.889c-0.732-0.038-1.733,0.656-2.425,0.995
		c0.088-0.223,0.16-0.449,0.227-0.678c0.454-0.292,1.112-0.771,1.404-0.812c0.596-0.083,1.438,0.601,1.919,0.864
		c1.608,0.895,3.414,1.472,5.195,0.771c0.167-0.067,0.169-0.359-0.048-0.342c-1.675,0.12-2.9-0.249-4.383-1.041
		c-0.671-0.358-1.558-1.227-2.37-1.269c-0.4-0.02-0.698,0.234-1.033,0.43c-0.134,0.077-0.265,0.15-0.396,0.224
		c-0.194-0.72-0.393-1.442-0.585-2.162c0.6-0.099,1.208-0.167,1.831-0.188c4.074-0.128,8.054,0.776,12.156,0.507
		c1.966-0.131,3.965-0.377,5.975-0.637c0,0.014-0.008,0.028-0.008,0.043c-0.092,0.738-0.125,1.53,0.327,2.17
		c0.065,0.094,0.153,0.179,0.246,0.258c-0.216,0.5-0.29,1.092-0.143,1.792c0.069,0.343,0.185,0.65,0.319,0.932
		c-0.327,0.621-0.589,1.264-0.827,1.919c-1.408-0.1-2.996-0.244-4.339,0.071c-0.323,0.077-0.277,0.509-0.004,0.607
		c1.437,0.5,3.237,0.477,4.747,0.54c0.242,0.012,0.525-0.193,0.573-0.438c0.123-0.64,0.25-1.28,0.365-1.922
		c0.083,0.097,0.167,0.192,0.26,0.279c-0.121,0.717-0.141,1.47-0.145,2.2c-0.65,0.089-1.312,0.239-1.925,0.37
		c-0.779,0.167-1.706,0.327-2.265,0.93c-0.115,0.124-0.026,0.288,0.125,0.307c0.754,0.092,1.514-0.215,2.269-0.264
		c0.907-0.06,1.598,0.153,2.458,0.36c0.565,0.136,1.154-0.272,1.146-0.879c-0.008-0.677,0.004-1.398-0.047-2.107
		c3.451,1.166,9.285-0.408,12.961-2.001c0.143,0.024,0.3-0.01,0.438-0.138c0.034-0.032,0.063-0.069,0.096-0.101
		c0.027-0.012,0.052-0.023,0.075-0.036c0.228,0.081,0.452,0.16,0.687,0.232c0.692,0.209,1.97,0.378,2.458,0.908
		c0.474,0.522,0.485,1.479,0.658,2.159c0.173,0.673,0.323,1.312,0.706,1.896c0.102,0.154,0.396,0.162,0.433-0.055
		c0.154-0.867-0.027-1.745-0.181-2.606c-0.119-0.671-0.146-1.622-0.587-2.174c-0.44-0.553-1.331-0.669-1.96-0.842
		c-0.276-0.075-0.554-0.152-0.829-0.227c0.052-0.032,0.095-0.059,0.145-0.086c0.823-0.043,1.65-0.158,2.466-0.036
		c1.231,0.186,1.385,0.757,1.974,1.661c0.28,0.431,0.554,0.736,0.966,1.049c0.109,0.084,0.278-0.051,0.234-0.177
		c-0.29-0.823-0.688-1.676-1.103-2.443c-0.313-0.579-0.455-0.872-1.143-1c-0.671-0.126-1.504-0.173-2.345-0.13
		c0.139-0.515-0.03-1.094-0.427-1.37c0.06-0.301,0.107-0.613,0.15-0.921c0.022-0.086,0.046-0.173,0.065-0.26
		c0.736,0.275,1.466,0.595,2.185,0.971c3.63,1.903,6.705,4.702,10.317,6.655c3.424,1.851,7.063,3.275,10.702,4.632
		c0.25,0.093,0.347-0.297,0.108-0.395c-4.272-1.75-8.603-3.416-12.559-5.826c-3.322-2.027-6.24-4.71-9.851-6.242
		c-0.265-0.113-0.534-0.205-0.8-0.306c0.073-0.398,0.133-0.797,0.169-1.201c1.549,0.75,2.959,1.84,4.37,2.769
		c4.189,2.753,8.583,5.137,13.134,7.181c0.165,0.126,0.352,0.238,0.558,0.338c0.438,0.212,0.95,0.401,1.497,0.559
		c1.308,0.552,2.627,1.077,3.96,1.576c-0.169,0.919-0.298,1.837-0.609,2.735c-0.097,0.278-0.214,0.55-0.343,0.815
		c-0.104,0.09-0.2,0.188-0.308,0.274c-0.527,0.252-1.069,0.431-1.614,0.579c-1.51-0.243-2.583-1.011-3.866-2.068
		c-0.736-0.606-1.256-0.944-2.145-1.033c-0.29-0.268-0.742-0.346-1.181-0.293c0.04-0.317,0.065-0.636,0.079-0.955
		c0.028-0.562-0.807-0.788-1.067-0.291c-0.26,0.492-0.339,0.964-0.216,1.455c-0.027,0.159-0.052,0.319-0.044,0.479
		c-0.244,0.317-0.371,0.701-0.387,1.102c-0.123,0.265-0.154,0.575-0.035,0.868c-0.394,1.639,0.858,3.817,1.803,5.17
		c-0.912,0.825-2.137,1.28-2.902,2.276c-0.089,0.118,0.058,0.312,0.196,0.259c1.24-0.483,2.232-1.678,3.65-1.736
		c0.525-0.02,0.931-0.606,0.629-1.089c-0.275-0.443-0.54-0.883-0.79-1.323c0.123,0.064,0.25,0.13,0.373,0.19
		c0.55,0.565,1.148,1.086,1.717,1.548c-1.06,0.792-2.313,1.621-2.906,2.707c-0.096,0.179,0.062,0.429,0.277,0.362
		c1.454-0.451,2.733-1.74,4.108-2.45c0.416-0.215,0.418-0.675,0.2-1.004c0.127,0.023,0.25,0.045,0.357,0.059
		c1.585,0.205,3.166-0.051,4.524-0.703c0.619,0.019,1.224-0.067,1.854-0.28c0.846-0.282,1.702-1.225,2.55-1.343
		c0.916-0.128,2.184,0.501,3.193,0.455c1.113-0.051,2.22-0.25,3.131-0.916C140.026,31.656,139.92,31.381,139.689,31.421
		 M18.188,14.514c-0.073-0.006-0.146-0.01-0.219-0.014c0.062-0.071,0.127-0.134,0.194-0.195
		C18.161,14.376,18.171,14.444,18.188,14.514 M13.279,18.947c-0.021-0.152-0.081-0.292-0.181-0.402
		c0.075-0.018,0.15-0.038,0.227-0.055c0.058,0.166,0.119,0.333,0.181,0.5C13.433,18.973,13.356,18.96,13.279,18.947 M10.109,19.361
		c-0.015,0.058-0.015,0.114-0.015,0.173c-0.008,0.013-0.016,0.024-0.02,0.034c-0.037-0.053-0.073-0.107-0.111-0.164
		C10.009,19.391,10.06,19.377,10.109,19.361 M10.902,20.647c0.044-0.018,0.088-0.03,0.137-0.048
		c-0.052,0.063-0.092,0.132-0.141,0.199c-0.027-0.043-0.054-0.086-0.081-0.128C10.844,20.665,10.871,20.659,10.902,20.647
		 M37.315,16.35c-0.046,0.079-0.094,0.16-0.135,0.246c-0.277-0.094-0.552-0.199-0.831-0.301c0.277,0.029,0.565,0.064,0.865,0.085
		C37.253,16.383,37.284,16.365,37.315,16.35 M32.645,18.725c0.573-0.532,0.985-1.148,1.485-1.736
		c0.454-0.534,0.929-0.701,1.44-0.728c0.006,0.004,0.006,0.011,0.016,0.015c0.417,0.182,0.833,0.353,1.256,0.519
		c-1.458,1.006-2.985,1.893-4.608,2.291C32.372,18.969,32.512,18.849,32.645,18.725 M8.147,16.28C8,16.218,7.386,15.997,7.767,15.94
		c0.169-0.026,0.688,0.229,0.77,0.269c0.19,0.091,0.361,0.201,0.527,0.323C8.75,16.466,8.423,16.402,8.147,16.28 M8.573,24.543
		c-0.158-0.02-0.914-0.065-1.004-0.184c-0.29-0.372,0.241-0.641,0.487-0.758c0.446-0.217,0.929-0.282,1.412-0.267
		c-0.107,0.393-0.148,0.81-0.104,1.241C9.098,24.58,8.829,24.574,8.573,24.543 M11.702,28.671c-0.062,0.142-0.123,0.284-0.185,0.423
		c-0.008-0.135-0.023-0.269-0.035-0.403C11.556,28.683,11.629,28.677,11.702,28.671 M36.224,36.467
		c-1.614,0.14-3.233,0.25-4.851,0.336c-3.035,0.166-6.076,0.24-9.115,0.264c-2.453,0.02-4.905-0.003-7.355-0.035
		c0.088-0.755,0.173-1.515,0.254-2.279c6.894-0.256,13.774-0.292,20.667,0.002c0.356,0.014,0.629-0.157,0.813-0.407
		c-0.09,0.698-0.196,1.4-0.329,2.111C36.28,36.461,36.253,36.463,36.224,36.467 M38.359,16.968c-0.01-0.013-0.021-0.028-0.033-0.04
		c0.016-0.017,0.029-0.037,0.044-0.055c0.134-0.148,0.275-0.282,0.416-0.415c0.255,0.35,0.634,0.579,1.113,0.496
		c0.341-0.062,0.458-0.395,0.412-0.688c6.011,2.879,12.941,1.689,19.112-0.224c1.487-0.462,2.893-0.787,4.284-1.014
		c-0.044,0.13-0.091,0.26-0.139,0.39c-0.648,0.197-1.306,0.412-1.983,0.662C53.864,18.934,46.086,19.317,38.359,16.968
		 M56.403,18.244c2.377-0.543,4.644-1.53,6.955-2.294c-0.192,0.477-0.408,0.953-0.64,1.438c-0.106,0.225-0.198,0.443-0.268,0.66
		c-0.916,0.461-1.866,0.853-2.862,1.135c-1.754,0.496-3.42,0.352-5.186,0.547c-0.819,0.09-1.4,0.404-1.752,0.832
		c-0.06-0.075-0.133-0.143-0.206-0.201c-0.544-0.691-1.304-1.135-2.189-1.312C52.316,18.971,54.374,18.708,56.403,18.244
		 M50.968,20.511c-0.127-0.099-0.242-0.215-0.35-0.337c0.158,0.055,0.313,0.12,0.463,0.195
		C51.041,20.413,51.002,20.458,50.968,20.511 M58.058,26.333c-0.1-0.412-0.338-0.829-0.664-1.237
		c0.052,0.003,0.106,0.005,0.16,0.009C57.91,25.608,58.165,25.788,58.058,26.333 M73.399,14.671
		c3.816,0.038,7.628-0.216,11.427-0.569c4.207-0.39,8.4-0.908,12.61-1.28c2.194-0.195,4.561-0.52,6.74,0.002
		c-0.162,0.414-0.345,0.803-0.545,1.184c-5.089-1.255-10.438-0.623-15.672,0.063c-0.154-0.079-0.331-0.122-0.492-0.096
		c-0.188,0.028-0.327,0.11-0.442,0.218c-1.148,0.152-2.293,0.298-3.424,0.424C80.135,14.997,76.819,14.937,73.399,14.671
		 M103.361,14.48c-0.46,0.776-1.014,1.494-1.658,2.167c-1.118,0.045-2.233,0.073-3.33-0.012c-2.119-0.16-3.974-1.115-6.051-1.42
		c-1.065-0.156-2.349-0.018-3.378,0.46c-0.272-0.329-0.473-0.644-0.562-1.096c-0.004-0.015-0.012-0.024-0.016-0.036
		C93.415,13.891,98.514,13.33,103.361,14.48 M130.472,25.689c0.008,0.009,0.02,0.017,0.029,0.022
		c-0.002,0.024-0.006,0.045-0.01,0.071c-0.004-0.002-0.008-0.004-0.012-0.006C130.476,25.747,130.472,25.717,130.472,25.689
		 M128.757,24.846c-0.033,0.081-0.035,0.171-0.023,0.258c-0.268-0.104-0.543-0.205-0.808-0.313
		C128.206,24.82,128.483,24.839,128.757,24.846 M129.455,25.384c0.096-0.036,0.193-0.069,0.29-0.105
		c-0.012,0.067-0.027,0.134-0.04,0.201C129.62,25.45,129.537,25.416,129.455,25.384"/>
	<path fill="#FFFEFF" d="M152.87,118.28c-4.57-2.037-8.881-4.521-12.858-7.357c2.825-1.063,5.753-1.954,8.665-5.947
		c-4.529-0.954-7.186-2.393-9.655-5.971c1.865,0.752,4.037,0.893,6.005,0.389c-3.481-0.987-6.774-2.452-9.771-4.293
		c2.805-0.529,5.517-1.449,7.979-2.743c0.51-0.267,1.081-0.704,0.912-1.204c-1.573-0.192-5.923,0.737-7.502,0.479
		c0.937-0.315,6.367-2.791,6.967-4.29c-12.148-1.965-22.204-14.063-23.962-18.053l-0.358,0.5c-0.165,8.903-4.416,17.7-11.599,23.993
		c1.957,0.227,3.921,0.366,5.894,0.433c-1.52,1.562-3.192,3.008-5.023,4.287c1.708-0.014,3.41-0.029,5.116-0.042
		c-2.174,4.468-6.683,8.015-11.979,9.425c3.493,1.312,7.125,2.321,10.829,3.043c-3.708,4.201-8.276,7.823-13.439,10.604
		c8.032,2.427,16.444,4.091,24.927,4.205v10.094h5.481v-10.246C137.871,124.983,146.146,122.669,152.87,118.28"/>
	<path fill="#FFFEFF" d="M8.576,121.894c-4.57-2.037-8.881-4.521-12.858-7.357c2.825-1.063,5.753-1.954,8.665-5.947
		c-4.529-0.954-7.186-2.393-9.655-5.971c1.865,0.752,4.037,0.893,6.005,0.389c-3.481-0.987-6.774-2.452-9.771-4.293
		c2.805-0.529,5.517-1.449,7.979-2.743c0.51-0.267,1.081-0.704,0.912-1.204c-1.573-0.192-5.923,0.737-7.502,0.479
		c0.937-0.315,6.367-2.791,6.967-4.29c-12.148-1.965-22.204-14.063-23.962-18.053l-0.358,0.5c-0.165,8.903-4.416,17.7-11.599,23.993
		c1.957,0.227,3.921,0.366,5.894,0.433c-1.52,1.562-3.192,3.008-5.023,4.287c1.708-0.014,3.41-0.029,5.116-0.042
		c-2.174,4.468-6.683,8.015-11.979,9.425c3.493,1.312,7.125,2.321,10.829,3.043c-3.708,4.201-8.276,7.823-13.439,10.604
		c8.032,2.427,16.444,4.091,24.927,4.205v10.094h5.481v-10.246C-6.423,128.597,1.851,126.283,8.576,121.894"/>
	<path fill="#FFFEFF" d="M105.101,108.828c-2.954-1.315-5.739-2.92-8.311-4.753c1.827-0.687,3.72-1.264,5.601-3.843
		c-2.924-0.616-4.644-1.547-6.237-3.859c1.202,0.487,2.606,0.577,3.877,0.252c-2.246-0.637-4.376-1.583-6.311-2.774
		c1.812-0.342,3.563-0.935,5.155-1.771c0.328-0.173,0.696-0.456,0.588-0.779c-1.016-0.123-3.827,0.477-4.847,0.31
		c0.604-0.204,4.112-1.802,4.503-2.772c-7.85-1.269-14.348-9.084-15.482-11.663L83.402,77.5c-0.104,5.753-2.851,11.436-7.49,15.5
		c1.261,0.146,2.531,0.236,3.804,0.281c-0.98,1.01-2.062,1.943-3.243,2.77l3.304-0.029c-1.404,2.887-4.316,5.18-7.742,6.092
		c2.256,0.848,4.603,1.499,7,1.966c-2.398,2.714-5.349,5.053-8.687,6.85c5.193,1.569,10.625,2.643,16.107,2.718v6.521h3.541v-6.619
		C95.41,113.159,100.754,111.665,105.101,108.828"/>
	<path fill="#FFFEFF" d="M31.217,112.717c-2.955-1.317-5.738-2.919-8.311-4.755c1.829-0.687,3.72-1.262,5.601-3.841
		c-2.924-0.616-4.644-1.546-6.238-3.859c1.202,0.487,2.606,0.577,3.879,0.252c-2.249-0.638-4.378-1.584-6.313-2.773
		c1.812-0.342,3.562-0.937,5.155-1.773c0.329-0.173,0.696-0.454,0.588-0.777c-1.016-0.125-3.828,0.475-4.847,0.31
		c0.604-0.204,4.116-1.802,4.503-2.772c-7.85-1.27-14.347-9.084-15.482-11.663l-0.235,0.323c-0.104,5.751-2.851,11.435-7.49,15.5
		c1.262,0.146,2.531,0.237,3.805,0.281c-0.979,1.008-2.062,1.943-3.243,2.77c1.101-0.01,2.203-0.02,3.305-0.029
		c-1.404,2.887-4.316,5.178-7.742,6.089c2.256,0.85,4.605,1.5,7,1.966c-2.398,2.716-5.349,5.055-8.682,6.852
		c5.189,1.569,10.623,2.643,16.103,2.716v6.522h3.541v-6.619C21.526,117.046,26.87,115.552,31.217,112.717"/>
	<path fill="#FFFEFF" d="M78.907,115.237c-4.285-1.912-8.328-4.239-12.063-6.901c2.655-0.997,5.401-1.831,8.129-5.578
		c-4.245-0.895-6.736-2.245-9.054-5.599c1.748,0.705,3.787,0.837,5.632,0.363c-3.266-0.923-6.357-2.298-9.166-4.025
		c2.631-0.497,5.174-1.359,7.486-2.572c0.475-0.253,1.012-0.663,0.852-1.129c-1.474-0.181-5.553,0.691-7.036,0.449
		c0.881-0.295,5.972-2.618,6.538-4.024C58.827,84.377,49.398,73.032,47.75,69.289l-0.34,0.467
		c-0.15,8.351-4.139,16.602-10.875,22.502c1.835,0.213,3.679,0.346,5.528,0.408c-1.425,1.466-2.995,2.82-4.71,4.022
		c1.598-0.014,3.197-0.03,4.795-0.042c-2.039,4.19-6.265,7.518-11.237,8.841c3.278,1.229,6.684,2.175,10.16,2.853
		c-3.48,3.941-7.761,7.336-12.604,9.946c7.534,2.276,15.422,3.836,23.379,3.943v9.467h5.14v-9.608
		C64.84,121.522,72.599,119.355,78.907,115.237"/>
	<rect x="-47.53" y="120.154" fill="#FFFEFF" width="305.262" height="28.564"/>
	<path fill="#FFFEFF" d="M16.173,6.527c3.385,0,3.393-5.263,0-5.263C12.788,1.265,12.78,6.527,16.173,6.527"/>
	<path fill="#FFFEFF" d="M33.891,15.179c-0.029,0.045-0.056,0.09-0.083,0.136c-0.219,0.366-0.219,0.851,0,1.217
		c0.027,0.045,0.054,0.092,0.083,0.137c0.748,1.25,2.752,0.728,2.752-0.746C36.643,14.452,34.643,13.924,33.891,15.179"/>
	<path fill="#FFFEFF" d="M52.26,5.373c1.9,0,1.904-2.954,0-2.954C50.359,2.419,50.355,5.373,52.26,5.373"/>
	<path fill="#FFFEFF" d="M81.383,3.117c2.256,0,2.26-3.507,0-3.507C79.125-0.39,79.121,3.117,81.383,3.117"/>
	<path fill="#FFFEFF" d="M120.633,17.656c2.228,0,2.231-3.462,0-3.462C118.405,14.193,118.401,17.656,120.633,17.656"/>
	<path fill="#FFFEFF" d="M134.563,3.516c0.327,0,0.327-0.508,0-0.508S134.235,3.516,134.563,3.516"/>
	<path fill="#FFFEFF" d="M8.576,59.186c1.9,0,1.904-2.955,0-2.955C6.675,56.231,6.671,59.186,8.576,59.186"/>
	<path fill="#FFFEFF" d="M106.707,74.473c2.018,0,2.021-3.139,0-3.139C104.688,71.333,104.684,74.473,106.707,74.473"/>
	<path fill="#FFFEFF" d="M133.928,56.089c1.989,0,1.993-3.092,0-3.092C131.939,52.997,131.936,56.089,133.928,56.089"/>
	<path fill="#FFFEFF" d="M143.265,66.386c0.457-0.073,0.829-0.195,1.248-0.394c1.002-0.474,1.002-2.164,0-2.641
		c-0.419-0.199-0.791-0.319-1.248-0.392c-1.12-0.179-2.251,0.473-2.251,1.713C141.014,65.902,142.141,66.565,143.265,66.386"/>
	<path fill="#FFFEFF" d="M141.525,7.305c1.131,0,1.131-1.755,0-1.755C140.398,5.55,140.396,7.305,141.525,7.305"/>
	<text transform="matrix(1 0 0 1 64.1431 68.25)" fill="#FFFEFF" font-family="'Corben-Regular'" font-size="48">2</text>
</g>
</svg>
