<?xml version="1.0" encoding="utf-8"?>
<!-- Generator: Adobe Illustrator 16.0.3, SVG Export Plug-In . SVG Version: 6.00 Build 0)  -->
<!DOCTYPE svg PUBLIC "-//W3C//DTD SVG 1.1//EN" "http://www.w3.org/Graphics/SVG/1.1/DTD/svg11.dtd">
<svg version="1.1" xmlns="http://www.w3.org/2000/svg" xmlns:xlink="http://www.w3.org/1999/xlink" x="0px" y="0px" width="150px"
	 height="148.839px" viewBox="0 0 150 148.839" enable-background="new 0 0 150 148.839" xml:space="preserve">
<g id="Background">
</g>
<g id="Capa_3">
	<g id="_x39__1_">
		<g>
			<rect x="-41.585" fill-rule="evenodd" clip-rule="evenodd" fill="#FFFFFF" width="305.26" height="148.946"/>
		</g>
	</g>
	<g>
		<path fill="#20442C" d="M110.863,32.22c3.679-3.27,9.202-3.256,13.61-5.452c1.13-0.562,2.328-1.893,1.574-2.905
			c-0.216-0.291-0.555-0.464-0.893-0.596c-1.347-0.524-2.893-0.516-4.234,0.026c2.866-2.59,7.185-2.672,10.611-4.457
			c0.321-0.166,0.644-0.358,0.849-0.655c0.393-0.575,0.207-1.404-0.264-1.918c-0.473-0.512-1.162-0.764-1.84-0.92
			c-1.242-0.288-2.544-0.311-3.795-0.07c2.839-0.841,5.043-3.507,5.337-6.455c0.034-0.35,0.029-0.745-0.211-1.001
			c-0.246-0.262-0.647-0.288-1.006-0.269c-3.261,0.178-5.932,2.532-8.318,4.761c0.398-1.233,0.555-3.001-0.672-3.422
			c-0.758-0.261-1.558,0.24-2.159,0.773c-2.412,2.13-3.979,5.196-4.294,8.4c0.211-1.213-1.427-2.08-2.564-1.611
			c-1.139,0.471-1.755,1.698-2.141,2.867c-1.326,4.023-1.023,8.558,0.824,12.368"/>
		<path fill="#03532E" d="M114.113,25.16c-0.035,0.06-0.074,0.119-0.11,0.179c-0.563,0.953-1.087,1.926-1.571,2.918
			c-0.589,1.204-0.975,2.81-2.03,3.679c-0.15,0.125-0.057,0.41,0.155,0.368c1.495-0.295,1.927-2.606,2.519-3.784
			c0.297-0.593,0.608-1.179,0.936-1.758c0.052,0.089,0.153,0.146,0.264,0.09c1.299-0.665,2.58-1.265,4.017-1.581
			c1.317-0.288,2.619-0.232,3.947-0.375c0.146-0.017,0.195-0.264,0.037-0.305c-2.564-0.672-5.856,0.311-8.033,1.771
			c0.094-0.16,0.186-0.322,0.281-0.481c0.141,0.058,0.321-0.062,0.257-0.249c-0.012-0.038-0.024-0.073-0.037-0.11
			c0.786-1.287,1.639-2.532,2.554-3.727c0.812-1.058,1.668-2.047,2.564-2.987c1.178,0.08,2.366,0.015,3.545-0.008
			c1.536-0.032,3.166,0.07,4.671-0.259c0.156-0.036,0.16-0.253-0.003-0.281c-1.341-0.232-2.769-0.094-4.126-0.065
			c-1.189,0.026-2.398,0.008-3.591,0.108c2.576-2.603,5.458-4.821,8.494-6.988c0.193-0.136,0.008-0.472-0.21-0.362
			c-3.095,1.552-5.88,3.779-8.332,6.269c0.127-0.689,0.234-1.382,0.38-2.066c0.201-0.956,0.56-1.905,0.629-2.875
			c0.013-0.194-0.229-0.242-0.316-0.083c-0.829,1.524-1.151,3.816-1.228,5.576c-0.566,0.596-1.115,1.204-1.644,1.819
			c-1.354,1.579-2.586,3.267-3.685,5.036c-0.29-0.897-0.539-1.797-0.659-2.744c-0.149-1.169,0.016-2.348-0.138-3.507
			c-0.018-0.125-0.202-0.151-0.248-0.031C112.646,20.324,113.216,23.158,114.113,25.16"/>
		<path fill="#20442C" d="M110.426,33.715c4.929-0.007,9.06-3.708,13.818-5.009c1.221-0.332,3.002-0.136,3.107,1.126
			c0.032,0.362-0.107,0.719-0.273,1.043c-0.662,1.293-1.829,2.319-3.19,2.808c3.867,0.028,7.157-2.797,10.91-3.748
			c0.351-0.089,0.721-0.161,1.07-0.075c0.676,0.169,1.088,0.914,1.074,1.613c-0.015,0.699-0.364,1.348-0.768,1.92
			c-0.741,1.043-1.701,1.931-2.8,2.587c2.687-1.267,6.107-0.742,8.281,1.271c0.259,0.239,0.517,0.537,0.507,0.891
			c-0.01,0.359-0.295,0.647-0.576,0.872c-2.562,2.046-6.126,2.065-9.393,1.989c1.116,0.658,2.404,1.878,1.765,3.012
			c-0.396,0.704-1.326,0.861-2.13,0.865c-3.224,0.014-6.43-1.235-8.791-3.427c0.963,0.768,0.31,2.512-0.855,2.92
			c-1.165,0.409-2.441-0.099-3.506-0.718c-3.662-2.129-6.442-5.728-7.585-9.819"/>
		<path fill="#03532E" d="M117.545,36.833c-0.065-0.02-0.135-0.037-0.2-0.059c-1.054-0.338-2.094-0.716-3.115-1.138
			c-1.239-0.509-2.593-1.454-3.961-1.403c-0.195,0.009-0.315-0.266-0.128-0.376c1.316-0.778,3.172,0.665,4.397,1.152
			c0.615,0.246,1.239,0.477,1.868,0.692c-0.021-0.1,0.017-0.212,0.136-0.244c1.416-0.368,2.773-0.775,4.061-1.499
			c1.179-0.665,2.117-1.576,3.208-2.355c0.12-0.086,0.32,0.066,0.23,0.204c-1.478,2.216-4.598,3.681-7.198,4.039
			c0.178,0.059,0.354,0.118,0.53,0.173c0.067-0.136,0.282-0.167,0.358,0.016c0.016,0.034,0.03,0.071,0.046,0.107
			c1.442,0.438,2.908,0.802,4.386,1.086c1.309,0.25,2.608,0.419,3.903,0.524c0.83-0.845,1.764-1.59,2.664-2.36
			c1.172-1.004,2.326-2.169,3.673-2.926c0.139-0.079,0.287,0.082,0.185,0.211c-0.851,1.072-2.014,1.92-3.05,2.805
			c-0.908,0.776-1.805,1.597-2.764,2.318c3.656,0.229,7.289-0.034,11.002-0.438c0.236-0.025,0.317,0.35,0.083,0.413
			c-3.352,0.904-6.914,1.096-10.403,0.868c0.552,0.431,1.092,0.878,1.655,1.295c0.785,0.582,1.682,1.053,2.378,1.735
			c0.139,0.136-0.01,0.333-0.182,0.272c-1.634-0.587-3.395-2.09-4.619-3.358c-0.819-0.067-1.633-0.158-2.438-0.266
			c-2.063-0.278-4.107-0.72-6.102-1.311c0.376,0.865,0.786,1.707,1.323,2.497c0.665,0.974,1.57,1.748,2.224,2.718
			c0.07,0.106-0.05,0.25-0.165,0.189C119.652,41.438,118.2,38.935,117.545,36.833"/>
		<path fill="#72130A" d="M114.25,33.523c0.132-0.526,0.213-1.301,0.01-1.901c0.034-1.207-0.716-2.39-1.659-3.111
			c-1.199-0.917-2.776-1.196-4.239-0.897c-1.528,0.313-3.018,1.317-3.552,2.835c-0.196,0.566-0.256,1.32-0.099,1.989
			c-0.141,1.069,0.089,2.17,0.788,3.082c0.69,0.898,1.651,1.466,2.685,1.659c0.558,0.181,1.159,0.259,1.675,0.259
			c1.144,0,2.152-0.456,2.933-1.284C113.481,35.425,114.006,34.5,114.25,33.523"/>
		<path fill="#72130A" d="M115.453,42.017c0.109-0.437,0.177-1.081,0.009-1.578c0.027-1-0.595-1.981-1.377-2.579
			c-0.993-0.761-2.301-0.993-3.515-0.744c-1.268,0.258-2.503,1.092-2.942,2.35c-0.165,0.47-0.214,1.095-0.085,1.649
			c-0.116,0.887,0.075,1.801,0.655,2.556c0.571,0.745,1.369,1.215,2.225,1.375c0.462,0.15,0.962,0.215,1.389,0.215
			c0.948,0,1.785-0.378,2.433-1.065C114.815,43.591,115.25,42.826,115.453,42.017"/>
		<path fill="#72130A" d="M106.948,39.667c0.082-0.33,0.134-0.814,0.008-1.188c0.02-0.755-0.448-1.494-1.037-1.945
			c-0.75-0.573-1.736-0.748-2.65-0.561c-0.956,0.195-1.888,0.823-2.22,1.772c-0.123,0.354-0.162,0.825-0.063,1.242
			c-0.087,0.669,0.057,1.358,0.492,1.927c0.433,0.562,1.034,0.917,1.679,1.038c0.349,0.113,0.726,0.162,1.048,0.162
			c0.715,0,1.345-0.285,1.834-0.802C106.469,40.854,106.796,40.277,106.948,39.667"/>
	</g>
	<g>
		<path fill="#20442C" d="M112.785,124.023c3.679-3.27,9.202-3.256,13.61-5.452c1.13-0.562,2.328-1.893,1.574-2.905
			c-0.216-0.291-0.555-0.464-0.893-0.596c-1.347-0.524-2.893-0.516-4.234,0.026c2.866-2.59,7.185-2.672,10.611-4.457
			c0.321-0.166,0.644-0.358,0.849-0.655c0.393-0.575,0.207-1.404-0.264-1.918c-0.473-0.512-1.162-0.764-1.84-0.92
			c-1.242-0.288-2.544-0.311-3.795-0.07c2.839-0.841,5.043-3.507,5.337-6.455c0.034-0.35,0.029-0.745-0.211-1.001
			c-0.246-0.262-0.647-0.288-1.006-0.269c-3.261,0.178-5.932,2.532-8.318,4.761c0.398-1.233,0.555-3.001-0.672-3.422
			c-0.758-0.261-1.558,0.24-2.159,0.773c-2.412,2.13-3.979,5.196-4.294,8.4c0.211-1.213-1.427-2.08-2.564-1.611
			c-1.139,0.471-1.755,1.698-2.141,2.867c-1.326,4.023-1.023,8.558,0.824,12.368"/>
		<path fill="#03532E" d="M116.035,116.963c-0.035,0.06-0.074,0.119-0.11,0.179c-0.563,0.953-1.087,1.926-1.571,2.918
			c-0.589,1.204-0.975,2.81-2.03,3.679c-0.15,0.125-0.057,0.41,0.155,0.368c1.495-0.295,1.927-2.606,2.519-3.784
			c0.297-0.593,0.608-1.179,0.936-1.758c0.052,0.089,0.153,0.146,0.264,0.09c1.299-0.665,2.58-1.265,4.017-1.581
			c1.317-0.288,2.619-0.232,3.947-0.375c0.146-0.017,0.195-0.264,0.037-0.305c-2.564-0.672-5.856,0.311-8.033,1.771
			c0.094-0.16,0.186-0.322,0.281-0.481c0.141,0.058,0.321-0.062,0.257-0.249c-0.012-0.038-0.024-0.073-0.037-0.11
			c0.786-1.287,1.639-2.532,2.554-3.727c0.812-1.058,1.668-2.047,2.564-2.987c1.178,0.08,2.366,0.015,3.545-0.008
			c1.536-0.032,3.166,0.07,4.671-0.259c0.156-0.036,0.16-0.253-0.003-0.281c-1.341-0.232-2.769-0.094-4.126-0.065
			c-1.189,0.026-2.398,0.008-3.591,0.108c2.576-2.603,5.458-4.821,8.494-6.988c0.193-0.136,0.008-0.472-0.21-0.362
			c-3.095,1.552-5.88,3.779-8.332,6.269c0.127-0.689,0.234-1.382,0.38-2.066c0.201-0.956,0.56-1.905,0.629-2.875
			c0.013-0.194-0.229-0.242-0.316-0.083c-0.829,1.524-1.151,3.816-1.228,5.576c-0.566,0.596-1.115,1.204-1.644,1.819
			c-1.354,1.579-2.586,3.267-3.685,5.036c-0.29-0.897-0.539-1.797-0.659-2.744c-0.149-1.169,0.016-2.348-0.138-3.507
			c-0.018-0.125-0.202-0.151-0.248-0.031C114.568,112.127,115.138,114.961,116.035,116.963"/>
		<path fill="#20442C" d="M112.348,125.519c4.929-0.007,9.06-3.708,13.818-5.009c1.221-0.332,3.002-0.136,3.107,1.126
			c0.032,0.362-0.107,0.719-0.273,1.043c-0.662,1.293-1.829,2.319-3.19,2.808c3.867,0.028,7.157-2.797,10.91-3.748
			c0.351-0.089,0.721-0.161,1.07-0.075c0.676,0.169,1.088,0.914,1.074,1.613c-0.015,0.699-0.364,1.348-0.768,1.92
			c-0.741,1.043-1.701,1.931-2.8,2.587c2.687-1.267,6.107-0.742,8.281,1.271c0.259,0.239,0.517,0.537,0.507,0.891
			c-0.01,0.359-0.295,0.647-0.576,0.872c-2.562,2.046-6.126,2.065-9.393,1.989c1.116,0.658,2.404,1.878,1.765,3.012
			c-0.396,0.704-1.326,0.861-2.13,0.865c-3.224,0.014-6.43-1.235-8.791-3.427c0.963,0.768,0.31,2.512-0.855,2.92
			c-1.165,0.409-2.441-0.099-3.506-0.718c-3.662-2.129-6.442-5.728-7.585-9.819"/>
		<path fill="#03532E" d="M119.467,128.636c-0.065-0.02-0.135-0.037-0.2-0.059c-1.054-0.338-2.094-0.716-3.115-1.138
			c-1.239-0.509-2.593-1.454-3.961-1.403c-0.195,0.009-0.315-0.266-0.128-0.376c1.316-0.778,3.172,0.665,4.397,1.152
			c0.615,0.246,1.239,0.477,1.868,0.692c-0.021-0.1,0.017-0.212,0.136-0.244c1.416-0.368,2.773-0.775,4.061-1.499
			c1.179-0.665,2.117-1.576,3.208-2.355c0.12-0.086,0.32,0.066,0.23,0.204c-1.478,2.216-4.598,3.681-7.198,4.039
			c0.178,0.059,0.354,0.118,0.53,0.173c0.067-0.136,0.282-0.167,0.358,0.016c0.016,0.034,0.03,0.071,0.046,0.107
			c1.442,0.438,2.908,0.802,4.386,1.086c1.309,0.25,2.608,0.419,3.903,0.524c0.83-0.845,1.764-1.59,2.664-2.36
			c1.172-1.004,2.326-2.169,3.673-2.926c0.139-0.079,0.287,0.082,0.185,0.211c-0.851,1.072-2.014,1.92-3.05,2.805
			c-0.908,0.776-1.805,1.597-2.764,2.318c3.656,0.229,7.289-0.034,11.002-0.438c0.236-0.025,0.317,0.35,0.083,0.413
			c-3.352,0.904-6.914,1.096-10.403,0.868c0.552,0.431,1.092,0.878,1.655,1.295c0.785,0.582,1.682,1.053,2.378,1.735
			c0.139,0.136-0.01,0.333-0.182,0.272c-1.634-0.587-3.395-2.09-4.619-3.358c-0.819-0.067-1.633-0.158-2.438-0.266
			c-2.063-0.278-4.107-0.72-6.102-1.311c0.376,0.865,0.786,1.707,1.323,2.497c0.665,0.974,1.57,1.748,2.224,2.718
			c0.07,0.106-0.05,0.25-0.165,0.189C121.574,133.241,120.122,130.738,119.467,128.636"/>
		<path fill="#72130A" d="M116.172,125.327c0.132-0.526,0.213-1.301,0.01-1.901c0.034-1.207-0.716-2.39-1.659-3.111
			c-1.199-0.917-2.776-1.196-4.239-0.897c-1.528,0.313-3.018,1.317-3.552,2.835c-0.196,0.566-0.256,1.32-0.099,1.989
			c-0.141,1.069,0.089,2.17,0.788,3.082c0.69,0.898,1.651,1.466,2.685,1.659c0.558,0.181,1.159,0.259,1.675,0.259
			c1.144,0,2.152-0.456,2.933-1.284C115.403,127.228,115.928,126.304,116.172,125.327"/>
		<path fill="#72130A" d="M117.375,133.82c0.109-0.437,0.177-1.081,0.009-1.578c0.027-1-0.595-1.981-1.377-2.579
			c-0.993-0.761-2.301-0.993-3.515-0.744c-1.268,0.258-2.503,1.092-2.942,2.35c-0.165,0.47-0.214,1.095-0.085,1.649
			c-0.116,0.887,0.075,1.801,0.655,2.556c0.571,0.745,1.369,1.215,2.225,1.375c0.462,0.15,0.962,0.215,1.389,0.215
			c0.948,0,1.785-0.378,2.433-1.065C116.737,135.395,117.172,134.629,117.375,133.82"/>
		<path fill="#72130A" d="M108.87,131.47c0.082-0.33,0.134-0.814,0.008-1.188c0.02-0.755-0.448-1.494-1.037-1.945
			c-0.75-0.573-1.736-0.748-2.65-0.561c-0.956,0.195-1.888,0.823-2.22,1.772c-0.123,0.354-0.162,0.825-0.063,1.242
			c-0.087,0.669,0.057,1.358,0.492,1.927c0.433,0.562,1.034,0.917,1.679,1.038c0.349,0.113,0.726,0.162,1.048,0.162
			c0.715,0,1.345-0.285,1.834-0.802C108.391,132.658,108.718,132.081,108.87,131.47"/>
	</g>
	<g>
		<path fill="#20442C" d="M19.708,30.879c3.679-3.27,9.202-3.256,13.61-5.452c1.13-0.562,2.328-1.893,1.574-2.905
			c-0.216-0.291-0.555-0.464-0.893-0.596c-1.347-0.524-2.893-0.516-4.234,0.026c2.866-2.59,7.185-2.672,10.611-4.457
			c0.321-0.166,0.644-0.358,0.849-0.655c0.393-0.575,0.207-1.404-0.264-1.918c-0.473-0.512-1.162-0.764-1.84-0.92
			c-1.242-0.288-2.544-0.311-3.795-0.07c2.839-0.841,5.043-3.507,5.337-6.455c0.034-0.35,0.029-0.745-0.211-1.001
			c-0.246-0.262-0.647-0.288-1.006-0.269c-3.261,0.178-5.932,2.532-8.318,4.761c0.398-1.233,0.555-3.001-0.672-3.422
			c-0.758-0.261-1.558,0.24-2.159,0.773c-2.412,2.13-3.979,5.196-4.294,8.4c0.211-1.213-1.427-2.08-2.564-1.611
			c-1.139,0.471-1.755,1.698-2.141,2.867c-1.326,4.023-1.023,8.558,0.824,12.368"/>
		<path fill="#03532E" d="M22.958,23.819c-0.035,0.06-0.074,0.119-0.11,0.179c-0.563,0.953-1.087,1.926-1.571,2.918
			c-0.589,1.204-0.975,2.81-2.03,3.679c-0.15,0.125-0.057,0.41,0.155,0.368c1.495-0.295,1.927-2.606,2.519-3.784
			c0.297-0.593,0.608-1.179,0.936-1.758c0.052,0.089,0.153,0.146,0.264,0.09c1.299-0.665,2.58-1.265,4.017-1.581
			c1.317-0.288,2.619-0.232,3.947-0.375c0.146-0.017,0.195-0.264,0.037-0.305c-2.564-0.672-5.856,0.311-8.033,1.771
			c0.094-0.16,0.186-0.322,0.281-0.481c0.141,0.058,0.321-0.062,0.257-0.249c-0.012-0.038-0.024-0.073-0.037-0.11
			c0.786-1.287,1.639-2.532,2.554-3.727c0.812-1.058,1.668-2.047,2.564-2.987c1.178,0.08,2.366,0.015,3.545-0.008
			c1.536-0.032,3.166,0.07,4.671-0.259c0.156-0.036,0.16-0.253-0.003-0.281c-1.341-0.232-2.769-0.094-4.126-0.065
			c-1.189,0.026-2.398,0.008-3.591,0.108c2.576-2.603,5.458-4.821,8.494-6.988c0.193-0.136,0.008-0.472-0.21-0.362
			c-3.095,1.552-5.88,3.779-8.332,6.269c0.127-0.689,0.234-1.382,0.38-2.066c0.201-0.956,0.56-1.905,0.629-2.875
			c0.013-0.194-0.229-0.242-0.316-0.083c-0.829,1.524-1.151,3.816-1.228,5.576c-0.566,0.596-1.115,1.204-1.644,1.819
			c-1.354,1.579-2.586,3.267-3.685,5.036c-0.29-0.897-0.539-1.797-0.659-2.744c-0.149-1.169,0.016-2.348-0.138-3.507
			c-0.018-0.125-0.202-0.151-0.248-0.031C21.491,18.983,22.061,21.817,22.958,23.819"/>
		<path fill="#20442C" d="M19.271,32.375c4.929-0.007,9.06-3.708,13.818-5.009c1.221-0.332,3.002-0.136,3.107,1.126
			c0.032,0.362-0.107,0.719-0.273,1.043c-0.662,1.293-1.829,2.319-3.19,2.808c3.867,0.028,7.157-2.797,10.91-3.748
			c0.351-0.089,0.721-0.161,1.07-0.075c0.676,0.169,1.088,0.914,1.074,1.613c-0.015,0.699-0.364,1.348-0.768,1.92
			c-0.741,1.043-1.701,1.931-2.8,2.587c2.687-1.267,6.107-0.742,8.281,1.271c0.259,0.239,0.517,0.537,0.507,0.891
			c-0.01,0.359-0.295,0.647-0.576,0.872c-2.562,2.046-6.126,2.065-9.393,1.989c1.116,0.658,2.404,1.878,1.765,3.012
			c-0.396,0.704-1.326,0.861-2.13,0.865c-3.224,0.014-6.43-1.235-8.791-3.427c0.963,0.768,0.31,2.512-0.855,2.92
			c-1.165,0.409-2.441-0.099-3.506-0.718c-3.662-2.129-6.442-5.728-7.585-9.819"/>
		<path fill="#03532E" d="M26.39,35.492c-0.065-0.02-0.135-0.037-0.2-0.059c-1.054-0.338-2.094-0.716-3.115-1.138
			c-1.239-0.509-2.593-1.454-3.961-1.403c-0.195,0.009-0.315-0.266-0.128-0.376c1.316-0.778,3.172,0.665,4.397,1.152
			c0.615,0.246,1.239,0.477,1.868,0.692c-0.021-0.1,0.017-0.212,0.136-0.244c1.416-0.368,2.773-0.775,4.061-1.499
			c1.179-0.665,2.117-1.576,3.208-2.355c0.12-0.086,0.32,0.066,0.23,0.204c-1.478,2.216-4.598,3.681-7.198,4.039
			c0.178,0.059,0.354,0.118,0.53,0.173c0.067-0.136,0.282-0.167,0.358,0.016c0.016,0.034,0.03,0.071,0.046,0.107
			c1.442,0.438,2.908,0.802,4.386,1.086c1.309,0.25,2.608,0.419,3.903,0.524c0.83-0.845,1.764-1.59,2.664-2.36
			c1.172-1.004,2.326-2.169,3.673-2.926c0.139-0.079,0.287,0.082,0.185,0.211c-0.851,1.072-2.014,1.92-3.05,2.805
			c-0.908,0.776-1.805,1.597-2.764,2.318c3.656,0.229,7.289-0.034,11.002-0.438c0.236-0.025,0.317,0.35,0.083,0.413
			c-3.352,0.904-6.914,1.096-10.403,0.868c0.552,0.431,1.092,0.878,1.655,1.295c0.785,0.582,1.682,1.053,2.378,1.735
			c0.139,0.136-0.01,0.333-0.182,0.272c-1.634-0.587-3.395-2.09-4.619-3.358c-0.819-0.067-1.633-0.158-2.438-0.266
			c-2.063-0.278-4.107-0.72-6.102-1.311c0.376,0.865,0.786,1.707,1.323,2.497c0.665,0.974,1.57,1.748,2.224,2.718
			c0.07,0.106-0.05,0.25-0.165,0.189C28.497,40.097,27.045,37.594,26.39,35.492"/>
		<path fill="#72130A" d="M23.095,32.183c0.132-0.526,0.213-1.301,0.01-1.901c0.034-1.207-0.716-2.39-1.659-3.111
			c-1.199-0.917-2.776-1.196-4.239-0.897c-1.528,0.313-3.018,1.317-3.552,2.835c-0.196,0.566-0.256,1.32-0.099,1.989
			c-0.141,1.069,0.089,2.17,0.788,3.082c0.69,0.898,1.651,1.466,2.685,1.659c0.558,0.181,1.159,0.259,1.675,0.259
			c1.144,0,2.152-0.456,2.933-1.284C22.326,34.084,22.851,33.16,23.095,32.183"/>
		<path fill="#72130A" d="M24.298,40.676c0.109-0.437,0.177-1.081,0.009-1.578c0.027-1-0.595-1.981-1.377-2.579
			c-0.993-0.761-2.301-0.993-3.515-0.744c-1.268,0.258-2.503,1.092-2.942,2.35c-0.165,0.47-0.214,1.095-0.085,1.649
			c-0.116,0.887,0.075,1.801,0.655,2.556c0.571,0.745,1.369,1.215,2.225,1.375c0.462,0.15,0.962,0.215,1.389,0.215
			c0.948,0,1.785-0.378,2.433-1.065C23.66,42.25,24.095,41.485,24.298,40.676"/>
		<path fill="#72130A" d="M15.793,38.326c0.082-0.33,0.134-0.814,0.008-1.188c0.02-0.755-0.448-1.494-1.037-1.945
			c-0.75-0.573-1.736-0.748-2.65-0.561c-0.956,0.195-1.888,0.823-2.22,1.772c-0.123,0.354-0.162,0.825-0.063,1.242
			c-0.087,0.669,0.057,1.358,0.492,1.927c0.433,0.562,1.034,0.917,1.679,1.038c0.349,0.113,0.726,0.162,1.048,0.162
			c0.715,0,1.345-0.285,1.834-0.802C15.313,39.514,15.641,38.937,15.793,38.326"/>
	</g>
	<g>
		<path fill="#20442C" d="M14.46,126.184c3.679-3.27,9.202-3.256,13.61-5.452c1.13-0.562,2.328-1.893,1.574-2.905
			c-0.216-0.291-0.555-0.464-0.893-0.596c-1.347-0.524-2.893-0.516-4.234,0.026c2.866-2.59,7.185-2.672,10.611-4.457
			c0.321-0.166,0.644-0.358,0.849-0.655c0.393-0.575,0.207-1.404-0.264-1.918c-0.473-0.512-1.162-0.764-1.84-0.92
			c-1.242-0.288-2.544-0.311-3.795-0.07c2.839-0.841,5.043-3.507,5.337-6.455c0.034-0.35,0.029-0.745-0.211-1.001
			c-0.246-0.262-0.647-0.288-1.006-0.269c-3.261,0.178-5.932,2.532-8.318,4.761c0.398-1.233,0.555-3.001-0.672-3.422
			c-0.758-0.261-1.558,0.24-2.159,0.773c-2.412,2.13-3.979,5.196-4.294,8.4c0.211-1.213-1.427-2.08-2.564-1.611
			c-1.139,0.471-1.755,1.698-2.141,2.867c-1.326,4.023-1.023,8.558,0.824,12.368"/>
		<path fill="#03532E" d="M17.71,119.124c-0.035,0.06-0.074,0.119-0.11,0.179c-0.563,0.953-1.087,1.926-1.571,2.918
			c-0.589,1.204-0.975,2.81-2.03,3.679c-0.15,0.125-0.057,0.41,0.155,0.368c1.495-0.295,1.927-2.606,2.519-3.784
			c0.297-0.593,0.608-1.179,0.936-1.758c0.052,0.089,0.153,0.146,0.264,0.09c1.299-0.665,2.58-1.265,4.017-1.581
			c1.317-0.288,2.619-0.232,3.947-0.375c0.146-0.017,0.195-0.264,0.037-0.305c-2.564-0.672-5.856,0.311-8.033,1.771
			c0.094-0.16,0.186-0.322,0.281-0.481c0.141,0.058,0.321-0.062,0.257-0.249c-0.012-0.038-0.024-0.073-0.037-0.11
			c0.786-1.287,1.639-2.532,2.554-3.727c0.812-1.058,1.668-2.047,2.564-2.987c1.178,0.08,2.366,0.015,3.545-0.008
			c1.536-0.032,3.166,0.07,4.671-0.259c0.156-0.036,0.16-0.253-0.003-0.281c-1.341-0.232-2.769-0.094-4.126-0.065
			c-1.189,0.026-2.398,0.008-3.591,0.108c2.576-2.603,5.458-4.821,8.494-6.988c0.193-0.136,0.008-0.472-0.21-0.362
			c-3.095,1.552-5.88,3.779-8.332,6.269c0.127-0.689,0.234-1.382,0.38-2.066c0.201-0.956,0.56-1.905,0.629-2.875
			c0.013-0.194-0.229-0.242-0.316-0.083c-0.829,1.524-1.151,3.816-1.228,5.576c-0.566,0.596-1.115,1.204-1.644,1.819
			c-1.354,1.579-2.586,3.267-3.685,5.036c-0.29-0.897-0.539-1.797-0.659-2.744c-0.149-1.169,0.016-2.348-0.138-3.507
			c-0.018-0.125-0.202-0.151-0.248-0.031C16.243,114.288,16.813,117.122,17.71,119.124"/>
		<path fill="#20442C" d="M14.022,127.68c4.929-0.007,9.06-3.708,13.818-5.009c1.221-0.332,3.002-0.136,3.107,1.126
			c0.032,0.362-0.107,0.719-0.273,1.043c-0.662,1.293-1.829,2.319-3.19,2.808c3.867,0.028,7.157-2.797,10.91-3.748
			c0.351-0.089,0.721-0.161,1.07-0.075c0.676,0.169,1.088,0.914,1.074,1.613c-0.015,0.699-0.364,1.348-0.768,1.92
			c-0.741,1.043-1.701,1.931-2.8,2.587c2.687-1.267,6.107-0.742,8.281,1.271c0.259,0.239,0.517,0.537,0.507,0.891
			c-0.01,0.359-0.295,0.647-0.576,0.872c-2.562,2.046-6.126,2.065-9.393,1.989c1.116,0.658,2.404,1.878,1.765,3.012
			c-0.396,0.704-1.326,0.861-2.13,0.865c-3.224,0.014-6.43-1.235-8.791-3.427c0.963,0.768,0.31,2.512-0.855,2.92
			c-1.165,0.409-2.441-0.099-3.506-0.718c-3.662-2.129-6.442-5.728-7.585-9.819"/>
		<path fill="#03532E" d="M21.142,130.797c-0.065-0.02-0.135-0.037-0.2-0.059c-1.054-0.338-2.094-0.716-3.115-1.138
			c-1.239-0.509-2.593-1.454-3.961-1.403c-0.195,0.009-0.315-0.266-0.128-0.376c1.316-0.778,3.172,0.665,4.397,1.152
			c0.615,0.246,1.239,0.477,1.868,0.692c-0.021-0.1,0.017-0.212,0.136-0.244c1.416-0.368,2.773-0.775,4.061-1.499
			c1.179-0.665,2.117-1.576,3.208-2.355c0.12-0.086,0.32,0.066,0.23,0.204c-1.478,2.216-4.598,3.681-7.198,4.039
			c0.178,0.059,0.354,0.118,0.53,0.173c0.067-0.136,0.282-0.167,0.358,0.016c0.016,0.034,0.03,0.071,0.046,0.107
			c1.442,0.438,2.908,0.802,4.386,1.086c1.309,0.25,2.608,0.419,3.903,0.524c0.83-0.845,1.764-1.59,2.664-2.36
			c1.172-1.004,2.326-2.169,3.673-2.926c0.139-0.079,0.287,0.082,0.185,0.211c-0.851,1.072-2.014,1.92-3.05,2.805
			c-0.908,0.776-1.805,1.597-2.764,2.318c3.656,0.229,7.289-0.034,11.002-0.438c0.236-0.025,0.317,0.35,0.083,0.413
			c-3.352,0.904-6.914,1.096-10.403,0.868c0.552,0.431,1.092,0.878,1.655,1.295c0.785,0.582,1.682,1.053,2.378,1.735
			c0.139,0.136-0.01,0.333-0.182,0.272c-1.634-0.587-3.395-2.09-4.619-3.358c-0.819-0.067-1.633-0.158-2.438-0.266
			c-2.063-0.278-4.107-0.72-6.102-1.311c0.376,0.865,0.786,1.707,1.323,2.497c0.665,0.974,1.57,1.748,2.224,2.718
			c0.07,0.106-0.05,0.25-0.165,0.189C23.249,135.402,21.797,132.899,21.142,130.797"/>
		<path fill="#72130A" d="M17.847,127.488c0.132-0.526,0.213-1.301,0.01-1.901c0.034-1.207-0.716-2.39-1.659-3.111
			c-1.199-0.917-2.776-1.196-4.239-0.897c-1.528,0.313-3.018,1.317-3.552,2.835c-0.196,0.566-0.256,1.32-0.099,1.989
			c-0.141,1.069,0.089,2.17,0.788,3.082c0.69,0.898,1.651,1.466,2.685,1.659c0.558,0.181,1.159,0.259,1.675,0.259
			c1.144,0,2.152-0.456,2.933-1.284C17.078,129.389,17.603,128.465,17.847,127.488"/>
		<path fill="#72130A" d="M19.05,135.981c0.109-0.437,0.177-1.081,0.009-1.578c0.027-1-0.595-1.981-1.377-2.579
			c-0.993-0.761-2.301-0.993-3.515-0.744c-1.268,0.258-2.503,1.092-2.942,2.35c-0.165,0.47-0.214,1.095-0.085,1.649
			c-0.116,0.887,0.075,1.801,0.655,2.556c0.571,0.745,1.369,1.215,2.225,1.375c0.462,0.15,0.962,0.215,1.389,0.215
			c0.948,0,1.785-0.378,2.433-1.065C18.412,137.556,18.847,136.79,19.05,135.981"/>
		<path fill="#72130A" d="M10.545,133.631c0.082-0.33,0.134-0.814,0.008-1.188c0.02-0.755-0.448-1.494-1.037-1.945
			c-0.75-0.573-1.736-0.748-2.65-0.561c-0.956,0.195-1.888,0.823-2.22,1.772c-0.123,0.354-0.162,0.825-0.063,1.242
			c-0.087,0.669,0.057,1.358,0.492,1.927c0.433,0.562,1.034,0.917,1.679,1.038c0.349,0.113,0.726,0.162,1.048,0.162
			c0.715,0,1.345-0.285,1.834-0.802C10.065,134.819,10.393,134.242,10.545,133.631"/>
	</g>
	<g>
		<g>
			<g>
				<path fill="#8D0F24" d="M137.5,33.416c1.279,0,1.279-1.984,0-1.984S136.221,33.416,137.5,33.416L137.5,33.416z"/>
			</g>
		</g>
		<g>
			<g>
				<path fill="#8D0F24" d="M137.5,35.65c3.839,0,3.839-5.953,0-5.953S133.661,35.65,137.5,35.65L137.5,35.65z"/>
			</g>
		</g>
		<g>
			<g>
				<path fill="#8D0F24" d="M133,140.9c3.839,0,3.839-5.953,0-5.953S129.161,140.9,133,140.9L133,140.9z"/>
			</g>
		</g>
		<g>
			<g>
				<path fill="#8D0F24" d="M86,143.9c3.839,0,3.839-5.953,0-5.953S82.161,143.9,86,143.9L86,143.9z"/>
			</g>
		</g>
		<g>
			<g>
				<path fill="#8D0F24" d="M30,143.9c3.839,0,3.839-5.953,0-5.953S26.161,143.9,30,143.9L30,143.9z"/>
			</g>
		</g>
		<g>
			<g>
				<path fill="#8D0F24" d="M59,121.9c3.839,0,3.839-5.953,0-5.953S55.161,121.9,59,121.9L59,121.9z"/>
			</g>
		</g>
		<g>
			<g>
				<path fill="#8D0F24" d="M105,106.9c3.839,0,3.839-5.953,0-5.953S101.161,106.9,105,106.9L105,106.9z"/>
			</g>
		</g>
		<g>
			<g>
				<path fill="#8D0F24" d="M135,74.9c3.839,0,3.839-5.953,0-5.953S131.161,74.9,135,74.9L135,74.9z"/>
			</g>
		</g>
		<g>
			<g>
				<path fill="#8D0F24" d="M44,90.9c3.839,0,3.839-5.953,0-5.953S40.161,90.9,44,90.9L44,90.9z"/>
			</g>
		</g>
		<g>
			<g>
				<path fill="#8D0F24" d="M21,70.9c3.839,0,3.839-5.953,0-5.953S17.161,70.9,21,70.9L21,70.9z"/>
			</g>
		</g>
		<g>
			<g>
				<path fill="#8D0F24" d="M36,35.9c3.839,0,3.839-5.953,0-5.953S32.161,35.9,36,35.9L36,35.9z"/>
			</g>
		</g>
		<g>
			<g>
				<path fill="#8D0F24" d="M-1,15.9c3.839,0,3.839-5.953,0-5.953S-4.839,15.9-1,15.9L-1,15.9z"/>
			</g>
		</g>
		<g>
			<g>
				<path fill="#8D0F24" d="M9,49.9c3.839,0,3.839-5.953,0-5.953S5.161,49.9,9,49.9L9,49.9z"/>
			</g>
		</g>
		<g>
			<g>
				<path fill="#8D0F24" d="M108.334,10.233c3.839,0,3.839-5.953,0-5.953S104.495,10.233,108.334,10.233L108.334,10.233z"/>
			</g>
		</g>
	</g>
	<text transform="matrix(1 0 0 1 62.2871 96.4956)" fill="#72130A" font-family="'Corben-Regular'" font-size="48">9</text>
</g>
</svg>
