<?xml version="1.0" encoding="utf-8"?>
<!-- Generator: Adobe Illustrator 16.0.3, SVG Export Plug-In . SVG Version: 6.00 Build 0)  -->
<!DOCTYPE svg PUBLIC "-//W3C//DTD SVG 1.1//EN" "http://www.w3.org/Graphics/SVG/1.1/DTD/svg11.dtd">
<svg version="1.1" id="Capa_1" xmlns="http://www.w3.org/2000/svg" xmlns:xlink="http://www.w3.org/1999/xlink" x="0px" y="0px"
	 width="150px" height="150px" viewBox="0 0 150 150" enable-background="new 0 0 150 150" xml:space="preserve">
<g id="Background">
</g>
<g id="Capa_3">
	<g id="clasicas_01">
		<rect fill="#20442C" width="150" height="150"/>
		<path fill="#F9FBFC" d="M48.539,108.006c0.084-0.105-0.002-0.283-0.136-0.287c-0.638-0.012-1.226,0.326-1.802,0.569
			c-0.574,0.245-1.139,0.5-1.702,0.771c-0.957-0.074-1.929-0.099-2.907-0.094c0.221-0.249,0.441-0.5,0.663-0.742
			c0.391-0.426,0.976-0.844,1.183-1.39c0.041-0.108-0.062-0.231-0.177-0.206c-0.606,0.128-1.13,0.711-1.569,1.123
			c-0.394,0.367-0.804,0.789-1.139,1.232c-2.477,0.065-4.984,0.301-7.439,0.488c0.177-0.371,0.323-0.761,0.501-1.115
			c0.362-0.727,0.771-1.418,1.178-2.119c0.089-0.084,0.177-0.168,0.266-0.252c0.139-0.061,0.278-0.119,0.407-0.196
			c0.078-0.045,0.099-0.171,0.042-0.233c0.145-0.139,0.286-0.277,0.432-0.414c0.101-0.095,0.203-0.186,0.305-0.279
			c0.026,0.003,0.049,0.009,0.075,0.005c0.508-0.062,1.009-0.205,1.507-0.324c0.402-0.097,0.807-0.19,1.132-0.458
			c0.098-0.082,0.028-0.214-0.079-0.236c-0.457-0.099-0.92,0.043-1.365,0.153c-0.138,0.034-0.277,0.067-0.417,0.101
			c1.229-1.066,2.496-2.112,3.554-3.33c0.115-0.129-0.073-0.338-0.219-0.254c-1.373,0.803-2.689,1.817-3.945,2.937
			c0.063-0.187,0.124-0.371,0.19-0.55c0.222-0.596,0.595-1.25,0.527-1.895c-0.015-0.154-0.214-0.197-0.321-0.111
			c-0.503,0.401-0.699,1.17-0.918,1.752c-0.218,0.576-0.501,1.207-0.586,1.834c-0.442,0.423-0.874,0.856-1.301,1.295
			c-0.378,0.117-0.751,0.252-1.121,0.367c-0.675,0.211-1.36,0.406-2.023,0.652c-0.16-2.605-0.32-5.21-0.511-7.814
			c0.529-0.681,1.293-1.186,1.765-1.891c0.08-0.119-0.024-0.318-0.181-0.275c-0.659,0.181-1.204,0.713-1.657,1.266
			c-0.036-0.454-0.07-0.908-0.109-1.361c0.114-0.054,0.204-0.166,0.228-0.299c0.109-0.598,0.218-1.197,0.359-1.789
			c0.104-0.439,0.319-0.935,0.201-1.385c-0.036-0.135-0.204-0.216-0.32-0.109c-0.397,0.35-0.478,0.971-0.602,1.463
			c-0.089,0.353-0.165,0.705-0.235,1.058c-0.021,0.003-0.044,0.009-0.066,0.014c-0.43-0.421-0.758-0.933-1-1.491
			c-0.11-0.262-0.524-0.121-0.471,0.152c0.172,0.877,0.631,1.581,1.297,2.145c0.016,0.508,0.034,1.018,0.051,1.527
			c-0.414-0.342-0.877-0.634-1.371-0.75c-0.234-0.056-0.381,0.212-0.19,0.37c0.525,0.438,1.087,0.774,1.588,1.24
			c0.1,2.659,0.239,5.319,0.399,7.978c-0.08-0.01-0.162-0.02-0.242-0.025c-0.008-0.008-0.012-0.019-0.021-0.024
			c-0.391-0.257-0.893-0.244-1.344-0.312c-0.473-0.07-0.938-0.164-1.408-0.24c-0.11-0.078-0.219-0.158-0.332-0.237
			c-0.001-0.497-0.362-1.022-0.526-1.473c-0.252-0.692-0.366-1.582-0.867-2.138c-0.088-0.099-0.272-0.078-0.315,0.058
			c-0.214,0.702,0.109,1.497,0.351,2.164c0.058,0.159,0.115,0.345,0.18,0.542c-1.219-0.881-2.427-1.77-3.631-2.691
			c-0.118-0.09-0.282,0.057-0.217,0.184c0.694,1.312,1.92,2.228,3.13,3.078c-0.354-0.063-0.706-0.127-1.059-0.18
			c-0.625-0.094-1.333-0.294-1.921-0.021c-0.114,0.056-0.102,0.188-0.021,0.263c0.477,0.416,1.265,0.433,1.875,0.519
			c0.758,0.104,1.52,0.176,2.282,0.254c0.117,0.09,0.232,0.176,0.348,0.265c0.449,0.948,0.844,2.043,1.388,2.987
			c-2.617,0.164-5.233,0.359-7.839,0.641c-0.013-0.075-0.057-0.148-0.148-0.211c-0.567-0.387-1.148-0.698-1.802-0.923
			c-0.478-0.163-1.222-0.447-1.693-0.177c-0.107,0.063-0.136,0.188-0.059,0.285c0.295,0.377,0.939,0.461,1.38,0.621
			c0.427,0.155,0.85,0.333,1.266,0.524c-0.62,0.073-1.241,0.151-1.859,0.235c-0.257-0.414-0.78-0.547-1.265-0.703
			c-0.664-0.215-1.64-0.695-2.329-0.438c-0.127,0.047-0.127,0.209-0.061,0.301c0.313,0.44,0.96,0.534,1.452,0.688
			c0.295,0.092,0.591,0.18,0.889,0.262c0.053,0.016,0.122,0.03,0.195,0.048c-0.427,0.334-0.813,0.735-1.193,1.105
			c-0.386,0.374-1.058,0.894-1.047,1.46c0,0.097,0.058,0.184,0.164,0.193c0.584,0.049,1.118-0.554,1.524-0.918
			c0.478-0.427,1.013-0.867,1.415-1.379c0.025,0.01,0.051,0.014,0.078,0.016c0.056,0.031,0.121,0.053,0.198,0.05
			c0.548-0.034,1.093-0.074,1.64-0.111c-0.222,0.236-0.442,0.474-0.66,0.712c-0.37,0.406-0.915,0.853-1.046,1.396
			c-0.045,0.182,0.112,0.33,0.292,0.26c0.52-0.204,0.899-0.802,1.25-1.217c0.338-0.398,0.669-0.805,1.001-1.206
			c2.746-0.188,5.491-0.401,8.237-0.593c-0.168,0.701-0.34,1.404-0.492,2.109c-0.113,0.524-0.251,1.055-0.269,1.592
			c-1.089,1.136-2.215,2.229-3.352,3.32c-0.027-0.003-0.057-0.01-0.087-0.003c-0.928,0.172-1.854,0.331-2.768,0.568
			c-0.279,0.073-0.204,0.464,0.082,0.436c0.687-0.069,1.365-0.18,2.043-0.299c-0.952,0.91-1.909,1.819-2.863,2.754
			c-0.161,0.158,0.047,0.386,0.23,0.261c1.063-0.726,2.084-1.547,3.065-2.433c0.003,0.508-0.01,1.015-0.058,1.522
			c-0.073,0.742-0.308,1.504-0.228,2.244c0.024,0.215,0.301,0.183,0.377,0.031c0.339-0.663,0.333-1.498,0.386-2.229
			c0.047-0.694,0.073-1.385,0.075-2.079c1.188-1.118,2.317-2.327,3.387-3.575c0.041,0.014,0.083,0.02,0.13,0.003l1.741-0.567
			c0.456-0.149,0.954-0.256,1.362-0.509c0.128,3.04,0.237,6.12,0.588,9.13c-0.067,0.064-0.134,0.137-0.208,0.221
			c-0.575,0.636-1.064,1.38-1.552,2.082c-0.182,0.262,0.206,0.637,0.434,0.385c0.334-0.366,0.67-0.729,0.988-1.109
			c0.188-0.226,0.326-0.418,0.464-0.552c0.08,0.576,0.167,1.149,0.269,1.717c0.001,0.005,0.005,0.011,0.006,0.017
			c-0.113,0.127-0.212,0.274-0.311,0.398c-0.505,0.643-0.974,1.314-1.45,1.977c-0.18,0.252,0.204,0.504,0.395,0.269
			c0.296-0.362,0.593-0.724,0.885-1.091c0.146-0.184,0.289-0.368,0.432-0.551c0.288-0.373,0.293-0.545,0.808-0.519
			c0.901,0.048,1.617,1.351,2.402,1.796c0.177,0.1,0.342-0.094,0.23-0.257c-0.481-0.7-1.243-1.244-1.875-1.819
			c-0.192-0.172-0.376-0.373-0.6-0.476c-0.007-0.479-0.019-0.959-0.04-1.44c1.029,0.506,1.92,1.273,2.988,1.713
			c0.357,0.147,0.553-0.344,0.289-0.562c-0.673-0.554-1.481-0.964-2.23-1.413c-0.25-0.15-0.683-0.5-1.098-0.747
			c-0.177-3.024-0.561-6.062-0.856-9.085c0.367,0.17,0.75,0.309,1.149,0.408c0.41,0.102,0.924,0.264,1.37,0.227
			c0.022,0.021,0.041,0.039,0.063,0.06c0.033,0.038,0.059,0.08,0.093,0.114c0.029,0.031,0.064,0.049,0.102,0.054
			c0.436,0.375,0.886,0.733,1.343,1.084c-0.096,0.084-0.138,0.226-0.088,0.373c0.352,1.043,0.661,2.161,1.151,3.147
			c0.121,0.243,0.517,0.121,0.462-0.151c-0.183-0.907-0.516-1.812-0.834-2.694c0.09,0.021,0.182,0.036,0.273,0.055
			c0.772,0.578,1.546,1.158,2.279,1.791c0.217,0.188,0.445-0.146,0.309-0.343c-0.318-0.464-0.705-0.864-1.123-1.231
			c0.021,0.002,0.046,0.006,0.07,0.008c0.698,0.058,1.526,0.17,2.179-0.116c0.152-0.065,0.143-0.312-0.018-0.356
			c-0.621-0.183-1.314-0.071-1.962-0.123c-0.404-0.032-0.808-0.086-1.207-0.156c-0.85-0.618-1.755-1.184-2.534-1.863
			c-0.09-0.078-0.175-0.16-0.264-0.238c-0.192-0.521-0.467-1.029-0.631-1.553c-0.209-0.667-0.364-1.345-0.476-2.034
			c2.579-0.091,5.22-0.127,7.796-0.374c0.53,0.362,1.063,0.717,1.606,1.062c0.487,0.305,1.053,0.834,1.649,0.842
			c0.153,0.001,0.279-0.147,0.205-0.295c-0.268-0.537-0.97-0.802-1.466-1.106c-0.339-0.211-0.687-0.404-1.03-0.604
			c0.699-0.083,1.391-0.185,2.076-0.312c0.046,0.053,0.116,0.084,0.205,0.064c0.018-0.005,0.037-0.01,0.055-0.016
			c-0.008,0.121,0.045,0.237,0.194,0.275c0.417,0.102,0.836,0.18,1.25,0.301c0.331,0.094,0.758,0.291,1.1,0.188
			c0.11-0.034,0.214-0.158,0.141-0.277c-0.204-0.334-0.647-0.447-1.011-0.545c-0.263-0.07-0.525-0.135-0.793-0.18
			c0.422-0.128,0.838-0.27,1.255-0.439C47.406,108.764,48.115,108.532,48.539,108.006 M33.683,107.802
			c-0.265,0.507-0.611,1.114-0.766,1.714c-0.35,0.025-0.699,0.049-1.046,0.072c0.629-0.65,1.26-1.297,1.898-1.938
			C33.74,107.7,33.711,107.751,33.683,107.802 M33.628,106.54c0.055-0.017,0.113-0.031,0.173-0.046
			c-0.804,0.854-1.578,1.716-2.323,2.552c-0.041-0.633-0.083-1.264-0.122-1.897C32.121,106.982,32.875,106.75,33.628,106.54
			 M30.058,107.167c0.005,0.001,0.008,0.005,0.015,0.006c0.155,0.042,0.307,0.074,0.465,0.099c0.036,0.599,0.073,1.197,0.111,1.795
			c-0.609-0.752-1.306-1.41-2.071-2.018c0.057,0.01,0.112,0.021,0.17,0.031C29.172,107.152,29.634,107.271,30.058,107.167
			 M27.458,107.359c0.906,0.734,1.762,1.516,2.597,2.341c-0.456,0.026-0.913,0.056-1.369,0.083
			C28.368,108.957,27.895,108.145,27.458,107.359 M28.192,112.967c0.172-0.751,0.319-1.507,0.475-2.263
			c0.576-0.039,1.154-0.076,1.731-0.114c0.013,0.027,0.036,0.051,0.062,0.075c0.05,0.038,0.092,0.078,0.14,0.117
			c-0.831,1.038-1.697,2.028-2.589,2.983C28.075,113.499,28.133,113.23,28.192,112.967 M29.48,113.977
			c-0.462,0.162-0.927,0.323-1.392,0.484c0.938-1.113,1.828-2.252,2.676-3.377c0.047,0.823,0.088,1.654,0.125,2.486
			C30.398,113.595,29.944,113.814,29.48,113.977 M33.213,114.035c-0.468-0.104-0.928-0.232-1.386-0.371
			c-0.062-0.634-0.115-1.268-0.165-1.9c0.757,0.771,1.45,1.604,2.217,2.369C33.653,114.104,33.425,114.083,33.213,114.035
			 M33.563,112.934c-0.639-0.658-1.269-1.324-1.958-1.93c-0.013-0.162-0.021-0.326-0.031-0.486c0.513-0.026,1.032-0.052,1.552-0.072
			C33.194,111.195,33.315,112.095,33.563,112.934"/>
		<path fill="#F9FBFC" d="M57.799,33.254c-0.015-0.134-0.202-0.199-0.299-0.105c-0.458,0.442-0.636,1.097-0.871,1.676
			c-0.232,0.579-0.45,1.161-0.656,1.747c-0.731,0.626-1.436,1.297-2.122,1.993c-0.019-0.333-0.041-0.665-0.056-0.995
			c-0.027-0.576,0.092-1.285-0.148-1.817c-0.047-0.107-0.206-0.12-0.272-0.02c-0.336,0.518-0.294,1.301-0.314,1.901
			c-0.018,0.539-0.009,1.127,0.069,1.679c-1.703,1.798-3.311,3.738-4.909,5.609c-0.138-0.386-0.311-0.767-0.437-1.142
			c-0.256-0.771-0.459-1.549-0.663-2.331c0-0.122,0.005-0.245,0.006-0.367c0.057-0.14,0.11-0.281,0.149-0.425
			c0.024-0.089-0.052-0.193-0.136-0.198c0.004-0.201,0.005-0.397,0.012-0.599c0.005-0.136,0.012-0.274,0.018-0.412
			c0.021-0.015,0.041-0.028,0.057-0.049c0.314-0.403,0.566-0.86,0.833-1.295c0.218-0.354,0.438-0.706,0.478-1.124
			c0.012-0.129-0.131-0.172-0.222-0.112c-0.395,0.254-0.621,0.68-0.857,1.074c-0.073,0.121-0.148,0.243-0.223,0.365
			c0.112-1.625,0.269-3.257,0.154-4.868c-0.012-0.172-0.292-0.187-0.334-0.024c-0.402,1.541-0.613,3.186-0.709,4.867
			c-0.089-0.175-0.175-0.35-0.255-0.522c-0.266-0.576-0.464-1.306-0.968-1.712c-0.12-0.096-0.291,0.012-0.305,0.148
			c-0.073,0.639,0.334,1.322,0.589,1.889c0.255,0.561,0.502,1.207,0.882,1.708c-0.01,0.613-0.01,1.226,0,1.836
			c-0.185,0.35-0.354,0.709-0.532,1.052c-0.328,0.628-0.673,1.25-0.969,1.892c-1.955-1.728-3.911-3.454-5.89-5.156
			c-0.107-0.857,0.075-1.755-0.092-2.586c-0.027-0.141-0.241-0.208-0.321-0.066c-0.338,0.594-0.347,1.353-0.277,2.065
			c-0.346-0.295-0.69-0.592-1.039-0.886c0.042-0.117,0.027-0.26-0.052-0.37c-0.344-0.5-0.691-1-1.011-1.517
			c-0.238-0.386-0.435-0.889-0.838-1.122c-0.122-0.072-0.295-0.008-0.306,0.147c-0.032,0.531,0.35,1.023,0.612,1.461
			c0.185,0.309,0.383,0.614,0.583,0.913c-0.014,0.017-0.027,0.037-0.038,0.058c-0.604,0.005-1.197-0.125-1.763-0.349
			c-0.263-0.105-0.455,0.285-0.224,0.442c0.741,0.498,1.563,0.67,2.435,0.594c0.369,0.35,0.743,0.697,1.115,1.046
			c-0.534,0.049-1.067,0.172-1.497,0.438c-0.206,0.128-0.119,0.42,0.127,0.398c0.682-0.063,1.317-0.224,1.999-0.25
			c1.953,1.81,3.934,3.589,5.928,5.355c-0.063,0.051-0.127,0.101-0.189,0.153c-0.01,0-0.02-0.005-0.032-0.003
			c-0.458,0.096-0.8,0.459-1.17,0.733c-0.382,0.284-0.777,0.547-1.163,0.826c-0.136,0.022-0.269,0.042-0.403,0.066
			c-0.354-0.35-0.981-0.466-1.416-0.668c-0.667-0.31-1.377-0.858-2.125-0.896c-0.131-0.007-0.247,0.137-0.18,0.263
			c0.347,0.649,1.136,0.981,1.778,1.28c0.154,0.071,0.326,0.165,0.511,0.254c-1.484,0.242-2.967,0.47-4.47,0.668
			c-0.146,0.021-0.158,0.242-0.021,0.282c1.418,0.435,2.931,0.216,4.388-0.039c-0.294,0.206-0.588,0.41-0.875,0.623
			c-0.506,0.375-1.147,0.736-1.371,1.346c-0.042,0.119,0.063,0.205,0.17,0.199c0.632-0.042,1.202-0.588,1.693-0.96
			c0.608-0.462,1.198-0.952,1.791-1.435c0.146-0.022,0.29-0.042,0.433-0.062c0.989,0.354,2.043,0.847,3.094,1.129
			c-1.731,1.968-3.441,3.958-5.083,6.001c-0.062-0.042-0.148-0.065-0.255-0.044c-0.675,0.129-1.306,0.319-1.926,0.623
			c-0.454,0.222-1.18,0.548-1.321,1.074c-0.032,0.119,0.036,0.228,0.16,0.244c0.477,0.057,0.991-0.34,1.415-0.537
			c0.412-0.194,0.836-0.368,1.265-0.527c-0.386,0.492-0.77,0.986-1.146,1.484c-0.474-0.113-0.938,0.164-1.392,0.396
			c-0.619,0.318-1.65,0.67-1.955,1.339c-0.056,0.124,0.058,0.238,0.17,0.257c0.532,0.088,1.058-0.303,1.511-0.542
			c0.274-0.146,0.546-0.292,0.814-0.444c0.05-0.027,0.107-0.066,0.171-0.105c-0.064,0.537-0.052,1.095-0.061,1.625
			c-0.008,0.535-0.114,1.38,0.294,1.774c0.068,0.066,0.17,0.087,0.251,0.02c0.449-0.379,0.398-1.184,0.428-1.728
			c0.036-0.639,0.103-1.33,0.024-1.976c0.023-0.01,0.045-0.027,0.064-0.044c0.063-0.019,0.126-0.048,0.177-0.107
			c0.363-0.41,0.72-0.822,1.08-1.236c0.012,0.323,0.022,0.644,0.038,0.967c0.026,0.553-0.042,1.251,0.248,1.729
			c0.097,0.16,0.313,0.154,0.391-0.024c0.224-0.511,0.066-1.204,0.021-1.744c-0.043-0.521-0.095-1.04-0.144-1.559
			c1.805-2.078,3.593-4.17,5.398-6.247c0.379,0.613,0.753,1.23,1.144,1.838c0.293,0.448,0.569,0.925,0.939,1.314
			c0.032,1.572,0.013,3.143-0.018,4.719c-0.021,0.019-0.045,0.033-0.065,0.06c-0.535,0.777-1.077,1.543-1.553,2.357
			c-0.145,0.25,0.183,0.473,0.365,0.25c0.437-0.534,0.836-1.093,1.232-1.656c-0.029,1.315-0.062,2.637-0.073,3.972
			c-0.002,0.226,0.304,0.239,0.344,0.022c0.237-1.266,0.378-2.568,0.446-3.887c0.36,0.355,0.71,0.724,1.035,1.116
			c0.475,0.574,0.847,1.278,1.429,1.746c0.166,0.135,0.339-0.083,0.287-0.247c-0.23-0.707-0.824-1.292-1.304-1.848
			c-0.456-0.524-0.93-1.03-1.419-1.521c0.047-1.632-0.011-3.282-0.136-4.923c0.038-0.017,0.072-0.044,0.094-0.088
			c0.275-0.544,0.552-1.088,0.828-1.634c0.218-0.426,0.495-0.855,0.604-1.323c2.241,2.059,4.499,4.157,6.875,6.034
			c0,0.093,0.003,0.192,0.01,0.302c0.043,0.856,0.225,1.73,0.378,2.571c0.056,0.316,0.595,0.305,0.578-0.034
			c-0.021-0.495-0.042-0.989-0.086-1.482c-0.027-0.292-0.066-0.525-0.063-0.719c0.464,0.35,0.93,0.693,1.404,1.022
			c0.005,0.004,0.01,0.004,0.017,0.007c0.011,0.172,0.042,0.343,0.062,0.501c0.099,0.813,0.243,1.616,0.375,2.422
			c0.05,0.306,0.501,0.212,0.469-0.088c-0.048-0.465-0.094-0.934-0.145-1.397c-0.025-0.232-0.056-0.466-0.087-0.697
			c-0.059-0.465-0.177-0.59,0.206-0.936c0.67-0.603,2.096-0.188,2.967-0.432c0.195-0.054,0.175-0.308-0.019-0.343
			c-0.836-0.155-1.757-0.002-2.61,0.042c-0.261,0.013-0.532,0-0.762,0.089c-0.344-0.334-0.691-0.667-1.047-0.991
			c1.085-0.37,2.258-0.459,3.322-0.902c0.357-0.15,0.15-0.638-0.192-0.604c-0.869,0.089-1.729,0.369-2.577,0.582
			c-0.282,0.071-0.834,0.131-1.304,0.251c-2.264-2.013-4.685-3.888-7.034-5.813c0.38-0.141,0.748-0.313,1.102-0.525
			c0.362-0.217,0.84-0.469,1.129-0.811c0.028-0.001,0.056-0.001,0.085-0.003c0.049,0.003,0.1,0.017,0.149,0.017
			c0.041,0,0.078-0.014,0.108-0.034c0.575-0.045,1.146-0.111,1.718-0.188c-0.01,0.128,0.06,0.257,0.201,0.327
			c0.987,0.489,1.996,1.057,3.041,1.409c0.257,0.087,0.451-0.279,0.22-0.432c-0.772-0.513-1.646-0.915-2.498-1.314
			c0.078-0.049,0.155-0.104,0.233-0.154c0.956-0.138,1.911-0.276,2.876-0.347c0.287-0.021,0.212-0.417-0.024-0.46
			c-0.552-0.104-1.108-0.112-1.666-0.075c0.019-0.016,0.038-0.029,0.055-0.044c0.535-0.456,1.198-0.961,1.458-1.625
			c0.06-0.154-0.119-0.32-0.267-0.238c-0.568,0.31-0.977,0.879-1.47,1.301c-0.311,0.265-0.631,0.513-0.963,0.745
			c-1.04,0.164-2.08,0.406-3.11,0.477c-0.119,0.008-0.238,0.012-0.357,0.018c-0.505-0.231-1.057-0.398-1.544-0.651
			c-0.62-0.321-1.208-0.692-1.774-1.1c1.756-1.888,3.598-3.784,5.243-5.781c0.631-0.119,1.258-0.244,1.885-0.386
			c0.561-0.129,1.336-0.154,1.761-0.573c0.109-0.107,0.094-0.3-0.064-0.353c-0.57-0.19-1.251,0.119-1.819,0.255
			c-0.388,0.092-0.771,0.201-1.156,0.303c0.435-0.555,0.853-1.118,1.248-1.688c0.07,0.003,0.141-0.024,0.189-0.101
			c0.01-0.017,0.019-0.034,0.029-0.051c0.08,0.091,0.2,0.138,0.333,0.058c0.365-0.221,0.717-0.464,1.093-0.673
			c0.3-0.167,0.743-0.331,0.911-0.646c0.052-0.102,0.039-0.261-0.097-0.293c-0.381-0.094-0.775,0.141-1.102,0.33
			c-0.235,0.134-0.464,0.277-0.687,0.433c0.208-0.388,0.403-0.782,0.577-1.196C57.534,34.59,57.87,33.925,57.799,33.254
			 M47.161,43.622c0.17,0.546,0.355,1.221,0.671,1.755c-0.23,0.265-0.459,0.529-0.69,0.791c-0.014-0.904-0.027-1.809-0.03-2.713
			C47.128,43.51,47.143,43.568,47.161,43.622 M46.226,42.771c0.028-0.051,0.059-0.104,0.09-0.154
			c0.036,1.171,0.101,2.328,0.167,3.446c-0.478-0.418-0.954-0.834-1.43-1.254C45.477,44.149,45.843,43.453,46.226,42.771
			 M44.148,45.741c0.005-0.002,0.01-0.002,0.015-0.005c0.138-0.082,0.269-0.167,0.398-0.258c0.448,0.396,0.899,0.792,1.348,1.188
			c-0.963-0.103-1.922-0.073-2.891,0.039c0.046-0.032,0.094-0.063,0.141-0.096C43.512,46.358,43.924,46.115,44.148,45.741
			 M42.448,47.716c1.161-0.123,2.318-0.177,3.491-0.185c-0.302,0.341-0.607,0.685-0.907,1.028
			C44.221,48.201,43.31,47.963,42.448,47.716 M46.935,51.157c-0.41-0.651-0.84-1.29-1.265-1.933c0.379-0.437,0.76-0.87,1.141-1.305
			c0.031,0.008,0.063,0.011,0.097,0.008c0.061-0.008,0.122-0.01,0.184-0.018c0.146,1.323,0.236,2.635,0.282,3.941
			C47.23,51.618,47.079,51.387,46.935,51.157 M48.558,50.96c-0.212,0.443-0.425,0.885-0.638,1.328
			c-0.127-1.45-0.302-2.885-0.501-4.281c0.618,0.549,1.233,1.106,1.848,1.671C48.935,50.042,48.771,50.518,48.558,50.96
			 M51.237,48.36c-0.402,0.258-0.819,0.491-1.241,0.719c-0.493-0.406-0.979-0.816-1.462-1.227c1.081,0.01,2.161,0.108,3.243,0.105
			C51.597,48.097,51.422,48.243,51.237,48.36 M50.705,47.333c-0.918-0.012-1.833-0.037-2.751,0.022
			c-0.121-0.105-0.243-0.214-0.365-0.32c0.345-0.384,0.694-0.767,1.049-1.151C49.216,46.368,49.936,46.917,50.705,47.333"/>
		<path fill="#F9FBFC" d="M110.282,96.458c-0.015-0.135-0.203-0.199-0.3-0.106c-0.459,0.442-0.635,1.099-0.871,1.678
			c-0.231,0.58-0.451,1.16-0.656,1.748c-0.729,0.625-1.434,1.297-2.12,1.992c-0.021-0.334-0.042-0.666-0.058-0.996
			c-0.025-0.575,0.094-1.284-0.146-1.816c-0.047-0.107-0.208-0.121-0.271-0.021c-0.336,0.521-0.293,1.304-0.314,1.903
			c-0.018,0.539-0.008,1.125,0.068,1.679c-1.702,1.797-3.311,3.737-4.909,5.609c-0.136-0.386-0.31-0.768-0.437-1.143
			c-0.256-0.771-0.459-1.549-0.664-2.332c0.002-0.123,0.008-0.244,0.008-0.366c0.057-0.14,0.111-0.28,0.15-0.427
			c0.023-0.086-0.053-0.19-0.139-0.197c0.005-0.199,0.007-0.396,0.014-0.598c0.006-0.138,0.012-0.273,0.018-0.412
			c0.021-0.014,0.039-0.027,0.058-0.049c0.313-0.401,0.565-0.859,0.833-1.295c0.217-0.354,0.438-0.705,0.479-1.123
			c0.01-0.129-0.131-0.172-0.224-0.112c-0.396,0.255-0.62,0.68-0.856,1.073c-0.072,0.121-0.147,0.244-0.223,0.365
			c0.112-1.625,0.268-3.259,0.154-4.869c-0.012-0.172-0.292-0.187-0.334-0.023c-0.402,1.541-0.613,3.186-0.709,4.867
			c-0.089-0.174-0.178-0.351-0.255-0.521c-0.267-0.576-0.464-1.306-0.97-1.712c-0.121-0.096-0.289,0.013-0.303,0.149
			c-0.074,0.639,0.334,1.322,0.588,1.887c0.254,0.563,0.502,1.208,0.883,1.71c-0.012,0.612-0.01,1.226,0,1.836
			c-0.186,0.351-0.354,0.709-0.532,1.054c-0.328,0.625-0.675,1.248-0.97,1.891c-1.955-1.728-3.912-3.453-5.89-5.156
			c-0.106-0.855,0.075-1.753-0.092-2.584c-0.026-0.141-0.242-0.208-0.321-0.066c-0.34,0.594-0.347,1.354-0.277,2.063
			c-0.344-0.294-0.688-0.591-1.037-0.884c0.041-0.117,0.025-0.26-0.053-0.371c-0.344-0.5-0.69-1-1.011-1.518
			c-0.237-0.386-0.438-0.889-0.84-1.121c-0.122-0.072-0.293-0.009-0.306,0.147c-0.03,0.53,0.352,1.022,0.613,1.46
			c0.186,0.311,0.383,0.614,0.584,0.913c-0.016,0.019-0.027,0.037-0.039,0.057c-0.603,0.007-1.195-0.122-1.764-0.347
			c-0.262-0.105-0.453,0.286-0.224,0.441c0.743,0.498,1.563,0.67,2.435,0.595c0.37,0.351,0.745,0.696,1.116,1.044
			c-0.534,0.051-1.067,0.173-1.497,0.439c-0.206,0.129-0.119,0.42,0.127,0.397c0.682-0.062,1.317-0.224,1.999-0.25
			c1.953,1.81,3.935,3.589,5.929,5.356c-0.063,0.049-0.127,0.1-0.188,0.152c-0.011,0-0.021-0.005-0.033-0.003
			c-0.457,0.095-0.802,0.459-1.169,0.733c-0.383,0.283-0.777,0.547-1.163,0.826c-0.136,0.021-0.269,0.041-0.403,0.065
			c-0.353-0.351-0.979-0.465-1.416-0.668c-0.666-0.312-1.377-0.858-2.125-0.896c-0.131-0.008-0.246,0.137-0.18,0.263
			c0.346,0.647,1.135,0.979,1.778,1.28c0.153,0.07,0.325,0.164,0.51,0.254c-1.483,0.242-2.966,0.469-4.469,0.669
			c-0.146,0.021-0.159,0.241-0.021,0.282c1.418,0.435,2.93,0.215,4.387-0.039c-0.293,0.205-0.588,0.41-0.875,0.623
			c-0.506,0.373-1.149,0.735-1.371,1.347c-0.041,0.118,0.063,0.205,0.171,0.196c0.632-0.041,1.2-0.586,1.692-0.959
			c0.608-0.461,1.198-0.951,1.791-1.434c0.146-0.021,0.289-0.043,0.434-0.063c0.986,0.354,2.043,0.848,3.094,1.13
			c-1.73,1.968-3.441,3.957-5.083,6c-0.063-0.042-0.147-0.064-0.255-0.044c-0.676,0.129-1.307,0.32-1.926,0.623
			c-0.454,0.223-1.18,0.549-1.321,1.074c-0.032,0.119,0.036,0.228,0.16,0.242c0.476,0.057,0.991-0.34,1.413-0.537
			c0.414-0.193,0.838-0.367,1.267-0.526c-0.386,0.491-0.771,0.985-1.146,1.483c-0.477-0.113-0.94,0.166-1.393,0.396
			c-0.621,0.318-1.652,0.67-1.955,1.34c-0.056,0.124,0.059,0.236,0.17,0.256c0.532,0.088,1.055-0.303,1.512-0.542
			c0.273-0.146,0.546-0.293,0.813-0.444c0.048-0.028,0.107-0.065,0.173-0.104c-0.064,0.537-0.055,1.095-0.062,1.625
			c-0.009,0.536-0.114,1.38,0.293,1.772c0.069,0.068,0.171,0.09,0.253,0.021c0.447-0.379,0.396-1.184,0.428-1.729
			c0.036-0.639,0.102-1.33,0.024-1.976c0.022-0.01,0.044-0.026,0.063-0.044c0.063-0.02,0.125-0.048,0.178-0.107
			c0.363-0.41,0.72-0.824,1.08-1.235c0.012,0.323,0.021,0.644,0.037,0.967c0.026,0.551-0.041,1.251,0.248,1.729
			c0.098,0.16,0.313,0.153,0.39-0.024c0.224-0.511,0.067-1.204,0.022-1.746c-0.045-0.519-0.096-1.039-0.146-1.558
			c1.807-2.077,3.596-4.17,5.4-6.248c0.379,0.615,0.754,1.231,1.145,1.839c0.291,0.448,0.568,0.925,0.939,1.313
			c0.031,1.572,0.012,3.144-0.02,4.719c-0.021,0.019-0.046,0.033-0.064,0.061c-0.535,0.777-1.076,1.543-1.552,2.357
			c-0.147,0.25,0.183,0.473,0.365,0.25c0.437-0.534,0.836-1.094,1.231-1.656c-0.028,1.314-0.062,2.636-0.072,3.97
			c-0.004,0.228,0.304,0.241,0.344,0.024c0.236-1.268,0.378-2.568,0.443-3.891c0.363,0.357,0.713,0.727,1.037,1.119
			c0.473,0.575,0.848,1.278,1.429,1.744c0.167,0.137,0.34-0.081,0.288-0.245c-0.232-0.708-0.824-1.293-1.307-1.848
			c-0.453-0.522-0.929-1.03-1.418-1.521c0.047-1.633-0.011-3.283-0.136-4.924c0.038-0.017,0.071-0.044,0.093-0.088
			c0.275-0.546,0.553-1.088,0.828-1.634c0.219-0.427,0.495-0.854,0.602-1.322c2.242,2.058,4.5,4.157,6.877,6.034
			c-0.002,0.093,0.002,0.191,0.008,0.302c0.044,0.857,0.227,1.731,0.379,2.571c0.057,0.314,0.595,0.307,0.578-0.034
			c-0.021-0.495-0.044-0.989-0.086-1.481c-0.027-0.295-0.066-0.525-0.063-0.719c0.462,0.35,0.931,0.692,1.404,1.021
			c0.005,0.003,0.01,0.003,0.015,0.008c0.012,0.171,0.045,0.343,0.063,0.501c0.099,0.813,0.241,1.616,0.374,2.422
			c0.051,0.306,0.502,0.212,0.47-0.088c-0.048-0.466-0.094-0.935-0.146-1.399c-0.026-0.23-0.056-0.463-0.086-0.694
			c-0.061-0.468-0.18-0.591,0.203-0.937c0.672-0.604,2.099-0.188,2.969-0.432c0.195-0.055,0.175-0.309-0.02-0.344
			c-0.836-0.156-1.76-0.002-2.613,0.042c-0.258,0.012-0.529,0-0.761,0.089c-0.344-0.334-0.692-0.667-1.046-0.991
			c1.084-0.371,2.258-0.459,3.322-0.901c0.357-0.15,0.148-0.639-0.192-0.604c-0.868,0.087-1.729,0.37-2.577,0.582
			c-0.281,0.071-0.836,0.131-1.304,0.251c-2.265-2.014-4.685-3.889-7.034-5.814c0.381-0.139,0.748-0.313,1.102-0.522
			c0.363-0.218,0.84-0.47,1.13-0.812c0.026-0.002,0.056-0.002,0.085-0.002c0.049,0.002,0.1,0.014,0.146,0.017
			c0.043,0,0.08-0.013,0.11-0.035c0.573-0.043,1.146-0.11,1.718-0.187c-0.011,0.129,0.059,0.258,0.2,0.327
			c0.985,0.489,1.997,1.058,3.042,1.408c0.256,0.087,0.449-0.278,0.219-0.433c-0.771-0.512-1.646-0.913-2.496-1.313
			c0.078-0.049,0.153-0.104,0.23-0.153c0.957-0.139,1.913-0.277,2.878-0.348c0.286-0.021,0.213-0.417-0.024-0.461
			c-0.554-0.104-1.107-0.111-1.666-0.075c0.02-0.016,0.037-0.028,0.056-0.045c0.536-0.455,1.198-0.962,1.458-1.625
			c0.059-0.153-0.119-0.319-0.268-0.237c-0.568,0.31-0.977,0.879-1.47,1.301c-0.312,0.265-0.632,0.512-0.964,0.744
			c-1.04,0.166-2.079,0.406-3.109,0.479c-0.119,0.008-0.238,0.01-0.357,0.018c-0.504-0.231-1.057-0.398-1.543-0.651
			c-0.621-0.323-1.209-0.693-1.776-1.101c1.757-1.888,3.599-3.783,5.245-5.781c0.631-0.119,1.257-0.242,1.885-0.385
			c0.559-0.129,1.336-0.156,1.762-0.574c0.108-0.106,0.092-0.299-0.065-0.352c-0.569-0.189-1.252,0.119-1.817,0.256
			c-0.389,0.092-0.773,0.2-1.156,0.301c0.435-0.553,0.852-1.116,1.248-1.688c0.069,0.003,0.141-0.023,0.188-0.102
			c0.01-0.016,0.019-0.032,0.028-0.049c0.078,0.09,0.201,0.138,0.334,0.056c0.365-0.22,0.717-0.464,1.093-0.673
			c0.301-0.166,0.743-0.33,0.911-0.646c0.053-0.102,0.04-0.262-0.096-0.294c-0.381-0.094-0.775,0.141-1.103,0.33
			c-0.235,0.134-0.465,0.277-0.687,0.434c0.207-0.39,0.4-0.783,0.576-1.197C110.018,97.794,110.354,97.129,110.282,96.458
			 M99.645,106.826c0.17,0.546,0.354,1.221,0.668,1.755c-0.229,0.265-0.457,0.528-0.688,0.79c-0.013-0.904-0.026-1.809-0.03-2.713
			C99.611,106.714,99.625,106.771,99.645,106.826 M98.708,105.975c0.028-0.051,0.06-0.104,0.09-0.154
			c0.036,1.171,0.101,2.328,0.167,3.445c-0.479-0.418-0.956-0.834-1.432-1.254C97.959,107.354,98.327,106.656,98.708,105.975
			 M96.631,108.943c0.006,0,0.01,0,0.016-0.004c0.138-0.082,0.269-0.168,0.396-0.26c0.449,0.396,0.9,0.793,1.348,1.188
			c-0.961-0.103-1.92-0.073-2.89,0.039c0.046-0.032,0.095-0.065,0.142-0.097C95.996,109.561,96.407,109.318,96.631,108.943
			 M94.932,110.92c1.161-0.123,2.318-0.177,3.489-0.186c-0.302,0.342-0.604,0.686-0.905,1.029
			C96.705,111.405,95.793,111.165,94.932,110.92 M99.417,114.361c-0.409-0.651-0.841-1.291-1.265-1.935
			c0.38-0.437,0.761-0.87,1.142-1.305c0.031,0.008,0.063,0.012,0.097,0.007c0.062-0.007,0.121-0.008,0.183-0.016
			c0.147,1.322,0.237,2.636,0.282,3.941C99.713,114.82,99.563,114.59,99.417,114.361 M101.041,114.163
			c-0.213,0.444-0.425,0.884-0.639,1.328c-0.127-1.45-0.301-2.886-0.5-4.281c0.617,0.548,1.232,1.106,1.848,1.671
			C101.418,113.246,101.253,113.723,101.041,114.163 M103.721,111.564c-0.402,0.258-0.822,0.492-1.242,0.719
			c-0.492-0.406-0.98-0.816-1.461-1.227c1.08,0.01,2.16,0.106,3.242,0.104C104.081,111.301,103.904,111.447,103.721,111.564
			 M103.188,110.537c-0.918-0.012-1.834-0.037-2.75,0.021c-0.121-0.104-0.244-0.213-0.365-0.318c0.345-0.385,0.693-0.77,1.046-1.151
			C101.697,109.57,102.419,110.121,103.188,110.537"/>
		<path fill="#FFFEFF" d="M39.183,76.871c0.071,0.034,0.143,0.066,0.216,0.099c1.583,0.716,3.559-0.108,3.559-2.042
			c0-1.932-1.976-2.757-3.559-2.041c-0.073,0.032-0.145,0.064-0.216,0.096C37.708,73.649,37.708,76.205,39.183,76.871"/>
		<path fill="#FFFEFF" d="M67.913,99.479c2.409,0,2.414-3.746,0-3.746C65.504,95.732,65.5,99.479,67.913,99.479"/>
		<path fill="#FFFEFF" d="M27.205,18.301c1.666,0,1.669-2.589,0-2.589C25.539,15.712,25.535,18.301,27.205,18.301"/>
		<path fill="#FFFEFF" d="M16.822,45.275c1.923,0,1.926-2.988,0-2.988C14.899,42.287,14.896,45.275,16.822,45.275"/>
		<path fill="#FFFEFF" d="M120.917,20.917c2.923,0,2.929-4.542,0-4.542C117.995,16.374,117.988,20.917,120.917,20.917"/>
		<path fill="#FFFEFF" d="M76.93,18.828c1.641,0,1.645-2.55,0-2.55C75.29,16.278,75.286,18.828,76.93,18.828"/>
		<path fill="#FFFEFF" d="M56.711,130.242c2.975,0,2.978-4.623,0-4.623C53.738,125.619,53.733,130.242,56.711,130.242"/>
		<path fill="#FFFEFF" d="M129.85,130.288l-0.104-0.282c-0.524-1.411-1.921-2.261-3.405-1.635c-1.326,0.559-2.044,2.296-1.207,3.582
			c0.055,0.083,0.11,0.17,0.166,0.255c0.672,1.036,1.946,1.531,3.109,1.019C129.458,132.764,130.288,131.469,129.85,130.288"/>
		<path fill="#FFFEFF" d="M132.582,80.477c-0.126-0.117-0.252-0.232-0.379-0.351c-1.695-1.571-4.107,0.84-2.534,2.537
			c0.115,0.125,0.231,0.251,0.351,0.377C131.605,84.755,134.296,82.064,132.582,80.477"/>
		<path fill="#FFFEFF" d="M18.461,74.757c1.538,0,1.541-2.391,0-2.391C16.923,72.366,16.921,74.757,18.461,74.757"/>
		<path fill="#FFFEFF" d="M76.93,57.963c2.078,0,2.082-3.227,0-3.227C74.852,54.736,74.849,57.963,76.93,57.963"/>
		<path fill="#FFFEFF" d="M45.509,20.416c0.873,0,0.874-1.354,0-1.354C44.637,19.061,44.637,20.416,45.509,20.416"/>
		<path fill="#FFFEFF" d="M13.817,14.237c1.358,0,1.362-2.112,0-2.112C12.459,12.125,12.456,14.237,13.817,14.237"/>
		<path fill="#FFFEFF" d="M76.109,119.997c1.744,0,1.746-2.71,0-2.71C74.367,117.287,74.364,119.997,76.109,119.997"/>
		<path fill="#FFFEFF" d="M84.58,137.742c2.078,0,2.081-3.227,0-3.227C82.502,134.516,82.499,137.742,84.58,137.742"/>
		<path fill="#FFFEFF" d="M18.461,137.875c1.897,0,1.901-2.947,0-2.947C16.564,134.928,16.561,137.875,18.461,137.875"/>
		<path fill="#FFFEFF" d="M136.49,110.801c-0.483,0-0.702,0.09-0.993,0.477c-0.101,0.129-0.101,0.394,0,0.521
			c0.289,0.383,0.501,0.477,0.993,0.477C137.439,112.275,137.439,110.801,136.49,110.801"/>
		<path fill="#FFFEFF" d="M101.52,84.359c1.588,0,1.592-2.471,0-2.471C99.93,81.889,99.926,84.359,101.52,84.359"/>
		<path fill="#FFFEFF" d="M132.119,45.076c1.666,0,1.669-2.589,0-2.589C130.453,42.487,130.45,45.076,132.119,45.076"/>
	</g>
	<rect x="-402" y="34.093" fill="none" width="402" height="118"/>
	<rect x="96.25" y="25.277" fill="none" width="49.333" height="49.333"/>
	<text transform="matrix(1 0 0 1 96.25 60.0107)" fill="#FFFFFF" font-family="'Corben-Regular'" font-size="48">1</text>
</g>
</svg>
