<?xml version="1.0" encoding="utf-8"?>
<!-- Generator: Adobe Illustrator 16.0.3, SVG Export Plug-In . SVG Version: 6.00 Build 0)  -->
<!DOCTYPE svg PUBLIC "-//W3C//DTD SVG 1.1//EN" "http://www.w3.org/Graphics/SVG/1.1/DTD/svg11.dtd">
<svg version="1.1" xmlns="http://www.w3.org/2000/svg" xmlns:xlink="http://www.w3.org/1999/xlink" x="0px" y="0px" width="150px"
	 height="150px" viewBox="0 0 150 150" enable-background="new 0 0 150 150" xml:space="preserve">
<g id="Background">
</g>
<g id="Capa_3">
	<g id="clasicas_05">
		<rect fill-rule="evenodd" clip-rule="evenodd" fill="#20442C" width="150" height="150"/>
		<g>
			<path d="M43.764,98.371c-3.067,4.863-7.178,9.105-9.525,14.335c-1.186,2.64-2.908,5.14-4.537,7.67
				c-0.166,0.069-0.332,0.132-0.498,0.189c-0.141,0.048-0.267,0.094-0.387,0.141c-1.854-0.303-3.835,0.103-5.645,0.551
				c-0.316,0.078-0.637,0.168-0.956,0.25c-0.205-0.502-0.624-0.973-0.913-1.38c-0.596-0.847-1.149-1.774-1.853-2.537
				c-0.563-0.609-1.567,0.122-1.171,0.85c0.497,0.908,1.203,1.73,1.814,2.566c0.194,0.268,0.398,0.596,0.633,0.891
				c-2.615,0.719-5.264,1.56-7.75,2.477c-0.329,0.12-0.35,0.699,0.07,0.677c4.869-0.265,10.209-0.759,15.04-2.06
				c-0.855,1.472-1.605,2.972-2.136,4.532c-0.138,0.003-0.278,0.034-0.414,0.103c-2.829,1.409-5.586,3.563-7.763,5.84
				c-2.212,2.323-3.814,6.083-6.838,7.27c-0.12,0.047-0.071,0.209,0.023,0.248c2.49,0.999,4.704-2.326,6.193-3.828
				c1.089-1.097,2.227-2.117,3.398-3.094c-0.07,0.521-0.108,1.053-0.13,1.583c-0.046,1.118,0.012,2.237-0.025,3.353
				c-0.035,1.088-0.325,2.172-0.115,3.243c0.039,0.209,0.306,0.324,0.487,0.217c1.464-0.864,1.629-2.834,1.734-4.399
				c0.141-2.123,0.132-4.053,0.636-6.063c1.187-0.914,2.393-1.809,3.598-2.719c0.208-0.157,0.313-0.347,0.346-0.542
				c3.025-4.961,7.15-8.808,9.738-14.115c0.756-1.553,1.682-2.991,2.672-4.392c0.041,0.248,0.082,0.492,0.119,0.732
				c0.242,1.545,0.355,3.321,1.301,4.6c0.332,0.451,0.941,0.051,1-0.381c0.188-1.406-0.436-2.896-0.691-4.282
				c-0.152-0.832-0.227-1.709-0.34-2.574c1.992-2.644,4.09-5.235,5.646-8.228C47.484,98.256,44.895,96.573,43.764,98.371"/>
			<path fill="#8D0F24" d="M104.063,90.257c0,0,18.482-1.566,30.656-18.199c0,0,0.248-0.39,0.24-0.986
				c0.258-0.299,0.52-0.595,0.803-0.876c0.888-0.88,2.065-1.581,2.762-2.615c0.146-0.218-0.025-0.457-0.277-0.4
				c-1.274,0.293-2.596,1.381-3.697,2.624c-0.261-0.404-0.683-0.833-1.316-1.267c0.487-0.555,1.015-1.078,1.598-1.553
				c0.85-0.69,1.922-1.147,2.646-1.961c0.176-0.196,0.005-0.529-0.257-0.498c-1.785,0.214-3.52,1.934-4.773,3.546
				c-0.414-0.223-0.882-0.444-1.438-0.659c-0.097-0.038-0.188-0.081-0.278-0.123c0.58-0.784,1.204-1.54,1.881-2.246
				c1.046-1.088,2.487-1.885,3.334-3.12c0.207-0.299-0.035-0.63-0.378-0.549c-1.43,0.335-2.625,1.639-3.621,2.681
				c-0.812,0.845-1.5,1.77-2.121,2.745c-0.421-0.277-0.786-0.59-1.107-0.926c0.517-0.662,1.049-1.314,1.608-1.942
				c0.785-0.879,1.832-1.685,2.265-2.788c0.091-0.236-0.118-0.51-0.376-0.41c-1.077,0.413-1.793,1.408-2.524,2.281
				c-0.565,0.678-1.101,1.378-1.623,2.09c-0.384-0.52-0.703-1.062-0.996-1.582c0.405-0.653,0.833-1.293,1.304-1.907
				c0.529-0.688,1.195-1.27,1.418-2.12c0.051-0.199-0.173-0.363-0.352-0.296c-0.957,0.36-1.529,1.361-2.088,2.184
				c-0.276,0.409-0.531,0.829-0.783,1.254c-0.448-0.781-0.898-1.425-1.512-1.745c0.393-0.558,0.799-1.106,1.225-1.641
				c0.677-0.855,1.573-1.63,1.972-2.653c0.077-0.195-0.108-0.488-0.34-0.371c-1.107,0.56-1.796,1.671-2.525,2.654
				c-0.437,0.586-0.851,1.187-1.251,1.797c-0.219,0.001-0.454,0.035-0.712,0.104c0.437-0.658,0.882-1.311,1.348-1.95
				c0.735-1.011,1.608-1.909,1.98-3.113c0.073-0.242-0.237-0.368-0.413-0.264c-1.32,0.787-2.117,2.333-2.938,3.601
				c-0.505,0.778-0.984,1.57-1.453,2.369c-0.177,0.104-0.363,0.217-0.56,0.344c-5.936,3.864-5.61,17.804-23.379,19.425
				S104.063,90.257,104.063,90.257"/>
			<path fill="#FFFFFF" d="M113.071,129.066c3.466-6.072,4.313-13.307,3.246-20.953c-1.503-10.777-9.003-19.683-19.392-24.721
				c1.594-1.525,3.088-3.229,4.474-5.084c9.515-12.74,5.792-30.776-8.313-40.289c-0.933-0.63-1.891-1.203-2.865-1.727
				c-0.666-1.348-1.507-2.628-2.403-3.826c-0.844-1.129-3.199-4.532-5.079-3.341c-0.739,0.467-0.73,1.154-0.417,1.865
				c-0.316-0.186-0.633-0.359-0.943-0.52c-1.746-0.908-6.117-2.908-7.761-1.037c-1.33,1.513,0.398,2.364,1.982,2.892
				c-9.799-0.353-19.387,3.647-25.279,11.539c-9.287,12.434-10.799,26.647,6.981,39.356c-13.94,6.494-22.605,19.542-20.657,33.495
				c0.539,3.873,1.506,7.54,2.965,10.89c-7.711,5.895-12.877,13.322-14.191,22.397c0,0,84.925,0,44.651,0
				c-11.944,0,57.899,0,59.419,0C131.042,150,123.826,137.589,113.071,129.066"/>
			<path fill="#8D0F24" d="M69.378,64.805c-5.142,0.073-8.215-1.976-12.34-4.727c-3.949-2.634-8.669-5.268-11.162-9.333
				c-0.17-0.278,0.003-0.713,0.396-0.636c3.729,0.734,7.129,2.719,10.679,4.022c3.747,1.375,8.443,2.752,12.454,3
				C73.961,57.414,73.979,64.741,69.378,64.805"/>
			<path fill="#2C222C" d="M85.702,57.447c-2.514,0.195-2.841-3.52-0.319-3.716C87.899,53.536,88.223,57.251,85.702,57.447"/>
			<path fill="#2C222C" d="M59.879,48.588c0.036-0.026,0.071-0.053,0.109-0.078c0.637-0.454,1.648-0.4,2.241,0.098
				c0.029,0.023,0.056,0.048,0.087,0.073c0.707,0.593,0.795,1.608,0.197,2.307c-0.023,0.026-0.047,0.054-0.07,0.082
				c-0.5,0.582-1.488,0.798-2.195,0.445c-0.041-0.021-0.084-0.041-0.122-0.06C58.939,50.869,58.809,49.353,59.879,48.588"/>
			<path fill="#2C222C" d="M81.01,64.37c-0.879,1.334-2.181,2.436-3.756,3.142c-1.563,0.732-3.335,1.116-5.127,1.296
				c-1.8,0.17-3.637,0.13-5.459-0.066c-0.908-0.101-1.816-0.24-2.715-0.434c-0.446-0.098-0.895-0.205-1.331-0.337
				c-0.425-0.149-0.902-0.246-1.235-0.554c0.309,0.337,0.781,0.475,1.193,0.661c0.43,0.167,0.869,0.312,1.313,0.447
				c0.885,0.27,1.788,0.485,2.702,0.664c1.825,0.349,3.697,0.545,5.587,0.521c1.885-0.037,3.809-0.28,5.64-0.955
				c1.837-0.645,3.536-1.813,4.761-3.369c0.314-0.4,0.23-0.967-0.191-1.266c-0.421-0.299-1.019-0.22-1.332,0.182
				c-0.018,0.021-0.031,0.041-0.044,0.062L81.01,64.37z"/>
			<path d="M97.377,99.419c3.067,4.862,7.178,9.104,9.527,14.332c1.187,2.638,2.909,5.139,4.541,7.668
				c0.164,0.069,0.331,0.132,0.495,0.189c0.142,0.048,0.269,0.092,0.39,0.141c1.854-0.302,3.834,0.101,5.641,0.549
				c0.316,0.078,0.641,0.168,0.96,0.25c0.202-0.502,0.624-0.974,0.911-1.38c0.598-0.847,1.151-1.775,1.852-2.537
				c0.56-0.609,1.57,0.12,1.172,0.848c-0.498,0.907-1.203,1.731-1.813,2.568c-0.194,0.267-0.398,0.596-0.632,0.891
				c2.613,0.719,5.261,1.559,7.75,2.474c0.329,0.122,0.352,0.699-0.072,0.677c-4.869-0.265-10.207-0.756-15.038-2.055
				c0.854,1.471,1.604,2.972,2.136,4.532c0.139,0.003,0.278,0.034,0.416,0.101c2.827,1.408,5.584,3.563,7.761,5.842
				c2.216,2.317,3.817,6.079,6.844,7.266c0.118,0.047,0.069,0.209-0.026,0.248c-2.49,0.999-4.702-2.325-6.193-3.826
				c-1.088-1.097-2.229-2.117-3.4-3.092c0.072,0.521,0.111,1.053,0.133,1.583c0.045,1.116-0.012,2.237,0.024,3.353
				c0.035,1.087,0.325,2.172,0.117,3.243c-0.04,0.209-0.308,0.322-0.489,0.215c-1.463-0.863-1.629-2.833-1.732-4.397
				c-0.143-2.123-0.134-4.053-0.641-6.063c-1.187-0.913-2.391-1.809-3.598-2.717c-0.208-0.157-0.313-0.347-0.346-0.543
				c-3.026-4.958-7.151-8.805-9.741-14.112c-0.756-1.551-1.685-2.99-2.673-4.39c-0.041,0.248-0.081,0.492-0.119,0.734
				c-0.242,1.544-0.354,3.318-1.299,4.598c-0.333,0.451-0.942,0.053-1.001-0.379c-0.188-1.406,0.435-2.896,0.69-4.283
				c0.153-0.831,0.227-1.708,0.338-2.574c-1.992-2.643-4.09-5.234-5.646-8.225C93.654,99.307,96.243,97.622,97.377,99.419"/>
			<path fill="#8D0F24" d="M100.146,101.533c7.134,4.206,14.351,10.392,32.687,5.38c0,0,0.404-0.141,0.738-0.599
				c0.355-0.064,0.718-0.125,1.084-0.16c1.146-0.116,2.402,0.091,3.498-0.258c0.231-0.075,0.243-0.365,0.026-0.478
				c-1.096-0.577-2.678-0.579-4.185-0.324c0.039-0.47-0.025-1.062-0.239-1.787c0.673-0.119,1.354-0.185,2.048-0.182
				c1.011,0.009,2.053,0.335,3.044,0.17c0.24-0.04,0.305-0.4,0.097-0.539c-1.424-0.957-3.665-0.738-5.496-0.297
				c-0.176-0.429-0.389-0.889-0.671-1.402c-0.05-0.089-0.091-0.177-0.135-0.267c0.87-0.233,1.755-0.416,2.649-0.529
				c1.382-0.171,2.885,0.126,4.205-0.281c0.318-0.098,0.332-0.501,0.036-0.655c-1.231-0.642-2.843-0.398-4.163-0.233
				c-1.07,0.135-2.101,0.406-3.108,0.757c-0.147-0.475-0.237-0.94-0.278-1.399c0.754-0.177,1.512-0.34,2.279-0.466
				c1.069-0.176,2.291-0.132,3.232-0.7c0.204-0.12,0.207-0.461-0.039-0.548c-1.02-0.362-2.106-0.051-3.135,0.154
				c-0.8,0.158-1.588,0.356-2.373,0.571c0.015-0.637,0.092-1.25,0.174-1.828c0.67-0.24,1.344-0.46,2.035-0.631
				c0.777-0.192,1.596-0.217,2.241-0.722c0.151-0.119,0.081-0.385-0.089-0.445c-0.901-0.325-1.887,0.076-2.762,0.352
				c-0.436,0.138-0.861,0.297-1.286,0.463c0.116-0.876,0.158-1.646-0.108-2.275c0.606-0.176,1.211-0.338,1.826-0.479
				c0.98-0.226,2.074-0.252,2.946-0.778c0.167-0.101,0.198-0.441-0.035-0.497c-1.125-0.267-2.259,0.145-3.352,0.434
				c-0.65,0.173-1.295,0.369-1.934,0.583c-0.158-0.135-0.352-0.258-0.577-0.368c0.691-0.226,1.387-0.444,2.089-0.637
				c1.114-0.306,2.261-0.442,3.217-1.124c0.19-0.138,0.036-0.429-0.152-0.46c-1.409-0.229-2.87,0.448-4.189,0.895
				c-0.81,0.275-1.611,0.576-2.405,0.891c-0.19-0.034-0.39-0.064-0.604-0.091c-6.524-0.782-14.224,10.012-28.087,0.111
				C87.029,80.955,88.742,94.811,100.146,101.533"/>
			<path fill="#A02545" d="M103.066,85.458c-0.664-1.802-1.131-3.451-1.395-5.369c-0.22-1.589-1.379-2.512-3.094-2.232
				c-5.127,0.833-10.192,1.748-15.413,1.542c-4.898-0.193-9.724-0.898-14.593-1.38c-2.892-0.287-15.381-0.149-15.381-0.145
				c-1.008,0.773-1.837,2.474-1.755,4.159c-0.585,1.059-1.318,2.038-2.367,2.952c-1.155,1.008-0.645,2.562,0.451,3.328
				c6.738,4.708,16.442,5.272,24.532,5.288c9.551,0.021,18.537-1.92,27.338-5.345C102.527,87.815,103.537,86.731,103.066,85.458"/>
			<circle fill="#2C222C" cx="72.154" cy="121.681" r="2.084"/>
			<circle fill="#2C222C" cx="72.154" cy="138.181" r="2.084"/>
			<circle fill="#2C222C" cx="72.154" cy="105.181" r="2.084"/>
		</g>
	</g>
	<rect x="11.667" y="8.761" fill="none" width="34.835" height="38"/>
	<text transform="matrix(1 0 0 1 11.667 43.4956)" fill="#FFFFFF" font-family="'Corben-Regular'" font-size="48">5</text>
</g>
</svg>
