<?xml version="1.0" encoding="utf-8"?>
<!-- Generator: Adobe Illustrator 16.0.3, SVG Export Plug-In . SVG Version: 6.00 Build 0)  -->
<!DOCTYPE svg PUBLIC "-//W3C//DTD SVG 1.1//EN" "http://www.w3.org/Graphics/SVG/1.1/DTD/svg11.dtd">
<svg version="1.1" xmlns="http://www.w3.org/2000/svg" xmlns:xlink="http://www.w3.org/1999/xlink" x="0px" y="0px" width="150px"
	 height="150px" viewBox="0 0 150 150" enable-background="new 0 0 150 150" xml:space="preserve">
<g id="Background">
</g>
<g id="Capa_3">
	<g id="clasicas_19">
		<rect fill-rule="evenodd" clip-rule="evenodd" fill="#CFA471" width="150" height="150"/>
		<path fill="#356D47" d="M30.447,110.401L60.03,93.813c0.554-0.312,1.226-0.33,1.798-0.05l30.438,14.964
			c1.438,0.706,3.063-0.542,2.748-2.114l-6.637-33.26c-0.123-0.624,0.066-1.27,0.51-1.726l23.637-24.324
			c1.117-1.148,0.432-3.081-1.16-3.267L77.68,40.069c-0.633-0.074-1.187-0.454-1.484-1.018L60.366,9.056
			C59.618,7.638,57.57,7.694,56.9,9.15L42.719,39.959c-0.266,0.578-0.8,0.988-1.426,1.096L7.873,46.84
			c-1.578,0.272-2.158,2.239-0.98,3.327l24.919,23.006c0.468,0.432,0.692,1.066,0.603,1.696l-4.825,33.57
			C27.361,110.027,29.051,111.186,30.447,110.401z"/>
		<path fill="#20442C" d="M58.555,8.024l1.18,56.273L42.197,40.64c0,0,0.307-0.22,0.546-0.734C42.909,39.555,56.9,9.15,56.9,9.15
			S57.268,8.12,58.555,8.024z"/>
		<path fill="#20442C" d="M112.945,45.262L59.734,64.297l17.148-24.586c0,0,0.305,0.224,0.867,0.296
			c0.383,0.048,33.617,4.027,33.617,4.027S112.459,44.068,112.945,45.262z"/>
		<path fill="#20442C" d="M94.418,108.423L59.734,64.297l28.654,8.193c0,0-0.117,0.358-0.01,0.914
			c0.074,0.38,6.746,33.18,6.746,33.18S95.4,107.585,94.418,108.423z"/>
		<path fill="#20442C" d="M28.431,110.327l31.304-46.03l1.111,29.285c0,0-0.375-0.004-0.873,0.268
			c-0.34,0.186-29.576,16.593-29.576,16.593S29.413,111.018,28.431,110.327z"/>
		<path fill="#20442C" d="M6.346,48.211l53.389,16.086l-27.439,9.574c0,0-0.111-0.358-0.523-0.746c-0.282-0.266-24.92-23-24.92-23
			S5.993,49.359,6.346,48.211z"/>
	</g>
	<rect x="103.529" y="98.655" fill="none" width="67.333" height="61.333"/>
	<text transform="matrix(1 0 0 1 103.5293 133.3896)" fill="#20442C" font-family="'Corben-Regular'" font-size="48">19</text>
</g>
</svg>
