<?xml version="1.0" encoding="utf-8"?>
<!-- Generator: Adobe Illustrator 16.0.3, SVG Export Plug-In . SVG Version: 6.00 Build 0)  -->
<!DOCTYPE svg PUBLIC "-//W3C//DTD SVG 1.1//EN" "http://www.w3.org/Graphics/SVG/1.1/DTD/svg11.dtd">
<svg version="1.1" xmlns="http://www.w3.org/2000/svg" xmlns:xlink="http://www.w3.org/1999/xlink" x="0px" y="0px" width="150px"
	 height="150px" viewBox="0 0 150 150" enable-background="new 0 0 150 150" xml:space="preserve">
<g id="Background">
</g>
<g id="Capa_3">
	<g id="clasicas_12">
		<rect id="clasica_12" fill-rule="evenodd" clip-rule="evenodd" fill="#FFFFFF" width="150" height="150"/>
		<g>
			<g>
				<path fill="#FEFFFB" d="M62.5,97.202c0.772,0.21,1.605,0.238,2.439,0.05c2.729-0.617,4.441-3.331,3.823-6.059L58.164,44.365
					c-0.26-1.406-0.238-2.921,0.039-3.946c1.418-5.23,6.827-8.331,12.057-6.914c4.241,1.15,7.227,5.018,7.259,9.405
					c0.02,2.799,2.304,5.051,5.103,5.03c2.799-0.021,5.049-2.305,5.029-5.103c-0.065-8.918-6.125-16.777-14.74-19.112
					c-10.621-2.88-21.606,3.419-24.484,14.042c-0.383,1.407-1.146,5.098-0.066,9.157L58.88,93.428
					C59.309,95.323,60.746,96.726,62.5,97.202z"/>
			</g>
			<g>
				<defs>
					<path id="SVGID_59_" d="M62.5,97.202c0.772,0.21,1.605,0.238,2.439,0.05c2.729-0.617,4.441-3.331,3.823-6.059L58.164,44.365
						c-0.26-1.406-0.238-2.921,0.039-3.946c1.418-5.23,6.827-8.331,12.057-6.914c4.241,1.15,7.227,5.018,7.259,9.405
						c0.02,2.799,2.304,5.051,5.103,5.03c2.799-0.021,5.049-2.305,5.029-5.103c-0.065-8.918-6.125-16.777-14.74-19.112
						c-10.621-2.88-21.606,3.419-24.484,14.042c-0.383,1.407-1.146,5.098-0.066,9.157L58.88,93.428
						C59.309,95.323,60.746,96.726,62.5,97.202z"/>
				</defs>
				<use xlink:href="#SVGID_59_"  overflow="visible" fill="#F2DEAC"/>
				<clipPath id="SVGID_2_">
					<use xlink:href="#SVGID_59_"  overflow="visible"/>
				</clipPath>
				<g clip-path="url(#SVGID_2_)">
					
						<rect x="58.955" y="74.499" transform="matrix(-0.2791 0.9603 -0.9603 -0.2791 163.7864 50.9865)" fill="#FF5D58" width="7.599" height="24.946"/>
				</g>
				<g clip-path="url(#SVGID_2_)">
					
						<rect x="55.386" y="59.529" transform="matrix(-0.2794 0.9602 -0.9602 -0.2794 144.8562 35.2886)" fill="#FF5D58" width="7.6" height="24.948"/>
				</g>
				<g clip-path="url(#SVGID_2_)">
					
						<rect x="51.819" y="44.562" transform="matrix(-0.2791 0.9603 -0.9603 -0.2791 125.9116 19.5486)" fill="#8D0F24" width="7.599" height="24.946"/>
				</g>
				<g clip-path="url(#SVGID_2_)">
					
						<rect x="48.25" y="29.593" transform="matrix(-0.2792 0.9602 -0.9602 -0.2792 106.9777 3.8342)" fill="#8D0F24" width="7.6" height="24.948"/>
				</g>
				<g clip-path="url(#SVGID_2_)">
					
						<rect x="53.108" y="18.157" transform="matrix(-0.6507 0.7593 -0.7593 -0.6507 117.0436 7.0225)" fill="#8D0F24" width="7.598" height="24.544"/>
				</g>
				<g clip-path="url(#SVGID_2_)">
					
						<rect x="59.495" y="25.457" transform="matrix(-0.1212 0.9926 -0.9926 -0.1212 109.1361 -38.1112)" fill="#8D0F24" width="23.888" height="7.598"/>
				</g>
				<g clip-path="url(#SVGID_2_)">
					
						<rect x="70.369" y="32.326" transform="matrix(-0.7237 0.6901 -0.6901 -0.7237 167.7282 5.1049)" fill="#8D0F24" width="24.946" height="7.6"/>
				</g>
			</g>
			<path opacity="0.15" fill="#4A4745" d="M82.621,47.94c-2.799,0.021-5.083-2.231-5.103-5.03c-0.032-4.387-3.018-8.255-7.259-9.405
				c-5.229-1.417-10.639,1.684-12.057,6.914c-0.277,1.025-0.299,2.54-0.039,3.946l10.599,46.827
				c0.618,2.728-1.094,5.442-3.823,6.059L52.916,46.044c0,0-2.79-10.987,6.412-15.946c13.015-7.013,20.944,3.633,22.049,7.416
				C82.482,41.296,82.621,47.94,82.621,47.94z"/>
		</g>
		<g>
			<g>
				<path fill="#FEFFFB" d="M63.283,96.702c-0.402,0.691-0.975,1.297-1.701,1.748c-2.377,1.478-5.501,0.747-6.976-1.629
					L29.271,56.038c-0.804-1.183-1.882-2.246-2.8-2.781c-4.682-2.729-10.709-1.139-13.438,3.542
					c-2.212,3.797-1.621,8.646,1.436,11.793c1.952,2.007,1.905,5.215-0.102,7.165c-2.005,1.95-5.213,1.904-7.163-0.102
					C0.987,69.26-0.216,59.409,4.278,51.698c5.541-9.51,17.785-12.737,27.293-7.196c1.262,0.734,4.395,2.825,6.478,6.474
					l25.163,40.496C64.236,93.123,64.197,95.132,63.283,96.702z"/>
			</g>
			<g>
				<defs>
					<path id="SVGID_61_" d="M63.283,96.702c-0.402,0.691-0.975,1.297-1.701,1.748c-2.377,1.478-5.501,0.747-6.976-1.629
						L29.271,56.038c-0.804-1.183-1.882-2.246-2.8-2.781c-4.682-2.729-10.709-1.139-13.438,3.542
						c-2.212,3.797-1.621,8.646,1.436,11.793c1.952,2.007,1.905,5.215-0.102,7.165c-2.005,1.95-5.213,1.904-7.163-0.102
						C0.987,69.26-0.216,59.409,4.278,51.698c5.541-9.51,17.785-12.737,27.293-7.196c1.262,0.734,4.395,2.825,6.478,6.474
						l25.163,40.496C64.236,93.123,64.197,95.132,63.283,96.702z"/>
				</defs>
				<use xlink:href="#SVGID_61_"  overflow="visible" fill="#F2DEAC"/>
				<clipPath id="SVGID_4_">
					<use xlink:href="#SVGID_61_"  overflow="visible"/>
				</clipPath>
				<g clip-path="url(#SVGID_4_)">
					
						<rect x="52.119" y="77.123" transform="matrix(0.8731 0.4876 -0.4876 0.8731 50.7869 -15.8933)" fill="#72C3C7" width="7.599" height="24.947"/>
				</g>
				<g clip-path="url(#SVGID_4_)">
					
						<rect x="44.149" y="63.961" transform="matrix(0.873 0.4877 -0.4877 0.873 43.3617 -13.6784)" fill="#72C3C7" width="7.6" height="24.947"/>
				</g>
				<g clip-path="url(#SVGID_4_)">
					
						<rect x="36.18" y="50.798" transform="matrix(0.873 0.4877 -0.4877 0.873 35.9311 -11.463)" fill="#20442C" width="7.6" height="24.947"/>
				</g>
				<g clip-path="url(#SVGID_4_)">
					
						<rect x="28.21" y="37.634" transform="matrix(0.873 0.4877 -0.4877 0.873 28.4999 -9.2478)" fill="#20442C" width="7.6" height="24.947"/>
				</g>
				<g clip-path="url(#SVGID_4_)">
					
						<rect x="16.58" y="32.961" transform="matrix(0.9965 0.0837 -0.0837 0.9965 3.8588 -1.5475)" fill="#20442C" width="7.599" height="24.544"/>
				</g>
				<g clip-path="url(#SVGID_4_)">
					
						<rect x="-2.735" y="50.802" transform="matrix(0.7833 0.6216 -0.6216 0.7833 35.9357 6.1056)" fill="#20442C" width="23.889" height="7.6"/>
				</g>
				<g clip-path="url(#SVGID_4_)">
					
						<rect x="-6.56" y="63.7" transform="matrix(0.9999 -0.0169 0.0169 0.9999 -1.1406 0.1097)" fill="#20442C" width="24.947" height="7.6"/>
				</g>
			</g>
			<path opacity="0.15" fill="#4A4745" d="M14.366,75.757c2.007-1.95,2.054-5.158,0.102-7.165
				c-3.057-3.146-3.647-7.996-1.436-11.793c2.729-4.681,8.757-6.271,13.438-3.542c0.918,0.535,1.996,1.598,2.8,2.781l25.336,40.783
				c1.475,2.376,4.599,3.106,6.976,1.629L34.185,53.548c0,0-5.729-9.783-15.764-6.851C4.232,50.843,6.062,63.991,7.932,67.46
				C9.8,70.928,14.366,75.757,14.366,75.757z"/>
		</g>
		<g>
			<g>
				<path fill="#20442C" d="M73.51,72.854c0,0,9.479,25.171,11.294,30.012c1.813,4.841,6.946,5.696,12.255,6.581
					c5.31,0.885,11.544-0.449,16.612,4.16c6.284,5.714,6.277,17.102-0.033,22.359c-6.393,5.151-43.687,14.708-56.214,11.795
					c-10.095-2.347-15.228-16.179-19.187-28.498L27.433,86.774L73.51,72.854z"/>
			</g>
			<g>
				<path fill="#8D0F24" d="M97.11,142.568c7.697-2.272,14.198-4.664,16.527-6.604c6.311-5.257,6.317-16.645,0.033-22.359
					c-5.068-4.609-11.303-3.275-16.612-4.16C97.059,109.446,88.761,124.141,97.11,142.568"/>
			</g>
			<g>
				<g>
					<g>
						<path fill="#FDFBEE" d="M99.617,112.629c-0.106,0.014-0.217,0.004-0.327-0.032c-0.386-0.129-0.596-0.547-0.466-0.934
							c0.172-0.519,0.343-0.992,0.507-1.419c0.146-0.381,0.573-0.571,0.954-0.425c0.38,0.147,0.57,0.574,0.425,0.955
							c-0.157,0.406-0.32,0.86-0.485,1.356C100.132,112.408,99.89,112.595,99.617,112.629z"/>
					</g>
					<g>
						<path fill="#FDFBEE" d="M99.593,137.266c-0.346,0.044-0.686-0.163-0.796-0.507c-0.29-0.903-0.551-1.819-0.777-2.724
							c-0.098-0.396,0.143-0.797,0.539-0.895c0.388-0.101,0.797,0.142,0.896,0.538c0.217,0.874,0.47,1.759,0.749,2.629
							c0.124,0.389-0.09,0.804-0.478,0.93C99.682,137.25,99.637,137.259,99.593,137.266z M98.136,131.18
							c-0.394,0.051-0.76-0.222-0.822-0.617c-0.064-0.404-0.123-0.804-0.173-1.201c-0.071-0.544-0.128-1.082-0.174-1.612
							c-0.038-0.406,0.254-0.77,0.67-0.8c0.406-0.036,0.766,0.265,0.799,0.671c0.047,0.511,0.102,1.027,0.17,1.553
							c0.05,0.382,0.104,0.769,0.167,1.158c0.063,0.402-0.212,0.781-0.614,0.845C98.151,131.178,98.143,131.179,98.136,131.18z
							 M97.645,124.943c-0.032,0.005-0.063,0.006-0.097,0.006c-0.407,0-0.738-0.33-0.738-0.738c0-0.939,0.034-1.892,0.1-2.834
							c0.03-0.407,0.385-0.714,0.79-0.684c0.408,0.029,0.714,0.381,0.686,0.789c-0.066,0.905-0.098,1.824-0.098,2.728
							C98.288,124.586,98.008,124.897,97.645,124.943z M98.139,118.707c-0.069,0.009-0.141,0.008-0.211-0.004
							c-0.402-0.065-0.677-0.443-0.612-0.846c0.149-0.934,0.332-1.869,0.544-2.782c0.093-0.397,0.491-0.643,0.888-0.551
							c0.397,0.092,0.645,0.489,0.552,0.887c-0.204,0.879-0.383,1.781-0.526,2.68C98.721,118.421,98.454,118.666,98.139,118.707z"/>
					</g>
					<g>
						<path fill="#FDFBEE" d="M100.626,141.495c-0.208-0.461-0.416-0.947-0.604-1.403c-0.156-0.377,0.023-0.809,0.4-0.965
							c0.373-0.155,0.808,0.023,0.964,0.401c0.184,0.441,0.445,1.068,0.646,1.516C101.633,141.188,101.223,141.302,100.626,141.495z
							"/>
					</g>
				</g>
			</g>
			<g>
				<path fill="#8D0F24" d="M41.145,127.426c0,0,9.449-2.87,20.429,5.272c10.94,8.112,10.746,14.993,10.746,14.993
					c-6.865,0.888-10.78,1.024-14.896,0.067C48.199,145.615,44.301,137.035,41.145,127.426z"/>
			</g>
			<g>
				<g>
					<path fill="#FDFBEE" d="M67.067,146.701c-0.304,0.039-0.612-0.114-0.756-0.404c-0.397-0.799-0.892-1.614-1.468-2.422
						c-0.238-0.332-0.16-0.793,0.171-1.03c0.331-0.238,0.793-0.162,1.03,0.172c0.622,0.872,1.158,1.754,1.59,2.623
						c0.182,0.365,0.032,0.809-0.332,0.99C67.226,146.667,67.147,146.691,67.067,146.701z M63.168,141.352
						c-0.225,0.029-0.458-0.044-0.627-0.219c-0.641-0.664-1.349-1.33-2.101-1.979c-0.309-0.266-0.342-0.733-0.075-1.042
						c0.266-0.311,0.731-0.343,1.041-0.078c0.786,0.679,1.524,1.375,2.197,2.071c0.284,0.293,0.275,0.761-0.018,1.044
						C63.468,141.265,63.32,141.332,63.168,141.352z M58.111,137.053c-0.178,0.023-0.363-0.018-0.52-0.128
						c-0.797-0.561-1.614-1.078-2.433-1.536c-0.355-0.199-0.481-0.65-0.282-1.006c0.199-0.354,0.649-0.481,1.005-0.282
						c0.861,0.483,1.722,1.026,2.561,1.615c0.332,0.234,0.412,0.695,0.178,1.029C58.495,136.922,58.309,137.028,58.111,137.053z
						 M52.277,133.905c-0.117,0.015-0.24,0.002-0.359-0.043c-0.896-0.347-1.813-0.636-2.726-0.861
						c-0.396-0.099-0.638-0.498-0.539-0.894c0.098-0.396,0.498-0.637,0.893-0.541c0.974,0.24,1.95,0.55,2.903,0.918
						c0.381,0.147,0.571,0.574,0.424,0.956C52.771,133.7,52.539,133.871,52.277,133.905z M45.822,132.433
						c-0.048,0.005-0.098,0.008-0.147,0.003c-0.97-0.069-1.831-0.077-2.745-0.002c-0.145-0.339-0.328-0.766-0.527-1.382
						c0.989-0.081,2.333-0.164,3.377-0.089c0.408,0.029,0.714,0.382,0.686,0.79C46.438,132.11,46.164,132.388,45.822,132.433z"/>
				</g>
			</g>
			<path opacity="0.07" fill="#313238" d="M118.258,126.942c-0.424,3.508-1.963,6.809-4.62,9.022
				c-2.329,1.94-8.83,4.332-16.527,6.604c-0.007-0.017-0.014-0.034-0.021-0.051c-7.741,2.205-16.86,4.185-24.77,5.154
				c0,0.013,0,0.021,0,0.021c-6.865,0.888-10.78,1.024-14.896,0.067c-0.382-0.088-0.754-0.199-1.122-0.32
				c-7.793-2.374-11.56-9.621-14.472-17.992c-1.336-3.332-2.509-6.814-3.593-10.186L27.433,86.774l9.087-3.59
				c0,0,7.14,46.401,24.317,52.792C88.436,146.246,118.258,126.942,118.258,126.942z"/>
			<g>
				<g>
					<path fill="#67B86B" d="M76.871,71.259c0,0,3.021,2.944,0.567,5.071c-2.987,2.59-4.938-0.114-4.938-0.114
						s-0.156,3.185-3.715,4.708c-2.933,1.258-5.135-1.074-5.135-1.074s0.545,3.02-2.201,3.837c-3.743,1.112-4.724-1.994-4.724-1.994
						s-1.144,4.705-4.594,4.763c-3.449,0.059-5.211-2.303-5.211-2.303s-0.573,4.162-3.992,4.215
						c-3.026,0.046-3.805-2.575-3.805-2.575s-1.99,3.529-4.655,3.625c-3.812,0.138-3.975-3.289-3.975-3.289
						s-1.956,4.695-5.208,4.082c-4.38-0.827-4.743-4.991-2.751-7.094c0,0-4.832-2.458-2.412-5.736c2.193-2.97,5.466-1.32,5.466-1.32
						s-3.271-3.667,0.492-5.696c3.308-1.784,5.836,1.874,5.836,1.874s-1.357-3.588,1.078-4.511c3.799-1.44,5.689,1.769,5.689,1.769
						s-1.165-2.396,1.339-4.122c2.594-1.788,4.696,2.841,4.696,2.841s-2.085-4.43,1.467-6.127c3.006-1.438,5.688,2.652,5.688,2.652
						s-0.793-5.429,3.646-5.835c3.647-0.334,4.938,2.513,4.938,2.513s0.265-3.573,3.791-3.752c3.151-0.16,3.34,3.559,3.34,3.559
						s0.002-4.08,3.448-3.642c3.96,0.503,1.531,4.436,1.531,4.436s2.166-4.02,5.165-1.536c3.102,2.566-0.914,5.343-0.914,5.343
						s5.406-1.029,5.287,3.533C82.025,72.451,76.871,71.259,76.871,71.259z"/>
				</g>
			</g>
			<g>
				<g>
					<path fill="#8D0F24" d="M77.768,86.19l-4.018-1.825c-1.156-0.525-2.521-0.107-3.185,0.973l-3.151,5.129
						c-0.683,1.11-2.101,1.516-3.267,0.934l-5.005-2.496c-1.197-0.597-2.65-0.154-3.313,1.009l-3.289,5.794
						c-0.645,1.135-2.05,1.589-3.235,1.046l-7.746-3.546c-1.011-0.462-2.204-0.208-2.938,0.629l-5.41,6.164
						c-0.586,0.667-0.779,1.58-0.506,2.424c1.067,3.294,3.843,11.834,5.431,16.631c0.537,1.625,2.501,2.248,3.88,1.234l4.459-3.283
						c0.793-0.584,1.855-0.651,2.718-0.171l5.717,3.189c1.155,0.644,2.612,0.285,3.334-0.823l3.844-5.896
						c0.67-1.028,1.981-1.422,3.107-0.935l5.688,2.464c1.226,0.531,2.652,0.012,3.251-1.182l3.754-7.5
						c0.587-1.172,1.973-1.704,3.188-1.207c1.984,0.81,4.977,1.885,7.273,2.053c0,0-2.321-0.869-3.546-4.134
						c-1.265-3.374-4.611-12.306-5.722-15.272C78.848,86.968,78.376,86.466,77.768,86.19z"/>
				</g>
				<g>
					<defs>
						<path id="SVGID_63_" d="M76.941,81.881c0,0-6.841,5.06-28.31,10.005c-5.183,1.194-11.218,2.381-18.216,3.488
							c0,0,8.178,25.226,8.827,26.958l8.536-6.285l9.183,5.122l7.743-8.534l8.926,2.258l5.951-9.416c0,0,6.44,3.022,8.768,1.521
							c0,0-2.321-0.869-3.546-4.134C83.277,98.792,76.941,81.881,76.941,81.881z"/>
					</defs>
					<use xlink:href="#SVGID_63_"  overflow="visible" fill="#8D0F24"/>
					<clipPath id="SVGID_6_">
						<use xlink:href="#SVGID_63_"  overflow="visible"/>
					</clipPath>
					<g clip-path="url(#SVGID_6_)">
						<g>
							
								<line fill="none" stroke="#FDFDFC" stroke-width="0.7444" stroke-linecap="round" stroke-linejoin="round" x1="34.39" y1="107.925" x2="35.084" y2="106.608"/>
							
								<line fill="none" stroke="#FDFDFC" stroke-width="0.7444" stroke-linecap="round" stroke-linejoin="round" stroke-dasharray="2.4764,1.8573" x1="35.949" y1="104.965" x2="39.556" y2="98.118"/>
							<polyline fill="none" stroke="#FDFDFC" stroke-width="0.7444" stroke-linecap="round" stroke-linejoin="round" points="
								39.988,97.296 40.683,95.979 41.835,96.922 							"/>
							
								<line fill="none" stroke="#FDFDFC" stroke-width="0.7444" stroke-linecap="round" stroke-linejoin="round" stroke-dasharray="2.9204,2.1903" x1="43.529" y1="98.309" x2="50.592" y2="104.089"/>
							<polyline fill="none" stroke="#FDFDFC" stroke-width="0.7444" stroke-linecap="round" stroke-linejoin="round" points="
								51.439,104.783 52.592,105.726 53.125,104.336 							"/>
							
								<line fill="none" stroke="#FDFDFC" stroke-width="0.7444" stroke-linecap="round" stroke-linejoin="round" stroke-dasharray="2.9066,2.1799" x1="53.906" y1="102.301" x2="57.159" y2="93.82"/>
							<polyline fill="none" stroke="#FDFDFC" stroke-width="0.7444" stroke-linecap="round" stroke-linejoin="round" points="
								57.55,92.803 58.083,91.413 59.213,92.382 							"/>
							
								<line fill="none" stroke="#FDFDFC" stroke-width="0.7444" stroke-linecap="round" stroke-linejoin="round" stroke-dasharray="2.4855,1.8641" x1="60.628" y1="93.596" x2="66.522" y2="98.654"/>
							<polyline fill="none" stroke="#FDFDFC" stroke-width="0.7444" stroke-linecap="round" stroke-linejoin="round" points="
								67.229,99.261 68.359,100.23 68.785,98.804 							"/>
							
								<line fill="none" stroke="#FDFDFC" stroke-width="0.7444" stroke-linecap="round" stroke-linejoin="round" stroke-dasharray="2.7866,2.0899" x1="69.383" y1="96.801" x2="71.873" y2="88.457"/>
							<polyline fill="none" stroke="#FDFDFC" stroke-width="0.7444" stroke-linecap="round" stroke-linejoin="round" points="
								72.172,87.456 72.598,86.029 73.875,86.794 							"/>
							
								<line fill="none" stroke="#FDFDFC" stroke-width="0.7444" stroke-linecap="round" stroke-linejoin="round" stroke-dasharray="2.3913,1.7935" x1="75.413" y1="87.717" x2="81.822" y2="91.559"/>
							
								<line fill="none" stroke="#FDFDFC" stroke-width="0.7444" stroke-linecap="round" stroke-linejoin="round" x1="82.591" y1="92.02" x2="83.868" y2="92.786"/>
						</g>
					</g>
					<g clip-path="url(#SVGID_6_)">
						<g>
							
								<line fill="none" stroke="#FDFDFC" stroke-width="0.7444" stroke-linecap="round" stroke-linejoin="round" x1="36.014" y1="114.127" x2="36.707" y2="112.81"/>
							
								<line fill="none" stroke="#FDFDFC" stroke-width="0.7444" stroke-linecap="round" stroke-linejoin="round" stroke-dasharray="2.4762,1.8571" x1="37.572" y1="111.167" x2="41.179" y2="104.32"/>
							<polyline fill="none" stroke="#FDFDFC" stroke-width="0.7444" stroke-linecap="round" stroke-linejoin="round" points="
								41.611,103.499 42.305,102.181 43.457,103.124 							"/>
							
								<line fill="none" stroke="#FDFDFC" stroke-width="0.7444" stroke-linecap="round" stroke-linejoin="round" stroke-dasharray="2.921,2.1907" x1="45.152" y1="104.511" x2="52.217" y2="110.292"/>
							<polyline fill="none" stroke="#FDFDFC" stroke-width="0.7444" stroke-linecap="round" stroke-linejoin="round" points="
								53.064,110.985 54.217,111.928 54.75,110.538 							"/>
							
								<line fill="none" stroke="#FDFDFC" stroke-width="0.7444" stroke-linecap="round" stroke-linejoin="round" stroke-dasharray="2.9064,2.1798" x1="55.53" y1="108.503" x2="58.783" y2="100.023"/>
							<polyline fill="none" stroke="#FDFDFC" stroke-width="0.7444" stroke-linecap="round" stroke-linejoin="round" points="
								59.174,99.005 59.707,97.615 60.837,98.585 							"/>
							
								<line fill="none" stroke="#FDFDFC" stroke-width="0.7444" stroke-linecap="round" stroke-linejoin="round" stroke-dasharray="2.4854,1.8641" x1="62.252" y1="99.799" x2="68.146" y2="104.856"/>
							<polyline fill="none" stroke="#FDFDFC" stroke-width="0.7444" stroke-linecap="round" stroke-linejoin="round" points="
								68.854,105.463 69.983,106.433 70.409,105.006 							"/>
							
								<line fill="none" stroke="#FDFDFC" stroke-width="0.7444" stroke-linecap="round" stroke-linejoin="round" stroke-dasharray="2.7865,2.0898" x1="71.007" y1="103.003" x2="73.497" y2="94.659"/>
							<polyline fill="none" stroke="#FDFDFC" stroke-width="0.7444" stroke-linecap="round" stroke-linejoin="round" points="
								73.796,93.658 74.222,92.231 75.499,92.997 							"/>
							
								<line fill="none" stroke="#FDFDFC" stroke-width="0.7444" stroke-linecap="round" stroke-linejoin="round" stroke-dasharray="2.3911,1.7934" x1="77.037" y1="93.919" x2="83.446" y2="97.76"/>
							
								<line fill="none" stroke="#FDFDFC" stroke-width="0.7444" stroke-linecap="round" stroke-linejoin="round" x1="84.215" y1="98.222" x2="85.492" y2="98.987"/>
						</g>
					</g>
					<g clip-path="url(#SVGID_6_)">
						<g>
							
								<line fill="none" stroke="#FDFDFC" stroke-width="0.7444" stroke-linecap="round" stroke-linejoin="round" x1="37.759" y1="119.719" x2="38.453" y2="118.402"/>
							
								<line fill="none" stroke="#FDFDFC" stroke-width="0.7444" stroke-linecap="round" stroke-linejoin="round" stroke-dasharray="2.4764,1.8573" x1="39.318" y1="116.759" x2="42.925" y2="109.912"/>
							<polyline fill="none" stroke="#FDFDFC" stroke-width="0.7444" stroke-linecap="round" stroke-linejoin="round" points="
								43.357,109.09 44.052,107.773 45.204,108.716 							"/>
							
								<line fill="none" stroke="#FDFDFC" stroke-width="0.7444" stroke-linecap="round" stroke-linejoin="round" stroke-dasharray="2.9207,2.1905" x1="46.899" y1="110.104" x2="53.962" y2="115.884"/>
							<polyline fill="none" stroke="#FDFDFC" stroke-width="0.7444" stroke-linecap="round" stroke-linejoin="round" points="
								54.81,116.578 55.962,117.521 56.495,116.13 							"/>
							
								<line fill="none" stroke="#FDFDFC" stroke-width="0.7444" stroke-linecap="round" stroke-linejoin="round" stroke-dasharray="2.9065,2.1799" x1="57.275" y1="114.095" x2="60.528" y2="105.615"/>
							<polyline fill="none" stroke="#FDFDFC" stroke-width="0.7444" stroke-linecap="round" stroke-linejoin="round" points="
								60.919,104.597 61.452,103.207 62.582,104.177 							"/>
							
								<line fill="none" stroke="#FDFDFC" stroke-width="0.7444" stroke-linecap="round" stroke-linejoin="round" stroke-dasharray="2.4854,1.8641" x1="63.997" y1="105.391" x2="69.892" y2="110.448"/>
							<polyline fill="none" stroke="#FDFDFC" stroke-width="0.7444" stroke-linecap="round" stroke-linejoin="round" points="
								70.599,111.055 71.729,112.024 72.154,110.598 							"/>
							
								<line fill="none" stroke="#FDFDFC" stroke-width="0.7444" stroke-linecap="round" stroke-linejoin="round" stroke-dasharray="2.7865,2.0898" x1="72.752" y1="108.595" x2="75.242" y2="100.251"/>
							<polyline fill="none" stroke="#FDFDFC" stroke-width="0.7444" stroke-linecap="round" stroke-linejoin="round" points="
								75.541,99.25 75.967,97.823 77.244,98.589 							"/>
							
								<line fill="none" stroke="#FDFDFC" stroke-width="0.7444" stroke-linecap="round" stroke-linejoin="round" stroke-dasharray="2.3914,1.7935" x1="78.782" y1="99.511" x2="85.192" y2="103.353"/>
							
								<line fill="none" stroke="#FDFDFC" stroke-width="0.7444" stroke-linecap="round" stroke-linejoin="round" x1="85.961" y1="103.813" x2="87.238" y2="104.579"/>
						</g>
					</g>
				</g>
			</g>
		</g>
	</g>
	<rect x="93.386" y="10.719" fill="none" width="75" height="51"/>
	<text transform="matrix(1 0 0 1 93.3857 45.4531)" fill="#20442C" font-family="'Corben-Regular'" font-size="48">12</text>
</g>
</svg>
