<?xml version="1.0" encoding="utf-8"?>
<!-- Generator: Adobe Illustrator 16.0.3, SVG Export Plug-In . SVG Version: 6.00 Build 0)  -->
<!DOCTYPE svg PUBLIC "-//W3C//DTD SVG 1.1//EN" "http://www.w3.org/Graphics/SVG/1.1/DTD/svg11.dtd">
<svg version="1.1" xmlns="http://www.w3.org/2000/svg" xmlns:xlink="http://www.w3.org/1999/xlink" x="0px" y="0px"
	 width="148.915px" height="148.089px" viewBox="0 0 148.915 148.089" enable-background="new 0 0 148.915 148.089"
	 xml:space="preserve">
<g id="Background">
</g>
<g id="Capa_3">
	<g id="_x31_1_4_">
		<g>
			<rect x="-39.391" y="-0.249" fill-rule="evenodd" clip-rule="evenodd" fill="#8D0F24" width="306.024" height="149.167"/>
		</g>
	</g>
	<path fill="#FFFEFF" d="M13.877,21.268c0.849,0.466,1.908,0.414,2.649-0.206c0,0,5.608-7.966,6.746-7.825
		c6.387,0.798-3.452,10.2-4.829,12.254c-5.695,8.491-7.906,10.292-13.235,17.693c-2.561,3.562,4.597,8.048,7.458,4.747
		c6.442-7.441,7.086-8.597,12.613-16.745c3.681-5.425,14.396-16.436,9.175-21.713c-9.63-9.733-16.499-7.881-25.369,6.39
		c-0.483,0.781-0.29,1.804,0.435,2.368C10.747,19.181,12.607,20.57,13.877,21.268"/>
	<path fill="#8D0F24" d="M17.89,13.125c-1.007-1.609-2.255-3.321-2.904-5.163c-0.775,0.813-1.562,1.724-2.355,2.754
		c0.401,1.009,0.906,2.001,1.446,2.992c0.912,1.67,2.126,4.026,3.733,5.58c0.679-0.92,1.543-2.061,2.396-3.11
		C19.414,15.155,18.541,14.167,17.89,13.125"/>
	<path fill="#8D0F24" d="M22.139,13.996c0.501-0.488,0.907-0.787,1.134-0.759c0.977,0.122,1.571,0.447,1.878,0.916
		c-0.003-2.985-0.102-6.005,0.83-8.871c0.145-0.445,0.367-0.886,0.614-1.328c-1.311-0.447-2.588-0.62-3.85-0.492
		c-0.043,0.123-0.085,0.243-0.124,0.359C21.521,7.089,21.418,10.638,22.139,13.996"/>
	<path fill="#8D0F24" d="M25.365,14.71c0.208,1.079-0.528,2.607-1.603,4.191c0.04-0.016,0.077-0.016,0.118-0.034
		c3.042-1.458,6.872-1.928,10.186-1.542c0.219,0.025,0.434,0.071,0.654,0.111c0.655-1.447,1.072-2.846,1.127-4.136
		C32.314,12.785,28.293,13.333,25.365,14.71"/>
	<path fill="#8D0F24" d="M22.962,20.018c-0.903,1.197-1.906,2.369-2.755,3.348c3.076,0.37,6.109,1.341,8.8,2.872
		c0.879-1.144,1.785-2.353,2.642-3.585c-0.678-0.366-1.338-0.689-1.921-0.968C27.469,20.608,25.268,20.016,22.962,20.018"/>
	<path fill="#7B0A00" d="M17.036,27.551c-0.839,1.211-1.607,2.287-2.32,3.253c2.69,1.282,5.232,2.636,7.807,4.231
		c0.033,0.021,0.069,0.045,0.102,0.066c0.698-1.023,1.487-2.194,2.404-3.547c-0.654-0.355-1.273-0.682-1.781-0.988
		C21.354,29.423,19.248,27.98,17.036,27.551"/>
	<path fill="#7B0A00" d="M13.288,37.258c-0.668-0.468-1.325-0.965-2.031-1.377l-0.324-0.188c-0.081,0.104-1.729,2.177-2.477,3.144
		c1.392,1.738,4.175,3.259,5.451,4.171c0.532,0.378,1.147,0.851,1.815,1.341c1.147-1.371,2.063-2.509,2.907-3.616
		c-0.445-0.249-0.875-0.493-1.25-0.735C16.001,39.107,14.635,38.2,13.288,37.258"/>
	<path fill="#FFFEFF" d="M15.118,84.168c0.707,0.13,1.44-0.153,1.821-0.765c0,0,2.096-6.932,2.932-7.098
		c4.692-0.928-0.053,8.005-0.546,9.775c-2.035,7.322-3.175,9.11-5.205,15.58c-0.977,3.111,5.124,4.604,6.37,1.607
		c2.81-6.756,2.996-7.723,4.989-14.763c1.332-4.688,6.32-14.963,1.403-17.467c-9.069-4.62-13.485-1.709-16.407,10.438
		c-0.161,0.662,0.214,1.341,0.857,1.568C12.422,83.428,14.058,83.973,15.118,84.168"/>
	<path fill="#7B0A00" d="M16.047,77.484c-1.087-0.899-2.367-1.816-3.257-2.963c-0.356,0.753-0.698,1.579-1.019,2.492
		c0.52,0.619,1.107,1.202,1.721,1.773c1.034,0.967,2.439,2.346,3.938,3.068c0.265-0.809,0.609-1.817,0.963-2.755
		C17.596,78.56,16.749,78.068,16.047,77.484"/>
	<path fill="#7B0A00" d="M19.248,77.105c0.24-0.459,0.456-0.766,0.621-0.799c0.722-0.144,1.216-0.053,1.54,0.207
		c-0.698-2.106-1.473-4.216-1.485-6.454c-0.002-0.348,0.053-0.711,0.121-1.08c-1.026-0.01-1.969,0.166-2.83,0.551
		c-0.001,0.096-0.003,0.192-0.005,0.282C17.2,72.376,17.955,74.906,19.248,77.105"/>
	<path fill="#7B0A00" d="M21.692,76.857c0.398,0.712,0.237,1.962-0.151,3.333c0.024-0.022,0.051-0.029,0.074-0.053
		c1.807-1.739,4.4-2.965,6.828-3.468c0.161-0.032,0.324-0.051,0.488-0.074c0.121-1.173,0.092-2.259-0.173-3.182
		C26.145,73.874,23.436,75.201,21.692,76.857"/>
	<path fill="#7B0A00" d="M21.235,81.164c-0.355,1.055-0.791,2.117-1.161,3.006c2.256-0.458,4.623-0.482,6.881-0.03
		c0.353-1.013,0.709-2.078,1.025-3.147c-0.564-0.099-1.104-0.175-1.581-0.236C24.555,80.529,22.861,80.624,21.235,81.164"/>
	<path fill="#7B0A00" d="M18.814,87.865c-0.309,1.05-0.601,1.989-0.878,2.837c2.198,0.277,4.31,0.639,6.498,1.163
		c0.026,0.007,0.06,0.016,0.089,0.022c0.251-0.885,0.535-1.895,0.866-3.063c-0.544-0.099-1.057-0.184-1.486-0.282
		C22.301,88.177,20.477,87.65,18.814,87.865"/>
	<path fill="#7B0A00" d="M18.438,95.59c-0.58-0.174-1.16-0.372-1.755-0.498c-0.09-0.018-0.182-0.037-0.271-0.056
		c-0.034,0.091-0.713,1.939-1.016,2.797c1.388,0.902,3.708,1.325,4.824,1.67c0.462,0.142,1.007,0.334,1.593,0.522
		c0.489-1.235,0.869-2.252,1.206-3.23c-0.371-0.073-0.732-0.145-1.054-0.229C20.783,96.261,19.609,95.94,18.438,95.59"/>
	<path fill="#FFFEFF" d="M2.497,70.274c1.477,0,1.479-2.295,0-2.295C1.02,67.979,1.017,70.274,2.497,70.274"/>
	<path fill="#FFFEFF" d="M6.756,110.196c1.968,0,1.972-3.06,0-3.06C4.785,107.137,4.782,110.196,6.756,110.196"/>
	<path fill="#FFFEFF" d="M12.027,15.856c0.047-0.016,0.094-0.032,0.14-0.049c1.402-0.485,1.403-2.369,0-2.854
		c-0.046-0.017-0.093-0.033-0.14-0.049c-0.951-0.33-1.938,0.531-1.938,1.475C10.09,15.325,11.077,16.185,12.027,15.856"/>
	<path fill="#FFFEFF" d="M13.792,38.062c0.056,0.046,0.113,0.091,0.169,0.137c1.212,0.983,2.692-0.494,1.708-1.709
		c-0.045-0.056-0.091-0.112-0.135-0.169C14.53,35.082,12.554,37.057,13.792,38.062"/>
	<path fill="#FFFEFF" d="M25.958,42.701c0.046-0.012,0.095-0.022,0.142-0.033c1.205-0.274,1.206-2.163,0-2.438
		c-0.047-0.011-0.096-0.021-0.142-0.033C23.866,39.724,23.855,43.179,25.958,42.701"/>
	<path fill="#FFFEFF" d="M9.058,88.545c-0.04,0.019-0.079,0.038-0.119,0.058c-0.912,0.441-0.912,1.971,0,2.412
		c0.04,0.02,0.079,0.038,0.119,0.058c0.975,0.472,2.203-0.089,2.203-1.265S10.032,88.073,9.058,88.545"/>
	<path fill="#FFFEFF" d="M30.175,17.198c1.669,0,1.672-2.595,0-2.595C28.505,14.604,28.502,17.198,30.175,17.198"/>
	<path fill="#FFFEFF" d="M46.902,11.69c1.626,0,1.63-2.527,0-2.527C45.274,9.163,45.273,11.69,46.902,11.69"/>
	<path fill="#FFFEFF" d="M61.806,22.043c2.034,0,2.037-3.162,0-3.162C59.772,18.882,59.77,22.043,61.806,22.043"/>
	<path fill="#FFFEFF" d="M21.354,100.155c2.355,0,2.359-3.659,0-3.659C18.999,96.496,18.996,100.155,21.354,100.155"/>
	<path fill="#FFFEFF" d="M32.304,111.568c1.775,0,1.778-2.76,0-2.76C30.526,108.808,30.524,111.568,32.304,111.568"/>
	<path fill="#FFFEFF" d="M54.202,107.431c1.541,0,1.544-2.394,0-2.394C52.661,105.037,52.658,107.431,54.202,107.431"/>
	<path fill="#FFFEFF" d="M64.543,75.115c2.227,0,2.23-3.46,0-3.46C62.317,71.655,62.313,75.115,64.543,75.115"/>
	<path fill="#FFFEFF" d="M67.281,46.584c1.519,0,1.521-2.362,0-2.362C65.761,44.223,65.759,46.584,67.281,46.584"/>
	<path fill="#FFFEFF" d="M50.552,52.08c1.156,0,1.159-1.797,0-1.797C49.396,50.283,49.395,52.08,50.552,52.08"/>
	<path fill="#FFFEFF" d="M35.648,52.843c0.964,0,0.965-1.498,0-1.498C34.686,51.346,34.684,52.843,35.648,52.843"/>
	<path fill="#FFFEFF" d="M41.427,22.794c1.436,0,1.438-2.229,0-2.229C39.994,20.565,39.991,22.794,41.427,22.794"/>
	<path fill="#FFFEFF" d="M29.87,78.327c2.056,0,2.059-3.194,0-3.194C27.815,75.133,27.812,78.327,29.87,78.327"/>
	<path fill="#FFFEFF" d="M36.257,67.875c1.521,0,1.522-2.361,0-2.361C34.738,65.513,34.735,67.875,36.257,67.875"/>
	<path fill="#FFFEFF" d="M36.866,81.512c1.454,0,1.457-2.262,0-2.262C35.41,79.25,35.407,81.512,36.866,81.512"/>
	<path fill="#FFFEFF" d="M67.281,99.285c1.626,0,1.628-2.527,0-2.527S65.65,99.285,67.281,99.285"/>
	<path fill="#FFFEFF" d="M35.966,55.993c0.719-0.333,1.196-1.061,1.148-1.851c0,0-2.547-7.575-1.902-8.259
		c3.628-3.837,5.071,7.233,5.76,9.139c2.852,7.889,2.97,10.226,5.279,17.341c1.112,3.421,7.553,0.866,6.756-2.627
		c-1.792-7.872-2.245-8.86-4.949-16.468c-1.802-5.067-3.884-17.498-9.906-16.606c-11.111,1.644-13.221,7.087-8.086,19.878
		c0.281,0.699,1.052,1.069,1.775,0.862C33.067,57.052,34.887,56.495,35.966,55.993"/>
	<path fill="#7B0A00" d="M32.393,49.237c-1.553-0.115-3.289-0.121-4.82-0.585c0.158,0.907,0.379,1.868,0.675,2.894
		c0.863,0.225,1.764,0.372,2.682,0.496c1.547,0.207,3.692,0.549,5.502,0.239c-0.279-0.895-0.614-2.021-0.895-3.094
		C34.476,49.213,33.397,49.311,32.393,49.237"/>
	<path fill="#7B0A00" d="M35.03,46.85c-0.079-0.566-0.08-0.98,0.048-1.118c0.557-0.587,1.06-0.822,1.52-0.797
		c-1.978-1.448-4.021-2.849-5.465-4.854c-0.223-0.31-0.407-0.673-0.579-1.05c-0.932,0.649-1.667,1.41-2.194,2.307
		c0.06,0.088,0.119,0.174,0.176,0.255C30.164,43.908,32.46,45.697,35.03,46.85"/>
	<path fill="#7B0A00" d="M37.069,45.063c0.813,0.386,1.468,1.616,1.995,3.094c0.008-0.034,0.027-0.058,0.034-0.094
		c0.513-2.719,2.06-5.481,3.923-7.484c0.123-0.132,0.259-0.254,0.393-0.379c-0.641-1.135-1.363-2.09-2.19-2.752
		C39.168,39.532,37.581,42.459,37.069,45.063"/>
	<path fill="#7B0A00" d="M39.411,49.229c0.355,1.177,0.642,2.41,0.879,3.447c1.737-1.855,3.851-3.391,6.169-4.426
		c-0.33-1.137-0.69-2.324-1.089-3.486c-0.57,0.268-1.105,0.548-1.573,0.799C41.99,46.535,40.53,47.702,39.411,49.229"/>
	<path fill="#7B0A00" d="M41.52,56.803c0.393,1.143,0.732,2.174,1.023,3.113c2.156-1.158,4.284-2.18,6.588-3.11
		c0.029-0.011,0.063-0.024,0.095-0.035c-0.34-0.957-0.73-2.047-1.18-3.31c-0.552,0.26-1.068,0.511-1.518,0.698
		C44.854,54.854,42.877,55.549,41.52,56.803"/>
	<path fill="#7B0A00" d="M46.12,63.993c-0.634,0.214-1.281,0.407-1.896,0.674c-0.095,0.041-0.189,0.083-0.282,0.124
		c0.028,0.104,0.6,2.199,0.876,3.163c1.826-0.075,4.181-1.179,5.407-1.581c0.505-0.167,1.118-0.345,1.766-0.548
		c-0.351-1.423-0.659-2.583-0.98-3.677c-0.381,0.173-0.751,0.337-1.094,0.468C48.658,63.095,47.395,63.558,46.12,63.993"/>
	<path fill="#FFFEFF" d="M80.149,3.531c1.669,0,1.672-2.595,0-2.595C78.479,0.936,78.477,3.531,80.149,3.531"/>
	<path fill="#FFFEFF" d="M111.78,8.376c2.034,0,2.037-3.162,0-3.162C109.747,5.214,109.744,8.376,111.78,8.376"/>
	<path fill="#FFFEFF" d="M82.278,97.9c1.775,0,1.778-2.76,0-2.76C80.501,95.14,80.499,97.9,82.278,97.9"/>
	<path fill="#FFFEFF" d="M104.177,93.763c1.541,0,1.544-2.394,0-2.394C102.636,91.369,102.633,93.763,104.177,93.763"/>
	<path fill="#FFFEFF" d="M114.518,61.447c2.227,0,2.23-3.46,0-3.46C112.292,57.987,112.287,61.447,114.518,61.447"/>
	<path fill="#FFFEFF" d="M117.256,32.917c1.519,0,1.521-2.362,0-2.362C115.735,30.555,115.733,32.917,117.256,32.917"/>
	<path fill="#FFFEFF" d="M100.526,38.413c1.156,0,1.159-1.797,0-1.797C99.371,36.616,99.369,38.413,100.526,38.413"/>
	<path fill="#FFFEFF" d="M85.623,39.176c0.964,0,0.965-1.498,0-1.498C84.66,37.678,84.658,39.176,85.623,39.176"/>
	<path fill="#FFFEFF" d="M91.401,9.126c1.436,0,1.438-2.229,0-2.229C89.969,6.898,89.966,9.126,91.401,9.126"/>
	<path fill="#FFFEFF" d="M79.845,64.66c2.056,0,2.059-3.194,0-3.194C77.79,61.466,77.786,64.66,79.845,64.66"/>
	<path fill="#FFFEFF" d="M86.231,54.207c1.521,0,1.522-2.361,0-2.361C84.713,51.846,84.71,54.207,86.231,54.207"/>
	<path fill="#FFFEFF" d="M86.841,67.844c1.454,0,1.457-2.262,0-2.262C85.385,65.583,85.382,67.844,86.841,67.844"/>
	<path fill="#FFFEFF" d="M117.256,85.618c1.626,0,1.628-2.527,0-2.527S115.625,85.618,117.256,85.618"/>
	<path fill="#8D0F24" d="M119.277,59.109"/>
	<path fill="#FFFEFF" d="M131.277,42.937c1.669,0,1.672-2.595,0-2.595C129.607,40.342,129.604,42.937,131.277,42.937"/>
	<path fill="#FFFEFF" d="M148.005,37.429c1.626,0,1.63-2.527,0-2.527C146.377,34.902,146.376,37.429,148.005,37.429"/>
	<path fill="#FFFEFF" d="M133.406,137.307c1.775,0,1.778-2.76,0-2.76C131.629,134.546,131.627,137.307,133.406,137.307"/>
	<path fill="#FFFEFF" d="M136.751,78.582c0.964,0,0.965-1.498,0-1.498C135.788,77.084,135.786,78.582,136.751,78.582"/>
	<path fill="#FFFEFF" d="M142.529,48.533c1.436,0,1.438-2.229,0-2.229C141.097,46.304,141.094,48.533,142.529,48.533"/>
	<path fill="#FFFEFF" d="M130.973,104.066c2.056,0,2.059-3.194,0-3.194C128.918,100.872,128.914,104.066,130.973,104.066"/>
	<path fill="#FFFEFF" d="M137.359,93.613c1.521,0,1.522-2.361,0-2.361C135.841,91.252,135.838,93.613,137.359,93.613"/>
	<path fill="#FFFEFF" d="M137.969,107.25c1.454,0,1.457-2.262,0-2.262C136.513,104.989,136.51,107.25,137.969,107.25"/>
	<path fill="#FFFEFF" d="M90.139,120.608c1.541,0,1.544-2.394,0-2.394C88.598,118.214,88.595,120.608,90.139,120.608"/>
	<path fill="#FFFEFF" d="M103.218,112.463c1.626,0,1.628-2.527,0-2.527S101.587,112.463,103.218,112.463"/>
	<path fill="#FFFEFF" d="M87.069,130.172c1.626,0,1.63-2.527,0-2.527C85.441,127.645,85.44,130.172,87.069,130.172"/>
	<path fill="#FFFEFF" d="M101.973,140.525c2.034,0,2.037-3.162,0-3.162C99.939,137.364,99.937,140.525,101.973,140.525"/>
	<path fill="#FFFEFF" d="M81.594,141.276c1.436,0,1.438-2.229,0-2.229C80.161,139.047,80.158,141.276,81.594,141.276"/>
	<path fill="#FFFEFF" d="M35.058,128.172c1.541,0,1.544-2.394,0-2.394C33.517,125.778,33.514,128.172,35.058,128.172"/>
	<path fill="#FFFEFF" d="M48.137,120.026c1.626,0,1.628-2.527,0-2.527S46.506,120.026,48.137,120.026"/>
	<path fill="#FFFEFF" d="M31.988,137.736c1.626,0,1.63-2.527,0-2.527C30.36,135.208,30.359,137.736,31.988,137.736"/>
	<path fill="#FFFEFF" d="M46.892,148.089c2.034,0,2.037-3.162,0-3.162C44.858,144.927,44.855,148.089,46.892,148.089"/>
	<path fill="#FFFEFF" d="M26.513,148.839c1.436,0,1.438-2.229,0-2.229C25.08,146.611,25.077,148.839,26.513,148.839"/>
	<path fill="#FFFEFF" d="M135.561,6.252c1.775,0,1.778-2.76,0-2.76C133.783,3.492,133.781,6.252,135.561,6.252"/>
	<path fill="#FFFEFF" d="M137.662,17.187c1.669,0,1.672-2.595,0-2.595C135.992,14.592,135.989,17.187,137.662,17.187"/>
	<path fill="#FFFEFF" d="M148.914,22.783c1.436,0,1.438-2.229,0-2.229C147.481,20.554,147.479,22.783,148.914,22.783"/>
	<text transform="matrix(1 0 0 1 74.918 116.3691)" fill="#FFFFFF" font-family="'Corben-Regular'" font-size="60">11</text>
</g>
</svg>
