<?xml version="1.0" encoding="utf-8"?>
<!-- Generator: Adobe Illustrator 16.0.3, SVG Export Plug-In . SVG Version: 6.00 Build 0)  -->
<!DOCTYPE svg PUBLIC "-//W3C//DTD SVG 1.1//EN" "http://www.w3.org/Graphics/SVG/1.1/DTD/svg11.dtd">
<svg version="1.1" id="Capa_1" xmlns="http://www.w3.org/2000/svg" xmlns:xlink="http://www.w3.org/1999/xlink" x="0px" y="0px"
	 width="150px" height="150px" viewBox="0 0 150 150" enable-background="new 0 0 150 150" xml:space="preserve">
<g id="Background">
</g>
<g id="Capa_3">
	<g id="clasicas_14">
		<g>
			<defs>
				<rect id="SVGID_1_" width="150" height="150"/>
			</defs>
			<clipPath id="SVGID_2_">
				<use xlink:href="#SVGID_1_"  overflow="visible"/>
			</clipPath>
			<rect clip-path="url(#SVGID_2_)" fill="#FFFFFF" width="150" height="150"/>
		</g>
		<g>
			<defs>
				<rect id="SVGID_3_" width="150" height="150"/>
			</defs>
			<clipPath id="SVGID_4_">
				<use xlink:href="#SVGID_3_"  overflow="visible"/>
			</clipPath>
			<path clip-path="url(#SVGID_4_)" fill="#03532E" d="M63.327,169.063c0.536-7.631-1.664-15.832-4.293-23.041
				c-2.858-7.852-7.016-15.285-12.199-22.041c-5.08-6.625-11.165-12.621-18.067-17.623c-6.784-4.914-14.945-9.719-23.297-11.803
				c-0.291-0.074-0.442,0.281-0.166,0.406c7.895,3.549,15.443,6.891,22.403,11.977c6.805,4.971,12.856,10.836,17.912,17.369
				c5.054,6.531,9.124,13.724,12.013,21.295c2.953,7.75,3.827,15.43,4.971,23.483C62.656,169.466,63.301,169.443,63.327,169.063"/>
		</g>
		<g>
			<defs>
				<rect id="SVGID_5_" width="150" height="150"/>
			</defs>
			<clipPath id="SVGID_6_">
				<use xlink:href="#SVGID_5_"  overflow="visible"/>
			</clipPath>
			<path clip-path="url(#SVGID_6_)" fill="#03532E" d="M60.998,150.307c-5.605,1.846-12.071,1.377-17.367-1.26
				c-5.297-2.639-9.34-7.406-10.863-12.806c11.07-0.07,22.067,5.61,27.937,14.431"/>
		</g>
		<g>
			<defs>
				<rect id="SVGID_7_" width="150" height="150"/>
			</defs>
			<clipPath id="SVGID_8_">
				<use xlink:href="#SVGID_7_"  overflow="visible"/>
			</clipPath>
			<path clip-path="url(#SVGID_8_)" fill="#03532E" d="M59.186,150.314c5.064-0.903,9.415-4.139,12.13-8.205
				c2.716-4.067,3.916-8.901,4.184-13.709c-8.298,3.307-14.216,11.189-14.728,19.621"/>
		</g>
		<g>
			<defs>
				<rect id="SVGID_9_" width="150" height="150"/>
			</defs>
			<clipPath id="SVGID_10_">
				<use xlink:href="#SVGID_9_"  overflow="visible"/>
			</clipPath>
			<path clip-path="url(#SVGID_10_)" fill="#03532E" d="M51.407,132.452c-8.735-0.321-17.89-0.75-25.458-4.919
				c-0.936-0.516-1.943-1.631-1.228-2.374c0.3-0.313,0.791-0.38,1.24-0.429c4.568-0.492,9.215-0.983,13.759-0.217
				c4.543,0.766,9.049,2.99,11.338,6.742"/>
		</g>
		<g>
			<defs>
				<rect id="SVGID_11_" width="150" height="150"/>
			</defs>
			<clipPath id="SVGID_12_">
				<use xlink:href="#SVGID_11_"  overflow="visible"/>
			</clipPath>
			<path clip-path="url(#SVGID_12_)" fill="#03532E" d="M52.862,132.934c5.097-6.431,8.237-16.748,7.384-24.766
				c-0.031-0.316-0.08-0.654-0.302-0.902c-0.635-0.718-1.849-0.045-2.493,0.651c-5.646,6.075-8.727,14.172-8.478,22.26"/>
		</g>
		<g>
			<defs>
				<rect id="SVGID_13_" width="150" height="150"/>
			</defs>
			<clipPath id="SVGID_14_">
				<use xlink:href="#SVGID_13_"  overflow="visible"/>
			</clipPath>
			<path clip-path="url(#SVGID_14_)" fill="#03532E" d="M41.688,118.34c-4.555,0.903-9.227,1.33-13.898,1.264
				c-4.477-0.063-9.614-0.953-11.922-4.557c3.398-0.061,6.797-0.122,10.194-0.184c4.926-0.088,10.422,0.021,14.002,3.22"/>
		</g>
		<g>
			<defs>
				<rect id="SVGID_15_" width="150" height="150"/>
			</defs>
			<clipPath id="SVGID_16_">
				<use xlink:href="#SVGID_15_"  overflow="visible"/>
			</clipPath>
			<path clip-path="url(#SVGID_16_)" fill="#03532E" d="M40.064,118.084c-2.277-4.352-3.621-8.256-4.666-12.984
				c-0.702-3.177-1.066-6.674,0.665-9.459c4.4,7.241,6.63,15.594,6.366,23.859"/>
		</g>
		<g>
			<defs>
				<rect id="SVGID_17_" width="150" height="150"/>
			</defs>
			<clipPath id="SVGID_18_">
				<use xlink:href="#SVGID_17_"  overflow="visible"/>
			</clipPath>
			<path clip-path="url(#SVGID_18_)" fill="#03532E" d="M24.481,103.79c-6.025-1.054-12.548,1.567-15.806,6.349
				c-0.396,0.581-0.657,1.514,0.008,1.84c0.267,0.127,0.587,0.086,0.883,0.043c5.91-0.877,12.689-2.334,15.246-7.356"/>
		</g>
		<g>
			<defs>
				<rect id="SVGID_19_" width="150" height="150"/>
			</defs>
			<clipPath id="SVGID_20_">
				<use xlink:href="#SVGID_19_"  overflow="visible"/>
			</clipPath>
			<path clip-path="url(#SVGID_20_)" fill="#03532E" d="M23.648,104.12c-4.45-5.731-6.505-13.017-5.64-19.985
				c4.603,5.667,6.767,12.993,5.904,19.996"/>
		</g>
		<g>
			<defs>
				<rect id="SVGID_21_" width="150" height="150"/>
			</defs>
			<clipPath id="SVGID_22_">
				<use xlink:href="#SVGID_21_"  overflow="visible"/>
			</clipPath>
			<path clip-path="url(#SVGID_22_)" fill="#03532E" d="M12.057,96.546c-5.722-0.024-11.337,2.697-14.563,7.058
				c5.904,0.545,11.986-1.939,15.507-6.336"/>
		</g>
		<g>
			<defs>
				<rect id="SVGID_23_" width="150" height="150"/>
			</defs>
			<clipPath id="SVGID_24_">
				<use xlink:href="#SVGID_23_"  overflow="visible"/>
			</clipPath>
			<path clip-path="url(#SVGID_24_)" fill="#03532E" d="M12.396,98.119c-4.965-1.581-8.67-6.194-8.888-11.063
				c5.854,2.287,10.131,5.914,9.958,11.793"/>
		</g>
		<g>
			<defs>
				<rect id="SVGID_25_" width="150" height="150"/>
			</defs>
			<clipPath id="SVGID_26_">
				<use xlink:href="#SVGID_25_"  overflow="visible"/>
			</clipPath>
			<path clip-path="url(#SVGID_26_)" fill="#03532E" d="M-21.442,137.023c-0.229,0.111-0.549-0.168-0.319-0.377
				c3.481-3.147,7.787-5.752,11.926-8.137c-1.285-0.177-2.577-0.348-3.867-0.519c-1.558,0.754-3.14,1.458-4.712,2.175
				c-2.375,1.083-4.8,2.494-7.335,3.121c-0.276,0.068-0.463-0.284-0.218-0.457c1.931-1.354,4.32-2.182,6.465-3.152
				c1.397-0.634,2.794-1.279,4.2-1.9c-0.869-0.116-1.74-0.239-2.613-0.367c-1.487,0.455-2.978,0.895-4.475,1.322
				c-1.949,0.558-3.944,1.265-5.967,1.465c-0.229,0.025-0.37-0.338-0.147-0.443c1.825-0.883,3.888-1.328,5.837-1.869
				c0.967-0.268,1.934-0.533,2.901-0.792c-0.092-0.077-0.114-0.204-0.08-0.317c-1.377,0.047-2.755,0.084-4.132,0.146
				c-1.921,0.094-3.879,0.383-5.8,0.227c-0.244-0.021-0.239-0.393-0.026-0.459c3.104-0.982,6.9-1.059,10.315-0.834
				c-0.869-0.299-1.744-0.584-2.634-0.828c-2.314-0.629-4.707-0.928-7.007-1.582c-0.229-0.065-0.233-0.42,0.029-0.435
				c4.209-0.206,9.065,1.188,12.912,3.161c0.042-0.009,0.086-0.021,0.128-0.031c0.211-0.051,0.367,0.084,0.414,0.242
				c0.805,0.008,1.609,0.033,2.42,0.086c-3.503-2.049-7.233-3.486-10.768-5.459c-0.223-0.125-0.108-0.464,0.146-0.422
				c4.332,0.705,8.582,3.41,12.078,5.98c0.198,0.018,0.396,0.048,0.593,0.07c-2.975-2.115-6.031-4.287-8.67-6.707
				c-0.167-0.154,0.022-0.429,0.229-0.33c3.565,1.769,7.007,4.516,10.013,7.225c0.771,0.104,1.545,0.225,2.314,0.357
				c-1.4-1.16-2.75-2.392-4.135-3.558c-2.214-1.864-4.665-3.583-6.534-5.8c-0.158-0.188,0.112-0.442,0.306-0.342
				c2.41,1.244,4.451,3.156,6.523,4.894c1.98,1.666,4.063,3.312,5.871,5.181c0.72,0.144,1.433,0.291,2.141,0.447
				c-1.379-1.518-2.716-3.072-4.084-4.604c-1.486-1.661-3.215-3.219-4.368-5.133c-0.12-0.201,0.11-0.529,0.338-0.375
				c3.653,2.482,6.8,6.793,9.411,10.406h0.002c0.003,0,0.008-0.001,0.01-0.003c0.15-0.063,0.283-0.009,0.372,0.093
				c0.479,0.114,0.949,0.231,1.423,0.35c-1.273-1.01-2.276-2.617-3.221-3.727c-1.909-2.244-4.053-4.367-5.713-6.804
				c-0.155-0.228,0.15-0.446,0.351-0.298c3.97,3,7.172,7.464,10.332,11.275c1.017,0.267,2.024,0.554,3.032,0.85
				c-1.587-1.682-2.946-3.581-4.371-5.398c-1.852-2.369-3.905-4.488-5.896-6.729c-0.162-0.184,0.013-0.508,0.262-0.378
				c2.112,1.104,3.658,3.004,5.132,4.845c2.011,2.512,4.22,5.037,5.862,7.809c0.03,0.051,0.038,0.106,0.038,0.16
				c0.765,0.236,1.527,0.479,2.288,0.733c-2.87-2.824-5.446-6.283-7.506-9.595c-0.143-0.229,0.142-0.433,0.342-0.291
				c3.684,2.64,5.853,7.216,8.983,10.505c0.662,0.233,1.323,0.465,1.982,0.71c-5.726-4.096-9.085-11.221-13.464-16.574
				c-0.127-0.156,0.115-0.341,0.26-0.221c5.671,4.759,8.493,11.988,14.161,16.865c0.098,0.084,0.093,0.211,0.036,0.308
				c0.248,0.093,0.495,0.187,0.741,0.282c0.121-0.039,0.24-0.073,0.359-0.11c-3.235-3.188-6.858-7.147-8.38-11.304
				c-0.086-0.235,0.226-0.426,0.405-0.262c1.758,1.608,3.022,3.724,4.463,5.612c1.458,1.909,2.974,3.772,4.451,5.665
				c0.046-0.015,0.094-0.029,0.141-0.044c0.085-0.022,0.154-0.015,0.217,0.01c-0.865-1.216-1.665-2.489-2.385-3.793
				c-1.253-2.261-2.443-4.633-3.517-6.979c-0.121-0.269,0.246-0.423,0.433-0.281c2.062,1.563,2.876,4.405,4.084,6.61
				c1.247,2.277,2.964,4.332,4.092,6.656c0.671,0.285,1.339,0.577,2.003,0.875c-2.746-4.852-5.829-10.121-7.104-15.492
				c-0.052-0.225,0.246-0.398,0.384-0.182c3.168,5.057,5.205,10.916,7.956,16.229c0.14,0.064,0.282,0.127,0.421,0.188
				c0.772,0.354,1.535,0.734,2.301,1.101c-1.535-1.574-2.673-3.497-3.64-5.465c-1.469-2.99-3.224-5.832-4.665-8.816
				c-0.095-0.196,0.126-0.443,0.313-0.268c1.761,1.666,3.104,3.744,4.149,5.922c1.448,3.019,3.044,5.735,4.78,8.586
				c0.044,0.074,0.055,0.152,0.044,0.226c0.032-0.009,0.067-0.017,0.099-0.024c0.322-0.076,0.625,0.328,0.436,0.563
				c0.246,0.12,0.495,0.233,0.741,0.353c-2.753-5.502-5.277-11.119-7.955-16.655c-0.062-0.128,0.099-0.315,0.215-0.183
				c4.09,4.685,6.335,11.62,8.67,17.297c0.171,0.084,0.34,0.174,0.509,0.261c-0.989-1.753-1.6-3.767-2.189-5.656
				c-0.72-2.306-1.679-4.733-2.006-7.126c-0.031-0.24,0.303-0.318,0.425-0.141c1.297,1.916,1.804,4.416,2.484,6.603
				c0.688,2.206,1.58,4.306,2.394,6.458c0.29,0,0.437,0.35,0.282,0.572c0.646,0.33,1.295,0.654,1.938,0.99
				c-0.949-1.725-1.615-3.592-2.168-5.5c-0.764-2.646-1.718-5.693-1.684-8.469c0.001-0.179,0.274-0.322,0.37-0.123
				c1.108,2.32,1.349,5.071,2.019,7.545c0.691,2.555,1.673,4.943,2.86,7.287c0.502,0.267,0.998,0.541,1.497,0.813
				c0.029-0.002,0.06-0.007,0.086-0.011c0.18-0.019,0.303,0.104,0.354,0.25c0.129,0.069,0.255,0.139,0.384,0.207
				c-0.911-1.688-1.399-3.498-1.704-5.424c-0.456-2.9-0.996-6.029-0.785-8.964c0.016-0.239,0.38-0.231,0.444-0.028
				c1.533,4.896,0.626,10.324,3.137,14.965c0.01,0.018,0.01,0.037,0.018,0.055c0.534,0.299,1.068,0.598,1.603,0.9
				c0.055-0.008,0.113-0.017,0.169-0.023c0.201-0.023,0.322,0.143,0.334,0.313c0.24,0.137,0.48,0.279,0.721,0.416
				c-1.167-2.145-1.857-4.426-2.369-6.832c-0.563-2.618-1.394-5.33-1.677-7.989c-0.025-0.239,0.301-0.325,0.426-0.14
				c1.368,2.029,1.673,4.709,2.158,7.061c0.583,2.824,1.173,5.663,2.45,8.271c0.035,0.072,0.039,0.146,0.027,0.215
				c0.765,0.443,1.529,0.882,2.289,1.332c-1.171-2.021-1.693-4.385-2.135-6.661c-0.578-2.974-1.188-5.993-1.634-8.983
				c-0.031-0.207,0.295-0.313,0.393-0.128c1.2,2.276,1.538,4.978,1.983,7.488c0.538,3.028,1.307,5.747,2.45,8.555
				c0.013,0,0.026-0.002,0.039-0.004c0.331-0.022,0.394,0.347,0.206,0.528c0.33,0.195,0.659,0.396,0.989,0.598
				c-2.4-4.339-2.415-9.564-3.956-14.186c-0.055-0.162,0.152-0.297,0.279-0.182c1.643,1.504,1.626,4.268,2.053,6.29
				c0.627,2.979,1.821,5.746,2.594,8.665c0.739,0.457,1.475,0.913,2.208,1.375c-2.302-4.579-2.63-10.968-2.417-15.839
				c0.008-0.181,0.273-0.267,0.336-0.063c0.796,2.588,0.571,5.473,0.997,8.148c0.45,2.828,1.479,5.523,1.972,8.322
				c0.469,0.295,0.938,0.592,1.404,0.894c-0.807-2.075-1.205-4.237-1.531-6.448c-0.4-2.733-1.14-5.408-1.544-8.121
				c-0.028-0.203,0.259-0.272,0.361-0.117c1.261,1.902,1.483,4.529,1.775,6.748c0.389,2.935,0.75,5.841,1.94,8.576
				c0.462,0.302,0.918,0.607,1.379,0.91c-1.155-4.076-2.039-8.48-2.552-12.631c-0.024-0.215,0.287-0.255,0.36-0.07
				c1.607,4.063,2.734,8.892,3.088,13.302c2.442,1.622,4.861,3.268,7.238,4.954c0.495,0.35-0.084,1.189-0.605,0.882
				c-2.235-1.326-4.454-2.677-6.668-4.031c-8.875,0.867-17.463,2.87-26.258,4.104c-0.279,0.041-0.345-0.385-0.091-0.473
				c8.027-2.762,17.226-3.6,25.698-4.031c-1.076-0.66-2.152-1.322-3.224-1.984c-7.101,0.958-14.051,2.559-21.126,3.563
				c-0.328,0.045-0.382-0.433-0.104-0.543c5.985-2.41,13.213-3.473,19.828-3.882c-0.771-0.473-1.543-0.948-2.315-1.419
				c0.095,0.18,0.02,0.439-0.255,0.473c-3.879,0.484-7.712,0.863-11.513,1.854c-3.455,0.897-6.682,2.433-10.098,3.39
				c-0.269,0.074-0.453-0.285-0.213-0.445c5.807-3.893,14.88-5.6,21.784-5.449c0.004,0,0.006,0.002,0.01,0.002
				c-1.42-0.866-2.841-1.73-4.267-2.585c-2.725,0.573-5.411,1.262-8.023,2.269c-3.067,1.176-5.798,2.909-8.744,4.311
				c-0.384,0.183-0.562-0.389-0.294-0.614c4.201-3.538,10.275-5.724,15.933-6.637c-1.241-0.741-2.489-1.474-3.741-2.195
				c-2.599,0.711-5.176,1.446-7.67,2.521c-3.037,1.309-5.706,3.311-8.713,4.619c-0.228,0.1-0.415-0.226-0.258-0.396
				c3.58-3.784,9.991-6.312,15.478-7.41c-0.765-0.437-1.532-0.87-2.303-1.296c-2.448,0.57-4.872,1.174-7.243,2.054
				c-2.903,1.078-5.521,2.646-8.312,3.943c-0.426,0.2-0.662-0.448-0.334-0.701c3.965-3.047,9.474-5.093,14.608-6.002
				c-1.326-0.722-2.657-1.435-4.001-2.127c-2.497,0.994-4.944,2.108-7.288,3.425c-2.593,1.46-4.92,3.393-7.529,4.791
				c-0.246,0.133-0.528-0.16-0.328-0.387c3.441-3.887,9.015-6.559,14.105-8.355c-0.805-0.406-1.615-0.807-2.433-1.203
				c-1.71,0.771-3.43,1.514-5.059,2.474c-2.142,1.26-4,2.995-6.154,4.196c-0.295,0.164-0.568-0.174-0.374-0.438
				c2.213-2.974,6.426-5.47,10.282-6.856c-0.082-0.039-0.163-0.08-0.244-0.117c-0.687-0.323-1.378-0.64-2.071-0.952
				c-2.34,1.407-4.813,2.601-7.245,3.831c-2.15,1.088-4.329,2.509-6.666,3.121c-0.335,0.088-0.513-0.32-0.253-0.529
				c2.077-1.667,4.856-2.688,7.231-3.877c2.011-1.008,4.021-2.036,6.091-2.923c-0.896-0.398-1.794-0.787-2.696-1.166
				c-1.891,1.005-3.866,1.854-5.817,2.731c-2.376,1.071-4.817,2.479-7.36,3.059c-0.295,0.068-0.495-0.301-0.232-0.487
				c1.916-1.37,4.327-2.194,6.473-3.153c1.955-0.875,3.902-1.798,5.899-2.578c-0.953-0.396-1.912-0.778-2.876-1.148
				c-1.782,0.713-3.566,1.423-5.333,2.166c-2.631,1.105-5.18,2.509-7.864,3.455c-0.431,0.152-0.733-0.479-0.345-0.721
				c3.636-2.281,7.968-4.004,12.198-5.408c-1.072-0.397-2.149-0.779-3.232-1.146c-2.435,1.006-4.871,1.987-7.229,3.166
				c-2.063,1.032-4.011,2.479-6.18,3.246c-0.271,0.098-0.524-0.27-0.312-0.48c1.811-1.793,4.439-2.897,6.715-3.994
				c1.857-0.896,3.756-1.711,5.704-2.379c-1.52-0.494-3.047-0.949-4.587-1.375c-2.025,1.355-4.098,2.642-6.167,3.929
				c-1.99,1.237-3.946,2.7-6.152,3.521c-0.258,0.096-0.509-0.266-0.299-0.462c1.714-1.61,3.888-2.713,5.878-3.944
				c1.842-1.138,3.685-2.271,5.554-3.358c-1.251-0.329-2.501-0.608-3.754-0.858c-1.826,1.017-3.668,1.998-5.467,3.064
				c-1.962,1.164-3.83,2.686-5.945,3.539c-0.268,0.107-0.49-0.26-0.299-0.461c1.652-1.746,4.038-2.928,6.105-4.133
				c1.377-0.803,2.779-1.572,4.208-2.284c-1.36-0.249-2.721-0.466-4.087-0.664C-12.502,131.609-16.888,134.781-21.442,137.023
				 M15.475,132.923c0.007,0.106-0.035,0.213-0.135,0.285c0.036,0.047,0.074,0.093,0.11,0.142c0.115,0.149,0.073,0.318-0.03,0.435
				c0.324,0.132,0.649,0.261,0.977,0.396C16.061,133.686,15.639,133.139,15.475,132.923"/>
		</g>
		<g>
			<defs>
				<rect id="SVGID_27_" width="150" height="150"/>
			</defs>
			<clipPath id="SVGID_28_">
				<use xlink:href="#SVGID_27_"  overflow="visible"/>
			</clipPath>
			<path clip-path="url(#SVGID_28_)" fill="#03532E" d="M114.352,173.405c-7.64-9.128-21.625-11.25-31.658-18.128
				c-2.571-1.764-4.92-5.357-2.493-7.445c0.694-0.6,1.641-0.876,2.563-1.055c3.678-0.707,7.59-0.082,10.703,1.715
				c-5.926-7.211-16.814-9.083-24.574-14.618c-0.727-0.517-1.445-1.095-1.809-1.874c-0.698-1.506,0.192-3.383,1.648-4.405
				c1.459-1.018,3.331-1.344,5.13-1.446c3.289-0.189,6.597,0.262,9.641,1.315c-6.757-3.084-10.971-10.212-10.202-17.254
				c0.092-0.838,0.305-1.762,1.047-2.274c0.754-0.519,1.786-0.42,2.684-0.236c8.159,1.687,13.715,8.269,18.608,14.438
				c-0.373-3.054,0.139-7.27,3.455-7.781c2.055-0.316,3.817,1.175,5.068,2.66c5.018,5.95,7.412,13.769,6.564,21.424
				c0.088-2.934,4.679-4.33,7.316-2.783c2.639,1.55,3.572,4.675,3.948,7.574c1.296,9.974-1.792,20.518-8.423,28.756"/>
		</g>
		<g>
			<defs>
				<rect id="SVGID_29_" width="150" height="150"/>
			</defs>
			<clipPath id="SVGID_30_">
				<use xlink:href="#SVGID_29_"  overflow="visible"/>
			</clipPath>
			<path clip-path="url(#SVGID_30_)" fill="#67B86B" d="M109.736,155.54c0.063,0.153,0.132,0.308,0.189,0.462
				c0.938,2.456,1.768,4.952,2.485,7.475c0.871,3.061,1.024,6.986,3.248,9.44c0.317,0.351-0.062,0.983-0.576,0.803
				c-3.635-1.276-3.546-6.875-4.437-9.875c-0.451-1.511-0.94-3.011-1.472-4.499c-0.173,0.189-0.463,0.284-0.71,0.11
				c-2.949-2.072-5.884-3.981-9.357-5.283c-3.188-1.19-6.512-1.565-9.799-2.424c-0.361-0.095-0.355-0.694,0.063-0.729
				c6.836-0.578,14.666,3.015,19.424,7.297c-0.152-0.416-0.303-0.83-0.463-1.242c-0.385,0.082-0.78-0.27-0.523-0.686
				c0.051-0.084,0.102-0.164,0.149-0.246c-1.328-3.332-2.849-6.592-4.556-9.757c-1.51-2.801-3.17-5.463-4.961-8.022
				c-3.021-0.271-5.994-0.889-8.963-1.405c-3.873-0.671-8.053-1.069-11.69-2.433c-0.374-0.142-0.274-0.655,0.149-0.659
				c3.517-0.023,7.058,0.86,10.478,1.458c2.998,0.523,6.067,0.956,9.03,1.656c-5.184-7.125-11.344-13.465-17.916-19.744
				c-0.42-0.396,0.223-1.11,0.718-0.77c7.037,4.855,12.946,11.178,17.876,17.987c0.034-1.669,0.113-3.339,0.1-5.006
				c-0.021-2.323-0.441-4.692-0.119-7.007c0.063-0.459,0.703-0.48,0.842-0.069c1.32,3.908,0.959,9.423,0.25,13.591
				c1.128,1.619,2.203,3.264,3.226,4.918c2.623,4.242,4.874,8.688,6.75,13.275c1.188-1.993,2.284-4.012,3.074-6.192
				c0.974-2.688,1.159-5.526,2.144-8.188c0.106-0.287,0.588-0.276,0.643,0.024C115.93,144.742,113.039,151.184,109.736,155.54"/>
		</g>
		<g>
			<defs>
				<rect id="SVGID_31_" width="150" height="150"/>
			</defs>
			<clipPath id="SVGID_32_">
				<use xlink:href="#SVGID_31_"  overflow="visible"/>
			</clipPath>
			<path clip-path="url(#SVGID_32_)" fill="#03532E" d="M146.707-0.902C134.626-0.29,122.801-9.58,110.538-12.42
				c-3.146-0.73-7.417,0.018-7.095,3.381c0.091,0.965,0.593,1.893,1.147,2.732c2.222,3.345,5.548,5.917,9.117,7.044
				c-9.465,0.564-18.831-6.508-28.465-8.553c-0.897-0.192-1.839-0.336-2.658-0.061C81.01-7.342,80.342-5.314,80.7-3.462
				c0.354,1.852,1.51,3.53,2.766,4.994c2.296,2.674,5.058,4.905,8.05,6.507C84.35,5.02,76.209,6.849,71.81,12.466
				c-0.524,0.667-1.021,1.493-0.831,2.429c0.19,0.953,1.02,1.68,1.813,2.239c7.214,5.098,15.964,4.693,23.933,4.077
				c-2.433,1.889-5.026,5.289-2.938,8.216c1.294,1.813,3.649,2.113,5.618,2.019c7.904-0.371,15.188-4.095,19.964-10.209
				c-2.005,2.159,0.397,6.701,3.44,7.634c3.041,0.936,5.937-0.574,8.258-2.351c7.994-6.112,13.15-16.015,14.064-27.01"/>
		</g>
		<g>
			<defs>
				<rect id="SVGID_33_" width="150" height="150"/>
			</defs>
			<clipPath id="SVGID_34_">
				<use xlink:href="#SVGID_33_"  overflow="visible"/>
			</clipPath>
			<path clip-path="url(#SVGID_34_)" fill="#67B86B" d="M130.695,8.276c0.156-0.064,0.313-0.117,0.47-0.183
				c2.424-1.029,4.795-2.166,7.106-3.411c2.803-1.509,5.686-4.192,9.059-4.224c0.482-0.006,0.65-0.75,0.143-1.02
				c-3.588-1.896-7.47,2.166-10.244,3.617c-1.396,0.731-2.817,1.422-4.26,2.074c0.006-0.27-0.14-0.559-0.445-0.627
				c-3.641-0.801-7.154-1.706-10.64-3.462c-3.196-1.609-5.915-3.908-8.946-5.833c-0.336-0.215-0.754,0.217-0.473,0.565
				c4.645,5.693,12.962,9.177,19.496,9.797c-0.406,0.176-0.811,0.358-1.216,0.528c-0.229-0.355-0.771-0.413-0.874,0.085
				l-0.061,0.291c-3.332,1.348-6.756,2.5-10.248,3.44c-3.088,0.829-6.197,1.447-9.326,1.889c-2.418-2.138-5.053-3.994-7.608-5.92
				c-3.335-2.513-6.703-5.454-10.353-7.291C91.9-1.6,91.611-1.156,91.923-0.824c2.578,2.73,5.817,4.834,8.767,7.051
				c2.582,1.942,5.156,4.003,7.84,5.793c-8.857,1.077-17.879,0.842-27.164,0.241c-0.588-0.037-0.619,0.968-0.014,1.105
				c8.623,1.971,17.451,2.026,25.896,0.978c-1.153,1.215-2.271,2.468-3.461,3.646c-1.654,1.642-3.638,3.006-5.031,4.906
				c-0.276,0.378,0.183,0.886,0.574,0.699c3.729-1.766,7.354-5.976,9.772-9.498c1.976-0.284,3.93-0.625,5.852-1.016
				c4.927-1.001,9.729-2.434,14.35-4.256c-0.529,2.342-1.145,4.626-2.099,6.79c-1.177,2.668-3.042,4.836-4.192,7.495
				c-0.125,0.288,0.238,0.651,0.492,0.479C127.654,20.757,130.063,13.933,130.695,8.276"/>
		</g>
	</g>
	<rect x="50" y="48.944" fill="none" width="92" height="73"/>
	<text transform="matrix(1 0 0 1 50 83.6787)" fill="#03532E" font-family="'Corben-Regular'" font-size="48">14</text>
</g>
</svg>
