<?xml version="1.0" encoding="utf-8"?>
<!-- Generator: Adobe Illustrator 16.0.3, SVG Export Plug-In . SVG Version: 6.00 Build 0)  -->
<!DOCTYPE svg PUBLIC "-//W3C//DTD SVG 1.1//EN" "http://www.w3.org/Graphics/SVG/1.1/DTD/svg11.dtd">
<svg version="1.1" xmlns="http://www.w3.org/2000/svg" xmlns:xlink="http://www.w3.org/1999/xlink" x="0px" y="0px"
	 width="148.924px" height="150.836px" viewBox="0 0 148.924 150.836" enable-background="new 0 0 148.924 150.836"
	 xml:space="preserve">
<g id="Background">
</g>
<g id="Capa_3">
	<g id="_x37__2_">
		<g>
			<rect x="0.076" y="-2.628" fill-rule="evenodd" clip-rule="evenodd" fill="#FFFFFF" width="148.848" height="305.467"/>
		</g>
	</g>
	<text transform="matrix(1 0 0 1 63.2764 169.2856)" fill="#FFFEFF" font-family="'Corben-Regular'" font-size="48">2</text>
	<g>
		<path fill="#DAD4D4" d="M0-0.953C-0.003,0.644-0.771,3.321,0.072,4.81c0.315,0.554,0.506,0.914,1.39,1.062
			C4.666,6.411,6.725,1.76,7.616,0.5c0.151-0.215-0.224-0.44-0.483-0.262C4.35,2.146,6.49,5.388,10.062,5.904
			c4.508,0.651,7.855-2.612,7.243-5.486c-0.226,0.066-0.447,0.133-0.67,0.199c2.361,2.197,0.559,6.146,6.311,5.772
			c4.96-0.322,6.08-3.884,6.463-6.776h-0.728c-0.037,2.609,0.608,5.943,5.139,6.316c5.082,0.418,6.015-5.192,7.187-7.559
			c-0.23-0.022-0.461-0.044-0.691-0.066c-0.382,2.211-0.604,5.158,2.532,6.493c2.453,1.044,5.677,0.534,7.867-0.62
			c1.673-0.881,2.73-2.185,3.535-3.517c0.128-0.21,1.226-1.502,0.438-1.53c-0.16-0.005,0.438,1.99,0.438,1.989
			c0.96,2.219,3.539,4.187,6.647,4.981c3.548,0.908,5.497-0.387,6.855-2.663c0.323-0.543,1.913-4.851,1.48-4.738
			c-0.947,0.25,0.916,3.668,1.253,4.196c1.177,1.846,2.877,3.654,6.023,2.637c3.605-1.166,5.397-4.457,5.652-7.028
			c0.035-0.357-0.723-0.345-0.776,0c-0.46,2.896-0.215,6.756,4.858,7.398c5.981,0.756,9.335-3.232,10.695-6.679h-0.837
			c0.375,1.802-1.229,7.056,3.884,6.612c3.896-0.338,5.232-4.648,5.24-6.835c0.001-0.351-0.77-0.351-0.773,0
			c-0.009,0.917-0.152,1.824-0.554,2.702c-0.247,0.549-0.587,1.065-1.02,1.546c-0.958,1.339-2.909,1.4-5.851,0.184
			C97.2,2.2,98.114,0.417,97.814-0.94c-0.068-0.313-0.729-0.269-0.837,0c-1.181,2.931-3.768,6.473-8.895,6.251
			c-5.187-0.224-5.492-4.04-5.046-6.807h-0.776c-0.131,1.217-0.493,2.362-1.295,3.449c-1.46,1.979-2.098,2.388-5.197,2.274
			c-1.709,0.452-2.786,0.175-3.232-0.833c-0.479-0.6-0.863-1.227-1.157-1.878c-0.573-1.18-0.83-2.39-0.918-3.635
			c-0.021-0.303-0.619-0.295-0.659,0c-0.413,3.008-2.056,9.851-9.096,7.292c-3.496-1.271-5.573-3.968-5.358-6.695
			c0.021-0.258-0.499-0.28-0.608-0.058c-1.287,2.603-2.95,5.546-7.166,6.302c-6.063,1.086-7.178-3.215-6.567-6.351
			c0.062-0.313-0.52-0.439-0.679-0.133c-0.829,1.592-2.398,6.578-5.028,7.125c-4.888,1.016-5.938-3.461-5.891-5.749
			c0.007-0.336-0.683-0.323-0.728,0c-0.363,2.604-2.009,7.383-7.407,6.206c-3.434-0.749-2.265-3.846-4.005-5.462
			c-0.256-0.237-0.734-0.099-0.671,0.198c0.505,2.359-2.047,5.031-5.688,4.941C9.323,5.458,7.758,4.746,6.998,3.771
			C6.804,3.524,6.537,0.973,6.58,0.991c0.031,0.014-1.451,2.047-1.517,2.13C4.3,4.094,2.778,6.672,0.548,4.105
			c-0.36-0.414-0.03-1.639-0.037-2.107L0.455-0.953C0.451-1.158,0-1.16,0-0.953"/>
		<path fill="#DAD4D4" d="M0,18.429c-0.003,1.595-0.771,4.274,0.072,5.761c0.315,0.555,0.506,0.914,1.39,1.063
			c3.204,0.539,5.263-4.112,6.154-5.372c0.151-0.216-0.224-0.441-0.483-0.264c-2.783,1.908-0.643,5.15,2.929,5.667
			c4.508,0.652,7.855-2.611,7.243-5.486c-0.226,0.066-0.447,0.133-0.67,0.2c2.361,2.197,0.559,6.146,6.311,5.771
			c4.96-0.322,6.08-3.882,6.463-6.774h-0.728c-0.037,2.608,0.608,5.943,5.139,6.316c5.082,0.418,6.015-5.194,7.187-7.56
			c-0.23-0.021-0.461-0.044-0.691-0.066c-0.382,2.212-0.604,5.158,2.532,6.494c2.453,1.044,5.677,0.533,7.867-0.62
			c1.673-0.881,2.73-2.186,3.535-3.516c0.128-0.211,1.226-1.502,0.438-1.532c-0.16-0.006,0.438,1.991,0.438,1.99
			c0.96,2.218,3.539,4.187,6.647,4.981c3.548,0.906,5.497-0.387,6.855-2.663c0.323-0.544,1.913-4.852,1.48-4.738
			c-0.947,0.251,0.916,3.668,1.253,4.197c1.177,1.846,2.877,3.654,6.023,2.637c3.605-1.166,5.397-4.456,5.652-7.029
			c0.035-0.356-0.723-0.343-0.776,0c-0.46,2.898-0.215,6.757,4.858,7.398c5.981,0.757,9.335-3.231,10.695-6.677h-0.837
			c0.375,1.801-1.229,7.055,3.884,6.612c3.896-0.339,5.232-4.649,5.24-6.835c0.001-0.35-0.77-0.351-0.773,0
			c-0.009,0.917-0.152,1.826-0.554,2.702c-0.247,0.55-0.587,1.064-1.02,1.548c-0.958,1.338-2.909,1.399-5.851,0.182
			c-0.704-1.231,0.21-3.013-0.09-4.371c-0.068-0.312-0.729-0.27-0.837,0c-1.181,2.929-3.768,6.473-8.895,6.251
			c-5.187-0.225-5.492-4.039-5.046-6.808h-0.776c-0.131,1.218-0.493,2.363-1.295,3.45c-1.46,1.979-2.098,2.388-5.197,2.274
			c-1.709,0.453-2.786,0.175-3.232-0.833c-0.479-0.602-0.863-1.227-1.157-1.879c-0.573-1.181-0.83-2.39-0.918-3.635
			c-0.021-0.303-0.619-0.294-0.659,0c-0.413,3.008-2.056,9.851-9.096,7.292c-3.496-1.271-5.573-3.967-5.358-6.695
			c0.021-0.259-0.499-0.281-0.608-0.059c-1.287,2.603-2.95,5.548-7.166,6.304c-6.063,1.084-7.178-3.217-6.567-6.353
			c0.062-0.312-0.52-0.439-0.679-0.132c-0.829,1.591-2.398,6.578-5.028,7.124c-4.888,1.017-5.938-3.462-5.891-5.748
			c0.007-0.337-0.683-0.323-0.728,0c-0.363,2.604-2.009,7.382-7.407,6.206c-3.434-0.749-2.265-3.845-4.005-5.463
			c-0.256-0.237-0.734-0.098-0.671,0.199c0.505,2.359-2.047,5.031-5.688,4.941c-1.587-0.039-3.152-0.75-3.912-1.726
			c-0.194-0.247-0.461-2.798-0.418-2.78c0.031,0.014-1.451,2.046-1.517,2.13c-0.764,0.971-2.285,3.552-4.516,0.984
			c-0.36-0.415-0.03-1.641-0.037-2.107l-0.056-2.951C0.451,18.223,0,18.222,0,18.429"/>
	</g>
	<g>
		<path fill="#DAD4D4" d="M0,49.962c-0.003,1.596-0.771,4.274,0.072,5.762c0.315,0.554,0.506,0.914,1.39,1.062
			c3.204,0.54,5.263-4.111,6.154-5.372c0.151-0.215-0.224-0.44-0.483-0.262c-2.783,1.908-0.643,5.15,2.929,5.667
			c4.508,0.651,7.855-2.612,7.243-5.486c-0.226,0.066-0.447,0.133-0.67,0.199c2.361,2.197,0.559,6.146,6.311,5.772
			c4.96-0.322,6.08-3.884,6.463-6.776h-0.728c-0.037,2.609,0.608,5.943,5.139,6.316c5.082,0.418,6.015-5.192,7.187-7.559
			c-0.23-0.022-0.461-0.044-0.691-0.066c-0.382,2.211-0.604,5.158,2.532,6.493c2.453,1.044,5.677,0.534,7.867-0.62
			c1.673-0.881,2.73-2.185,3.535-3.517c0.128-0.21,1.226-1.502,0.438-1.53c-0.16-0.005,0.438,1.99,0.438,1.989
			c0.96,2.219,3.539,4.187,6.647,4.981c3.548,0.908,5.497-0.387,6.855-2.663c0.323-0.543,1.913-4.851,1.48-4.738
			c-0.947,0.25,0.916,3.668,1.253,4.196c1.177,1.846,2.877,3.654,6.023,2.637c3.605-1.166,5.397-4.457,5.652-7.028
			c0.035-0.357-0.723-0.345-0.776,0c-0.46,2.896-0.215,6.756,4.858,7.398c5.981,0.756,9.335-3.232,10.695-6.679h-0.837
			c0.375,1.802-1.229,7.056,3.884,6.612c3.896-0.338,5.232-4.648,5.24-6.835c0.001-0.351-0.77-0.351-0.773,0
			c-0.009,0.917-0.152,1.824-0.554,2.702c-0.247,0.549-0.587,1.065-1.02,1.546c-0.958,1.339-2.909,1.4-5.851,0.184
			c-0.704-1.232,0.21-3.015-0.09-4.373c-0.068-0.313-0.729-0.269-0.837,0c-1.181,2.931-3.768,6.473-8.895,6.251
			c-5.187-0.224-5.492-4.04-5.046-6.807h-0.776c-0.131,1.217-0.493,2.362-1.295,3.449c-1.46,1.979-2.098,2.388-5.197,2.274
			c-1.709,0.452-2.786,0.175-3.232-0.833c-0.479-0.6-0.863-1.227-1.157-1.878c-0.573-1.18-0.83-2.39-0.918-3.635
			c-0.021-0.303-0.619-0.295-0.659,0c-0.413,3.008-2.056,9.851-9.096,7.292c-3.496-1.271-5.573-3.968-5.358-6.695
			c0.021-0.258-0.499-0.28-0.608-0.058c-1.287,2.603-2.95,5.546-7.166,6.302c-6.063,1.086-7.178-3.215-6.567-6.351
			c0.062-0.313-0.52-0.439-0.679-0.133c-0.829,1.592-2.398,6.578-5.028,7.125c-4.888,1.016-5.938-3.461-5.891-5.749
			c0.007-0.336-0.683-0.323-0.728,0c-0.363,2.604-2.009,7.383-7.407,6.206c-3.434-0.749-2.265-3.846-4.005-5.462
			c-0.256-0.237-0.734-0.099-0.671,0.198c0.505,2.359-2.047,5.031-5.688,4.941c-1.587-0.039-3.152-0.751-3.912-1.726
			c-0.194-0.247-0.461-2.799-0.418-2.781c0.031,0.014-1.451,2.047-1.517,2.13c-0.764,0.973-2.285,3.551-4.516,0.984
			c-0.36-0.414-0.03-1.639-0.037-2.107l-0.056-2.951C0.451,49.757,0,49.755,0,49.962"/>
		<path fill="#DAD4D4" d="M0,69.344c-0.003,1.595-0.771,4.274,0.072,5.761c0.315,0.555,0.506,0.914,1.39,1.063
			c3.204,0.539,5.263-4.112,6.154-5.372c0.151-0.216-0.224-0.441-0.483-0.264c-2.783,1.908-0.643,5.15,2.929,5.667
			c4.508,0.652,7.855-2.611,7.243-5.486c-0.226,0.066-0.447,0.133-0.67,0.2c2.361,2.197,0.559,6.146,6.311,5.771
			c4.96-0.322,6.08-3.882,6.463-6.774h-0.728c-0.037,2.608,0.608,5.943,5.139,6.316c5.082,0.418,6.015-5.194,7.187-7.56
			c-0.23-0.021-0.461-0.044-0.691-0.066c-0.382,2.212-0.604,5.158,2.532,6.494c2.453,1.044,5.677,0.533,7.867-0.62
			c1.673-0.881,2.73-2.186,3.535-3.516c0.128-0.211,1.226-1.502,0.438-1.532c-0.16-0.006,0.438,1.991,0.438,1.99
			c0.96,2.218,3.539,4.187,6.647,4.981c3.548,0.906,5.497-0.387,6.855-2.663c0.323-0.544,1.913-4.852,1.48-4.738
			c-0.947,0.251,0.916,3.668,1.253,4.197c1.177,1.846,2.877,3.654,6.023,2.637c3.605-1.166,5.397-4.456,5.652-7.029
			c0.035-0.356-0.723-0.343-0.776,0c-0.46,2.898-0.215,6.757,4.858,7.398c5.981,0.757,9.335-3.231,10.695-6.677h-0.837
			c0.375,1.801-1.229,7.055,3.884,6.612c3.896-0.339,5.232-4.649,5.24-6.835c0.001-0.35-0.77-0.351-0.773,0
			c-0.009,0.917-0.152,1.826-0.554,2.702c-0.247,0.55-0.587,1.064-1.02,1.548c-0.958,1.338-2.909,1.399-5.851,0.182
			c-0.704-1.231,0.21-3.013-0.09-4.371c-0.068-0.312-0.729-0.27-0.837,0c-1.181,2.929-3.768,6.473-8.895,6.251
			c-5.187-0.225-5.492-4.039-5.046-6.808h-0.776c-0.131,1.218-0.493,2.363-1.295,3.45c-1.46,1.979-2.098,2.388-5.197,2.274
			c-1.709,0.453-2.786,0.175-3.232-0.833c-0.479-0.602-0.863-1.227-1.157-1.879c-0.573-1.181-0.83-2.39-0.918-3.635
			c-0.021-0.303-0.619-0.294-0.659,0c-0.413,3.008-2.056,9.851-9.096,7.292c-3.496-1.271-5.573-3.967-5.358-6.695
			c0.021-0.259-0.499-0.281-0.608-0.059c-1.287,2.603-2.95,5.548-7.166,6.304c-6.063,1.084-7.178-3.217-6.567-6.353
			c0.062-0.312-0.52-0.439-0.679-0.132c-0.829,1.591-2.398,6.578-5.028,7.124c-4.888,1.017-5.938-3.462-5.891-5.748
			c0.007-0.337-0.683-0.323-0.728,0c-0.363,2.604-2.009,7.382-7.407,6.206c-3.434-0.749-2.265-3.845-4.005-5.463
			c-0.256-0.237-0.734-0.098-0.671,0.199c0.505,2.359-2.047,5.031-5.688,4.941c-1.587-0.039-3.152-0.75-3.912-1.726
			c-0.194-0.247-0.461-2.798-0.418-2.78c0.031,0.014-1.451,2.046-1.517,2.13C4.3,74.389,2.778,76.97,0.548,74.402
			c-0.36-0.415-0.03-1.641-0.037-2.107l-0.056-2.951C0.451,69.138,0,69.137,0,69.344"/>
	</g>
	<g>
		<path fill="#DAD4D4" d="M0,87.792c-0.003,1.596-0.771,4.274,0.072,5.762c0.315,0.554,0.506,0.914,1.39,1.062
			c3.204,0.54,5.263-4.111,6.154-5.372c0.151-0.215-0.224-0.44-0.483-0.262c-2.783,1.908-0.643,5.15,2.929,5.667
			c4.508,0.651,7.855-2.612,7.243-5.486c-0.226,0.066-0.447,0.133-0.67,0.199c2.361,2.197,0.559,6.146,6.311,5.772
			c4.96-0.322,6.08-3.884,6.463-6.776h-0.728c-0.037,2.609,0.608,5.943,5.139,6.316c5.082,0.418,6.015-5.192,7.187-7.559
			c-0.23-0.022-0.461-0.044-0.691-0.066c-0.382,2.211-0.604,5.158,2.532,6.493c2.453,1.044,5.677,0.534,7.867-0.62
			c1.673-0.881,2.73-2.185,3.535-3.517c0.128-0.21,1.226-1.502,0.438-1.53c-0.16-0.005,0.438,1.99,0.438,1.989
			c0.96,2.219,3.539,4.187,6.647,4.981c3.548,0.908,5.497-0.387,6.855-2.663c0.323-0.543,1.913-4.851,1.48-4.738
			c-0.947,0.25,0.916,3.668,1.253,4.196c1.177,1.846,2.877,3.654,6.023,2.637c3.605-1.166,5.397-4.457,5.652-7.028
			c0.035-0.357-0.723-0.345-0.776,0c-0.46,2.896-0.215,6.756,4.858,7.398c5.981,0.756,9.335-3.232,10.695-6.679h-0.837
			c0.375,1.802-1.229,7.056,3.884,6.612c3.896-0.338,5.232-4.648,5.24-6.835c0.001-0.351-0.77-0.351-0.773,0
			c-0.009,0.917-0.152,1.824-0.554,2.702c-0.247,0.549-0.587,1.065-1.02,1.546c-0.958,1.339-2.909,1.4-5.851,0.184
			c-0.704-1.232,0.21-3.015-0.09-4.373c-0.068-0.313-0.729-0.269-0.837,0c-1.181,2.931-3.768,6.473-8.895,6.251
			c-5.187-0.224-5.492-4.04-5.046-6.807h-0.776c-0.131,1.217-0.493,2.362-1.295,3.449c-1.46,1.979-2.098,2.388-5.197,2.274
			c-1.709,0.452-2.786,0.175-3.232-0.833c-0.479-0.6-0.863-1.227-1.157-1.878c-0.573-1.18-0.83-2.39-0.918-3.635
			c-0.021-0.303-0.619-0.295-0.659,0c-0.413,3.008-2.056,9.851-9.096,7.292c-3.496-1.271-5.573-3.968-5.358-6.695
			c0.021-0.258-0.499-0.28-0.608-0.058c-1.287,2.603-2.95,5.546-7.166,6.302c-6.063,1.086-7.178-3.215-6.567-6.351
			c0.062-0.313-0.52-0.439-0.679-0.133c-0.829,1.592-2.398,6.578-5.028,7.125c-4.888,1.016-5.938-3.461-5.891-5.749
			c0.007-0.336-0.683-0.323-0.728,0c-0.363,2.604-2.009,7.383-7.407,6.206c-3.434-0.749-2.265-3.846-4.005-5.462
			c-0.256-0.237-0.734-0.099-0.671,0.198c0.505,2.359-2.047,5.031-5.688,4.941c-1.587-0.039-3.152-0.751-3.912-1.726
			c-0.194-0.247-0.461-2.799-0.418-2.781c0.031,0.014-1.451,2.047-1.517,2.13c-0.764,0.973-2.285,3.551-4.516,0.984
			c-0.36-0.414-0.03-1.639-0.037-2.107l-0.056-2.951C0.451,87.587,0,87.585,0,87.792"/>
		<path fill="#DAD4D4" d="M0,107.174c-0.003,1.595-0.771,4.274,0.072,5.761c0.315,0.555,0.506,0.914,1.39,1.063
			c3.204,0.539,5.263-4.112,6.154-5.372c0.151-0.216-0.224-0.441-0.483-0.264c-2.783,1.908-0.643,5.15,2.929,5.667
			c4.508,0.652,7.855-2.611,7.243-5.486c-0.226,0.066-0.447,0.133-0.67,0.2c2.361,2.197,0.559,6.146,6.311,5.771
			c4.96-0.322,6.08-3.882,6.463-6.774h-0.728c-0.037,2.608,0.608,5.943,5.139,6.316c5.082,0.418,6.015-5.194,7.187-7.56
			c-0.23-0.021-0.461-0.044-0.691-0.066c-0.382,2.212-0.604,5.158,2.532,6.494c2.453,1.044,5.677,0.533,7.867-0.62
			c1.673-0.881,2.73-2.186,3.535-3.516c0.128-0.211,1.226-1.502,0.438-1.532c-0.16-0.006,0.438,1.991,0.438,1.99
			c0.96,2.218,3.539,4.187,6.647,4.981c3.548,0.906,5.497-0.387,6.855-2.663c0.323-0.544,1.913-4.852,1.48-4.738
			c-0.947,0.251,0.916,3.668,1.253,4.197c1.177,1.846,2.877,3.654,6.023,2.637c3.605-1.166,5.397-4.456,5.652-7.029
			c0.035-0.356-0.723-0.343-0.776,0c-0.46,2.898-0.215,6.757,4.858,7.398c5.981,0.757,9.335-3.231,10.695-6.677h-0.837
			c0.375,1.801-1.229,7.055,3.884,6.612c3.896-0.339,5.232-4.649,5.24-6.835c0.001-0.35-0.77-0.351-0.773,0
			c-0.009,0.917-0.152,1.826-0.554,2.702c-0.247,0.55-0.587,1.064-1.02,1.548c-0.958,1.338-2.909,1.399-5.851,0.182
			c-0.704-1.231,0.21-3.013-0.09-4.371c-0.068-0.312-0.729-0.27-0.837,0c-1.181,2.929-3.768,6.473-8.895,6.251
			c-5.187-0.225-5.492-4.039-5.046-6.808h-0.776c-0.131,1.218-0.493,2.363-1.295,3.45c-1.46,1.979-2.098,2.388-5.197,2.274
			c-1.709,0.453-2.786,0.175-3.232-0.833c-0.479-0.602-0.863-1.227-1.157-1.879c-0.573-1.181-0.83-2.39-0.918-3.635
			c-0.021-0.303-0.619-0.294-0.659,0c-0.413,3.008-2.056,9.851-9.096,7.292c-3.496-1.271-5.573-3.967-5.358-6.695
			c0.021-0.259-0.499-0.281-0.608-0.059c-1.287,2.603-2.95,5.548-7.166,6.304c-6.063,1.084-7.178-3.217-6.567-6.353
			c0.062-0.312-0.52-0.439-0.679-0.132c-0.829,1.591-2.398,6.578-5.028,7.124c-4.888,1.017-5.938-3.462-5.891-5.748
			c0.007-0.337-0.683-0.323-0.728,0c-0.363,2.604-2.009,7.382-7.407,6.206c-3.434-0.749-2.265-3.845-4.005-5.463
			c-0.256-0.237-0.734-0.098-0.671,0.199c0.505,2.359-2.047,5.031-5.688,4.941c-1.587-0.039-3.152-0.75-3.912-1.726
			c-0.194-0.247-0.461-2.798-0.418-2.78c0.031,0.014-1.451,2.046-1.517,2.13c-0.764,0.971-2.285,3.552-4.516,0.984
			c-0.36-0.415-0.03-1.641-0.037-2.107l-0.056-2.951C0.451,106.968,0,106.967,0,107.174"/>
	</g>
	<g>
		<path fill="#DAD4D4" d="M0,124.089c-0.003,1.596-0.771,4.274,0.072,5.762c0.315,0.554,0.506,0.914,1.39,1.062
			c3.204,0.54,5.263-4.111,6.154-5.372c0.151-0.215-0.224-0.44-0.483-0.262c-2.783,1.908-0.643,5.15,2.929,5.667
			c4.508,0.651,7.855-2.612,7.243-5.486c-0.226,0.066-0.447,0.133-0.67,0.199c2.361,2.197,0.559,6.146,6.311,5.772
			c4.96-0.322,6.08-3.884,6.463-6.776h-0.728c-0.037,2.609,0.608,5.943,5.139,6.316c5.082,0.418,6.015-5.192,7.187-7.559
			c-0.23-0.022-0.461-0.044-0.691-0.066c-0.382,2.211-0.604,5.158,2.532,6.493c2.453,1.044,5.677,0.534,7.867-0.62
			c1.673-0.881,2.73-2.185,3.535-3.517c0.128-0.21,1.226-1.502,0.438-1.53c-0.16-0.005,0.438,1.99,0.438,1.989
			c0.96,2.219,3.539,4.187,6.647,4.981c3.548,0.908,5.497-0.387,6.855-2.663c0.323-0.543,1.913-4.851,1.48-4.738
			c-0.947,0.25,0.916,3.668,1.253,4.196c1.177,1.846,2.877,3.654,6.023,2.637c3.605-1.166,5.397-4.457,5.652-7.028
			c0.035-0.357-0.723-0.345-0.776,0c-0.46,2.896-0.215,6.756,4.858,7.398c5.981,0.756,9.335-3.232,10.695-6.679h-0.837
			c0.375,1.802-1.229,7.056,3.884,6.612c3.896-0.338,5.232-4.648,5.24-6.835c0.001-0.351-0.77-0.351-0.773,0
			c-0.009,0.917-0.152,1.824-0.554,2.702c-0.247,0.549-0.587,1.065-1.02,1.546c-0.958,1.339-2.909,1.4-5.851,0.184
			c-0.704-1.232,0.21-3.015-0.09-4.373c-0.068-0.313-0.729-0.269-0.837,0c-1.181,2.931-3.768,6.473-8.895,6.251
			c-5.187-0.224-5.492-4.04-5.046-6.807h-0.776c-0.131,1.217-0.493,2.362-1.295,3.449c-1.46,1.979-2.098,2.388-5.197,2.274
			c-1.709,0.452-2.786,0.175-3.232-0.833c-0.479-0.6-0.863-1.227-1.157-1.878c-0.573-1.18-0.83-2.39-0.918-3.635
			c-0.021-0.303-0.619-0.295-0.659,0c-0.413,3.008-2.056,9.851-9.096,7.292c-3.496-1.271-5.573-3.968-5.358-6.695
			c0.021-0.258-0.499-0.28-0.608-0.058c-1.287,2.603-2.95,5.546-7.166,6.302c-6.063,1.086-7.178-3.215-6.567-6.351
			c0.062-0.313-0.52-0.439-0.679-0.133c-0.829,1.592-2.398,6.578-5.028,7.125c-4.888,1.016-5.938-3.461-5.891-5.749
			c0.007-0.336-0.683-0.323-0.728,0c-0.363,2.604-2.009,7.383-7.407,6.206c-3.434-0.749-2.265-3.846-4.005-5.462
			c-0.256-0.237-0.734-0.099-0.671,0.198c0.505,2.359-2.047,5.031-5.688,4.941c-1.587-0.039-3.152-0.751-3.912-1.726
			c-0.194-0.247-0.461-2.799-0.418-2.781c0.031,0.014-1.451,2.047-1.517,2.13c-0.764,0.973-2.285,3.551-4.516,0.984
			c-0.36-0.414-0.03-1.639-0.037-2.107l-0.056-2.951C0.451,123.884,0,123.882,0,124.089"/>
		<path fill="#DAD4D4" d="M0,143.471c-0.003,1.595-0.771,4.274,0.072,5.761c0.315,0.555,0.506,0.914,1.39,1.063
			c3.204,0.539,5.263-4.112,6.154-5.372c0.151-0.216-0.224-0.441-0.483-0.264c-2.783,1.908-0.643,5.15,2.929,5.667
			c4.508,0.652,7.855-2.611,7.243-5.486c-0.226,0.066-0.447,0.133-0.67,0.2c2.361,2.197,0.559,6.146,6.311,5.771
			c4.96-0.322,6.08-3.882,6.463-6.774h-0.728c-0.037,2.608,0.608,5.943,5.139,6.316c5.082,0.418,6.015-5.194,7.187-7.56
			c-0.23-0.021-0.461-0.044-0.691-0.066c-0.382,2.212-0.604,5.158,2.532,6.494c2.453,1.044,5.677,0.533,7.867-0.62
			c1.673-0.881,2.73-2.186,3.535-3.516c0.128-0.211,1.226-1.502,0.438-1.532c-0.16-0.006,0.438,1.991,0.438,1.99
			c0.96,2.218,3.539,4.187,6.647,4.981c3.548,0.906,5.497-0.387,6.855-2.663c0.323-0.544,1.913-4.852,1.48-4.738
			c-0.947,0.251,0.916,3.668,1.253,4.197c1.177,1.846,2.877,3.654,6.023,2.637c3.605-1.166,5.397-4.456,5.652-7.029
			c0.035-0.356-0.723-0.343-0.776,0c-0.46,2.898-0.215,6.757,4.858,7.398c5.981,0.757,9.335-3.231,10.695-6.677h-0.837
			c0.375,1.801-1.229,7.055,3.884,6.612c3.896-0.339,5.232-4.649,5.24-6.835c0.001-0.35-0.77-0.351-0.773,0
			c-0.009,0.917-0.152,1.826-0.554,2.702c-0.247,0.55-0.587,1.064-1.02,1.548c-0.958,1.338-2.909,1.399-5.851,0.182
			c-0.704-1.231,0.21-3.013-0.09-4.371c-0.068-0.312-0.729-0.27-0.837,0c-1.181,2.929-3.768,6.473-8.895,6.251
			c-5.187-0.225-5.492-4.039-5.046-6.808h-0.776c-0.131,1.218-0.493,2.363-1.295,3.45c-1.46,1.979-2.098,2.388-5.197,2.274
			c-1.709,0.453-2.786,0.175-3.232-0.833c-0.479-0.602-0.863-1.227-1.157-1.879c-0.573-1.181-0.83-2.39-0.918-3.635
			c-0.021-0.303-0.619-0.294-0.659,0c-0.413,3.008-2.056,9.851-9.096,7.292c-3.496-1.271-5.573-3.967-5.358-6.695
			c0.021-0.259-0.499-0.281-0.608-0.059c-1.287,2.603-2.95,5.548-7.166,6.304c-6.063,1.084-7.178-3.217-6.567-6.353
			c0.062-0.312-0.52-0.439-0.679-0.132c-0.829,1.591-2.398,6.578-5.028,7.124c-4.888,1.017-5.938-3.462-5.891-5.748
			c0.007-0.337-0.683-0.323-0.728,0c-0.363,2.604-2.009,7.382-7.407,6.206c-3.434-0.749-2.265-3.845-4.005-5.463
			c-0.256-0.237-0.734-0.098-0.671,0.199c0.505,2.359-2.047,5.031-5.688,4.941c-1.587-0.039-3.152-0.75-3.912-1.726
			c-0.194-0.247-0.461-2.798-0.418-2.78c0.031,0.014-1.451,2.046-1.517,2.13c-0.764,0.971-2.285,3.552-4.516,0.984
			c-0.36-0.415-0.03-1.641-0.037-2.107l-0.056-2.951C0.451,143.265,0,143.264,0,143.471"/>
	</g>
	<g>
		<path fill="#DAD4D4" d="M119.045,124.556c-0.003,1.596-0.771,4.274,0.072,5.762c0.315,0.554,0.506,0.914,1.39,1.062
			c3.204,0.54,5.263-4.111,6.154-5.372c0.151-0.215-0.224-0.44-0.483-0.262c-2.783,1.908-0.643,5.15,2.929,5.667
			c4.508,0.651,7.855-2.612,7.243-5.486c-0.226,0.066-0.447,0.133-0.67,0.199c2.361,2.197,0.559,6.146,6.311,5.772
			c4.96-0.322,6.08-3.884,6.463-6.776h-0.728c-0.037,2.609,0.608,5.943,5.139,6.316c5.082,0.418,6.015-5.192,7.187-7.559
			c-0.23-0.022-0.461-0.044-0.691-0.066c-0.382,2.211-0.604,5.158,2.532,6.493c2.453,1.044,5.677,0.534,7.867-0.62
			c1.673-0.881,2.73-2.185,3.535-3.517c0.128-0.21,1.226-1.502,0.438-1.53c-0.16-0.005,0.438,1.99,0.438,1.989
			c0.96,2.219,3.539,4.187,6.647,4.981c3.548,0.908,5.497-0.387,6.855-2.663c0.323-0.543,1.913-4.851,1.48-4.738
			c-0.947,0.25,0.916,3.668,1.253,4.196c1.177,1.846,2.877,3.654,6.023,2.637c3.605-1.166,5.397-4.457,5.652-7.028
			c0.035-0.357-0.723-0.345-0.776,0c-0.46,2.896-0.215,6.756,4.858,7.398c5.981,0.756,9.335-3.232,10.695-6.679h-0.837
			c0.375,1.802-1.229,7.056,3.884,6.612c3.896-0.338,5.232-4.648,5.24-6.835c0.001-0.351-0.77-0.351-0.773,0
			c-0.009,0.917-0.152,1.824-0.554,2.702c-0.247,0.549-0.587,1.065-1.02,1.546c-0.958,1.339-2.909,1.4-5.851,0.184
			c-0.704-1.232,0.21-3.015-0.09-4.373c-0.068-0.313-0.729-0.269-0.837,0c-1.181,2.931-3.768,6.473-8.895,6.251
			c-5.187-0.224-5.492-4.04-5.046-6.807h-0.776c-0.131,1.217-0.493,2.362-1.295,3.449c-1.46,1.979-2.098,2.388-5.197,2.274
			c-1.709,0.452-2.786,0.175-3.232-0.833c-0.479-0.6-0.863-1.227-1.157-1.878c-0.573-1.18-0.83-2.39-0.918-3.635
			c-0.021-0.303-0.619-0.295-0.659,0c-0.413,3.008-2.056,9.851-9.096,7.292c-3.496-1.271-5.573-3.968-5.358-6.695
			c0.021-0.258-0.499-0.28-0.608-0.058c-1.287,2.603-2.95,5.546-7.166,6.302c-6.063,1.086-7.178-3.215-6.567-6.351
			c0.062-0.313-0.52-0.439-0.679-0.133c-0.829,1.592-2.398,6.578-5.028,7.125c-4.888,1.016-5.938-3.461-5.891-5.749
			c0.007-0.336-0.683-0.323-0.728,0c-0.363,2.604-2.009,7.383-7.407,6.206c-3.434-0.749-2.265-3.846-4.005-5.462
			c-0.256-0.237-0.734-0.099-0.671,0.198c0.505,2.359-2.047,5.031-5.688,4.941c-1.587-0.039-3.152-0.751-3.912-1.726
			c-0.194-0.247-0.461-2.799-0.418-2.781c0.031,0.014-1.451,2.047-1.517,2.13c-0.764,0.973-2.285,3.551-4.516,0.984
			c-0.36-0.414-0.03-1.639-0.037-2.107l-0.056-2.951C119.496,124.35,119.045,124.349,119.045,124.556"/>
		<path fill="#DAD4D4" d="M119.045,143.938c-0.003,1.595-0.771,4.274,0.072,5.761c0.315,0.555,0.506,0.914,1.39,1.063
			c3.204,0.539,5.263-4.112,6.154-5.372c0.151-0.216-0.224-0.441-0.483-0.264c-2.783,1.908-0.643,5.15,2.929,5.667
			c4.508,0.652,7.855-2.611,7.243-5.486c-0.226,0.066-0.447,0.133-0.67,0.2c2.361,2.197,0.559,6.146,6.311,5.771
			c4.96-0.322,6.08-3.882,6.463-6.774h-0.728c-0.037,2.608,0.608,5.943,5.139,6.316c5.082,0.418,6.015-5.194,7.187-7.56
			c-0.23-0.021-0.461-0.044-0.691-0.066c-0.382,2.212-0.604,5.158,2.532,6.494c2.453,1.044,5.677,0.533,7.867-0.62
			c1.673-0.881,2.73-2.186,3.535-3.516c0.128-0.211,1.226-1.502,0.438-1.532c-0.16-0.006,0.438,1.991,0.438,1.99
			c0.96,2.218,3.539,4.187,6.647,4.981c3.548,0.906,5.497-0.387,6.855-2.663c0.323-0.544,1.913-4.852,1.48-4.738
			c-0.947,0.251,0.916,3.668,1.253,4.197c1.177,1.846,2.877,3.654,6.023,2.637c3.605-1.166,5.397-4.456,5.652-7.029
			c0.035-0.356-0.723-0.343-0.776,0c-0.46,2.898-0.215,6.757,4.858,7.398c5.981,0.757,9.335-3.231,10.695-6.677h-0.837
			c0.375,1.801-1.229,7.055,3.884,6.612c3.896-0.339,5.232-4.649,5.24-6.835c0.001-0.35-0.77-0.351-0.773,0
			c-0.009,0.917-0.152,1.826-0.554,2.702c-0.247,0.55-0.587,1.064-1.02,1.548c-0.958,1.338-2.909,1.399-5.851,0.182
			c-0.704-1.231,0.21-3.013-0.09-4.371c-0.068-0.312-0.729-0.27-0.837,0c-1.181,2.929-3.768,6.473-8.895,6.251
			c-5.187-0.225-5.492-4.039-5.046-6.808h-0.776c-0.131,1.218-0.493,2.363-1.295,3.45c-1.46,1.979-2.098,2.388-5.197,2.274
			c-1.709,0.453-2.786,0.175-3.232-0.833c-0.479-0.602-0.863-1.227-1.157-1.879c-0.573-1.181-0.83-2.39-0.918-3.635
			c-0.021-0.303-0.619-0.294-0.659,0c-0.413,3.008-2.056,9.851-9.096,7.292c-3.496-1.271-5.573-3.967-5.358-6.695
			c0.021-0.259-0.499-0.281-0.608-0.059c-1.287,2.603-2.95,5.548-7.166,6.304c-6.063,1.084-7.178-3.217-6.567-6.353
			c0.062-0.312-0.52-0.439-0.679-0.132c-0.829,1.591-2.398,6.578-5.028,7.124c-4.888,1.017-5.938-3.462-5.891-5.748
			c0.007-0.337-0.683-0.323-0.728,0c-0.363,2.604-2.009,7.382-7.407,6.206c-3.434-0.749-2.265-3.845-4.005-5.463
			c-0.256-0.237-0.734-0.098-0.671,0.199c0.505,2.359-2.047,5.031-5.688,4.941c-1.587-0.039-3.152-0.75-3.912-1.726
			c-0.194-0.247-0.461-2.798-0.418-2.78c0.031,0.014-1.451,2.046-1.517,2.13c-0.764,0.971-2.285,3.552-4.516,0.984
			c-0.36-0.415-0.03-1.641-0.037-2.107l-0.056-2.951C119.496,143.731,119.045,143.73,119.045,143.938"/>
	</g>
	<g>
		<path fill="#DAD4D4" d="M119.045,88.259c-0.003,1.596-0.771,4.274,0.072,5.762c0.315,0.554,0.506,0.914,1.39,1.062
			c3.204,0.54,5.263-4.111,6.154-5.372c0.151-0.215-0.224-0.44-0.483-0.262c-2.783,1.908-0.643,5.15,2.929,5.667
			c4.508,0.651,7.855-2.612,7.243-5.486c-0.226,0.066-0.447,0.133-0.67,0.199c2.361,2.197,0.559,6.146,6.311,5.772
			c4.96-0.322,6.08-3.884,6.463-6.776h-0.728c-0.037,2.609,0.608,5.943,5.139,6.316c5.082,0.418,6.015-5.192,7.187-7.559
			c-0.23-0.022-0.461-0.044-0.691-0.066c-0.382,2.211-0.604,5.158,2.532,6.493c2.453,1.044,5.677,0.534,7.867-0.62
			c1.673-0.881,2.73-2.185,3.535-3.517c0.128-0.21,1.226-1.502,0.438-1.53c-0.16-0.005,0.438,1.99,0.438,1.989
			c0.96,2.219,3.539,4.187,6.647,4.981c3.548,0.908,5.497-0.387,6.855-2.663c0.323-0.543,1.913-4.851,1.48-4.738
			c-0.947,0.25,0.916,3.668,1.253,4.196c1.177,1.846,2.877,3.654,6.023,2.637c3.605-1.166,5.397-4.457,5.652-7.028
			c0.035-0.357-0.723-0.345-0.776,0c-0.46,2.896-0.215,6.756,4.858,7.398c5.981,0.756,9.335-3.232,10.695-6.679h-0.837
			c0.375,1.802-1.229,7.056,3.884,6.612c3.896-0.338,5.232-4.648,5.24-6.835c0.001-0.351-0.77-0.351-0.773,0
			c-0.009,0.917-0.152,1.824-0.554,2.702c-0.247,0.549-0.587,1.065-1.02,1.546c-0.958,1.339-2.909,1.4-5.851,0.184
			c-0.704-1.232,0.21-3.015-0.09-4.373c-0.068-0.313-0.729-0.269-0.837,0c-1.181,2.931-3.768,6.473-8.895,6.251
			c-5.187-0.224-5.492-4.04-5.046-6.807h-0.776c-0.131,1.217-0.493,2.362-1.295,3.449c-1.46,1.979-2.098,2.388-5.197,2.274
			c-1.709,0.452-2.786,0.175-3.232-0.833c-0.479-0.6-0.863-1.227-1.157-1.878c-0.573-1.18-0.83-2.39-0.918-3.635
			c-0.021-0.303-0.619-0.295-0.659,0c-0.413,3.008-2.056,9.851-9.096,7.292c-3.496-1.271-5.573-3.968-5.358-6.695
			c0.021-0.258-0.499-0.28-0.608-0.058c-1.287,2.603-2.95,5.546-7.166,6.302c-6.063,1.086-7.178-3.215-6.567-6.351
			c0.062-0.313-0.52-0.439-0.679-0.133c-0.829,1.592-2.398,6.578-5.028,7.125c-4.888,1.016-5.938-3.461-5.891-5.749
			c0.007-0.336-0.683-0.323-0.728,0c-0.363,2.604-2.009,7.383-7.407,6.206c-3.434-0.749-2.265-3.846-4.005-5.462
			c-0.256-0.237-0.734-0.099-0.671,0.198c0.505,2.359-2.047,5.031-5.688,4.941c-1.587-0.039-3.152-0.751-3.912-1.726
			c-0.194-0.247-0.461-2.799-0.418-2.781c0.031,0.014-1.451,2.047-1.517,2.13c-0.764,0.973-2.285,3.551-4.516,0.984
			c-0.36-0.414-0.03-1.639-0.037-2.107l-0.056-2.951C119.496,88.053,119.045,88.052,119.045,88.259"/>
		<path fill="#DAD4D4" d="M119.045,107.641c-0.003,1.595-0.771,4.274,0.072,5.761c0.315,0.555,0.506,0.914,1.39,1.063
			c3.204,0.539,5.263-4.112,6.154-5.372c0.151-0.216-0.224-0.441-0.483-0.264c-2.783,1.908-0.643,5.15,2.929,5.667
			c4.508,0.652,7.855-2.611,7.243-5.486c-0.226,0.066-0.447,0.133-0.67,0.2c2.361,2.197,0.559,6.146,6.311,5.771
			c4.96-0.322,6.08-3.882,6.463-6.774h-0.728c-0.037,2.608,0.608,5.943,5.139,6.316c5.082,0.418,6.015-5.194,7.187-7.56
			c-0.23-0.021-0.461-0.044-0.691-0.066c-0.382,2.212-0.604,5.158,2.532,6.494c2.453,1.044,5.677,0.533,7.867-0.62
			c1.673-0.881,2.73-2.186,3.535-3.516c0.128-0.211,1.226-1.502,0.438-1.532c-0.16-0.006,0.438,1.991,0.438,1.99
			c0.96,2.218,3.539,4.187,6.647,4.981c3.548,0.906,5.497-0.387,6.855-2.663c0.323-0.544,1.913-4.852,1.48-4.738
			c-0.947,0.251,0.916,3.668,1.253,4.197c1.177,1.846,2.877,3.654,6.023,2.637c3.605-1.166,5.397-4.456,5.652-7.029
			c0.035-0.356-0.723-0.343-0.776,0c-0.46,2.898-0.215,6.757,4.858,7.398c5.981,0.757,9.335-3.231,10.695-6.677h-0.837
			c0.375,1.801-1.229,7.055,3.884,6.612c3.896-0.339,5.232-4.649,5.24-6.835c0.001-0.35-0.77-0.351-0.773,0
			c-0.009,0.917-0.152,1.826-0.554,2.702c-0.247,0.55-0.587,1.064-1.02,1.548c-0.958,1.338-2.909,1.399-5.851,0.182
			c-0.704-1.231,0.21-3.013-0.09-4.371c-0.068-0.312-0.729-0.27-0.837,0c-1.181,2.929-3.768,6.473-8.895,6.251
			c-5.187-0.225-5.492-4.039-5.046-6.808h-0.776c-0.131,1.218-0.493,2.363-1.295,3.45c-1.46,1.979-2.098,2.388-5.197,2.274
			c-1.709,0.453-2.786,0.175-3.232-0.833c-0.479-0.602-0.863-1.227-1.157-1.879c-0.573-1.181-0.83-2.39-0.918-3.635
			c-0.021-0.303-0.619-0.294-0.659,0c-0.413,3.008-2.056,9.851-9.096,7.292c-3.496-1.271-5.573-3.967-5.358-6.695
			c0.021-0.259-0.499-0.281-0.608-0.059c-1.287,2.603-2.95,5.548-7.166,6.304c-6.063,1.084-7.178-3.217-6.567-6.353
			c0.062-0.312-0.52-0.439-0.679-0.132c-0.829,1.591-2.398,6.578-5.028,7.124c-4.888,1.017-5.938-3.462-5.891-5.748
			c0.007-0.337-0.683-0.323-0.728,0c-0.363,2.604-2.009,7.382-7.407,6.206c-3.434-0.749-2.265-3.845-4.005-5.463
			c-0.256-0.237-0.734-0.098-0.671,0.199c0.505,2.359-2.047,5.031-5.688,4.941c-1.587-0.039-3.152-0.75-3.912-1.726
			c-0.194-0.247-0.461-2.798-0.418-2.78c0.031,0.014-1.451,2.046-1.517,2.13c-0.764,0.971-2.285,3.552-4.516,0.984
			c-0.36-0.415-0.03-1.641-0.037-2.107l-0.056-2.951C119.496,107.435,119.045,107.434,119.045,107.641"/>
	</g>
	<g>
		<path fill="#DAD4D4" d="M119.045,50.931c-0.003,1.596-0.771,4.274,0.072,5.762c0.315,0.554,0.506,0.914,1.39,1.062
			c3.204,0.54,5.263-4.111,6.154-5.372c0.151-0.215-0.224-0.44-0.483-0.262c-2.783,1.908-0.643,5.15,2.929,5.667
			c4.508,0.651,7.855-2.612,7.243-5.486c-0.226,0.066-0.447,0.133-0.67,0.199c2.361,2.197,0.559,6.146,6.311,5.772
			c4.96-0.322,6.08-3.884,6.463-6.776h-0.728c-0.037,2.609,0.608,5.943,5.139,6.316c5.082,0.418,6.015-5.192,7.187-7.559
			c-0.23-0.022-0.461-0.044-0.691-0.066c-0.382,2.211-0.604,5.158,2.532,6.493c2.453,1.044,5.677,0.534,7.867-0.62
			c1.673-0.881,2.73-2.185,3.535-3.517c0.128-0.21,1.226-1.502,0.438-1.53c-0.16-0.005,0.438,1.99,0.438,1.989
			c0.96,2.219,3.539,4.187,6.647,4.981c3.548,0.908,5.497-0.387,6.855-2.663c0.323-0.543,1.913-4.851,1.48-4.738
			c-0.947,0.25,0.916,3.668,1.253,4.196c1.177,1.846,2.877,3.654,6.023,2.637c3.605-1.166,5.397-4.457,5.652-7.028
			c0.035-0.357-0.723-0.345-0.776,0c-0.46,2.896-0.215,6.756,4.858,7.398c5.981,0.756,9.335-3.232,10.695-6.679h-0.837
			c0.375,1.802-1.229,7.056,3.884,6.612c3.896-0.338,5.232-4.648,5.24-6.835c0.001-0.351-0.77-0.351-0.773,0
			c-0.009,0.917-0.152,1.824-0.554,2.702c-0.247,0.549-0.587,1.065-1.02,1.546c-0.958,1.339-2.909,1.4-5.851,0.184
			c-0.704-1.232,0.21-3.015-0.09-4.373c-0.068-0.313-0.729-0.269-0.837,0c-1.181,2.931-3.768,6.473-8.895,6.251
			c-5.187-0.224-5.492-4.04-5.046-6.807h-0.776c-0.131,1.217-0.493,2.362-1.295,3.449c-1.46,1.979-2.098,2.388-5.197,2.274
			c-1.709,0.452-2.786,0.175-3.232-0.833c-0.479-0.6-0.863-1.227-1.157-1.878c-0.573-1.18-0.83-2.39-0.918-3.635
			c-0.021-0.303-0.619-0.295-0.659,0c-0.413,3.008-2.056,9.851-9.096,7.292c-3.496-1.271-5.573-3.968-5.358-6.695
			c0.021-0.258-0.499-0.28-0.608-0.058c-1.287,2.603-2.95,5.546-7.166,6.302c-6.063,1.086-7.178-3.215-6.567-6.351
			c0.062-0.313-0.52-0.439-0.679-0.133c-0.829,1.592-2.398,6.578-5.028,7.125c-4.888,1.016-5.938-3.461-5.891-5.749
			c0.007-0.336-0.683-0.323-0.728,0c-0.363,2.604-2.009,7.383-7.407,6.206c-3.434-0.749-2.265-3.846-4.005-5.462
			c-0.256-0.237-0.734-0.099-0.671,0.198c0.505,2.359-2.047,5.031-5.688,4.941c-1.587-0.039-3.152-0.751-3.912-1.726
			c-0.194-0.247-0.461-2.799-0.418-2.781c0.031,0.014-1.451,2.047-1.517,2.13c-0.764,0.973-2.285,3.551-4.516,0.984
			c-0.36-0.414-0.03-1.639-0.037-2.107l-0.056-2.951C119.496,50.725,119.045,50.724,119.045,50.931"/>
		<path fill="#DAD4D4" d="M119.045,70.313c-0.003,1.595-0.771,4.274,0.072,5.761c0.315,0.555,0.506,0.914,1.39,1.063
			c3.204,0.539,5.263-4.112,6.154-5.372c0.151-0.216-0.224-0.441-0.483-0.264c-2.783,1.908-0.643,5.15,2.929,5.667
			c4.508,0.652,7.855-2.611,7.243-5.486c-0.226,0.066-0.447,0.133-0.67,0.2c2.361,2.197,0.559,6.146,6.311,5.771
			c4.96-0.322,6.08-3.882,6.463-6.774h-0.728c-0.037,2.608,0.608,5.943,5.139,6.316c5.082,0.418,6.015-5.194,7.187-7.56
			c-0.23-0.021-0.461-0.044-0.691-0.066c-0.382,2.212-0.604,5.158,2.532,6.494c2.453,1.044,5.677,0.533,7.867-0.62
			c1.673-0.881,2.73-2.186,3.535-3.516c0.128-0.211,1.226-1.502,0.438-1.532c-0.16-0.006,0.438,1.991,0.438,1.99
			c0.96,2.218,3.539,4.187,6.647,4.981c3.548,0.906,5.497-0.387,6.855-2.663c0.323-0.544,1.913-4.852,1.48-4.738
			c-0.947,0.251,0.916,3.668,1.253,4.197c1.177,1.846,2.877,3.654,6.023,2.637c3.605-1.166,5.397-4.456,5.652-7.029
			c0.035-0.356-0.723-0.343-0.776,0c-0.46,2.898-0.215,6.757,4.858,7.398c5.981,0.757,9.335-3.231,10.695-6.677h-0.837
			c0.375,1.801-1.229,7.055,3.884,6.612c3.896-0.339,5.232-4.649,5.24-6.835c0.001-0.35-0.77-0.351-0.773,0
			c-0.009,0.917-0.152,1.826-0.554,2.702c-0.247,0.55-0.587,1.064-1.02,1.548c-0.958,1.338-2.909,1.399-5.851,0.182
			c-0.704-1.231,0.21-3.013-0.09-4.371c-0.068-0.312-0.729-0.27-0.837,0c-1.181,2.929-3.768,6.473-8.895,6.251
			c-5.187-0.225-5.492-4.039-5.046-6.808h-0.776c-0.131,1.218-0.493,2.363-1.295,3.45c-1.46,1.979-2.098,2.388-5.197,2.274
			c-1.709,0.453-2.786,0.175-3.232-0.833c-0.479-0.602-0.863-1.227-1.157-1.879c-0.573-1.181-0.83-2.39-0.918-3.635
			c-0.021-0.303-0.619-0.294-0.659,0c-0.413,3.008-2.056,9.851-9.096,7.292c-3.496-1.271-5.573-3.967-5.358-6.695
			c0.021-0.259-0.499-0.281-0.608-0.059c-1.287,2.603-2.95,5.548-7.166,6.304c-6.063,1.084-7.178-3.217-6.567-6.353
			c0.062-0.312-0.52-0.439-0.679-0.132c-0.829,1.591-2.398,6.578-5.028,7.124c-4.888,1.017-5.938-3.462-5.891-5.748
			c0.007-0.337-0.683-0.323-0.728,0c-0.363,2.604-2.009,7.382-7.407,6.206c-3.434-0.749-2.265-3.845-4.005-5.463
			c-0.256-0.237-0.734-0.098-0.671,0.199c0.505,2.359-2.047,5.031-5.688,4.941c-1.587-0.039-3.152-0.75-3.912-1.726
			c-0.194-0.247-0.461-2.798-0.418-2.78c0.031,0.014-1.451,2.046-1.517,2.13c-0.764,0.971-2.285,3.552-4.516,0.984
			c-0.36-0.415-0.03-1.641-0.037-2.107l-0.056-2.951C119.496,70.106,119.045,70.105,119.045,70.313"/>
	</g>
	<g>
		<path fill="#DAD4D4" d="M119.045-0.486c-0.003,1.596-0.771,4.274,0.072,5.762c0.315,0.554,0.506,0.914,1.39,1.062
			c3.204,0.54,5.263-4.111,6.154-5.372c0.151-0.215-0.224-0.44-0.483-0.262c-2.783,1.908-0.643,5.15,2.929,5.667
			c4.508,0.651,7.855-2.612,7.243-5.486c-0.226,0.066-0.447,0.133-0.67,0.199c2.361,2.197,0.559,6.146,6.311,5.772
			c4.96-0.322,6.08-3.884,6.463-6.776h-0.728c-0.037,2.609,0.608,5.943,5.139,6.316c5.082,0.418,6.015-5.192,7.187-7.559
			c-0.23-0.022-0.461-0.044-0.691-0.066c-0.382,2.211-0.604,5.158,2.532,6.493c2.453,1.044,5.677,0.534,7.867-0.62
			c1.673-0.881,2.73-2.185,3.535-3.517c0.128-0.21,1.226-1.502,0.438-1.53c-0.16-0.005,0.438,1.99,0.438,1.989
			c0.96,2.219,3.539,4.187,6.647,4.981c3.548,0.908,5.497-0.387,6.855-2.663c0.323-0.543,1.913-4.851,1.48-4.738
			c-0.947,0.25,0.916,3.668,1.253,4.196c1.177,1.846,2.877,3.654,6.023,2.637c3.605-1.166,5.397-4.457,5.652-7.028
			c0.035-0.357-0.723-0.345-0.776,0c-0.46,2.896-0.215,6.756,4.858,7.398c5.981,0.756,9.335-3.232,10.695-6.679h-0.837
			c0.375,1.802-1.229,7.056,3.884,6.612c3.896-0.338,5.232-4.648,5.24-6.835c0.001-0.351-0.77-0.351-0.773,0
			c-0.009,0.917-0.152,1.824-0.554,2.702c-0.247,0.549-0.587,1.065-1.02,1.546c-0.958,1.339-2.909,1.4-5.851,0.184
			c-0.704-1.232,0.21-3.015-0.09-4.373c-0.068-0.313-0.729-0.269-0.837,0c-1.181,2.931-3.768,6.473-8.895,6.251
			c-5.187-0.224-5.492-4.04-5.046-6.807h-0.776c-0.131,1.217-0.493,2.362-1.295,3.449c-1.46,1.979-2.098,2.388-5.197,2.274
			c-1.709,0.452-2.786,0.175-3.232-0.833c-0.479-0.6-0.863-1.227-1.157-1.878c-0.573-1.18-0.83-2.39-0.918-3.635
			c-0.021-0.303-0.619-0.295-0.659,0c-0.413,3.008-2.056,9.851-9.096,7.292c-3.496-1.271-5.573-3.968-5.358-6.695
			c0.021-0.258-0.499-0.28-0.608-0.058c-1.287,2.603-2.95,5.546-7.166,6.302c-6.063,1.086-7.178-3.215-6.567-6.351
			c0.062-0.313-0.52-0.439-0.679-0.133c-0.829,1.592-2.398,6.578-5.028,7.125c-4.888,1.016-5.938-3.461-5.891-5.749
			c0.007-0.336-0.683-0.323-0.728,0c-0.363,2.604-2.009,7.383-7.407,6.206c-3.434-0.749-2.265-3.846-4.005-5.462
			c-0.256-0.237-0.734-0.099-0.671,0.198c0.505,2.359-2.047,5.031-5.688,4.941c-1.587-0.039-3.152-0.751-3.912-1.726
			c-0.194-0.247-0.461-2.799-0.418-2.781c0.031,0.014-1.451,2.047-1.517,2.13c-0.764,0.973-2.285,3.551-4.516,0.984
			c-0.36-0.414-0.03-1.639-0.037-2.107L119.5-0.486C119.496-0.692,119.045-0.693,119.045-0.486"/>
		<path fill="#DAD4D4" d="M119.045,18.896c-0.003,1.595-0.771,4.274,0.072,5.761c0.315,0.555,0.506,0.914,1.39,1.063
			c3.204,0.539,5.263-4.112,6.154-5.372c0.151-0.216-0.224-0.441-0.483-0.264c-2.783,1.908-0.643,5.15,2.929,5.667
			c4.508,0.652,7.855-2.611,7.243-5.486c-0.226,0.066-0.447,0.133-0.67,0.2c2.361,2.197,0.559,6.146,6.311,5.771
			c4.96-0.322,6.08-3.882,6.463-6.774h-0.728c-0.037,2.608,0.608,5.943,5.139,6.316c5.082,0.418,6.015-5.194,7.187-7.56
			c-0.23-0.021-0.461-0.044-0.691-0.066c-0.382,2.212-0.604,5.158,2.532,6.494c2.453,1.044,5.677,0.533,7.867-0.62
			c1.673-0.881,2.73-2.186,3.535-3.516c0.128-0.211,1.226-1.502,0.438-1.532c-0.16-0.006,0.438,1.991,0.438,1.99
			c0.96,2.218,3.539,4.187,6.647,4.981c3.548,0.906,5.497-0.387,6.855-2.663c0.323-0.544,1.913-4.852,1.48-4.738
			c-0.947,0.251,0.916,3.668,1.253,4.197c1.177,1.846,2.877,3.654,6.023,2.637c3.605-1.166,5.397-4.456,5.652-7.029
			c0.035-0.356-0.723-0.343-0.776,0c-0.46,2.898-0.215,6.757,4.858,7.398c5.981,0.757,9.335-3.231,10.695-6.677h-0.837
			c0.375,1.801-1.229,7.055,3.884,6.612c3.896-0.339,5.232-4.649,5.24-6.835c0.001-0.35-0.77-0.351-0.773,0
			c-0.009,0.917-0.152,1.826-0.554,2.702c-0.247,0.55-0.587,1.064-1.02,1.548c-0.958,1.338-2.909,1.399-5.851,0.182
			c-0.704-1.231,0.21-3.013-0.09-4.371c-0.068-0.312-0.729-0.27-0.837,0c-1.181,2.929-3.768,6.473-8.895,6.251
			c-5.187-0.225-5.492-4.039-5.046-6.808h-0.776c-0.131,1.218-0.493,2.363-1.295,3.45c-1.46,1.979-2.098,2.388-5.197,2.274
			c-1.709,0.453-2.786,0.175-3.232-0.833c-0.479-0.602-0.863-1.227-1.157-1.879c-0.573-1.181-0.83-2.39-0.918-3.635
			c-0.021-0.303-0.619-0.294-0.659,0c-0.413,3.008-2.056,9.851-9.096,7.292c-3.496-1.271-5.573-3.967-5.358-6.695
			c0.021-0.259-0.499-0.281-0.608-0.059c-1.287,2.603-2.95,5.548-7.166,6.304c-6.063,1.084-7.178-3.217-6.567-6.353
			c0.062-0.312-0.52-0.439-0.679-0.132c-0.829,1.591-2.398,6.578-5.028,7.124c-4.888,1.017-5.938-3.462-5.891-5.748
			c0.007-0.337-0.683-0.323-0.728,0c-0.363,2.604-2.009,7.382-7.407,6.206c-3.434-0.749-2.265-3.845-4.005-5.463
			c-0.256-0.237-0.734-0.098-0.671,0.199c0.505,2.359-2.047,5.031-5.688,4.941c-1.587-0.039-3.152-0.75-3.912-1.726
			c-0.194-0.247-0.461-2.798-0.418-2.78c0.031,0.014-1.451,2.046-1.517,2.13c-0.764,0.971-2.285,3.552-4.516,0.984
			c-0.36-0.415-0.03-1.641-0.037-2.107l-0.056-2.951C119.496,18.689,119.045,18.688,119.045,18.896"/>
	</g>
	<rect x="0.076" y="35.742" fill="#356D47" width="148.848" height="12.829"/>
	<rect x="105.894" y="-2.628" fill="#356D47" width="12.828" height="305.467"/>
	<path fill="#20442C" d="M132.751,42.646c0.106-0.442,0.029-0.922-0.049-1.386c-0.366-2.182-0.746-4.404-1.745-6.419
		c-1-2.014-2.739-3.821-4.859-4.313c-3.021-0.701-5.731,1.361-7.79,3.488c-2.61,2.698-4.968,5.861-6.203,9.449
		c-0.07-0.017-0.146-0.023-0.228-0.019c-0.034-0.04-0.079-0.071-0.11-0.113c-0.118-0.135-0.36-0.157-0.521-0.064
		c-0.126,0.015-0.247,0.067-0.34,0.16c-0.04,0.041-0.076,0.092-0.115,0.136c-1.396-4.138-4.26-7.808-7.408-10.921
		c-2.286-2.261-5.259-4.477-8.412-3.848c-2.213,0.439-3.955,2.249-4.904,4.296c-0.949,2.046-1.232,4.328-1.505,6.567
		c-0.058,0.477-0.114,0.969,0.022,1.428c0.453,1.522,2.49,1.702,4.078,1.723c5.408,0.068,10.611,1.741,15.678,3.73
		c-5.208,4.537-11.813,7.458-18.681,8.219c-0.555,0.062-1.208,0.171-1.457,0.672c-0.401,0.806,0.616,1.568,1.469,1.856
		c2.609,0.883,5.388,1.264,8.139,1.119c0.009,3.35,0.017,6.699,0.025,10.049c4.349-1.526,7.9-4.977,9.938-9.11
		c1.529-3.105,2.238-6.567,2.263-10.037c0.154,0.217,0.376,0.337,0.687,0.302c0.063,3.368,0.767,6.721,2.252,9.735
		c2.036,4.134,5.588,7.584,9.937,9.11l0.026-10.049c2.752,0.145,5.528-0.236,8.138-1.119c0.853-0.288,1.87-1.051,1.47-1.856
		c-0.25-0.501-0.901-0.61-1.458-0.672c-6.321-0.7-12.419-3.233-17.411-7.169c4.897-1.885,9.947-3.488,15.292-3.393
		C130.472,44.225,132.396,44.109,132.751,42.646"/>
	<text transform="matrix(1 0 0 1 52.8896 95.1592)" fill="#20442C" font-family="'Corben-Regular'" font-size="48">7</text>
</g>
</svg>
