<?xml version="1.0" encoding="utf-8"?>
<!-- Generator: Adobe Illustrator 16.0.3, SVG Export Plug-In . SVG Version: 6.00 Build 0)  -->
<!DOCTYPE svg PUBLIC "-//W3C//DTD SVG 1.1//EN" "http://www.w3.org/Graphics/SVG/1.1/DTD/svg11.dtd">
<svg version="1.1" xmlns="http://www.w3.org/2000/svg" xmlns:xlink="http://www.w3.org/1999/xlink" x="0px" y="0px" width="150px"
	 height="149.193px" viewBox="0 0 150 149.193" enable-background="new 0 0 150 149.193" xml:space="preserve">
<g id="Background">
</g>
<g id="Capa_3">
	<g id="_x36__4_">
		<g>
			<rect x="-82.291" fill-rule="evenodd" clip-rule="evenodd" fill="#FFFFFF" width="305.238" height="149.193"/>
		</g>
	</g>
	<path fill="#8D0F24" d="M0.172,42.335c-1.015-1.609-1.627-3.721-1.88-5.894c-0.058-0.043-0.104-0.103-0.123-0.188
		c-0.094-0.462-0.162-0.926-0.229-1.39c-0.531,2.168-1.68,4.499-3.389,5.454c-0.267,0.149-0.497-0.144-0.388-0.392
		c0.53-1.196,1.49-2.196,2.063-3.393c0.623-1.294,0.949-2.664,1.27-4.055c0.029-0.13,0.113-0.208,0.215-0.248
		c-0.036-1.041-0.019-2.084,0.063-3.127c-0.574,0.922-1.203,1.811-1.874,2.671c-1.051,1.35-2.259,3.042-3.843,3.783
		c-0.21,0.098-0.433-0.105-0.318-0.32c0.774-1.459,2.198-2.605,3.229-3.896c1.131-1.423,2.107-2.942,3.08-4.474
		c0.139-0.895,0.312-1.788,0.525-2.674c-1.565,2.095-4.22,3.885-6.527,3.975c-0.296,0.011-0.338-0.37-0.133-0.515
		c1.338-0.957,2.878-1.525,4.177-2.57c1.177-0.946,2.049-2.159,3.129-3.2c0.219-0.697,0.463-1.388,0.722-2.073
		c-2.495,2.067-5.776,3.734-8.72,3.642c-0.288-0.009-0.426-0.425-0.148-0.567c1.832-0.935,3.868-1.336,5.708-2.311
		c1.356-0.717,2.623-1.586,3.859-2.492c0.412-0.954,0.854-1.891,1.332-2.808c-2.264,2.088-5.521,3.597-8.45,3.087
		c-0.288-0.05-0.233-0.457,0.005-0.532c1.706-0.539,3.41-0.732,5.045-1.532c1.61-0.789,2.961-1.917,4.265-3.134
		c0.104-0.098,0.237-0.113,0.36-0.083c0.271-0.455,0.547-0.902,0.831-1.343c-2.427,1.529-5.514,2.384-8.031,1.755
		C-4.227,13.439-4.215,13.108-4,13.052c1.872-0.491,3.736-0.618,5.554-1.354c1.58-0.64,2.911-1.585,4.275-2.561
		c0.891-1.198,1.839-2.361,2.836-3.49C5.677,7.473,1.754,8.922-1.487,8.621c-0.271-0.025-0.303-0.366-0.056-0.46
		c1.797-0.691,3.755-0.933,5.588-1.55c2.09-0.706,4.021-1.726,6.003-2.677c0.08-0.038,0.153-0.042,0.219-0.029
		c0.159-0.164,0.312-0.333,0.473-0.497c0.117-0.213,0.247-0.41,0.376-0.609C8.591,3.84,5.853,4.402,3.339,3.948
		C3.073,3.899,3.098,3.492,3.344,3.433C5.356,2.955,7.43,2.932,9.438,2.352c1.391-0.402,2.748-0.947,4.058-1.582
		c0.95-0.855,1.927-1.683,2.925-2.485c-2.44,0.808-5.036,1.174-7.316,0.661C8.88-1.105,8.894-1.443,9.108-1.497
		c1.932-0.474,3.939-0.472,5.883-0.942c1.529-0.37,2.983-0.92,4.412-1.543c3.663-2.636,7.556-4.933,11.504-6.839
		c0.63-0.305,1.147,0.566,0.546,0.947c-2.97,1.887-5.944,3.755-8.831,5.722c-0.235,1.773-0.866,3.468-0.993,5.283
		c-0.139,1.983,0.344,3.885,0.319,5.844c-0.004,0.293-0.436,0.43-0.576,0.15c-1.334-2.661-1.232-7.493,0.173-10.539
		c-0.737,0.514-1.466,1.039-2.188,1.569c-0.797,2.21-1.406,4.439-1.554,6.829c-0.183,2.926,0.488,5.655,0.934,8.513
		c0.043,0.276-0.339,0.486-0.489,0.2c-2.21-4.207-1.986-9.883-0.299-14.486c-0.958,0.734-1.9,1.487-2.82,2.267
		c-1.398,2.112-1.333,5.944-1.333,7.947c0,2.61,0.614,5.114,0.828,7.696c0.021,0.25-0.373,0.348-0.48,0.124
		c-1.63-3.419-1.601-7.786-1.098-11.465c0.116-0.856,0.226-1.908,0.48-2.894c-0.921,0.837-1.819,1.702-2.687,2.604
		c-0.404,1.849-0.845,3.682-0.924,5.621c-0.12,2.968,0.597,5.74,0.899,8.657c0.027,0.263-0.386,0.357-0.498,0.13
		c-1.641-3.346-1.979-8.523-0.952-12.799C8.571,8.001,7.803,8.937,7.07,9.916c-0.424,1.996-0.772,3.97-0.704,6.062
		c0.088,2.727,0.909,5.142,1.53,7.754c0.072,0.304-0.343,0.475-0.506,0.208c-2.003-3.266-2.521-7.918-1.75-11.984
		c-0.774,1.166-1.478,2.354-2.115,3.562c-0.245,2.576-0.438,5.1-0.146,7.717c0.35,3.127,1.521,5.893,2.227,8.916
		c0.07,0.299-0.313,0.435-0.479,0.198c-2.576-3.676-3.414-9.312-2.869-14.193c-0.307,0.7-0.594,1.407-0.855,2.12
		c0.123,0.101,0.174,0.313,0.052,0.459c-1.78,2.126-0.426,7.359,0.037,9.771c0.551,2.868,1.604,5.542,2.359,8.347
		c0.101,0.376-0.441,0.602-0.635,0.261c-1.89-3.328-2.716-7.399-3.147-11.169C0,27.344-0.117,26.62-0.21,25.856
		c-0.283,1.343-0.495,2.708-0.647,4.091c0.028,0.042,0.048,0.09,0.049,0.15c0.007,2.047-0.127,4.047,0.133,6.09
		c0.261,2.046,1.008,3.924,1.361,5.936C0.74,42.43,0.347,42.612,0.172,42.335 M11.538,2.619c-0.057,0.023-0.115,0.049-0.173,0.073
		c-0.005,0.039-0.012,0.076-0.018,0.114C11.411,2.743,11.475,2.681,11.538,2.619"/>
	<path fill="#03532E" d="M62.561,0.125c-5.414,7.248-4.531,17.965-7.862,26.592c-0.854,2.212-3.101,4.58-5.07,3.151
		c-0.565-0.411-0.936-1.062-1.229-1.713c-1.168-2.597-1.39-5.599-0.607-8.218c-4.295,5.647-3.773,14.03-6.508,20.739
		c-0.255,0.626-0.557,1.259-1.068,1.666c-0.991,0.781-2.537,0.45-3.548-0.448c-1.009-0.9-1.577-2.229-1.969-3.541
		c-0.716-2.4-0.962-4.925-0.716-7.362c-1.098,5.539-5.631,9.903-10.976,10.569c-0.637,0.079-1.357,0.083-1.865-0.376
		c-0.517-0.467-0.626-1.247-0.646-1.942c-0.181-6.332,3.714-11.594,7.419-16.296c-2.192,0.813-5.401,1.172-6.36-1.191
		c-0.595-1.464,0.2-3.031,1.078-4.216c3.524-4.753,8.888-7.894,14.698-8.609c-2.186,0.449-4.024-2.701-3.341-4.925
		c0.684-2.223,2.832-3.46,4.91-4.247c7.151-2.707,15.491-2.27,22.746,1.192"/>
	<path fill="#67B86B" d="M50.153,6.667c0.104-0.071,0.204-0.151,0.31-0.222c1.652-1.123,3.353-2.173,5.093-3.146
		c2.111-1.181,4.988-1.983,6.414-4.059c0.204-0.296,0.74-0.126,0.696,0.287c-0.308,2.912-4.465,3.827-6.527,5.012
		c-1.039,0.596-2.063,1.223-3.071,1.875c0.171,0.095,0.292,0.292,0.206,0.507c-1.016,2.543-1.914,5.051-2.268,7.848
		c-0.324,2.566-0.019,5.09-0.077,7.671c-0.007,0.286-0.451,0.387-0.551,0.086c-1.626-4.958-0.339-11.379,1.995-15.648
		c-0.279,0.186-0.561,0.369-0.838,0.559c0.128,0.271-0.062,0.626-0.416,0.509c-0.069-0.025-0.138-0.046-0.207-0.07
		c-2.232,1.568-4.376,3.263-6.419,5.079c-1.807,1.607-3.487,3.304-5.065,5.076c0.328,2.282,0.393,4.591,0.532,6.875
		c0.181,2.984,0.617,6.145,0.246,9.074c-0.037,0.302-0.436,0.318-0.513,0.005c-0.633-2.596-0.6-5.37-0.757-8.005
		c-0.138-2.31-0.356-4.656-0.357-6.972c-4.361,5.083-7.972,10.751-11.464,16.715c-0.221,0.378-0.862,0.029-0.697-0.397
		c2.359-6.056,6.002-11.535,10.176-16.374c-1.241,0.267-2.491,0.5-3.722,0.803c-1.717,0.423-3.395,1.148-5.161,1.315
		c-0.353,0.034-0.479-0.436-0.199-0.61c2.658-1.661,6.801-2.36,10.009-2.566c1.001-1.119,2.027-2.203,3.071-3.248
		c2.679-2.682,5.575-5.128,8.639-7.317c-1.684-0.532-3.369-0.986-5.119-1.189c-2.159-0.25-4.291,0.109-6.433-0.15
		c-0.232-0.028-0.309-0.387-0.095-0.481C41.081,3.979,46.353,4.988,50.153,6.667"/>
	<path fill="#8D0F24" d="M146.901,42.795c-0.175,0.277-0.568,0.095-0.514-0.211c0.354-2.012,1.101-3.889,1.361-5.936
		c0.26-2.042,0.126-4.043,0.133-6.09c0.001-0.06,0.021-0.108,0.049-0.15c-0.152-1.384-0.364-2.748-0.647-4.091
		c-0.093,0.764-0.21,1.488-0.278,2.087c-0.432,3.77-1.258,7.841-3.147,11.169c-0.193,0.341-0.735,0.115-0.635-0.261
		c0.756-2.805,1.809-5.479,2.359-8.347c0.463-2.412,1.817-7.645,0.037-9.771c-0.122-0.146-0.071-0.359,0.052-0.459
		c-0.262-0.713-0.549-1.42-0.855-2.12c0.545,4.881-0.293,10.517-2.869,14.193c-0.166,0.236-0.55,0.101-0.479-0.198
		c0.706-3.023,1.877-5.789,2.227-8.916c0.293-2.617,0.1-5.141-0.146-7.717c-0.638-1.207-1.341-2.396-2.115-3.562
		c0.771,4.066,0.253,8.719-1.75,11.984c-0.163,0.267-0.578,0.096-0.506-0.208c0.621-2.612,1.442-5.027,1.53-7.754
		c0.068-2.092-0.28-4.066-0.704-6.062c-0.732-0.979-1.501-1.915-2.294-2.816c1.026,4.276,0.688,9.453-0.952,12.799
		c-0.112,0.228-0.525,0.133-0.498-0.13c0.303-2.917,1.02-5.689,0.899-8.657c-0.079-1.939-0.52-3.772-0.924-5.621
		c-0.867-0.903-1.766-1.767-2.687-2.604c0.255,0.986,0.364,2.038,0.48,2.894c0.503,3.679,0.532,8.046-1.098,11.465
		c-0.107,0.224-0.501,0.126-0.48-0.124c0.214-2.582,0.828-5.086,0.828-7.696c0-2.003,0.065-5.835-1.333-7.947
		c-0.92-0.78-1.862-1.532-2.82-2.267c1.688,4.603,1.911,10.279-0.299,14.486c-0.15,0.286-0.532,0.076-0.489-0.2
		c0.445-2.858,1.116-5.587,0.934-8.513c-0.147-2.39-0.757-4.619-1.554-6.829c-0.723-0.53-1.451-1.056-2.188-1.569
		c1.405,3.046,1.507,7.877,0.173,10.539c-0.141,0.279-0.572,0.143-0.576-0.15c-0.024-1.959,0.458-3.861,0.319-5.844
		c-0.127-1.814-0.758-3.51-0.993-5.283c-2.887-1.966-5.861-3.834-8.831-5.722c-0.602-0.38-0.084-1.251,0.546-0.947
		c3.948,1.906,7.841,4.203,11.504,6.839c1.429,0.624,2.883,1.173,4.412,1.543c1.943,0.471,3.951,0.468,5.883,0.942
		c0.215,0.053,0.229,0.392,0.005,0.442c-2.28,0.514-4.876,0.147-7.316-0.661c0.998,0.802,1.975,1.629,2.925,2.485
		c1.31,0.635,2.667,1.18,4.058,1.582c2.008,0.581,4.081,0.603,6.094,1.082c0.246,0.059,0.271,0.466,0.005,0.515
		c-2.514,0.454-5.252-0.107-7.776-1.149c0.129,0.199,0.259,0.396,0.376,0.609c0.161,0.164,0.313,0.333,0.473,0.497
		c0.065-0.012,0.139-0.009,0.219,0.029c1.982,0.952,3.913,1.971,6.003,2.677c1.833,0.618,3.791,0.859,5.588,1.55
		c0.247,0.095,0.215,0.436-0.056,0.46c-3.241,0.301-7.164-1.148-10.152-2.975c0.997,1.129,1.945,2.292,2.836,3.49
		c1.364,0.976,2.695,1.92,4.275,2.561c1.817,0.737,3.682,0.863,5.554,1.354c0.215,0.057,0.227,0.387,0.003,0.442
		c-2.518,0.629-5.604-0.226-8.031-1.755c0.284,0.441,0.561,0.888,0.831,1.343c0.123-0.031,0.257-0.015,0.36,0.083
		c1.304,1.217,2.654,2.345,4.265,3.134c1.635,0.8,3.339,0.994,5.045,1.532c0.238,0.075,0.293,0.482,0.005,0.532
		c-2.929,0.51-6.187-0.999-8.45-3.087c0.478,0.917,0.92,1.854,1.332,2.808c1.236,0.906,2.503,1.775,3.859,2.492
		c1.84,0.975,3.876,1.376,5.708,2.311c0.277,0.142,0.14,0.558-0.148,0.567c-2.943,0.092-6.225-1.575-8.72-3.642
		c0.259,0.685,0.503,1.376,0.722,2.073c1.08,1.041,1.952,2.254,3.129,3.2c1.299,1.044,2.839,1.613,4.177,2.57
		c0.205,0.145,0.163,0.526-0.133,0.515c-2.308-0.09-4.962-1.88-6.527-3.975c0.214,0.886,0.387,1.779,0.525,2.674
		c0.973,1.531,1.949,3.051,3.08,4.474c1.03,1.291,2.454,2.437,3.229,3.896c0.114,0.215-0.108,0.417-0.318,0.32
		c-1.584-0.741-2.792-2.434-3.843-3.783c-0.671-0.86-1.3-1.75-1.874-2.671c0.082,1.043,0.1,2.086,0.063,3.127
		c0.102,0.039,0.186,0.117,0.215,0.248c0.32,1.392,0.646,2.761,1.27,4.055c0.573,1.197,1.533,2.197,2.063,3.393
		c0.109,0.248-0.121,0.541-0.388,0.392c-1.709-0.955-2.857-3.286-3.389-5.454c-0.066,0.464-0.135,0.928-0.229,1.39
		c-0.019,0.086-0.065,0.146-0.123,0.188C148.528,39.074,147.916,41.186,146.901,42.795 M135.535,3.079
		c0.063,0.062,0.127,0.125,0.19,0.188c-0.006-0.038-0.013-0.076-0.018-0.114C135.65,3.127,135.592,3.102,135.535,3.079"/>
	<path fill="#03532E" d="M84.513,0.585c5.414,7.248,4.531,17.965,7.862,26.592c0.854,2.212,3.101,4.58,5.07,3.151
		c0.565-0.411,0.936-1.062,1.229-1.713c1.168-2.597,1.39-5.599,0.607-8.218c4.295,5.647,3.773,14.03,6.508,20.739
		c0.255,0.626,0.557,1.259,1.068,1.666c0.991,0.781,2.537,0.45,3.548-0.448c1.009-0.9,1.577-2.229,1.969-3.541
		c0.716-2.4,0.962-4.925,0.716-7.362c1.098,5.539,5.631,9.903,10.976,10.569c0.637,0.079,1.357,0.083,1.865-0.376
		c0.517-0.467,0.626-1.247,0.646-1.942c0.181-6.332-3.714-11.594-7.419-16.296c2.192,0.813,5.401,1.172,6.36-1.191
		c0.595-1.464-0.2-3.031-1.078-4.216c-3.524-4.753-8.888-7.894-14.698-8.609c2.186,0.449,4.024-2.701,3.341-4.925
		c-0.684-2.223-2.832-3.46-4.91-4.247c-7.151-2.707-15.491-2.27-22.746,1.192"/>
	<path fill="#67B86B" d="M96.92,7.127c-0.104-0.071-0.204-0.151-0.31-0.222c-1.652-1.123-3.353-2.173-5.093-3.146
		c-2.111-1.181-4.988-1.983-6.414-4.059c-0.204-0.296-0.74-0.126-0.696,0.287c0.308,2.912,4.465,3.827,6.527,5.012
		c1.039,0.596,2.063,1.223,3.071,1.875C93.835,6.968,93.714,7.166,93.8,7.38c1.016,2.543,1.914,5.051,2.268,7.848
		c0.324,2.566,0.019,5.09,0.077,7.671c0.007,0.286,0.451,0.387,0.551,0.086c1.626-4.958,0.339-11.379-1.995-15.648
		c0.279,0.186,0.561,0.369,0.838,0.559C95.41,8.167,95.6,8.522,95.954,8.405c0.069-0.025,0.138-0.046,0.207-0.07
		c2.232,1.568,4.376,3.263,6.419,5.079c1.807,1.607,3.487,3.304,5.065,5.076c-0.328,2.282-0.393,4.591-0.532,6.875
		c-0.181,2.984-0.617,6.145-0.246,9.074c0.037,0.302,0.436,0.318,0.513,0.005c0.633-2.596,0.6-5.37,0.757-8.005
		c0.138-2.31,0.356-4.656,0.357-6.972c4.361,5.083,7.972,10.751,11.464,16.715c0.221,0.378,0.862,0.029,0.697-0.397
		c-2.359-6.056-6.002-11.535-10.176-16.374c1.241,0.267,2.491,0.5,3.722,0.803c1.717,0.423,3.395,1.148,5.161,1.315
		c0.353,0.034,0.479-0.436,0.199-0.61c-2.658-1.661-6.801-2.36-10.009-2.566c-1.001-1.119-2.027-2.203-3.071-3.248
		c-2.679-2.682-5.575-5.128-8.639-7.317c1.684-0.532,3.369-0.986,5.119-1.189c2.159-0.25,4.291,0.109,6.433-0.15
		c0.232-0.028,0.309-0.387,0.095-0.481C105.992,4.438,100.721,5.448,96.92,7.127"/>
	<path fill="#8D0F24" d="M-4.41,104.613c0.175-0.277,0.568-0.095,0.514,0.211c-0.354,2.012-1.101,3.889-1.361,5.936
		c-0.26,2.042-0.126,4.043-0.133,6.09c-0.001,0.06-0.021,0.108-0.049,0.15c0.152,1.384,0.364,2.748,0.647,4.091
		c0.093-0.764,0.21-1.488,0.278-2.087c0.432-3.77,1.258-7.841,3.147-11.169c0.193-0.341,0.735-0.115,0.635,0.261
		c-0.756,2.805-1.809,5.479-2.359,8.347c-0.463,2.412-1.817,7.645-0.037,9.771c0.122,0.146,0.071,0.359-0.052,0.459
		c0.262,0.713,0.549,1.42,0.855,2.12c-0.545-4.881,0.293-10.517,2.869-14.193c0.166-0.236,0.55-0.101,0.479,0.198
		c-0.706,3.023-1.877,5.789-2.227,8.916c-0.293,2.617-0.1,5.141,0.146,7.717c0.638,1.207,1.341,2.396,2.115,3.562
		c-0.771-4.066-0.253-8.719,1.75-11.984c0.163-0.267,0.578-0.096,0.506,0.208c-0.621,2.612-1.442,5.027-1.53,7.754
		c-0.068,2.092,0.28,4.066,0.704,6.062c0.732,0.979,1.501,1.915,2.294,2.816c-1.026-4.276-0.688-9.453,0.952-12.799
		c0.112-0.228,0.525-0.133,0.498,0.13c-0.303,2.917-1.02,5.689-0.899,8.657c0.079,1.939,0.52,3.772,0.924,5.621
		c0.867,0.903,1.766,1.767,2.687,2.604c-0.255-0.986-0.364-2.038-0.48-2.894c-0.503-3.679-0.532-8.046,1.098-11.465
		c0.107-0.224,0.501-0.126,0.48,0.124c-0.214,2.582-0.828,5.086-0.828,7.696c0,2.003-0.065,5.835,1.333,7.947
		c0.92,0.78,1.862,1.532,2.82,2.267c-1.688-4.603-1.911-10.279,0.299-14.486c0.15-0.286,0.532-0.076,0.489,0.2
		c-0.445,2.858-1.116,5.587-0.934,8.513c0.147,2.39,0.757,4.619,1.554,6.829c0.723,0.53,1.451,1.056,2.188,1.569
		c-1.405-3.046-1.507-7.877-0.173-10.539c0.141-0.279,0.572-0.143,0.576,0.15c0.024,1.959-0.458,3.861-0.319,5.844
		c0.127,1.814,0.758,3.51,0.993,5.283c2.887,1.966,5.861,3.834,8.831,5.722c0.602,0.38,0.084,1.251-0.546,0.947
		c-3.948-1.906-7.841-4.203-11.504-6.839c-1.429-0.624-2.883-1.173-4.412-1.543c-1.943-0.471-3.951-0.468-5.883-0.942
		c-0.215-0.053-0.229-0.392-0.005-0.442c2.28-0.514,4.876-0.147,7.316,0.661c-0.998-0.802-1.975-1.629-2.925-2.485
		c-1.31-0.635-2.667-1.18-4.058-1.582c-2.008-0.581-4.081-0.603-6.094-1.082c-0.246-0.059-0.271-0.466-0.005-0.515
		c2.514-0.454,5.252,0.107,7.776,1.149c-0.129-0.199-0.259-0.396-0.376-0.609c-0.161-0.164-0.313-0.333-0.473-0.497
		c-0.065,0.012-0.139,0.009-0.219-0.029c-1.982-0.952-3.913-1.971-6.003-2.677c-1.833-0.618-3.791-0.859-5.588-1.55
		c-0.247-0.095-0.215-0.436,0.056-0.46c3.241-0.301,7.164,1.148,10.152,2.975c-0.997-1.129-1.945-2.292-2.836-3.49
		c-1.364-0.976-2.695-1.92-4.275-2.561c-1.817-0.737-3.682-0.863-5.554-1.354c-0.215-0.057-0.227-0.387-0.003-0.442
		c2.518-0.629,5.604,0.226,8.031,1.755c-0.284-0.441-0.561-0.888-0.831-1.343c-0.123,0.031-0.257,0.015-0.36-0.083
		c-1.304-1.217-2.654-2.345-4.265-3.134c-1.635-0.8-3.339-0.994-5.045-1.532c-0.238-0.075-0.293-0.482-0.005-0.532
		c2.929-0.51,6.187,0.999,8.45,3.087c-0.478-0.917-0.92-1.854-1.332-2.808c-1.236-0.906-2.503-1.775-3.859-2.492
		c-1.84-0.975-3.876-1.376-5.708-2.311c-0.277-0.142-0.14-0.558,0.148-0.567c2.943-0.092,6.225,1.575,8.72,3.642
		c-0.259-0.685-0.503-1.376-0.722-2.073c-1.08-1.041-1.952-2.254-3.129-3.2c-1.299-1.044-2.839-1.613-4.177-2.57
		c-0.205-0.145-0.163-0.526,0.133-0.515c2.308,0.09,4.962,1.88,6.527,3.975c-0.214-0.886-0.387-1.779-0.525-2.674
		c-0.973-1.531-1.949-3.051-3.08-4.474c-1.03-1.291-2.454-2.437-3.229-3.896c-0.114-0.215,0.108-0.417,0.318-0.32
		c1.584,0.741,2.792,2.434,3.843,3.783c0.671,0.86,1.3,1.75,1.874,2.671c-0.082-1.043-0.1-2.086-0.063-3.127
		c-0.102-0.039-0.186-0.117-0.215-0.248c-0.32-1.392-0.646-2.761-1.27-4.055c-0.573-1.197-1.533-2.197-2.063-3.393
		c-0.109-0.248,0.121-0.541,0.388-0.392c1.709,0.955,2.857,3.286,3.389,5.454c0.066-0.464,0.135-0.928,0.229-1.39
		c0.019-0.086,0.065-0.146,0.123-0.188C-6.037,108.334-5.425,106.222-4.41,104.613 M6.956,144.329
		c-0.063-0.062-0.127-0.125-0.19-0.188c0.006,0.038,0.013,0.076,0.018,0.114C6.841,144.28,6.899,144.306,6.956,144.329"/>
	<path fill="#03532E" d="M57.979,146.823c-5.414-7.248-4.531-17.965-7.862-26.592c-0.854-2.212-3.101-4.58-5.07-3.151
		c-0.565,0.411-0.936,1.062-1.229,1.713c-1.168,2.597-1.39,5.599-0.607,8.218c-4.295-5.647-3.773-14.03-6.508-20.739
		c-0.255-0.626-0.557-1.259-1.068-1.666c-0.991-0.781-2.537-0.45-3.548,0.448c-1.009,0.9-1.577,2.229-1.969,3.541
		c-0.716,2.4-0.962,4.925-0.716,7.362c-1.098-5.539-5.631-9.903-10.976-10.569c-0.637-0.079-1.357-0.083-1.865,0.376
		c-0.517,0.467-0.626,1.247-0.646,1.942c-0.181,6.332,3.714,11.594,7.419,16.296c-2.192-0.813-5.401-1.172-6.36,1.191
		c-0.595,1.464,0.2,3.031,1.078,4.216c3.524,4.753,8.888,7.894,14.698,8.609c-2.186-0.449-4.024,2.701-3.341,4.925
		c0.684,2.223,2.832,3.46,4.91,4.247c7.151,2.707,15.491,2.27,22.746-1.192"/>
	<path fill="#67B86B" d="M45.571,140.281c0.104,0.071,0.204,0.151,0.31,0.222c1.652,1.123,3.353,2.173,5.093,3.146
		c2.111,1.181,4.988,1.983,6.414,4.059c0.204,0.296,0.74,0.126,0.696-0.287c-0.308-2.912-4.465-3.827-6.527-5.012
		c-1.039-0.596-2.063-1.223-3.071-1.875c0.171-0.095,0.292-0.292,0.206-0.507c-1.016-2.543-1.914-5.051-2.268-7.848
		c-0.324-2.566-0.019-5.09-0.077-7.671c-0.007-0.286-0.451-0.387-0.551-0.086c-1.626,4.958-0.339,11.379,1.995,15.648
		c-0.279-0.186-0.561-0.369-0.838-0.559c0.128-0.271-0.062-0.626-0.416-0.509c-0.069,0.025-0.138,0.046-0.207,0.07
		c-2.232-1.568-4.376-3.263-6.419-5.079c-1.807-1.607-3.487-3.304-5.065-5.076c0.328-2.282,0.393-4.591,0.532-6.875
		c0.181-2.984,0.617-6.145,0.246-9.074c-0.037-0.302-0.436-0.318-0.513-0.005c-0.633,2.596-0.6,5.37-0.757,8.005
		c-0.138,2.31-0.356,4.656-0.357,6.972c-4.361-5.083-7.972-10.751-11.464-16.715c-0.221-0.378-0.862-0.029-0.697,0.397
		c2.359,6.056,6.002,11.535,10.176,16.374c-1.241-0.267-2.491-0.5-3.722-0.803c-1.717-0.423-3.395-1.148-5.161-1.315
		c-0.353-0.034-0.479,0.436-0.199,0.61c2.658,1.661,6.801,2.36,10.009,2.566c1.001,1.119,2.027,2.203,3.071,3.248
		c2.679,2.682,5.575,5.128,8.639,7.317c-1.684,0.532-3.369,0.986-5.119,1.189c-2.159,0.25-4.291-0.109-6.433,0.15
		c-0.232,0.028-0.309,0.387-0.095,0.481C36.499,142.969,41.771,141.96,45.571,140.281"/>
	<path fill="#8D0F24" d="M142.319,106.85c1.015,1.609,1.627,3.721,1.88,5.894c0.058,0.043,0.104,0.103,0.123,0.188
		c0.094,0.462,0.162,0.926,0.229,1.39c0.531-2.168,1.68-4.499,3.389-5.454c0.267-0.149,0.497,0.144,0.388,0.392
		c-0.53,1.196-1.49,2.196-2.063,3.393c-0.623,1.294-0.949,2.664-1.27,4.055c-0.029,0.13-0.113,0.208-0.215,0.248
		c0.036,1.041,0.019,2.084-0.063,3.127c0.574-0.922,1.203-1.811,1.874-2.671c1.051-1.35,2.259-3.042,3.843-3.783
		c0.21-0.098,0.433,0.105,0.318,0.32c-0.774,1.459-2.198,2.605-3.229,3.896c-1.131,1.423-2.107,2.942-3.08,4.474
		c-0.139,0.895-0.312,1.788-0.525,2.674c1.565-2.095,4.22-3.885,6.527-3.975c0.296-0.011,0.338,0.37,0.133,0.515
		c-1.338,0.957-2.878,1.525-4.177,2.57c-1.177,0.946-2.049,2.159-3.129,3.2c-0.219,0.697-0.463,1.388-0.722,2.073
		c2.495-2.067,5.776-3.734,8.72-3.642c0.288,0.009,0.426,0.425,0.148,0.567c-1.832,0.935-3.868,1.336-5.708,2.311
		c-1.356,0.717-2.623,1.586-3.859,2.492c-0.412,0.954-0.854,1.891-1.332,2.808c2.264-2.088,5.521-3.597,8.45-3.087
		c0.288,0.05,0.233,0.457-0.005,0.532c-1.706,0.539-3.41,0.732-5.045,1.532c-1.61,0.789-2.961,1.917-4.265,3.134
		c-0.104,0.098-0.237,0.113-0.36,0.083c-0.271,0.455-0.547,0.902-0.831,1.343c2.427-1.529,5.514-2.384,8.031-1.755
		c0.224,0.055,0.212,0.386-0.003,0.442c-1.872,0.491-3.736,0.618-5.554,1.354c-1.58,0.64-2.911,1.585-4.275,2.561
		c-0.891,1.198-1.839,2.361-2.836,3.49c2.988-1.826,6.911-3.275,10.152-2.975c0.271,0.025,0.303,0.366,0.056,0.46
		c-1.797,0.691-3.755,0.933-5.588,1.55c-2.09,0.706-4.021,1.726-6.003,2.677c-0.08,0.038-0.153,0.042-0.219,0.029
		c-0.159,0.164-0.312,0.333-0.473,0.497c-0.117,0.213-0.247,0.41-0.376,0.609c2.524-1.042,5.263-1.604,7.776-1.149
		c0.266,0.048,0.241,0.456-0.005,0.515c-2.013,0.479-4.086,0.501-6.094,1.082c-1.391,0.402-2.748,0.947-4.058,1.582
		c-0.95,0.855-1.927,1.683-2.925,2.485c2.44-0.808,5.036-1.174,7.316-0.661c0.224,0.051,0.21,0.389-0.005,0.442
		c-1.932,0.474-3.939,0.472-5.883,0.942c-1.529,0.37-2.983,0.92-4.412,1.543c-3.663,2.636-7.556,4.933-11.504,6.839
		c-0.63,0.305-1.147-0.566-0.546-0.947c2.97-1.887,5.944-3.755,8.831-5.722c0.235-1.773,0.866-3.468,0.993-5.283
		c0.139-1.983-0.344-3.885-0.319-5.844c0.004-0.293,0.436-0.43,0.576-0.15c1.334,2.661,1.232,7.493-0.173,10.539
		c0.737-0.514,1.466-1.039,2.188-1.569c0.797-2.21,1.406-4.439,1.554-6.829c0.183-2.926-0.488-5.655-0.934-8.513
		c-0.043-0.276,0.339-0.486,0.489-0.2c2.21,4.207,1.986,9.883,0.299,14.486c0.958-0.734,1.9-1.487,2.82-2.267
		c1.398-2.112,1.333-5.944,1.333-7.947c0-2.61-0.614-5.114-0.828-7.696c-0.021-0.25,0.373-0.348,0.48-0.124
		c1.63,3.419,1.601,7.786,1.098,11.465c-0.116,0.856-0.226,1.908-0.48,2.894c0.921-0.837,1.819-1.702,2.687-2.604
		c0.404-1.849,0.845-3.682,0.924-5.621c0.12-2.968-0.597-5.74-0.899-8.657c-0.027-0.263,0.386-0.357,0.498-0.13
		c1.641,3.346,1.979,8.523,0.952,12.799c0.793-0.902,1.562-1.837,2.294-2.816c0.424-1.996,0.772-3.97,0.704-6.062
		c-0.088-2.727-0.909-5.142-1.53-7.754c-0.072-0.304,0.343-0.475,0.506-0.208c2.003,3.266,2.521,7.918,1.75,11.984
		c0.774-1.166,1.478-2.354,2.115-3.562c0.245-2.576,0.438-5.1,0.146-7.717c-0.35-3.127-1.521-5.893-2.227-8.916
		c-0.07-0.299,0.313-0.435,0.479-0.198c2.576,3.676,3.414,9.312,2.869,14.193c0.307-0.7,0.594-1.407,0.855-2.12
		c-0.123-0.101-0.174-0.313-0.052-0.459c1.78-2.126,0.426-7.359-0.037-9.771c-0.551-2.868-1.604-5.542-2.359-8.347
		c-0.101-0.376,0.441-0.602,0.635-0.261c1.89,3.328,2.716,7.399,3.147,11.169c0.068,0.6,0.186,1.324,0.278,2.087
		c0.283-1.343,0.495-2.708,0.647-4.091c-0.028-0.042-0.048-0.09-0.049-0.15c-0.007-2.047,0.127-4.047-0.133-6.09
		c-0.261-2.046-1.008-3.924-1.361-5.936C141.751,106.755,142.145,106.573,142.319,106.85 M130.953,146.566
		c0.057-0.023,0.115-0.049,0.173-0.073c0.005-0.039,0.012-0.076,0.018-0.114C131.08,146.442,131.017,146.504,130.953,146.566"/>
	<path fill="#03532E" d="M184.386,151.795c-6.219-6.57-16.931-7.53-24.863-12.283c-2.031-1.22-3.982-3.838-2.239-5.534
		c0.502-0.488,1.205-0.741,1.898-0.919c2.758-0.707,5.752-0.414,8.2,0.803c-4.832-5.195-13.182-6.112-19.324-9.95
		c-0.574-0.359-1.148-0.763-1.458-1.338c-0.603-1.109-0.013-2.577,1.045-3.418c1.06-0.839,2.465-1.174,3.824-1.336
		c2.487-0.296,5.018-0.106,7.378,0.551c-5.271-2.026-8.8-7.239-8.543-12.617c0.03-0.641,0.149-1.352,0.689-1.774
		c0.547-0.429,1.336-0.404,2.023-0.305c6.269,0.903,10.79,5.638,14.792,10.091c-0.427-2.299-0.234-5.521,2.26-6.064
		c1.544-0.336,2.95,0.714,3.969,1.782c4.084,4.284,6.264,10.103,5.977,15.952c-0.07-2.23,3.347-3.504,5.422-2.452
		c2.075,1.053,2.927,3.381,3.347,5.563c1.448,7.508-0.406,15.65-5.054,22.209"/>
	<path fill="#03532E" d="M79.931,149.06c5.414-7.248,4.531-17.965,7.862-26.592c0.854-2.212,3.101-4.58,5.07-3.151
		c0.565,0.411,0.936,1.062,1.229,1.713c1.168,2.597,1.39,5.599,0.607,8.218c4.295-5.647,3.773-14.03,6.508-20.739
		c0.255-0.626,0.557-1.259,1.068-1.666c0.991-0.781,2.537-0.45,3.548,0.448c1.009,0.9,1.577,2.229,1.969,3.541
		c0.716,2.4,0.962,4.925,0.716,7.362c1.098-5.539,5.631-9.903,10.976-10.569c0.637-0.079,1.357-0.083,1.865,0.376
		c0.517,0.467,0.626,1.247,0.646,1.942c0.181,6.332-3.714,11.594-7.419,16.296c2.192-0.813,5.401-1.172,6.36,1.191
		c0.595,1.464-0.2,3.031-1.078,4.216c-3.524,4.753-8.888,7.894-14.698,8.609c2.186-0.449,4.024,2.701,3.341,4.925
		c-0.684,2.223-2.832,3.46-4.91,4.247c-7.151,2.707-15.491,2.27-22.746-1.192"/>
	<path fill="#67B86B" d="M92.338,142.518c-0.104,0.071-0.204,0.151-0.31,0.222c-1.652,1.123-3.353,2.173-5.093,3.146
		c-2.111,1.181-4.988,1.983-6.414,4.059c-0.204,0.296-0.74,0.126-0.696-0.287c0.308-2.912,4.465-3.827,6.527-5.012
		c1.039-0.596,2.063-1.223,3.071-1.875c-0.171-0.095-0.292-0.292-0.206-0.507c1.016-2.543,1.914-5.051,2.268-7.848
		c0.324-2.566,0.019-5.09,0.077-7.671c0.007-0.286,0.451-0.387,0.551-0.086c1.626,4.958,0.339,11.379-1.995,15.648
		c0.279-0.186,0.561-0.369,0.838-0.559c-0.128-0.271,0.062-0.626,0.416-0.509c0.069,0.025,0.138,0.046,0.207,0.07
		c2.232-1.568,4.376-3.263,6.419-5.079c1.807-1.607,3.487-3.304,5.065-5.076c-0.328-2.282-0.393-4.591-0.532-6.875
		c-0.181-2.984-0.617-6.145-0.246-9.074c0.037-0.302,0.436-0.318,0.513-0.005c0.633,2.596,0.6,5.37,0.757,8.005
		c0.138,2.31,0.356,4.656,0.357,6.972c4.361-5.083,7.972-10.751,11.464-16.715c0.221-0.378,0.862-0.029,0.697,0.397
		c-2.359,6.056-6.002,11.535-10.176,16.374c1.241-0.267,2.491-0.5,3.722-0.803c1.717-0.423,3.395-1.148,5.161-1.315
		c0.353-0.034,0.479,0.436,0.199,0.61c-2.658,1.661-6.801,2.36-10.009,2.566c-1.001,1.119-2.027,2.203-3.071,3.248
		c-2.679,2.682-5.575,5.128-8.639,7.317c1.684,0.532,3.369,0.986,5.119,1.189c2.159,0.25,4.291-0.109,6.433,0.15
		c0.232,0.028,0.309,0.387,0.095,0.481C101.41,145.207,96.139,144.197,92.338,142.518"/>
	<rect x="58.749" y="56.771" fill="none" width="31.977" height="38.163"/>
	<text transform="matrix(1 0 0 1 58.749 91.5049)" fill="#03532E" font-family="'Corben-Regular'" font-size="48">6</text>
</g>
</svg>
