<?xml version="1.0" encoding="utf-8"?>
<!-- Generator: Adobe Illustrator 16.0.3, SVG Export Plug-In . SVG Version: 6.00 Build 0)  -->
<!DOCTYPE svg PUBLIC "-//W3C//DTD SVG 1.1//EN" "http://www.w3.org/Graphics/SVG/1.1/DTD/svg11.dtd">
<svg version="1.1" id="Capa_1" xmlns="http://www.w3.org/2000/svg" xmlns:xlink="http://www.w3.org/1999/xlink" x="0px" y="0px"
	 width="150px" height="148.516px" viewBox="0 0 150 148.516" enable-background="new 0 0 150 148.516" xml:space="preserve">
<g id="Background">
</g>
<g id="Capa_3">
	<g id="clasicas_23">
		<rect y="0" fill="#CFA471" width="150" height="150"/>
		<g>
			<path fill="#8D0F24" d="M121.163,74.196c-8.75-12.094-24.81-23.34-44.497-21.823C43.81,54.901,27.73,99.561,27.73,99.561
				l70.913,12.601c0,0,2.978-5.892-2.156-18.224c-1.358-3.261-1.625-6.931-0.529-10.289c1.747-5.354,7.09-10.72,22.666-5.624
				L121.163,74.196z"/>
			<g>
				<g>
					<defs>
						<path id="SVGID_1_" d="M121.163,74.196c-8.75-12.094-24.81-23.34-44.497-21.823C43.81,54.901,27.73,99.561,27.73,99.561
							l70.913,12.601c0,0,2.978-5.892-2.156-18.224c-1.358-3.261-1.625-6.931-0.529-10.289c1.747-5.354,7.09-10.72,22.666-5.624
							L121.163,74.196z"/>
					</defs>
					<clipPath id="SVGID_2_">
						<use xlink:href="#SVGID_1_"  overflow="visible"/>
					</clipPath>
					<g clip-path="url(#SVGID_2_)">
						
							<rect x="17.319" y="86.745" transform="matrix(-0.8535 -0.5211 0.5211 -0.8535 65.6389 201.2993)" fill="#20442C" width="87.596" height="9.356"/>
					</g>
				</g>
				<g>
					<defs>
						<path id="SVGID_3_" d="M121.163,74.196c-8.75-12.094-24.81-23.34-44.497-21.823C43.81,54.901,27.73,99.561,27.73,99.561
							l70.913,12.601c0,0,2.978-5.892-2.156-18.224c-1.358-3.261-1.625-6.931-0.529-10.289c1.747-5.354,7.09-10.72,22.666-5.624
							L121.163,74.196z"/>
					</defs>
					<clipPath id="SVGID_4_">
						<use xlink:href="#SVGID_3_"  overflow="visible"/>
					</clipPath>
					<g clip-path="url(#SVGID_4_)">
						
							<rect x="8.02" y="102.11" transform="matrix(-0.8976 -0.4409 0.4409 -0.8976 51.2516 225.4855)" fill="#20442C" width="87.602" height="9.357"/>
					</g>
				</g>
				<g>
					<defs>
						<path id="SVGID_5_" d="M121.163,74.196c-8.75-12.094-24.81-23.34-44.497-21.823C43.81,54.901,27.73,99.561,27.73,99.561
							l70.913,12.601c0,0,2.978-5.892-2.156-18.224c-1.358-3.261-1.625-6.931-0.529-10.289c1.747-5.354,7.09-10.72,22.666-5.624
							L121.163,74.196z"/>
					</defs>
					<clipPath id="SVGID_6_">
						<use xlink:href="#SVGID_5_"  overflow="visible"/>
					</clipPath>
					<g clip-path="url(#SVGID_6_)">
						
							<rect x="39.656" y="75.685" transform="matrix(-0.7531 -0.6579 0.6579 -0.7531 81.7204 191.3929)" fill="#20442C" width="74.234" height="9.356"/>
					</g>
				</g>
				<g>
					<defs>
						<path id="SVGID_7_" d="M121.163,74.196c-8.75-12.094-24.81-23.34-44.497-21.823C43.81,54.901,27.73,99.561,27.73,99.561
							l70.913,12.601c0,0,2.978-5.892-2.156-18.224c-1.358-3.261-1.625-6.931-0.529-10.289c1.747-5.354,7.09-10.72,22.666-5.624
							L121.163,74.196z"/>
					</defs>
					<clipPath id="SVGID_8_">
						<use xlink:href="#SVGID_7_"  overflow="visible"/>
					</clipPath>
					<g clip-path="url(#SVGID_8_)">
						
							<rect x="49.703" y="59.678" transform="matrix(-0.5779 -0.8161 0.8161 -0.5779 84.4735 172.4036)" fill="#20442C" width="74.236" height="9.357"/>
					</g>
				</g>
				<g>
					<defs>
						<path id="SVGID_9_" d="M121.163,74.196c-8.75-12.094-24.81-23.34-44.497-21.823C43.81,54.901,27.73,99.561,27.73,99.561
							l70.913,12.601c0,0,2.978-5.892-2.156-18.224c-1.358-3.261-1.625-6.931-0.529-10.289c1.747-5.354,7.09-10.72,22.666-5.624
							L121.163,74.196z"/>
					</defs>
					<clipPath id="SVGID_10_">
						<use xlink:href="#SVGID_9_"  overflow="visible"/>
					</clipPath>
					<g clip-path="url(#SVGID_10_)">
						
							<rect x="85.442" y="63.092" transform="matrix(-0.3837 -0.9235 0.9235 -0.3837 90.0489 195.6395)" fill="#20442C" width="49.733" height="9.357"/>
					</g>
				</g>
			</g>
			<path opacity="0.1" enable-background="new    " d="M31.653,90.169c-1.448,3.18-4.011,8.856-4.011,8.856l71.43,12.175
				c0,0,0.74-4.353-0.717-11.184c-1.105-5.182-4.153-8.771-3.071-14.729c1.248-6.035,5.562-10.314,14.897-9.263
				c0.896-2.289,3.315-4.022,2.019-4.825c-5.08-3.146-13.919,0.481-18.974,2.849C50.405,94.091,31.99,90.22,31.653,90.169z"/>
			<path fill="#FFFFFF" d="M93.783,124.837l-66.191-10.402c-3.897-0.616-5.344-2.383-5.009-6.426l1.685-9.029
				c0.354-2.239,2.667-4.82,6.564-4.205l66.047,10.466c3.896,0.615,4.743,2.432,4.389,4.671l-1.438,11.844
				C99.477,123.995,97.682,125.453,93.783,124.837z"/>
			<g>
				<circle fill="#FFFFFF" cx="118.309" cy="72.68" r="9.154"/>
				<path opacity="0.1" enable-background="new    " d="M127.352,74.121c-0.1,0.613-0.261,1.228-0.492,1.832
					c-1.808,4.721-7.102,7.083-11.821,5.274c-4.724-1.808-7.084-7.101-5.274-11.822c0.23-0.604,0.519-1.169,0.854-1.692
					c-0.67,4.188,1.651,8.415,5.771,9.991C120.503,79.281,125.057,77.686,127.352,74.121z"/>
			</g>
		</g>
	</g>
	<rect x="6.504" y="12.472" fill="none" width="67.333" height="61.333"/>
	<text transform="matrix(1 0 0 1 6.5039 38.5227)" fill="#FFFFFF" font-family="'Corben-Regular'" font-size="36">23</text>
</g>
</svg>
