<?xml version="1.0" encoding="utf-8"?>
<!-- Generator: Adobe Illustrator 16.0.3, SVG Export Plug-In . SVG Version: 6.00 Build 0)  -->
<!DOCTYPE svg PUBLIC "-//W3C//DTD SVG 1.1//EN" "http://www.w3.org/Graphics/SVG/1.1/DTD/svg11.dtd">
<svg version="1.1" xmlns="http://www.w3.org/2000/svg" xmlns:xlink="http://www.w3.org/1999/xlink" x="0px" y="0px"
	 width="148.541px" height="149.646px" viewBox="0 0 148.541 149.646" enable-background="new 0 0 148.541 149.646"
	 xml:space="preserve">
<g id="Background">
</g>
<g id="Capa_3">
	<g id="_x31_6_1_">
		<g>
			<rect x="-0.308" y="-149.264" fill-rule="evenodd" clip-rule="evenodd" fill="#8D0F24" width="148.849" height="149.264"/>
		</g>
	</g>
	<g id="_x31_6_5_">
		<g>
			<rect y="0.382" fill-rule="evenodd" clip-rule="evenodd" fill="#CFA471" width="148.849" height="149.264"/>
		</g>
	</g>
	<path fill="#FFFEFF" d="M128.179,24.929c-1.03-2.512-2.487-4.847-4.29-6.875c-0.254,2.451-0.508,4.903-0.762,7.355
		c-0.036,0.343-0.08,0.707-0.302,0.972c-0.185,0.221-0.465,0.336-0.734,0.442c-1.841,0.729-3.682,1.457-5.523,2.185
		c1.939,0.897,3.879,1.794,5.817,2.691l-1.588,7.774c2.057-1.961,3.949-4.092,5.653-6.366c2.008,1.475,4.195,2.704,6.5,3.653
		c-0.878-1.737-1.755-3.473-2.632-5.209c-0.166-0.329-0.337-0.685-0.281-1.049c0.051-0.331,0.279-0.603,0.499-0.856
		c1.548-1.78,3.096-3.561,4.645-5.341c-2.374-0.069-4.762,0.445-6.896,1.484"/>
	<path fill="#FFFEFF" d="M131.171,74.703c-1.03-2.512-2.487-4.847-4.29-6.875c-0.254,2.451-0.508,4.903-0.762,7.355
		c-0.036,0.343-0.08,0.707-0.302,0.972c-0.185,0.221-0.465,0.336-0.734,0.442c-1.841,0.729-3.682,1.457-5.523,2.185
		c1.939,0.897,3.879,1.794,5.817,2.691l-1.588,7.774c2.057-1.961,3.949-4.092,5.653-6.366c2.008,1.475,4.195,2.704,6.5,3.653
		c-0.878-1.737-1.755-3.473-2.632-5.209c-0.166-0.329-0.337-0.685-0.281-1.049c0.051-0.331,0.279-0.603,0.499-0.856
		c1.548-1.78,3.096-3.561,4.645-5.341c-2.374-0.069-4.762,0.445-6.896,1.484"/>
	<path fill="#FFFEFF" d="M24.488,27.738c-1.03-2.512-2.487-4.847-4.29-6.875c-0.254,2.451-0.508,4.903-0.762,7.355
		c-0.036,0.343-0.08,0.707-0.302,0.972c-0.185,0.221-0.465,0.336-0.734,0.442c-1.841,0.729-3.682,1.457-5.523,2.185
		c1.939,0.897,3.879,1.794,5.817,2.691l-1.588,7.774c2.057-1.961,3.949-4.092,5.653-6.366c2.008,1.475,4.195,2.704,6.5,3.653
		c-0.878-1.737-1.755-3.473-2.632-5.209c-0.166-0.329-0.337-0.685-0.281-1.049c0.051-0.331,0.279-0.603,0.499-0.856
		c1.548-1.78,3.096-3.561,4.645-5.341c-2.374-0.069-4.762,0.445-6.896,1.484"/>
	<path fill="#FFFEFF" d="M41.987,116.257c-1.03-2.512-2.487-4.847-4.29-6.875c-0.254,2.451-0.508,4.903-0.762,7.355
		c-0.036,0.343-0.08,0.707-0.302,0.972c-0.185,0.221-0.465,0.336-0.734,0.442c-1.841,0.729-3.682,1.457-5.523,2.185
		c1.939,0.897,3.879,1.794,5.817,2.691l-1.588,7.774c2.057-1.961,3.949-4.092,5.653-6.366c2.008,1.475,4.195,2.704,6.5,3.653
		c-0.878-1.737-1.755-3.473-2.632-5.209c-0.166-0.329-0.337-0.685-0.281-1.049c0.051-0.331,0.279-0.603,0.499-0.856
		c1.548-1.78,3.096-3.561,4.645-5.341c-2.374-0.069-4.762,0.445-6.896,1.484"/>
	<path fill="#FFFEFF" d="M23.138,74.703c-1.03-2.512-2.487-4.847-4.29-6.875c-0.254,2.451-0.508,4.903-0.762,7.355
		c-0.036,0.343-0.08,0.707-0.302,0.972c-0.185,0.221-0.465,0.336-0.734,0.442c-1.841,0.729-3.682,1.457-5.523,2.185
		c1.939,0.897,3.879,1.794,5.817,2.691l-1.588,7.774c2.057-1.961,3.949-4.092,5.653-6.366c2.008,1.475,4.195,2.704,6.5,3.653
		c-0.878-1.737-1.755-3.473-2.632-5.209c-0.166-0.329-0.337-0.685-0.281-1.049c0.051-0.331,0.279-0.603,0.499-0.856
		c1.548-1.78,3.096-3.561,4.645-5.341c-2.374-0.069-4.762,0.445-6.896,1.484"/>
	<path fill="#FFFEFF" d="M104.606,117.178c-1.03-2.512-2.487-4.847-4.29-6.875c-0.254,2.451-0.508,4.903-0.762,7.355
		c-0.036,0.343-0.08,0.707-0.302,0.972c-0.185,0.221-0.465,0.336-0.734,0.442c-1.841,0.729-3.682,1.457-5.523,2.185
		c1.939,0.897,3.879,1.794,5.817,2.691l-1.588,7.774c2.057-1.961,3.949-4.092,5.653-6.366c2.008,1.475,4.195,2.704,6.5,3.653
		c-0.878-1.737-1.755-3.473-2.632-5.209c-0.166-0.329-0.337-0.685-0.281-1.049c0.051-0.331,0.279-0.603,0.499-0.856
		c1.548-1.78,3.096-3.561,4.645-5.341c-2.374-0.069-4.762,0.445-6.896,1.484"/>
	<path fill="#FFFEFF" d="M79.828,19.813c-1.03-2.512-2.487-4.847-4.29-6.875c-0.254,2.451-0.508,4.903-0.762,7.355
		c-0.036,0.343-0.08,0.707-0.302,0.972c-0.185,0.221-0.465,0.336-0.734,0.442c-1.841,0.729-3.682,1.457-5.523,2.185
		c1.939,0.897,3.879,1.794,5.817,2.691l-1.588,7.774c2.057-1.961,3.949-4.092,5.653-6.366c2.008,1.475,4.195,2.704,6.5,3.653
		c-0.878-1.737-1.755-3.473-2.632-5.209c-0.166-0.329-0.337-0.685-0.281-1.049c0.051-0.331,0.279-0.603,0.499-0.856
		c1.548-1.78,3.096-3.561,4.645-5.341c-2.374-0.069-4.762,0.445-6.896,1.484"/>
	<text transform="matrix(1 0 0 1 48.7236 93)" fill="#FFFFFF" font-family="'Corben-Regular'" font-size="60">18</text>
</g>
</svg>
