<?xml version="1.0" encoding="utf-8"?>
<!-- Generator: Adobe Illustrator 16.0.3, SVG Export Plug-In . SVG Version: 6.00 Build 0)  -->
<!DOCTYPE svg PUBLIC "-//W3C//DTD SVG 1.1//EN" "http://www.w3.org/Graphics/SVG/1.1/DTD/svg11.dtd">
<svg version="1.1" id="Capa_1" xmlns="http://www.w3.org/2000/svg" xmlns:xlink="http://www.w3.org/1999/xlink" x="0px" y="0px"
	 width="150px" height="150px" viewBox="0 0 150 150" enable-background="new 0 0 150 150" xml:space="preserve">
<g id="Background">
</g>
<g id="Capa_3">
	<g id="clasicas_15">
		<rect fill="#20442C" width="150" height="150"/>
		<g>
			<g>
				<g>
					<path fill="#8D0F24" d="M52.743,57.436c0,0,9.115-17.589,2.175-29.11c-8.37-13.893-26.854-12.507-32.165-5.155
						c-7.151,9.898-8.704,23.458-8.874,37.789c-0.137,11.481,0.209,19.022,0.209,19.022l28.516,8.276c0,0,4.197-7.541,10.57-15.374
						c3.811-4.685,9.14-9.018,12.756-13.172c4.498-5.17-1.066-11.837-5.527-8.193C54.667,56.204,52.743,57.436,52.743,57.436z"/>
					<path fill="#FEFFFB" d="M11.916,88.559l28.816,7.996c1.609,0.45,3.177-0.617,3.637-2.277l1.654-5.979
						c0.46-1.661-0.467-3.241-2.076-3.692L15.242,76.54c-1.609-0.451-2.682,0.571-3.141,2.233l-1.654,5.979
						C9.986,86.414,10.307,88.107,11.916,88.559z"/>
					<g>
						<path opacity="0.1" fill="#0D0D0D" enable-background="new    " d="M42.109,96.605c0.104-0.375,3.123-11.282,3.123-11.282
							s0.513,0.519,0.628,0.862c-0.053,0.188-2.747,9.926-2.747,9.926S42.59,96.535,42.109,96.605z"/>
					</g>
					<g>
						
							<rect x="33.632" y="89.452" transform="matrix(0.2667 -0.9638 0.9638 0.2667 -57.4099 104.2852)" opacity="0.1" fill="#0D0D0D" enable-background="new    " width="12.386" height="0.835"/>
					</g>
					<g>
						<polygon opacity="0.1" fill="#0D0D0D" enable-background="new    " points="33.521,94.531 36.826,82.594 37.631,82.82 
							34.326,94.756 						"/>
					</g>
					<g>
						
							<rect x="25.13" y="87.063" transform="matrix(0.2667 -0.9638 0.9638 0.2667 -61.3427 94.3358)" opacity="0.1" fill="#0D0D0D" enable-background="new    " width="12.386" height="0.836"/>
					</g>
					<g>
						
							<rect x="20.877" y="85.879" transform="matrix(0.2668 -0.9638 0.9638 0.2668 -63.3212 89.3616)" opacity="0.1" fill="#0D0D0D" enable-background="new    " width="12.386" height="0.836"/>
					</g>
					<g>
						<polygon opacity="0.1" fill="#0D0D0D" enable-background="new    " points="20.769,90.961 24.073,79.023 24.877,79.25 
							21.574,91.186 						"/>
					</g>
					<g>
						<polygon opacity="0.1" fill="#0D0D0D" enable-background="new    " points="16.518,89.771 19.822,77.834 20.626,78.061 
							17.321,89.996 						"/>
					</g>
					<g>
						
							<rect x="8.126" y="82.31" transform="matrix(0.2667 -0.9638 0.9638 0.2667 -69.2314 74.4651)" opacity="0.1" fill="#0D0D0D" enable-background="new    " width="12.386" height="0.836"/>
					</g>
					<path fill="#FEFFFB" d="M17.922,32.869c14.054,8.979,39.359,9.71,39.359,9.71c0.629-5.091,1.141-9.55-2.342-15.333
						C46.57,13.353,28.064,15.818,22.752,23.17C22.753,23.171,20.109,26.813,17.922,32.869z"/>
					<g>
						<g>
							<defs>
								<path id="SVGID_1_" d="M52.743,57.436c0,0,9.115-17.589,2.175-29.11c-8.37-13.893-26.854-12.507-32.165-5.155
									c-7.151,9.898-8.704,23.458-8.874,37.789c-0.137,11.481,0.209,19.022,0.209,19.022l28.516,8.276
									c0,0,3.951-7.254,10.57-15.374c3.655-4.484,9.318-9.223,12.756-13.172c4.498-5.17-1.066-11.837-5.527-8.193
									C54.667,56.204,52.743,57.436,52.743,57.436z"/>
							</defs>
							<clipPath id="SVGID_2_">
								<use xlink:href="#SVGID_1_"  overflow="visible"/>
							</clipPath>
							<g clip-path="url(#SVGID_2_)">
								<path fill="#FDFDFD" d="M13.823,63.286c-0.149-0.048-0.278-0.162-0.343-0.322c-0.119-0.292,0.016-0.633,0.303-0.759
									l3.67-1.626c1.001-0.443,2.158-0.068,2.716,0.881l1.071,1.826c0.414,0.705,1.273,0.984,2.018,0.655l1.926-0.853
									c1-0.444,2.157-0.068,2.715,0.881l1.072,1.826c0.414,0.706,1.273,0.984,2.017,0.655l1.926-0.853
									c1.001-0.443,2.157-0.068,2.716,0.882l1.071,1.826c0.414,0.705,1.274,0.983,2.017,0.655l1.926-0.853
									c1.002-0.444,2.159-0.069,2.717,0.881l1.07,1.826c0.414,0.705,1.274,0.984,2.018,0.655l1.926-0.853
									c1.002-0.444,2.158-0.069,2.716,0.881l2.042,3.48c0.16,0.271,0.074,0.626-0.193,0.794c-0.266,0.168-0.611,0.082-0.77-0.188
									l-1.793-3.054c-0.414-0.706-1.273-0.984-2.018-0.655l-1.926,0.853c-1.001,0.443-2.158,0.068-2.716-0.881l-1.071-1.826
									c-0.414-0.706-1.273-0.984-2.018-0.656l-1.926,0.854c-1.002,0.443-2.158,0.068-2.715-0.882l-1.072-1.826
									c-0.414-0.705-1.273-0.983-2.017-0.655l-1.926,0.854c-1.001,0.443-2.159,0.068-2.716-0.882l-1.071-1.826
									c-0.415-0.705-1.273-0.984-2.019-0.655L23.242,65.2c-1.002,0.444-2.159,0.069-2.717-0.881l-1.07-1.826
									c-0.414-0.705-1.273-0.984-2.018-0.655l-3.223,1.427C14.086,63.323,13.947,63.327,13.823,63.286z"/>
							</g>
						</g>
						<g>
							<defs>
								<path id="SVGID_3_" d="M52.743,57.436c0,0,9.115-17.589,2.175-29.11c-8.37-13.893-26.854-12.507-32.165-5.155
									c-7.151,9.898-8.704,23.458-8.874,37.789c-0.137,11.481,0.209,19.022,0.209,19.022l28.516,8.276
									c0,0,3.951-7.254,10.57-15.374c3.655-4.484,9.318-9.223,12.756-13.172c4.498-5.17-1.066-11.837-5.527-8.193
									C54.667,56.204,52.743,57.436,52.743,57.436z"/>
							</defs>
							<clipPath id="SVGID_4_">
								<use xlink:href="#SVGID_3_"  overflow="visible"/>
							</clipPath>
							<g clip-path="url(#SVGID_4_)">
								<path fill="#FDFDFD" d="M12.371,67.843c-0.15-0.048-0.278-0.162-0.344-0.322c-0.119-0.292,0.016-0.633,0.303-0.759
									L16,65.136c1.002-0.443,2.159-0.068,2.717,0.882l1.07,1.825c0.414,0.706,1.273,0.984,2.018,0.655l1.926-0.853
									c1.001-0.443,2.158-0.068,2.716,0.882l1.071,1.826c0.415,0.705,1.273,0.983,2.018,0.655l1.926-0.853
									c1-0.444,2.158-0.069,2.715,0.881l1.072,1.826c0.414,0.705,1.273,0.984,2.017,0.655l1.926-0.853
									c1.001-0.444,2.159-0.069,2.716,0.881l1.071,1.826c0.414,0.705,1.273,0.984,2.017,0.654l1.926-0.853
									c1.002-0.443,2.159-0.068,2.717,0.882l2.042,3.479c0.16,0.271,0.073,0.627-0.193,0.794c-0.267,0.17-0.612,0.083-0.771-0.188
									l-1.793-3.055c-0.414-0.705-1.273-0.984-2.018-0.654l-1.926,0.853c-1.001,0.444-2.158,0.067-2.715-0.882l-1.072-1.825
									c-0.414-0.706-1.273-0.984-2.018-0.655l-1.925,0.853c-1.002,0.443-2.159,0.068-2.716-0.882l-1.072-1.825
									c-0.413-0.706-1.273-0.984-2.017-0.656l-1.925,0.854c-1.002,0.443-2.159,0.068-2.717-0.881l-1.071-1.827
									c-0.415-0.705-1.273-0.983-2.018-0.655l-1.925,0.853c-1.002,0.444-2.158,0.069-2.716-0.881l-1.071-1.826
									c-0.414-0.705-1.273-0.984-2.018-0.655l-3.221,1.427C12.633,67.88,12.495,67.884,12.371,67.843z"/>
							</g>
						</g>
						<g>
							<defs>
								<path id="SVGID_5_" d="M52.743,57.436c0,0,9.115-17.589,2.175-29.11c-8.37-13.893-26.854-12.507-32.165-5.155
									c-7.151,9.898-8.704,23.458-8.874,37.789c-0.137,11.481,0.209,19.022,0.209,19.022l28.516,8.276
									c0,0,3.951-7.254,10.57-15.374c3.655-4.484,9.318-9.223,12.756-13.172c4.498-5.17-1.066-11.837-5.527-8.193
									C54.667,56.204,52.743,57.436,52.743,57.436z"/>
							</defs>
							<clipPath id="SVGID_6_">
								<use xlink:href="#SVGID_5_"  overflow="visible"/>
							</clipPath>
							<g clip-path="url(#SVGID_6_)">
								<path fill="#FDFDFD" d="M10.918,72.4c-0.15-0.047-0.277-0.161-0.344-0.321c-0.119-0.292,0.016-0.634,0.303-0.76l3.67-1.625
									c1.002-0.444,2.159-0.069,2.717,0.881l1.071,1.826c0.413,0.705,1.273,0.983,2.017,0.655l1.926-0.853
									c1.002-0.444,2.158-0.069,2.716,0.881l1.071,1.826c0.415,0.705,1.273,0.984,2.018,0.654l1.926-0.853
									c1.001-0.444,2.158-0.069,2.715,0.881l1.072,1.826c0.414,0.705,1.273,0.983,2.018,0.655l1.925-0.854
									c1.002-0.443,2.159-0.068,2.716,0.881l1.072,1.826c0.413,0.706,1.273,0.984,2.017,0.655l1.925-0.853
									c1.002-0.443,2.159-0.068,2.717,0.881l2.043,3.479c0.159,0.272,0.072,0.627-0.193,0.794
									c-0.268,0.172-0.613,0.083-0.771-0.188l-1.793-3.053c-0.414-0.707-1.272-0.985-2.018-0.656l-1.926,0.853
									c-1.002,0.445-2.158,0.069-2.715-0.881l-1.072-1.826c-0.414-0.705-1.273-0.983-2.017-0.655l-1.926,0.854
									c-1.002,0.443-2.159,0.068-2.716-0.881l-1.071-1.826c-0.414-0.706-1.273-0.984-2.017-0.655l-1.926,0.854
									c-1.002,0.442-2.159,0.067-2.717-0.882l-1.072-1.825c-0.414-0.706-1.271-0.984-2.016-0.655l-1.926,0.853
									c-1.002,0.443-2.158,0.068-2.716-0.882l-1.071-1.825c-0.414-0.706-1.273-0.984-2.018-0.656l-3.221,1.427
									C11.181,72.438,11.041,72.441,10.918,72.4z"/>
							</g>
						</g>
					</g>
					<path fill="#FEFFFB" d="M65.93,59.713c4.498-5.17-1.066-11.837-5.527-8.193c-5.735,4.684-3.764,3.017-3.764,3.017l6.121,8.51
						L65.93,59.713z"/>
				</g>
			</g>
			<path opacity="0.1" fill="#0D0D0D" enable-background="new    " d="M34.176,20.819c0,0-8.656,35.062-1.602,60.583l-18.297-5.256
				c0,0-3.314-38.13,8.476-52.977c0,0,3.596-5.42,12.717-5.891L34.176,20.819z"/>
		</g>
		<g>
			<g>
				<g>
					<path fill="#8D0F24" d="M65.774,92.309c0,0,10.162-17.007,23.611-17.167c16.219-0.193,24.766,16.252,21.309,24.639
						c-4.654,11.289-15.367,19.744-27.465,27.431c-9.691,6.157-16.286,9.831-16.286,9.831L44.9,117.15c0,0,4.203-7.537,7.51-17.078
						c1.979-5.706,2.859-12.518,4.489-17.778c2.029-6.547,10.627-5.321,9.876,0.388C65.81,90.023,65.774,92.309,65.774,92.309z"/>
					<path fill="#FEFFFB" d="M60.793,143.402l-21.962-20.295c-1.23-1.133-1.147-3.027,0.022-4.291l4.214-4.556
						c1.169-1.264,3.001-1.308,4.231-0.176l21.963,20.164c1.23,1.132,0.925,2.582-0.246,3.846l-4.213,4.554
						C63.632,143.914,62.023,144.534,60.793,143.402z"/>
					<g>
						<path opacity="0.1" fill="#0D0D0D" enable-background="new    " d="M38.063,121.962c0.264-0.285,7.949-8.592,7.949-8.592
							s-0.711-0.164-1.063-0.081c-0.133,0.145-6.996,7.561-6.996,7.561S37.869,121.516,38.063,121.962z"/>
					</g>
					<g>
						<polygon opacity="0.1" fill="#0D0D0D" enable-background="new    " points="41.096,125.184 49.508,116.093 48.893,115.527 
							40.48,124.618 						"/>
					</g>
					<g>
						<polygon opacity="0.1" fill="#0D0D0D" enable-background="new    " points="44.346,128.172 52.756,119.081 52.141,118.518 
							43.73,127.607 						"/>
					</g>
					<g>
						
							<rect x="45.295" y="125.91" transform="matrix(0.6792 -0.734 0.734 0.6792 -76.204 78.3236)" opacity="0.1" fill="#0D0D0D" enable-background="new    " width="12.387" height="0.837"/>
					</g>
					<g>
						
							<rect x="48.554" y="128.904" transform="matrix(0.6791 -0.734 0.734 0.6791 -77.359 81.6837)" opacity="0.1" fill="#0D0D0D" enable-background="new    " width="12.385" height="0.835"/>
					</g>
					<g>
						<polygon opacity="0.1" fill="#0D0D0D" enable-background="new    " points="54.092,137.139 62.504,128.047 61.889,127.482 
							53.477,136.573 						"/>
					</g>
					<g>
						<polygon opacity="0.1" fill="#0D0D0D" enable-background="new    " points="57.341,140.129 65.752,131.036 65.137,130.473 
							56.726,139.563 						"/>
					</g>
					<g>
						<polygon opacity="0.1" fill="#0D0D0D" enable-background="new    " points="60.589,143.117 69.002,134.025 68.387,133.46 
							59.974,142.551 						"/>
					</g>
					<path fill="#FEFFFB" d="M104.988,108.991c-15.029-7.226-28.967-28.36-28.967-28.36c3.996-3.213,7.52-5.996,14.27-6.076
						c16.219-0.193,23.859,16.837,20.402,25.224C110.693,99.78,108.986,103.943,104.988,108.991z"/>
					<g>
						<g>
							<defs>
								<path id="SVGID_7_" d="M65.774,92.309c0,0,10.162-17.007,23.611-17.167c16.219-0.193,24.766,16.252,21.309,24.639
									c-4.654,11.289-15.367,19.744-27.465,27.431c-9.691,6.157-16.286,9.831-16.286,9.831L44.9,117.15
									c0,0,4.088-7.178,7.51-17.078c1.891-5.467,2.939-12.777,4.489-17.778c2.029-6.547,10.627-5.321,9.876,0.388
									C65.81,90.023,65.774,92.309,65.774,92.309z"/>
							</defs>
							<clipPath id="SVGID_8_">
								<use xlink:href="#SVGID_7_"  overflow="visible"/>
							</clipPath>
							<g clip-path="url(#SVGID_8_)">
								<path fill="#FDFDFD" d="M81.279,128.48c0.121,0.103,0.283,0.153,0.455,0.123c0.311-0.053,0.529-0.346,0.486-0.654
									l-0.55-3.979c-0.149-1.084-1.078-1.871-2.18-1.846l-2.115,0.049c-0.817,0.02-1.508-0.564-1.619-1.369l-0.287-2.087
									c-0.15-1.084-1.078-1.872-2.18-1.846l-2.116,0.049c-0.817,0.019-1.507-0.563-1.618-1.371l-0.287-2.085
									c-0.15-1.086-1.078-1.872-2.18-1.846l-2.115,0.049c-0.818,0.02-1.508-0.564-1.619-1.371l-0.288-2.086
									c-0.149-1.084-1.078-1.871-2.18-1.846l-2.115,0.051c-0.817,0.018-1.507-0.566-1.618-1.371l-0.288-2.086
									c-0.15-1.084-1.079-1.87-2.18-1.846l-4.034,0.095c-0.314,0.007-0.571,0.269-0.574,0.584
									c-0.004,0.313,0.252,0.563,0.566,0.556l3.54-0.084c0.817-0.02,1.507,0.564,1.618,1.371l0.288,2.086
									c0.15,1.084,1.079,1.871,2.18,1.844l2.116-0.049c0.817-0.018,1.507,0.566,1.618,1.371l0.288,2.086
									c0.15,1.084,1.078,1.87,2.18,1.846l2.115-0.049c0.818-0.019,1.507,0.564,1.617,1.371l0.289,2.086
									c0.15,1.084,1.078,1.871,2.179,1.846l2.116-0.049c0.818-0.021,1.508,0.563,1.619,1.371l0.287,2.084
									c0.15,1.086,1.078,1.873,2.18,1.847l2.114-0.05c0.818-0.02,1.509,0.564,1.619,1.371l0.482,3.489
									C81.109,128.277,81.18,128.398,81.279,128.48z"/>
							</g>
						</g>
						<g>
							<defs>
								<path id="SVGID_9_" d="M65.774,92.309c0,0,10.162-17.007,23.611-17.167c16.219-0.193,24.766,16.252,21.309,24.639
									c-4.654,11.289-15.367,19.744-27.465,27.431c-9.691,6.157-16.286,9.831-16.286,9.831L44.9,117.15
									c0,0,4.088-7.178,7.51-17.078c1.891-5.467,2.939-12.777,4.489-17.778c2.029-6.547,10.627-5.321,9.876,0.388
									C65.81,90.023,65.774,92.309,65.774,92.309z"/>
							</defs>
							<clipPath id="SVGID_10_">
								<use xlink:href="#SVGID_9_"  overflow="visible"/>
							</clipPath>
							<g clip-path="url(#SVGID_10_)">
								<path fill="#FDFDFD" d="M78.169,132.117c0.12,0.1,0.283,0.15,0.454,0.122c0.313-0.054,0.529-0.347,0.486-0.656l-0.549-3.978
									c-0.15-1.084-1.078-1.871-2.181-1.847l-2.115,0.05c-0.817,0.019-1.508-0.564-1.618-1.371l-0.288-2.086
									c-0.15-1.084-1.078-1.871-2.179-1.846l-2.116,0.049c-0.818,0.021-1.508-0.563-1.618-1.371l-0.288-2.084
									c-0.15-1.086-1.078-1.873-2.18-1.847l-2.115,0.049c-0.818,0.021-1.508-0.563-1.619-1.37l-0.288-2.087
									c-0.149-1.084-1.078-1.87-2.179-1.844l-2.116,0.049c-0.817,0.019-1.507-0.565-1.618-1.37l-0.288-2.087
									c-0.149-1.084-1.079-1.87-2.179-1.846l-4.035,0.095c-0.314,0.008-0.571,0.27-0.573,0.582
									c-0.003,0.316,0.253,0.566,0.565,0.557l3.541-0.082c0.817-0.02,1.506,0.563,1.617,1.371l0.289,2.086
									c0.15,1.084,1.078,1.871,2.179,1.846l2.116-0.051c0.817-0.019,1.507,0.565,1.618,1.371l0.288,2.086
									c0.15,1.084,1.078,1.871,2.18,1.846l2.115-0.049c0.818-0.02,1.507,0.563,1.619,1.371l0.287,2.084
									c0.15,1.084,1.078,1.873,2.18,1.847l2.116-0.049c0.817-0.019,1.507,0.563,1.618,1.37l0.288,2.086
									c0.149,1.086,1.077,1.871,2.179,1.846l2.117-0.049c0.815-0.02,1.507,0.564,1.617,1.371l0.481,3.488
									C78,131.911,78.068,132.032,78.169,132.117z"/>
							</g>
						</g>
						<g>
							<defs>
								<path id="SVGID_11_" d="M65.774,92.309c0,0,10.162-17.007,23.611-17.167c16.219-0.193,24.766,16.252,21.309,24.639
									c-4.654,11.289-15.367,19.744-27.465,27.431c-9.691,6.157-16.286,9.831-16.286,9.831L44.9,117.15
									c0,0,4.088-7.178,7.51-17.078c1.891-5.467,2.939-12.777,4.489-17.778c2.029-6.547,10.627-5.321,9.876,0.388
									C65.81,90.023,65.774,92.309,65.774,92.309z"/>
							</defs>
							<clipPath id="SVGID_12_">
								<use xlink:href="#SVGID_11_"  overflow="visible"/>
							</clipPath>
							<g clip-path="url(#SVGID_12_)">
								<path fill="#FDFDFD" d="M75.058,135.749c0.12,0.103,0.284,0.153,0.454,0.123c0.313-0.052,0.53-0.347,0.487-0.656
									l-0.55-3.978c-0.148-1.084-1.077-1.87-2.178-1.846l-2.116,0.049c-0.818,0.02-1.507-0.564-1.619-1.369l-0.287-2.088
									c-0.15-1.084-1.079-1.869-2.179-1.846l-2.117,0.049c-0.818,0.021-1.507-0.563-1.618-1.371l-0.288-2.084
									c-0.15-1.086-1.078-1.871-2.18-1.846l-2.115,0.049c-0.817,0.021-1.508-0.563-1.617-1.371l-0.289-2.086
									c-0.15-1.084-1.078-1.869-2.18-1.844l-2.115,0.049c-0.818,0.019-1.508-0.565-1.619-1.371l-0.287-2.086
									c-0.15-1.084-1.078-1.871-2.18-1.847l-4.035,0.095c-0.314,0.008-0.571,0.27-0.573,0.584
									c-0.003,0.313,0.253,0.563,0.565,0.556l3.541-0.083c0.817-0.02,1.508,0.563,1.617,1.371l0.29,2.087
									c0.149,1.084,1.077,1.87,2.179,1.846l2.115-0.049c0.817-0.021,1.508,0.563,1.619,1.369l0.288,2.086
									c0.149,1.085,1.077,1.87,2.179,1.846l2.115-0.049c0.818-0.021,1.508,0.563,1.619,1.371l0.287,2.084
									c0.15,1.084,1.079,1.872,2.18,1.846l2.116-0.049c0.818-0.019,1.507,0.563,1.619,1.371l0.287,2.085
									c0.15,1.086,1.079,1.872,2.179,1.846l2.117-0.049c0.816-0.02,1.507,0.566,1.617,1.371l0.482,3.488
									C74.889,135.544,74.959,135.666,75.058,135.749z"/>
							</g>
						</g>
					</g>
					<path fill="#FEFFFB" d="M56.899,82.293c2.029-6.547,10.627-5.322,9.876,0.389c-0.966,7.342-0.584,4.788-0.584,4.788
						l-10.459-0.726L56.899,82.293z"/>
				</g>
			</g>
			<path opacity="0.1" fill="#0D0D0D" enable-background="new    " d="M106.684,88.831c0,0-25.261,25.81-50.678,33.239
				l14.098,12.794c0,0,34.169-17.246,40.589-35.084c0,0,2.718-5.91-1.682-13.913L106.684,88.831z"/>
		</g>
	</g>
	<rect x="90.041" y="17.544" fill="none" width="67.333" height="61.333"/>
	<text transform="matrix(1 0 0 1 90.041 52.2783)" fill="#FEFFFB" font-family="'Corben-Regular'" font-size="48">15</text>
</g>
</svg>
