<?xml version="1.0" encoding="utf-8"?>
<!-- Generator: Adobe Illustrator 16.0.3, SVG Export Plug-In . SVG Version: 6.00 Build 0)  -->
<!DOCTYPE svg PUBLIC "-//W3C//DTD SVG 1.1//EN" "http://www.w3.org/Graphics/SVG/1.1/DTD/svg11.dtd">
<svg version="1.1" xmlns="http://www.w3.org/2000/svg" xmlns:xlink="http://www.w3.org/1999/xlink" x="0px" y="0px" width="150px"
	 height="150px" viewBox="0 0 150 150" enable-background="new 0 0 150 150" xml:space="preserve">
<g id="Background">
</g>
<g id="Capa_3">
	<g id="clasicas_24">
		<rect fill-rule="evenodd" clip-rule="evenodd" fill="#FFFFFF" width="150" height="150"/>
		<path fill="#20442C" d="M138.948,118.727c-8.111-3.616-15.757-8.019-22.815-13.053c5.016-1.887,10.207-3.468,15.373-10.552
			c-8.034-1.692-12.748-4.246-17.131-10.592c3.308,1.332,7.161,1.582,10.652,0.689c-6.175-1.75-12.021-4.348-17.336-7.615
			c4.981-0.938,9.792-2.568,14.158-4.866c0.904-0.477,1.917-1.251,1.616-2.137c-2.79-0.341-10.505,1.306-13.311,0.848
			c1.665-0.559,11.297-4.95,12.366-7.61c-21.56-3.486-39.395-24.948-42.514-32.027l-0.641,0.886
			c-0.288,15.797-7.829,31.403-20.574,42.565c3.468,0.404,6.959,0.65,10.455,0.771c-2.694,2.772-5.662,5.336-8.907,7.606
			c3.024-0.024,6.047-0.051,9.071-0.078c-3.854,7.928-11.849,14.221-21.253,16.724c6.194,2.326,12.638,4.117,19.213,5.398
			c-6.579,7.454-14.682,13.876-23.843,18.811c14.253,4.308,29.173,7.26,44.223,7.46v17.909h9.726v-18.176
			C112.337,130.618,127.016,126.515,138.948,118.727"/>
		<path fill="#67B86B" d="M72.794,79.17c0.003,0.077,0.024,0.158,0.069,0.229c0.135,0.232,0.432,0.312,0.667,0.176l0.013-0.008
			c2.229-1.302,4.222-3.023,5.857-5.042L79.244,78.5c-0.005,0.096,0.015,0.206,0.057,0.3c0.151,0.329,0.542,0.476,0.873,0.325
			c1.999-0.896,3.641-2.479,4.666-4.402c0.15,0.471,0.328,0.94,0.581,1.398c0.364,0.619,0.881,1.274,1.693,1.609
			c0.81,0.319,1.727,0.268,2.472-0.15c1.465-0.892,1.949-2.421,2.143-3.755c0.095-0.701,0.146-1.373,0.24-1.995
			c0.817,1.344,1.813,2.577,2.959,3.651c0.12,0.114,0.291,0.189,0.471,0.186c0.366-0.004,0.658-0.308,0.654-0.675
			c-0.014-1.111,0.108-2.218,0.299-3.313c1.842,1.337,4.256,1.814,6.447,1.21l0.018-0.006c0.055-0.013,0.104-0.037,0.154-0.069
			c0.263-0.168,0.338-0.515,0.167-0.777c-0.167-0.261-0.384-0.479-0.573-0.722c2.623,0.905,5.498,0.979,8.161,0.483
			c3.736-0.701,7.162-2.298,10.508-3.932c-3.46,1.377-6.941,2.833-10.608,3.314c-3.605,0.473-7.49,0.008-10.387-2.133v-0.002
			l-0.015-0.01h-0.001c-0.232-0.158-0.548-0.101-0.707,0.132c-0.156,0.23-0.097,0.546,0.135,0.707
			c0.772,0.568,1.42,1.282,1.99,2.051c-1.926,0.172-3.938-0.542-5.268-1.91c-0.082-0.081-0.191-0.147-0.313-0.177
			c-0.346-0.083-0.691,0.13-0.773,0.476c-0.254,1.019-0.391,2.063-0.475,3.112c-0.972-1.123-1.788-2.379-2.414-3.721
			c-0.064-0.138-0.177-0.258-0.324-0.331c-0.346-0.169-0.762-0.028-0.932,0.318c-0.664,1.356-0.645,2.749-0.837,3.921
			c-0.14,1.123-0.656,2.245-1.433,2.675c-0.789,0.414-1.674,0.09-2.199-0.896c-0.547-0.942-0.814-2.155-0.893-3.324v-0.013
			c-0.019-0.308-0.24-0.577-0.56-0.642c-0.379-0.078-0.751,0.166-0.829,0.545c-0.456,2.207-1.883,4.215-3.796,5.43l0.139-4.851
			c0.007-0.214-0.097-0.437-0.293-0.56c-0.291-0.183-0.681-0.095-0.866,0.2c-1.48,2.351-3.46,4.396-5.761,5.988
			c0.085-2.051,0.866-4.093,2.271-5.62l0.014-0.012c0.105-0.117,0.133-0.294,0.051-0.438c-0.101-0.181-0.329-0.247-0.514-0.146
			c-4.106,2.285-8.229,4.536-12.313,6.867c3.738-1.781,7.443-3.625,11.154-5.452C73.338,75.06,72.715,77.104,72.794,79.17"/>
		<path fill="#67B86B" d="M71.678,65.216l0.02,0.006c1.648,0.475,3.328-0.291,4.438-1.413c0.028-0.031,0.055-0.069,0.082-0.101
			c-0.092,0.727-0.158,1.455-0.162,2.186c0,0.226,0.111,0.448,0.316,0.579l0.03,0.018c0.339,0.212,0.856,0.224,1.169,0.081
			c0.329-0.128,0.545-0.314,0.73-0.495c0.38-0.372,0.596-0.795,0.793-1.107l1.25-2.039l1.189-2.004l0.026,1.355
			c0.013,0.625-0.004,1.313,0.356,2.095c0.176,0.379,0.556,0.805,1.057,0.955c0.503,0.171,1.042,0.037,1.404-0.166
			c0.742-0.407,1.144-1.065,1.473-1.624c0.339-0.584,0.61-1.199,0.811-1.836c0.145-0.451,0.212-0.919,0.286-1.382
			c1.22,2.072,3.729,3.332,5.981,2.787c-3.139,0.339-5.984-2.466-5.881-5.304h-0.001c-0.003-0.015,0.001-0.028,0-0.042l-0.003-0.028
			c-0.028-0.215-0.213-0.379-0.436-0.373c-0.231,0.006-0.418,0.203-0.412,0.438c0,0.013,0.006,0.024,0.006,0.041h-0.004
			c0.07,1.197-0.117,2.403-0.545,3.512c-0.416,1.052-1.104,2.272-1.865,2.698c-0.376,0.162-0.512,0.101-0.705-0.239
			c-0.182-0.375-0.211-0.987-0.194-1.615l-0.011-3.699v-0.041c0-0.235-0.12-0.464-0.335-0.596c-0.332-0.201-0.762-0.096-0.962,0.233
			l-2.495,4.081l-1.21,2.062c-0.154,0.261-0.279,0.469-0.407,0.643c0.081-1.707,0.415-3.404,1.014-5.01l0.007-0.014
			c0.118-0.321-0.039-0.681-0.359-0.805c-0.324-0.128-0.688,0.03-0.816,0.354c-0.002,0.003-0.004,0.007-0.004,0.013h-0.002
			c-0.533,1.35-1.034,2.675-1.927,3.685c-0.743,0.85-1.861,1.432-2.964,1.388c1.148-2.25,2.301-4.497,3.391-6.779
			c-1.49,2.288-2.916,4.617-4.347,6.94c-0.017,0.028-0.032,0.062-0.042,0.093C71.36,64.947,71.476,65.159,71.678,65.216"/>
		<path fill="#67B86B" d="M93.318,56.359c1.017,0.433,2.149,0.514,3.179,0.199c1.026-0.28,1.95-1.06,2.235-2.02
			c-0.777,0.618-1.633,0.823-2.455,0.886c-0.822,0.038-1.648-0.093-2.363-0.418c-1.51-0.645-2.723-1.962-4.065-3.391
			C90.14,53.538,91.335,55.452,93.318,56.359"/>
		<path fill="#67B86B" d="M64.03,94.839c0.516,0.038,0.992-0.149,1.366-0.367c1.164-0.637,2.256-1.395,3.305-2.209
			c-0.063,0.286-0.121,0.572-0.156,0.864c-0.008,0.33-0.174,0.835,0.348,1.458c0.27,0.284,0.736,0.376,1.044,0.293
			c0.31-0.071,0.512-0.201,0.685-0.326c0.359-0.28,0.523-0.459,0.787-0.702c0.478-0.454,0.937-0.932,1.379-1.423
			c0.1-0.107,0.185-0.226,0.281-0.337c-0.064,0.391-0.154,0.776-0.19,1.166c-0.041,0.833-0.138,1.472,0.025,2.492
			c0.077,0.502,0.557,1.229,1.31,1.334c0.784,0.096,1.28-0.314,1.612-0.62c0.348-0.336,0.599-0.697,0.812-1.099l0.51-1.021
			l1.022-2.031l0.281-0.559c-0.021,0.305-0.067,0.609-0.071,0.917c-0.003,0.833-0.035,1.596,0.096,2.501
			c0.078,0.44,0.207,0.909,0.53,1.344c0.324,0.436,0.896,0.74,1.468,0.698c1.174-0.135,1.737-0.979,2.184-1.688
			c0.404-0.751,0.713-1.496,0.977-2.279c0.438-1.3,0.652-2.663,0.693-4.024c1.318,1.671,3.365,2.71,5.433,2.73
			c-2.312-0.252-4.417-1.683-5.454-3.665c-0.043-0.081-0.124-0.137-0.221-0.141c-0.143-0.006-0.263,0.107-0.27,0.249v0.021
			c-0.063,1.567-0.404,3.107-0.939,4.563c-0.275,0.718-0.61,1.44-0.994,2.081c-0.364,0.6-0.963,1.167-1.443,1.152
			c-0.485,0.017-0.794-0.493-0.877-1.208c-0.074-0.678-0.025-1.521,0.015-2.283c0.11-1.553,0.313-3.103,0.688-4.616
			c0.068-0.284-0.063-0.587-0.332-0.729c-0.319-0.166-0.708-0.041-0.871,0.275l-0.007,0.012l-2.093,4.032l-1.048,2.017l-0.521,1.002
			c-0.142,0.266-0.339,0.53-0.541,0.715c-0.198,0.206-0.419,0.259-0.401,0.235c-0.021-0.017-0.077,0-0.133-0.239
			c-0.084-0.476-0.02-1.367,0.033-2.039c0.121-1.444,0.43-2.875,0.924-4.238c0.109-0.306,0.004-0.667-0.283-0.846
			c-0.329-0.211-0.766-0.114-0.976,0.214c-0.673,1.056-1.424,2.062-2.25,3.005c-0.411,0.472-0.839,0.928-1.287,1.365
			c-0.207,0.198-0.493,0.481-0.644,0.599c-0.006,0.004-0.009,0.005-0.014,0.01c-0.001-0.066,0-0.144,0.02-0.231
			c0.027-0.289,0.073-0.582,0.145-0.866c0.133-0.572,0.341-1.13,0.618-1.654c0.06-0.112,0.151-0.205,0.216-0.313
			c0.799-0.774,1.568-1.581,2.263-2.455c0.145-0.181,0.165-0.44,0.038-0.649c-0.164-0.262-0.511-0.344-0.776-0.181l-0.015,0.01
			c-1.182,0.732-2.176,1.765-2.837,2.993c-0.07,0.126-0.122,0.26-0.182,0.39c-1.302,1.245-2.729,2.368-4.271,3.309
			c-0.32,0.22-0.654,0.348-0.972,0.354c-0.293-0.016-0.381-0.114-0.284-0.459c0.301-0.714,0.68-1.487,1.044-2.216
			c0.754-1.469,1.565-2.911,2.438-4.321c-1.004,1.319-1.936,2.701-2.779,4.135c-0.424,0.728-0.828,1.416-1.224,2.204
			c-0.095,0.208-0.164,0.554,0,0.843C63.424,94.705,63.783,94.828,64.03,94.839"/>
		<path fill="#67B86B" d="M106.982,85.385c-0.127-0.169-0.279-0.32-0.418-0.478c2.135,0.099,4.27-0.436,5.995-1.567
			c-2.743,0.896-5.645,0.812-8.162-0.137c-0.293-0.154-0.6-0.281-0.908-0.396c-0.04-0.017-0.082-0.031-0.121-0.051
			c-0.021-0.006-0.041-0.017-0.06-0.025l-0.025-0.008c-0.335-0.112-0.707,0.045-0.857,0.375c-0.156,0.352,0,0.762,0.352,0.92
			c0.021,0.007,0.043,0.014,0.063,0.022v0.001c1.176,0.448,2.212,1.242,2.977,2.23c0.895,1.229,0.89,1.461-0.51,1.61
			c-1.265-0.037-2.727-0.189-4.082-0.304l-4.169-0.42c1.31,0.512,2.658,0.918,4.026,1.259c1.393,0.333,2.695,0.613,4.213,0.763
			c0.402,0.011,0.814-0.008,1.263-0.15c0.425-0.122,0.989-0.478,1.198-1.076c0.219-0.589,0.043-1.186-0.145-1.563
			C107.418,85.993,107.213,85.705,106.982,85.385"/>
		<path fill="#67B86B" d="M99.771,105.817c-0.563-0.233-1.072-0.661-1.407-1.172c-0.068-0.639-0.17-1.271-0.34-1.889l-0.001-0.013
			c-0.023-0.083-0.089-0.149-0.18-0.174c-0.131-0.031-0.264,0.048-0.296,0.18c-0.144,0.563-0.036,1.14,0.202,1.634
			c0.076,1.012,0.023,2.03-0.169,3.018c-0.139,0.743-0.353,1.471-0.641,2.165c-0.295,0.661-0.641,1.452-1.062,1.845
			c-0.229,0.184-0.364,0.197-0.564,0.097c-0.211-0.105-0.455-0.401-0.688-0.683c-0.46-0.574-0.833-1.215-1.121-1.888
			c-0.335-0.8-0.524-1.653-0.593-2.509c0.034-0.623,0.049-1.243,0.049-1.849v-0.02c0-0.304-0.227-0.566-0.535-0.601
			c-0.333-0.041-0.634,0.199-0.672,0.53c-0.002,0.023,0,0.047-0.002,0.072l-0.002-0.001c-0.006,0.118-0.013,0.234-0.017,0.353
			c-0.019,0.29-0.041,0.578-0.033,0.868c-0.066,1.323-0.199,2.61-0.657,3.761c-0.301,0.755-0.716,1.411-1.294,1.892
			c-0.584,0.48-1.31,0.817-2.038,0.914c-1.502,0.251-2.694-0.824-2.837-2.396c-0.223-1.571,0.175-3.369-0.2-5.318
			c-0.041-0.214-0.18-0.409-0.387-0.513c-0.359-0.184-0.796-0.04-0.979,0.32l-0.008,0.015c-1.451,2.854-3.569,5.387-6.161,7.287
			c-0.291,0.239-0.581,0.391-0.63,0.396c-0.025-0.042-0.063-0.16-0.08-0.299c-0.035-0.652,0.035-1.557,0.139-2.316
			c0.218-1.582,0.661-3.136,1.316-4.597c0.123-0.271,0.04-0.609-0.217-0.787c-0.287-0.202-0.685-0.13-0.882,0.158
			c-0.938,1.348-1.941,2.649-3.014,3.892c-0.537,0.62-1.094,1.226-1.667,1.811l-0.88,0.868c-0.292,0.281-0.631,0.614-0.742,0.614
			c-0.047,0.006-0.052,0.012-0.087-0.021c-0.043-0.04-0.096-0.177-0.115-0.332c-0.051-0.294,0.025-0.701,0.078-1.107
			c0.123-0.799,0.305-1.589,0.558-2.36c0.499-1.544,1.243-3.009,2.194-4.335l0.013-0.018c0.063-0.088,0.076-0.208,0.021-0.313
			c-0.077-0.15-0.258-0.21-0.409-0.133c-3.014,1.549-6.269,2.634-9.62,3.296c3.062-0.351,6.068-1.183,8.936-2.361
			c-0.784,1.112-1.461,2.307-1.918,3.594c-0.292,0.806-0.514,1.635-0.67,2.481c-0.063,0.412-0.179,0.833-0.129,1.37
			c0.034,0.257,0.088,0.541,0.309,0.827c0.218,0.302,0.665,0.47,1.028,0.387c0.721-0.201,0.92-0.586,1.256-0.833l0.929-0.858
			c0.612-0.584,1.204-1.185,1.778-1.804c0.326-0.35,0.63-0.721,0.942-1.084c-0.114,0.485-0.251,0.967-0.323,1.458
			c-0.115,0.885-0.213,1.645-0.169,2.653c0.032,0.265,0.083,0.555,0.273,0.874c0.18,0.324,0.606,0.628,1.034,0.643
			c0.877-0.003,1.223-0.45,1.559-0.647c2.133-1.535,3.982-3.46,5.436-5.656c-0.014,0.931-0.047,1.917,0.094,2.956
			c0.118,0.952,0.561,2.031,1.398,2.729c0.841,0.734,2.014,0.954,3.016,0.8c2.025-0.259,3.744-1.861,4.354-3.678
			c0.1-0.264,0.158-0.533,0.234-0.799c0.02,0.049,0.032,0.103,0.057,0.151c0.35,0.75,0.794,1.458,1.332,2.087
			c0.28,0.298,0.527,0.642,1.02,0.897c0.498,0.298,1.268,0.103,1.593-0.27c0.682-0.725,0.895-1.453,1.226-2.208
			c0.284-0.76,0.485-1.545,0.607-2.342c0.108-0.76,0.141-1.529,0.101-2.292c0.365,0.359,0.776,0.667,1.252,0.84
			c1.324,0.472,2.708,0.252,4.014,0.063C102.362,106.243,100.979,106.321,99.771,105.817"/>
		<path fill="#67B86B" d="M115.172,104.24c-0.013-0.01-0.022-0.022-0.037-0.032l-0.02-0.011c-0.313-0.203-0.736-0.13-0.967,0.175
			c-0.235,0.32-0.167,0.77,0.15,1.005c0.012,0.009,0.026,0.016,0.039,0.024v0.003c0.392,0.29,0.678,0.79,0.752,1.307
			c0.029,0.207-0.004,0.416-0.041,0.608c-1.071-0.828-2.228-1.639-3.453-2.332c0.864,1.233,1.792,2.339,2.829,3.423
			c0.143,0.134,0.521,0.471,1.089,0.33c0.53-0.18,0.684-0.539,0.801-0.772c0.206-0.468,0.248-0.938,0.21-1.407
			c-0.003-0.041-0.021-0.083-0.024-0.124c1.453,0.404,3.011,0.328,4.307-0.306c-2.18-0.018-4.133-0.694-5.632-1.895L115.172,104.24z
			"/>
		<path fill="#67B86B" d="M91.156,122.196c-1.455-0.564-2.61-2.158-2.234-3.533c0.043-0.162,0.01-0.343-0.105-0.482
			c-0.191-0.224-0.526-0.254-0.748-0.064l-0.064,0.051c-2.249,1.892-4.422,3.874-6.594,5.803c-0.527,0.436-1.077,0.723-1.465,0.657
			c-0.215-0.023-0.404-0.125-0.479-0.214c-0.066-0.084-0.106-0.188-0.069-0.458c0.313-1.251,0.809-2.786,1.182-4.173l0.009-0.025
			c0.066-0.252-0.016-0.534-0.231-0.713c-0.295-0.241-0.729-0.199-0.97,0.095c-1.695,2.056-3.611,3.976-5.697,5.631
			c-0.508,0.384-1.03,0.63-1.541,0.495c-0.514-0.127-0.995-0.578-1.344-1.117c-0.69-1.037-0.994-2.674-2.313-3.304
			c1.158,0.845,1.211,2.296,1.838,3.574c0.324,0.622,0.779,1.305,1.599,1.585c0.835,0.29,1.7-0.09,2.28-0.477
			c1.521-1.018,2.9-2.2,4.215-3.458c-0.157,0.525-0.313,1.062-0.469,1.649c-0.094,0.449-0.043,1.148,0.379,1.64
			c0.406,0.477,0.947,0.676,1.46,0.734c1.128,0.09,1.927-0.525,2.521-0.996c1.918-1.745,3.771-3.521,5.602-5.324
			c0.131,0.551,0.38,1.069,0.711,1.491c0.597,0.754,1.398,1.326,2.313,1.58c1.815,0.477,3.622,0.029,5.206-0.629
			C94.473,122.588,92.678,122.827,91.156,122.196"/>
		<path fill="#8D0F24" d="M74.222,66.643c1.852,0,3.626-1.629,3.541-3.541c-0.086-1.92-1.557-3.54-3.541-3.54
			c-1.852,0-3.627,1.626-3.54,3.54C70.766,65.021,72.235,66.643,74.222,66.643"/>
		<path fill="#8D0F24" d="M91.025,76.697c1.97,0,3.859-1.731,3.768-3.768c-0.092-2.041-1.655-3.767-3.768-3.767
			c-1.971,0-3.859,1.731-3.769,3.767C87.347,74.971,88.911,76.697,91.025,76.697"/>
		<path fill="#8D0F24" d="M73.616,85.488c-0.149-0.868-0.7-1.543-1.233-2.197c-1.1-1.355-3.41-1.439-4.827-0.624
			c-2.217,1.283-3.06,5.003-0.809,6.742c0.86,0.665,1.743,1.253,2.899,1.202c1.033-0.045,2.215-0.376,2.901-1.202
			C73.571,88.189,73.886,87.06,73.616,85.488"/>
		<path fill="#8D0F24" d="M104.34,64.416c5.771,0,5.782-8.97,0-8.97C98.566,55.446,98.559,64.416,104.34,64.416"/>
		<path fill="#8D0F24" d="M112.128,90.029c0.104-0.013,0.204-0.029,0.305-0.043c1.735-0.255,3.163-2.387,3.09-4.058
			c-0.075-1.692-1.232-3.785-3.09-4.057c-0.101-0.016-0.201-0.03-0.305-0.043c-1.501-0.222-3.031-0.113-4.138,1.092
			c-0.763,0.832-1.244,1.854-1.244,3.008c0,1.091,0.474,2.238,1.244,3.006C109.164,90.109,110.574,90.257,112.128,90.029"/>
		<path fill="#8D0F24" d="M88.488,103.484c1.887,0,3.694-1.659,3.605-3.607c-0.086-1.952-1.582-3.604-3.605-3.604
			c-1.886,0-3.695,1.658-3.606,3.604C84.97,101.833,86.467,103.484,88.488,103.484"/>
		<path fill="#8D0F24" d="M113.534,113.332c2.56,0,5.013-2.251,4.895-4.895c-0.119-2.651-2.149-4.894-4.895-4.894
			c-2.562,0-5.012,2.251-4.895,4.894C108.758,111.088,110.79,113.332,113.534,113.332"/>
		<path fill="#8D0F24" d="M68.832,123.834c5.533,0,5.543-8.599,0-8.599C63.298,115.235,63.288,123.834,68.832,123.834"/>
	</g>
	<rect x="9.862" y="12.472" fill="none" width="67.333" height="61.333"/>
	<text transform="matrix(1 0 0 1 9.8623 38.5225)" fill="#20442C" font-family="'Corben-Regular'" font-size="36">24</text>
</g>
</svg>
