<?xml version="1.0" encoding="utf-8"?>
<!-- Generator: Adobe Illustrator 16.0.3, SVG Export Plug-In . SVG Version: 6.00 Build 0)  -->
<!DOCTYPE svg PUBLIC "-//W3C//DTD SVG 1.1//EN" "http://www.w3.org/Graphics/SVG/1.1/DTD/svg11.dtd">
<svg version="1.1" xmlns="http://www.w3.org/2000/svg" xmlns:xlink="http://www.w3.org/1999/xlink" x="0px" y="0px" width="150px"
	 height="149.712px" viewBox="0 0 150 149.712" enable-background="new 0 0 150 149.712" xml:space="preserve">
<g id="Background">
</g>
<g id="Capa_3">
	<g id="_x32_1_1_">
		<g>
			<rect x="-146.037" y="0.167" fill-rule="evenodd" clip-rule="evenodd" fill="#20442C" width="305.265" height="148.945"/>
		</g>
	</g>
	<g>
		<path fill="#FFFFFF" d="M30.762-38.806C22.332-27.125,20.37-12.808,23.658,0.91c3.472,14.48,13.245,30.697,28.218,36.417
			c9.254,3.536,29.222,2.067,24.525-11.879C71.979,12.315,55.364,9.435,43.148,12.169C10.318,19.514-14.878,54.137-3.744,86.22
			c3.222,9.282,7.479,21.525,18.9,15.68c12.079-6.181,15.526-22.627,9.161-31.672C13.427,54.757-9.736,47.907-28.073,45.473
			c-17.226-2.287-28.134,7.202-36.064,23.567c-0.146,0.303,0.34,0.522,0.491,0.219c13.718-27.476,43.594-24.418,66.533-14.483
			c13.004,5.632,28.121,17.542,26.165,33.031c-0.869,6.877-11.369,14.56-19.3,14.979c-7.514,0.4-7.475-5.914-10.705-11.752
			c-13.055-23.597,0.56-53.641,21.57-68.133c10.464-7.219,24.52-13.139,37.633-10.775c4.178,0.752,8.351,2.592,11.595,5.248
			c1.31,1.073,2.554,2.421,3.571,3.752c3.169,4.148,2.394,4.688,0.893,9.694c-1.49,4.966-1.047,5.523-5.554,6.965
			c-1.995,0.637-4.146,0.938-6.249,1.002c-4.269,0.129-8.58-0.952-12.424-2.67C23.059,24.038,14.808-16.043,30.99-38.619
			C31.1-38.77,30.873-38.959,30.762-38.806"/>
		<path fill="#8D0F24" d="M142.276,98.992c-1.541,16.928-0.427,34.009,3.308,50.72c-18.339-1.553-36.642-3.361-54.9-5.421
			c-1.459-0.165-3.077-0.406-3.943-1.351c-0.859-0.938-0.66-2.22-0.424-3.365c2.865-13.867,5.73-27.731,8.596-41.598
			c0.103-0.502,0.222-1.032,0.637-1.421c0.589-0.552,1.592-0.662,2.502-0.727c14.604-1.03,29.44,0.044,43.569,3.154"/>
		<path fill="#A02545" d="M92.929,89.774c-0.374-0.005-0.922,0.673-1.167,1.547c-1.453,5.187-2.789,10.296-4.27,15.404
			c18.908,0.03,37.813,1.319,56.451,3.846c0.692-4.205,1.387-8.412,2.081-12.62C128.458,95.312,92.929,89.774,92.929,89.774"/>
		<path fill="#A02545" d="M53.09,113.049c1.109,12.237,0.308,24.584-2.384,36.663c13.218-1.122,26.412-2.429,39.572-3.919
			c1.053-0.119,2.218-0.292,2.844-0.977c0.618-0.677,0.476-1.605,0.305-2.432c-2.064-10.021-4.131-20.045-6.195-30.068
			c-0.074-0.362-0.16-0.745-0.46-1.028c-0.425-0.4-1.148-0.479-1.803-0.525c-10.526-0.744-21.222,0.031-31.406,2.28"/>
		<path fill="#8D0F24" d="M88.611,107.222c0.715-0.278,0.89,0.283,0.89,0.283c0.146,4.757,1.745,7.322,1.948,11.138
			c-13.629,0.023-26.126,0.95-39.561,2.778c-0.5-3.042-1.001-6.083-1.501-9.123C63.051,110.389,88.611,107.222,88.611,107.222"/>
		<path fill="#FFFFFF" d="M71.957,108.257c-2.294-1.872-5.41-2.995-8.316-3.61c-2.188-0.463-5.295-1.198-7.215,0.234
			c-0.108,0.082-0.13,0.29-0.053,0.397c1.211,1.651,2.998,2.244,5.031,2.488c2.939,0.352,6.314,0.507,9.245,0.064
			c0.229-0.036,0.15-0.349-0.052-0.366c-2.36-0.199-4.762-0.03-7.133-0.151c-0.798-0.041-7.282-0.825-5.783-2.377
			c0.506-0.524,2.911-0.072,3.554-0.001c1.19,0.134,2.367,0.366,3.52,0.676c2.506,0.675,4.641,1.854,6.932,2.983
			C71.899,108.7,72.16,108.424,71.957,108.257"/>
		<path fill="#FFFFFF" d="M71.18,108.356c1.877-2.979,3.197-6.213,6.032-8.531c0.667-0.546,1.399-1.027,2.176-1.417
			c0.217-0.109,1.983-1.061,2.441-0.865c1.287,0.552-0.569,3.068-1.068,3.628c-0.633,0.709-1.378,1.317-2.117,1.918
			c-3.084,2.507-6.234,4.239-9.956,5.706c-2.906,1.148-5.619,2.509-7.855,4.675c-1.373,1.328-3.641,3.506-2.746,5.585
			c0.76,1.769,3.589,3.269,5.443,3.583c1.512,0.257,3.704-0.493,3.56-2.299c-0.123-1.527-2.07-2.425-3.485-2.142
			c-2.583,0.516-3.946,3.598-4.764,5.691c-1.285,3.299-1.713,6.92-1.085,10.396c0.043,0.24,0.467,0.188,0.443-0.058
			c-0.246-2.702-0.203-5.368,0.481-8.017c0.614-2.377,1.742-5.882,4.069-7.263c1.048-0.622,2.044-0.56,3.028,0.133
			c1.419,0.646,1.195,1.656-0.672,3.026c-0.588,0.131-1.156,0.113-1.705-0.056c-1.093-0.242-2.273-0.948-3.186-1.57
			c-0.756-0.514-1.873-1.416-1.777-2.449c0.095-1.043,0.899-2.064,1.545-2.838c0.719-0.857,1.521-1.646,2.392-2.359
			c4.012-3.29,9.414-4.319,13.699-7.226c2.798-1.899,7.394-4.734,6.572-8.58c-0.04-0.182-0.237-0.243-0.404-0.22
			c-5.778,0.759-9.753,6.47-11.304,11.448C70.893,108.399,71.102,108.479,71.18,108.356"/>
		<path fill="#FFFFFF" d="M71.105,108.623c4.092,0.291,6.363,2.48,6.411,6.49c0.025,2.278-0.396,4.582,0.16,6.832
			c0.892,3.597,4.469,7.805,8.69,7.589c2.87-0.15,5.687-5.149,2.787-6.945c-1.235-0.765-2.859-0.313-3.762,0.702
			c-1.502,1.687-1.132,4.219-0.451,6.143c0.045,0.121,0.269,0.11,0.251-0.034c-0.222-1.817-1.161-7.067,2.516-6.729
			c1.98,0.182,2.194,2.264,1.643,3.767c-0.61,1.664-1.905,2.638-3.756,2.443c-4.334-0.458-7.278-5.094-7.489-8.938
			c-0.156-2.836,0.697-5.993-0.685-8.652c-1.166-2.247-3.827-3.439-6.369-3.04C70.821,108.288,70.898,108.609,71.105,108.623"/>
		<path fill="#FFFFFF" d="M115.064,92.699c0.63-3.174-2.863-5.83-5.064-7.675c-1.079-0.905-5.909-5.478-7.213-3.566
			c-1.169,1.712,2.209,5.119,3.352,6.132c2.796,2.482,6.317,3.095,9.749,4.398c0.292,0.111,0.472-0.333,0.211-0.478
			c-2.119-1.178-4.6-1.507-6.75-2.621c-2.172-1.128-3.987-2.866-5.182-4.944c-0.206-0.357-0.578-1.828,0.165-1.962
			c0.22-0.042,1.521,0.937,1.706,1.058c1.183,0.776,2.317,1.622,3.397,2.527c2.139,1.785,5.146,4.109,5.107,7.064
			C114.541,92.912,115.008,92.989,115.064,92.699"/>
		<path fill="#FFFFFF" d="M114.555,91.926c2.518-3.936,6.018-6.973,10.859-7.884c0.494-0.093,1.336-0.388,1.85-0.222
			c1.628,1.471,1.843,2.542,0.645,3.209c-0.289,0.246-0.61,0.445-0.963,0.599c-1.288,0.694-2.728,1.189-4.113,1.678
			c-2.599,0.914-5.268,1.58-7.988,2.054c-0.158,0.029-0.29,0.24-0.228,0.387c2.297,5.328-4.135,8.256-8.566,8.596
			c-1.163,0.09-2.414,0.146-3.545-0.174c-0.967-0.275-2.69-1.43-2.435-2.654c0.184-0.882,0.899-1.677,1.842-1.733
			c3.545-0.213,3.477,4.003,2.656,6.231c-0.862,2.332-2.263,4.47-4.034,6.258c-1.523,1.538-3.297,2.829-4.755,4.427
			c-2.021,2.22-3.486,5.373-1.924,8.194c0.107,0.192,0.445,0.061,0.369-0.15c-1.744-4.983,2.851-8.277,6.103-11.318
			c2.593-2.425,4.988-5.76,5.438-9.297c0.3-2.36-0.848-4.974-3.643-5.011c-2.296-0.031-3.415,2.14-2.243,4.001
			c1.686,2.68,6.039,2.103,8.702,1.556c3.102-0.636,6.079-2.398,6.938-5.508c0.241-0.882-0.215-2.823,0.208-3.322
			c0.363-0.429,2.811-0.589,3.509-0.77c1.276-0.331,2.533-0.714,3.772-1.148c2.15-0.752,6.941-1.921,6.704-4.877
			c-0.267-3.332-5.719-1.493-7.515-0.76c-3.469,1.416-6.626,4.066-8.067,7.465C114.027,91.995,114.422,92.133,114.555,91.926"/>
		<path fill="#FFFFFF" d="M113.956,91.97c4.978,3.166,8.637,7.746,9.685,13.494c1.035,5.67-1.898,11.47,0.639,16.953
			c1.722,3.719,6.234,6.576,10.475,4.844c3.181-1.302,4.798-5.613,2.352-8.246c-0.09-0.097-0.262,0.03-0.188,0.141
			c1.339,2.047,1.014,4.654-0.758,6.387c-2.013,1.966-5.312,1.773-7.642,0.462c-5.183-2.911-4.659-9.162-4.036-14.042
			c1.021-8.007-2.407-16.687-10.267-20.419C113.92,91.402,113.68,91.794,113.956,91.97"/>
	</g>
	<text transform="matrix(1 0 0 1 74.6787 69.6636)" fill="#FFFFFF" font-family="'Corben-Regular'" font-size="36">20</text>
</g>
</svg>
