<?xml version="1.0" encoding="utf-8"?>
<!-- Generator: Adobe Illustrator 16.0.3, SVG Export Plug-In . SVG Version: 6.00 Build 0)  -->
<!DOCTYPE svg PUBLIC "-//W3C//DTD SVG 1.1//EN" "http://www.w3.org/Graphics/SVG/1.1/DTD/svg11.dtd">
<svg version="1.1" xmlns="http://www.w3.org/2000/svg" xmlns:xlink="http://www.w3.org/1999/xlink" x="0px" y="0px"
	 width="148.849px" height="149.264px" viewBox="0 0 148.849 149.264" enable-background="new 0 0 148.849 149.264"
	 xml:space="preserve">
<g id="Background">
</g>
<g id="Capa_3">
	<g id="_x31_6_1_">
		<g>
			<rect fill-rule="evenodd" clip-rule="evenodd" fill="#8D0F24" width="148.849" height="305.466"/>
		</g>
	</g>
	<path fill="#A02545" d="M107.034,41.062c-2.812,4.537-6.32,8.642-10.369,12.121c-2.668,2.294-5.594,4.343-7.822,7.066
		c-2.23,2.724-3.713,6.354-2.866,9.77c1.356,5.488,7.676,7.911,13.173,9.229c5.498,1.319,11.838,2.995,14.149,8.155
		c2.549-9.063,14.017-12.163,19.501-19.815c2.113-2.946,3.277-6.638,2.868-10.243c-0.411-3.604-2.492-7.057-5.671-8.802
		c-2.881-1.58-6.303-1.68-9.563-2.071c-3.356-0.404-6.671-1.155-9.874-2.238c-1.715-0.581-3.767-2.014-3.106-3.699"/>
	<path fill="#A02545" d="M107.954,41.913c0.442-7.44,0.23-14.937,0.222-22.389c-0.005-6.195,0.511-12.553-0.798-18.642
		c-0.317-1.479-2.661-0.855-2.279,0.628c1.683,6.547,0.735,14.082,0.703,20.813c-0.03,6.525-0.209,13.074,0.154,19.59
		C106.029,43.198,107.878,43.198,107.954,41.913"/>
	<path fill="#A02545" d="M107.351,22.269c-0.408-3.934-3.512-6.173-6.926-7.669c-2.477-1.085-8.628-3.907-11.279-1.922
		c-2.198,1.644,0.017,3.635,1.502,4.623c2.047,1.365,4.402,2.395,6.776,3.026c2.493,0.665,6.052,0.021,8.255,1.157
		c0.858,0.443,1.563-0.765,0.755-1.293c-1.582-1.04-3.422-0.54-5.238-0.643c-2.417-0.133-8.463-1.037-9.95-3.27
		c-2.394-3.584,1.213-2.352,2.674-2.063c1.613,0.32,3.208,0.797,4.742,1.387c3.242,1.245,6.873,3.021,7.414,6.837
		C106.177,23.158,107.427,22.998,107.351,22.269"/>
	<path fill="#A02545" d="M108.118,20.771c1.623-1.681,3.069-3.465,4.91-4.933c1.085-0.867,7.751-5.802,8.047-2.251
		c0.237,2.835-4.42,5.297-6.508,5.988c-2.624,0.869-5.463,0.662-8.04,1.605c-0.445,0.161-0.534,0.871,0,0.994
		c3.997,0.927,9.395-0.366,12.649-2.838c1.997-1.515,4.734-4.85,3.959-7.645c-1.879-6.762-14.727,5.735-16.168,8.191
		C106.549,20.595,107.534,21.377,108.118,20.771"/>
	<path fill="#A02545" d="M106.955,21.792c-2.03,0.085-4.106,0.328-5.849,1.258c-1.796,0.847-2.917,2.548-3.188,4.46
		c-0.313,1.915-0.153,3.961-0.441,6.09c-0.32,2.141-1.233,4.165-2.525,5.883c-1.312,1.706-3.037,3.093-5.001,3.986
		c-1.962,0.88-4.193,1.266-6.331,0.856c-2.115-0.369-4.212-1.628-5.155-3.614c-0.927-1.904-0.91-4.415,0.554-5.944
		c-1.184,1.715-0.956,3.989,0.059,5.613c0.961,1.695,2.817,2.648,4.708,2.866c3.857,0.458,7.726-1.566,10.04-4.628
		c1.181-1.526,1.998-3.333,2.325-5.229c0.351-1.913,0.201-3.997,0.703-6.099c0.245-1.04,0.666-2.096,1.369-2.951
		c0.688-0.867,1.608-1.512,2.592-1.919C102.808,21.641,104.929,21.563,106.955,21.792"/>
	<path fill="#A02545" d="M105.725,21.659c-1.38,7.159-2.824,14.721-7.104,20.801c-5.514,7.827-15.578,12.281-24.894,9.504
		c-0.614-0.183-0.877,0.638-0.41,0.974c6.401,4.627,16.522,0.049,21.864-4.412c8.013-6.693,9.958-16.786,11.508-26.601
		C106.787,21.302,105.848,21.021,105.725,21.659"/>
	<path fill="#FFFEFF" d="M94.44,56.188c7.291,3.245,25.648-3.305,25.993-9.745c0.015-0.301-0.539-0.377-0.742-0.146
		c-2.484,2.815-5.048,5.047-9.038,6.812c-3.963,1.754-11.018,3.948-15.6,2.312C94.358,55.171,93.765,55.888,94.44,56.188"/>
	<path fill="#FFFEFF" d="M93.774,65.273c-0.047-0.116-0.093-0.234-0.141-0.351v0.871c0.647-1.786-1.706-3.2-3.025-1.883
		c-1.318,1.318,0.1,3.671,1.883,3.025h-0.869c0.117,0.047,0.233,0.094,0.35,0.141C92.963,67.471,94.17,66.263,93.774,65.273"/>
	<path fill="#FFFEFF" d="M103.707,62.854c-0.032-0.023-0.064-0.043-0.096-0.065c-0.398-0.279-1.093-0.279-1.491,0
		c-0.031,0.021-0.063,0.042-0.096,0.065c-1.301,0.908-0.897,3.104,0.842,3.104C104.606,65.958,105.013,63.764,103.707,62.854"/>
	<path fill="#FFFEFF" d="M111.087,62.394c1.671,0,1.674-2.598,0-2.598C109.415,59.796,109.412,62.394,111.087,62.394"/>
	<path fill="#FFFEFF" d="M120.173,58.214c0.026-0.06,0.053-0.121,0.079-0.182c0.361-0.846,0.224-1.684-0.581-2.219
		c-0.033-0.023-0.065-0.044-0.098-0.064c-0.4-0.267-1.045-0.267-1.445,0c-0.032,0.02-0.064,0.041-0.096,0.064
		c-0.799,0.531-0.945,1.37-0.583,2.219c0.026,0.061,0.053,0.122,0.079,0.182C117.957,59.219,119.744,59.219,120.173,58.214"/>
	<path fill="#FFFEFF" d="M125.823,53.02c0.201-0.432,0.392-0.778,0.354-1.265c-0.054-0.719-0.821-1.298-1.508-0.865
		c-0.418,0.264-0.603,0.547-0.83,0.97C123.129,53.175,125.203,54.344,125.823,53.02"/>
	<path fill="#FFFEFF" d="M91.512,76.424c16.136,0.475,34.509-6.523,43.891-19.787c0.352-0.496-0.419-1.04-0.844-0.631
		c-12.143,11.711-25.472,19.095-43.047,19.3C90.768,75.315,90.771,76.403,91.512,76.424"/>
	<path fill="#FFFEFF" d="M108.347,82.183c1.863,0,1.865-2.897,0-2.897S106.479,82.183,108.347,82.183"/>
	<path fill="#FFFEFF" d="M115.653,78.77c1.586,0,1.589-2.464,0-2.464C114.067,76.306,114.065,78.77,115.653,78.77"/>
	<path fill="#FFFEFF" d="M126.157,73.745c1.586,0,1.589-2.464,0-2.464C124.573,71.281,124.57,73.745,126.157,73.745"/>
	<path fill="#67B86B" d="M57.7,31.52c0.059,0.028,0.119,0.055,0.181,0.082c1.21,0.547,2.723-0.082,2.723-1.563
		c0-1.479-1.513-2.11-2.723-1.563c-0.062,0.027-0.122,0.054-0.181,0.083C56.576,29.066,56.576,31.013,57.7,31.52"/>
	<path fill="#67B86B" d="M80.943,26.711c1.008,0,1.009-1.566,0-1.566C79.938,25.145,79.935,26.711,80.943,26.711"/>
	<path fill="#67B86B" d="M72.267,15.148c1.288,0,2.523-1.133,2.463-2.463c-0.06-1.336-1.082-2.465-2.463-2.465
		c-1.289,0-2.523,1.134-2.464,2.465C69.862,14.019,70.885,15.148,72.267,15.148"/>
	<path fill="#67B86B" d="M20.026,36.018c1.288,0,2.523-1.133,2.463-2.463c-0.06-1.336-1.082-2.465-2.463-2.465
		c-1.289,0-2.523,1.134-2.464,2.465C17.622,34.888,18.645,36.018,20.026,36.018"/>
	<path fill="#67B86B" d="M46.566,65.044c1.288,0,2.523-1.133,2.463-2.463c-0.06-1.336-1.082-2.465-2.463-2.465
		c-1.289,0-2.523,1.134-2.464,2.465C44.162,63.915,45.185,65.044,46.566,65.044"/>
	<path fill="#67B86B" d="M20.026,69.618c1.288,0,2.523-1.133,2.463-2.463c-0.06-1.336-1.082-2.465-2.463-2.465
		c-1.289,0-2.523,1.134-2.464,2.465C17.622,68.488,18.645,69.618,20.026,69.618"/>
	<path fill="#67B86B" d="M51.497,100.425c1.288,0,2.523-1.133,2.463-2.463c-0.06-1.336-1.082-2.465-2.463-2.465
		c-1.289,0-2.523,1.134-2.464,2.465C49.093,99.296,50.115,100.425,51.497,100.425"/>
	<path fill="#67B86B" d="M22.492,138.489c1.288,0,2.523-1.133,2.463-2.463c-0.06-1.336-1.082-2.465-2.463-2.465
		c-1.289,0-2.523,1.134-2.464,2.465C20.088,137.359,21.11,138.489,22.492,138.489"/>
	<path fill="#67B86B" d="M46.691,11.675c-0.078-0.005-0.152-0.013-0.23-0.02c-1.909-0.166-1.912,3.137,0,2.971
		c0.078-0.007,0.152-0.015,0.23-0.02C48.573,14.441,48.575,11.84,46.691,11.675"/>
	<path fill="#67B86B" d="M96.014,92.436c0.072-0.017,0.145-0.033,0.216-0.048c1.587-0.355,1.588-2.855,0-3.211
		c-0.071-0.018-0.144-0.033-0.216-0.049c-1.079-0.243-2.17,0.506-2.17,1.654C93.844,91.924,94.933,92.677,96.014,92.436"/>
	<path fill="#67B86B" d="M86.723,103.869c0.297-0.349,0.478-0.665,0.646-1.089c0.431-1.092-0.891-2.414-1.981-1.982
		c-0.424,0.168-0.74,0.35-1.09,0.645C82.607,102.876,85.291,105.561,86.723,103.869"/>
	<path fill="#67B86B" d="M110.63,104.802c1.586,0,1.588-2.463,0-2.463C109.045,102.338,109.042,104.802,110.63,104.802"/>
	<path fill="#67B86B" d="M132.095,105.425c1.8,0,1.803-2.798,0-2.798C130.296,102.626,130.293,105.425,132.095,105.425"/>
	<path fill="#67B86B" d="M101.258,142.923c1.8,0,1.803-2.798,0-2.798C99.459,140.125,99.456,142.923,101.258,142.923"/>
	<path fill="#67B86B" d="M22.491,109.079c1.8,0,1.803-2.798,0-2.798C20.692,106.281,20.689,109.079,22.491,109.079"/>
	<path fill="#67B86B" d="M125.528,30.67c-0.034-0.037-0.066-0.075-0.1-0.112c0.145,0.248,0.289,0.496,0.434,0.742
		c0.003,0.204,0.011,0.206,0.025,0.012c0.077-0.689-0.556-1.38-1.182-1.55c-0.729-0.2-1.398,0.151-1.814,0.739
		c-0.481,0.675-0.402,1.528-0.032,2.228c0.478,0.903,1.729,1.069,2.496,0.478C126.192,32.559,126.196,31.438,125.528,30.67"/>
	<path fill="#67B86B" d="M131.639,8.519c1.692,0,1.695-2.631,0-2.631C129.946,5.888,129.942,8.519,131.639,8.519"/>
	<path fill="#67B86B" d="M134.379,35.065c1.179,0,1.181-1.832,0-1.832C133.201,33.233,133.198,35.065,134.379,35.065"/>
	<path fill="#FFFEFF" d="M104.958,36.699c-1.838,1.526-1.547,4.846-1.567,7.012c-0.019,1.79,6.64,1.796,6.622,0
		c-0.021-2.167,0.27-5.486-1.568-7.012C107.345,35.787,106.067,35.781,104.958,36.699"/>
	<text transform="matrix(1 0 0 1 32.4258 106.7939)" fill="#FFFEFF" font-family="'Corben-Regular'" font-size="48">16</text>
</g>
</svg>
